<?xml version="1.0" encoding="UTF-8"?><svg id="Layer_2" xmlns="http://www.w3.org/2000/svg" viewBox="0 0 416.76 457.55"><defs><style>.cls-1{fill:#f0f0f0;}.cls-2{opacity:.18;}.cls-3,.cls-4,.cls-5{fill:#fff;}.cls-6{fill:#f2998f;}.cls-7{fill:#fafafa;}.cls-8{opacity:.5;}.cls-4,.cls-9{opacity:.4;}.cls-10{fill:#f5f5f5;}.cls-11{fill:#262d38;}.cls-12{opacity:.02;}.cls-13,.cls-14{fill:#54d1de;}.cls-15{opacity:.2;}.cls-5,.cls-16{opacity:.1;}.cls-17{fill:#e0e0e0;}.cls-18{opacity:.35;}.cls-19{stroke-width:.18px;}.cls-19,.cls-20{fill:none;stroke:#e0e0e0;stroke-miterlimit:10;}.cls-21{fill:#e6e6e6;}.cls-22{fill:#455264;}.cls-23{opacity:.15;}.cls-24,.cls-14{opacity:.3;}.cls-20{stroke-width:.18px;}.cls-25{fill:#ebebeb;}.cls-26{fill:#37414f;}.cls-27{fill:#ffb1a7;}.cls-28{opacity:.25;}</style></defs><g id="Floor"><ellipse id="Floor-2" class="cls-10" cx="208.38" cy="335.13" rx="208.38" ry="122.42"/></g><g id="Shadows"><path id="Shadow" class="cls-17" d="M24.38,370.38c6.43,5.53,28.38,18.27,38.07,21.98,9.69,3.71,15.64,2.24,22.85-.04,7.21-2.28,14.81-6.45,20.71-9.72,9.81-5.44,25.77-13.72,16.64-18.52l-37.92-21.89c-6.32-3.65-37.58,1.83-43.89,5.48,0,0-12.87,5.38-17.83,9.13-4.97,3.75-5.55,7.62,1.37,13.58Z"/><polygon id="Shadow-2" class="cls-17" points="222.2 437.48 94.11 363.53 265.54 264.96 393.63 338.92 222.2 437.48"/><ellipse id="Shadow-3" class="cls-17" cx="126.06" cy="302.52" rx="74.15" ry="41.06"/><path id="Shadow-4" class="cls-17" d="M169.2,446.56l44.2-25.52c.63-.36,.63-.96,0-1.32l-69.23-39.97c-.63-.36-1.66-.36-2.29,0l-44.2,25.52c-.63,.36-.63,.96,0,1.32l69.23,39.97c.63,.36,1.66,.36,2.29,0Z"/></g><g id="Character"><g><g><path class="cls-11" d="M127.88,338.69c-.87,0-1.58-.71-1.58-1.58v-101.74c0-.87,.71-1.58,1.58-1.58s1.58,.71,1.58,1.58v101.74c0,.87-.71,1.58-1.58,1.58Z"/><path class="cls-11" d="M190.83,301.65c-.63,0-1.23-.38-1.47-1l-31.2-78.97c-.32-.81,.08-1.73,.89-2.05,.81-.32,1.73,.08,2.05,.89l31.2,78.97c.32,.81-.08,1.73-.89,2.05-.19,.08-.39,.11-.58,.11Z"/><path class="cls-11" d="M187.09,292.17c-.42,0-.84-.17-1.15-.5l-58.05-61.43-57.95,61.17c-.6,.64-1.6,.66-2.24,.06-.64-.6-.66-1.6-.06-2.24l59.1-62.39c.3-.32,.71-.49,1.15-.49h0c.43,0,.85,.18,1.15,.5l59.2,62.65c.6,.64,.57,1.64-.06,2.24-.31,.29-.7,.43-1.09,.43Z"/><path class="cls-11" d="M64.94,301.65c-.19,0-.39-.04-.58-.11-.81-.32-1.21-1.24-.89-2.05l31.2-78.97c.32-.81,1.24-1.22,2.05-.89,.81,.32,1.21,1.24,.89,2.05l-31.2,78.97c-.25,.62-.84,1-1.47,1Z"/><path class="cls-13" d="M188.68,289.73l4.12,10.89c.02,.09,.04,.19,.04,.28,0,.06,0,.13,0,.2-.04,.22-.32,.51-.62,.69-.69,.4-1.82,.4-2.51,0-.25-.15-.41-.33-.49-.51,0,0,0-.01,0-.02l-.03-.15-3.82-10.2,3.32-1.16Z"/><path class="cls-13" d="M67.09,289.73l-4.12,10.89c-.02,.09-.04,.19-.04,.28,0,.06,0,.13,0,.2,.04,.22,.32,.51,.62,.69,.69,.4,1.82,.4,2.51,0,.25-.15,.41-.33,.49-.51,0,0,0-.01,0-.02l.03-.15,3.82-10.2-3.32-1.16Z"/><path class="cls-13" d="M129.71,329.22v9c0,.27-.18,.54-.53,.74-.71,.41-1.87,.41-2.58,0-.36-.21-.53-.48-.53-.74v-9c1.22-.61,2.43-.61,3.65,0Z"/></g><g><path class="cls-13" d="M187.45,225.39c0-2.38-2.09-4.93-6.51-7.79-8.17-5.3-26.41-15.93-37.83-22.26-.02-.09-.1-.09-.1-.09-8.79-5.34-16.99-30.75-23.08-50.06-2.07-6.58-4.61-10.31-7.63-12.06-.71-.42-3.35-1.87-3.94-2.22-5.97-3.58-13.81,.72-23.57,6.06-8.99,4.92-16.02,11.22-17.43,27.94-.86,10.18-.04,29.63,2.03,44.37,0,0,0-.01,0-.01,2.99,24.63,6.67,24.67,12,28.79,9.18,7.09,29.86,17.06,38.57,20.49,15.81,6.22,28.72-3.37,38.35-8.12,9.63-4.75,21.46-12.17,25.51-15.11,2.41-1.75,3.66-3.52,3.63-5.38-.01-.74,0-3.77,0-4.54Z"/><path class="cls-28" d="M187.45,225.39c0-2.38-2.09-4.93-6.51-7.79-8.17-5.3-26.41-15.93-37.83-22.26-.02-.09-.1-.09-.1-.09-8.79-5.34-16.99-30.75-23.08-50.06-2.07-6.58-4.61-10.31-7.63-12.06-.71-.42-3.35-1.87-3.94-2.22-5.97-3.58-13.81,.72-23.57,6.06-8.99,4.92-16.02,11.22-17.43,27.94-.86,10.18-.04,29.63,2.03,44.37,0,0,0-.01,0-.01,2.99,24.63,6.67,24.67,12,28.79,9.18,7.09,29.86,17.06,38.57,20.49,15.81,6.22,28.72-3.37,38.35-8.12,9.63-4.75,21.46-12.17,25.51-15.11,2.41-1.75,3.66-3.52,3.63-5.38-.01-.74,0-3.77,0-4.54Z"/><path class="cls-13" d="M111.95,132.92c-5.92-3.1-13.6,1.12-23.11,6.33-6.09,3.34-11.28,7.3-14.44,14.7l-4.02-2.32c3.15-7.37,8.33-11.33,14.41-14.66,9.76-5.35,17.6-9.64,23.57-6.06,.52,.3,2.6,1.46,3.58,2.02Z"/><g><path class="cls-13" d="M180.94,217.59c-5.3-3.44-5.41-4.31-38.1-22.43,.09,.02,.13,.05,.15,.06-8.79-5.35-16.98-30.75-23.06-50.05-6.18-19.6-16.48-13.92-31.09-5.93-8.99,4.92-16.02,11.22-17.43,27.94-1.41,16.66,1.67,58.16,7.38,63.18,6.22,6.88,31.2,19.67,41.17,23.6,15.81,6.22,28.72-3.37,38.35-8.12,9.63-4.75,21.46-12.17,25.51-15.11,5.48-3.98,4.97-8.05-2.88-13.14Z"/><path class="cls-13" d="M142.99,195.23s0,0,.01,0c0,0,0,0-.01,0Z"/></g><g class="cls-16"><path d="M88.84,139.25c14.61-8,24.91-13.68,31.09,5.93,6.09,19.31,14.29,44.72,23.08,50.06,0,0-15.08-.01-36.93,11.79-22.72,12.27-26.19,24.27-27.23,23.4-5.74-4.76-8.85-46.52-7.44-63.23,1.41-16.72,8.44-23.02,17.43-27.94Z"/></g></g><g id="Character-2"><path class="cls-27" d="M185.29,196.64c-5.82,2.3-10.34,2.94-15.13-4.22-6.04-9.03-23.1-51.45-23.1-51.45l10.68-16.52c9.49,2.92,10.85,6.47,15.97,21.29,5.14,14.87,9.49,29.59,9.49,29.59"/><path class="cls-22" d="M157.13,124.17s4.79,.27,8.42,3.44c3.33,2.91,4.33,4.96,8.16,14.98,3.83,10.02,7.83,21.72,7.83,21.72,0,0-9.04,9.51-20.99,11.6-.25-1.14-7.64-40.54-7.64-40.54l4.22-11.2Z"/><g><g><path class="cls-27" d="M191.37,315.53s2.69,15.85,7.48,21.66c4.32,5.23,7.49,11.96,12.59,17.4,1.11,1.18,3.62,3.37,4.53,4.32,.81,.85,.98,1.87-.08,2.97-2.08,2.16-11.26,3.03-16.57-.62-5.31-3.65-10.66-10.79-13.86-13.78-1.6-1.49-3.11-2.92-4.21-3.97-1.06-1.01-1.51-2.5-1.2-3.92,.09-.41,.19-.88,.3-1.44,.59-3-3.83-15.02-3.83-15.02l14.84-7.59Z"/><g><path class="cls-11" d="M180.99,346.71s.03,1.72,.57,2.85c.55,1.13,3.24,2.76,4.95,3.51,1.71,.75,3.74,2.07,5.46,5.41,1.85,3.56,5.38,6.94,9.27,8.53,3.89,1.59,9.58,2.5,16.33,.99,6.75-1.51,7.13-5.54,7.13-5.54,0,0,.2-3.79-1.52-4.31-1.72-.52-42.2-11.44-42.2-11.44Z"/><path class="cls-22" d="M178.85,330.14c.89,4.13,.79,7.64,.68,9.77-.1,1.98-.07,5.1,1.45,6.8,2.12,2.69,6.46,3.41,9.35,7.09,2.89,3.68,7.21,10.36,16.2,11.75,8.98,1.39,15.62-1.73,17.16-4.33,1.54-2.6-.07-4.93-5.91-7.77-6.2-3.02-14.59-12.43-14.59-12.43-2.24-2.81-4.5-5.58-5.98-9.45l-2.33-6.87c-.51-1.34-10.06,1.78-11.03,3.73l1.3,6.11-2.6-5.74c-1.98,.01-2.42,.7-3.7,1.34Z"/><path class="cls-7" d="M200.68,363.67s-.39-6.23,6.19-9.95c6.57-3.72,10.74-1.68,12.86-.29,2.52,1.66,6.18,5.19,4.17,7.95-2.17,2.98-5.79,4.51-12.64,4.88-6.85,.37-10.57-2.59-10.57-2.59Z"/><g><path class="cls-7" d="M190.6,343.24c.24-.02,.46-.14,.6-.34,.72-1.09,5.44-5.28,10.21-4.16,.22-.56-.2-1.1-1.2-1.64-4.98-.23-9.46,3.7-10.32,5.02-.23,.35-.12,.8,.24,1.02,.15,.09,.31,.12,.47,.11Z"/><path class="cls-7" d="M204.26,342.17c-.11-.71-.9-1.44-1.41-1.59-4.72,.1-8.87,3.77-9.71,5.04-.23,.35-.12,.8,.24,1.02,.15,.09,.31,.12,.47,.11,.24-.02,.46-.14,.6-.34,.7-1.06,5.18-5.02,9.8-4.23Z"/><path class="cls-7" d="M199.2,335.56c.21-.85-.03-1.5-1-1.82-5.46-1.06-10.63,3.44-11.57,4.87-.23,.34-.12,.8,.24,1.02,.14,.09,.31,.12,.47,.11,.24-.02,.46-.14,.6-.35,.77-1.18,6.16-5.91,11.27-3.83Z"/><path class="cls-7" d="M212,349.5c-.43-.82-1.17-1.45-2.19-1.89-4.89-.12-9.27,3.73-10.12,5.03-.23,.35-.12,.8,.24,1.02,.15,.09,.31,.12,.47,.11,.24-.02,.46-.14,.6-.34,.76-1.16,5.97-5.74,11.01-3.92Z"/><path class="cls-7" d="M197.13,350.26c.24-.02,.46-.14,.6-.34,.71-1.08,5.33-5.17,10.05-4.19-.2-.69-.75-1.24-1.66-1.63-4.72,.1-8.87,3.77-9.71,5.04-.23,.35-.12,.8,.24,1.02,.15,.09,.31,.12,.47,.11Z"/></g></g><path class="cls-26" d="M90.31,202.23c-2.31,12.27-2.33,18.29,1.85,26.93,4.3,8.88,17.61,16.27,30.39,24,11.84,7.17,24.6,14.95,27.55,16.83,3.17,2.02,4.82,3.19,5.58,8.35,.9,6.04,3.98,15.68,10.67,28.2,7.64,14.28,10.63,21.44,10.63,21.44,0,0,9.31-3.29,16.39-6.45,0,0-14.06-58.43-17.09-66.27-3.03-7.84-33.98-32.35-33.98-32.35,0,0,2.68-12.72,4.68-21.99l-56.67,1.3Z"/></g><g><path class="cls-27" d="M230.96,300.74s4.51,12.93,8.03,18.95c3.36,5.75,7.35,11.75,12.37,17.09,1.09,1.16,3.56,3.31,4.45,4.25,.79,.84,.96,1.83-.08,2.91-2.05,2.12-11.05,2.97-16.27-.61-5.21-3.59-10.47-10.6-13.61-13.53-1.57-1.47-3.05-2.87-4.13-3.9-1.04-.99-1.49-2.45-1.17-3.85,.09-.4,.19-.86,.29-1.41,.58-2.94-3.76-14.75-3.76-14.75l13.89-5.14Z"/><path class="cls-26" d="M134.61,186.63c-1.43,9.27-1.82,14.5,1.64,23.75,3.46,9.24,11.36,23.88,24.56,30.88,10.92,5.79,25.1,12.89,28.15,14.6,2.73,1.53,4.89,3.57,6.09,10.24,1.08,6.01,4.4,12.82,11.67,25,7.67,12.87,10.65,19.93,10.65,19.93,4.9-2.34,11.28-5.12,15.95-6.26,0,0-16.8-57.38-19.82-65.22-3.03-7.84-23.9-19-32.87-23.9-8.96-4.9-13.98-7.96-24.23-14.57l-21.78-14.44Z"/><g><path class="cls-11" d="M221.32,328.97s.03,1.69,.56,2.8,3.18,2.71,4.86,3.45c1.68,.74,3.67,2.04,5.37,5.31,1.81,3.5,5.29,6.82,9.1,8.38,3.82,1.56,9.41,2.46,16.04,.97,6.63-1.48,7-5.44,7-5.44,0,0,.19-3.72-1.49-4.23-1.69-.51-41.44-11.23-41.44-11.23Z"/><path class="cls-22" d="M219.22,312.7c.88,4.05,.78,7.5,.67,9.59-.1,1.95-.07,5.01,1.43,6.68,2.08,2.64,6.34,3.35,9.19,6.96,2.84,3.61,7.08,10.17,15.9,11.54,8.82,1.37,15.34-1.7,16.85-4.25,1.51-2.56-.07-4.84-5.8-7.63-6.09-2.96-14.33-12.2-14.33-12.2-2.2-2.76-4.42-5.48-5.87-9.28l-1.93-6.37c-.5-1.31-10.05,1.37-11,3.28l1.31,5.83-2.76-5.44-3.66,1.29Z"/><path class="cls-7" d="M240.66,345.63s-.38-6.12,6.07-9.77c6.45-3.65,10.55-1.65,12.63-.28,2.48,1.63,6.07,5.09,4.09,7.8-2.13,2.93-5.69,4.43-12.41,4.79-6.73,.36-10.38-2.54-10.38-2.54Z"/><g><path class="cls-7" d="M230.76,325.56c.23-.02,.45-.14,.59-.34,.71-1.07,5.34-5.18,10.03-4.09,.21-.55-.2-1.08-1.17-1.61-4.89-.23-9.29,3.63-10.14,4.93-.22,.34-.12,.79,.24,1,.14,.09,.3,.12,.46,.11Z"/><path class="cls-7" d="M244.18,324.51c-.1-.7-.88-1.42-1.38-1.56-4.63,.1-8.71,3.7-9.53,4.95-.22,.34-.11,.79,.24,1,.14,.09,.3,.12,.46,.11,.23-.02,.45-.14,.59-.34,.69-1.04,5.08-4.93,9.63-4.16Z"/><path class="cls-7" d="M239.2,318.02c.21-.83-.03-1.47-.99-1.79-5.36-1.04-10.44,3.38-11.36,4.78-.22,.34-.11,.79,.24,1,.14,.09,.3,.12,.46,.11,.23-.02,.45-.14,.59-.34,.76-1.15,6.05-5.81,11.06-3.76Z"/><path class="cls-7" d="M251.77,331.71c-.42-.8-1.15-1.42-2.15-1.86-4.8-.11-9.1,3.66-9.94,4.94-.22,.34-.11,.79,.24,1,.14,.09,.3,.12,.46,.11,.23-.02,.45-.14,.59-.34,.74-1.13,5.87-5.64,10.81-3.85Z"/><path class="cls-7" d="M237.17,332.45c.23-.02,.45-.14,.59-.34,.7-1.06,5.24-5.08,9.87-4.12-.2-.68-.74-1.22-1.63-1.6-4.64,.1-8.71,3.7-9.53,4.95-.22,.34-.12,.79,.24,1,.14,.09,.3,.12,.46,.11Z"/></g></g></g><path class="cls-11" d="M152.91,212.26s-7.16,8.18-10.6,10.65l3.23,2.8s6.48-8.24,7.37-13.45Z"/><polygon class="cls-11" points="142.3 222.92 167.58 244.8 180.71 251.56 168.43 242.1 145.01 221.64 142.3 222.92"/></g><path class="cls-10" d="M107.22,131.43c-3.23,4.41-13.63,29.37-18.47,79.76,8.47,10.11,56.18,11.94,70.78-8.1,0,0-1.12-4.52-3.48-13.63,1.79-13.17,9.63-32.02,9.85-38.23,.25-6.86,3.03-22.14-8.77-27.06l-17.92-2.04-25.55,1.76c.16,0-2.53,2.23-6.43,7.55Z"/><g><g><g><path class="cls-26" d="M131.52,69.47s-4.86,.08-7.05,3.46c-1.91,2.94-2.29,10.57-1.27,19.05,1.02,8.49,2.32,13.68,3.23,16.11,.91,2.43,3.29,3.37,3.29,3.37l.96-9.8,.48-6.85s5.11-5.43,6.19-10.26c1.39-6.22,.38-8.96,.38-8.96l-6.22-6.11Z"/><path class="cls-26" d="M136.59,81.33c-1.21,10.08,5.99,19.23,16.07,20.44,10.08,1.21,19.23-5.99,20.44-16.07,1.21-10.08-5.99-19.23-16.07-20.44-10.08-1.21-19.23,5.99-20.44,16.07Z"/><path class="cls-27" d="M131.56,93.75c-1.82,1.22-2.7-2.63-3.91-4.24-1.21-1.61-5.47-4.12-8.28,.34-2.86,4.54,.66,11.63,3.84,13.61,4.65,2.89,7.47-1.81,7.47-1.81l-2.21,22.15s.79,4.29,8.87,8.31c6.3,3.13,16.44,.44,11.09-6.59l.79-6.7s5.43,1.5,8.18,1.41c4.57-.16,7.82-3.36,9.76-8.05,3.12-7.54,4.04-19.32,2.9-34.84-4.54-4.5-20.96-7.13-32.33-1.75-.88,13.54-4.36,16.95-6.18,18.17Z"/><path class="cls-13" d="M174.97,65.78c-.11-.28-.3-.54-.59-.58-.23-.03-.45,.08-.65,.19-.72,.4-2.34,1.45-4.33,2.2,.59-1.74,.84-3.6,.74-5.44-.06-1.13-.06-3.73-1.39-4.17-.79-.26-1.59,.33-2.27,.82-6.12,4.46-12.98,1.2-19.61,.6-5.55-.5-12.49,.92-15.65,5.99-1.44,2.32-1.96,4.88,.09,6.86,1.75,1.69,4.13,2.65,6.43,3.34,10.77,3.27,25.12,8.87,34.52-.39,1.38-1.36,2.42-2.9,2.84-4.8,.36-1.61,.38-3.01-.11-4.54,0-.02-.02-.05-.02-.07Z"/><path class="cls-15" d="M174.97,65.78c-.11-.28-.3-.54-.59-.58-.23-.03-.45,.08-.65,.19-.72,.4-2.34,1.45-4.33,2.2,.59-1.74,.84-3.6,.74-5.44-.06-1.13-.06-3.73-1.39-4.17-.79-.26-1.59,.33-2.27,.82-6.12,4.46-12.98,1.2-19.61,.6-5.55-.5-12.49,.92-15.65,5.99-1.44,2.32-1.96,4.88,.09,6.86,1.75,1.69,4.13,2.65,6.43,3.34,10.77,3.27,25.12,8.87,34.52-.39,1.38-1.36,2.42-2.9,2.84-4.8,.36-1.61,.38-3.01-.11-4.54,0-.02-.02-.05-.02-.07Z"/><path class="cls-6" d="M149.22,118.82s-9.78-3.22-13.06-5.5c-2.19-1.53-3.87-3.92-4.27-5.37,0,0,.3,3.05,2.07,5.98,2.17,3.58,14.93,7.56,14.93,7.56l.32-2.67Z"/></g><g><path class="cls-11" d="M153,95.12c-.14,1.15-1.15,1.98-2.26,1.84-1.11-.14-1.9-1.18-1.76-2.33,.14-1.15,1.15-1.98,2.26-1.84,1.11,.14,1.9,1.18,1.76,2.33Z"/><path class="cls-6" d="M150.98,109.46c-.14,1.15-1.15,1.98-2.26,1.84-1.11-.14-1.9-1.18-1.76-2.33,.14-1.15,1.15-1.98,2.26-1.84,1.11,.14,1.9,1.18,1.76,2.33Z"/><path class="cls-11" d="M151.39,86.02l-4.77,1.3c-.33-1.36,.48-2.75,1.79-3.11,1.32-.36,2.65,.45,2.97,1.81Z"/><path class="cls-11" d="M170.07,88.79l-4.58-1.96c.5-1.29,1.93-1.9,3.19-1.36,1.26,.54,1.88,2.03,1.38,3.32Z"/><path class="cls-11" d="M168.61,96.26c-.14,1.15-1.15,1.98-2.26,1.84-1.11-.14-1.89-1.18-1.76-2.33,.14-1.15,1.15-1.98,2.26-1.84,1.11,.14,1.9,1.18,1.76,2.33Z"/></g></g><path class="cls-15" d="M172.26,75.19c1.38-1.36,2.42-2.9,2.84-4.8,.36-1.61,.38-3.01-.11-4.54,.88,3.22-.24,8.07-7.64,10.31-7.4,2.24-16.1-.45-20.87-1.44-4.78-1-8.74,.87-8.74,.87,10.77,3.27,25.12,8.87,34.52-.39Z"/><g><path class="cls-26" d="M174.83,91.05c-.27-.06-.55-.12-.84-.17-2.7-.51-6.28-.89-8.51-.43-2.8,.58-3.86,1.4-5.36,1.29-1.6-.14-2.51-1.12-5.3-2.17-2.23-.83-6.06-1.06-9.03-1.01-.32,0-.63,.01-.92,.03-.51,.02-1.13,.63-1.19,1.39-.05,.76,.46,1.42,.67,1.78,.09,.16,.17,.39,.21,.71,.17,1.21,.09,3.5,.54,4.82,.18,.53,.45,1.18,.96,1.79,.16,.2,.34,.38,.53,.55,.1,.09,.2,.17,.32,.25,.28,.21,.59,.39,.96,.56,.05,.02,.11,.05,.16,.07,.08,.03,.17,.07,.26,.1,.09,.03,.18,.06,.27,.09,.27,.08,.57,.16,.88,.21,.12,.03,.25,.04,.38,.06,.15,.02,.31,.04,.48,.05,3.72,.32,5.48-1.29,6.62-3,1.14-1.71,1.21-4.26,2.92-4.12,.06,0,.11,.01,.16,.02,.05,0,.1,.02,.15,.04,1.23,.39,.8,2.7,1.4,4.44,.23,.67,.54,1.34,1,1.93,.08,.11,.16,.21,.26,.31,.05,.05,.09,.1,.14,.15,.05,.05,.1,.1,.15,.14,.04,.04,.09,.08,.14,.12,.08,.07,.11,.09,.15,.12,.04,.03,.08,.06,.12,.09,.03,.02,.05,.04,.08,.06,.4,.28,.86,.52,1.41,.7,.04,.01,.09,.03,.13,.04,.52,.16,1.11,.28,1.79,.33,3.49,.27,4.93-1.63,5.65-2.85,.72-1.22,1.21-3.47,1.63-4.64,.09-.26,.24-.45,.39-.59,.29-.27,.86-.92,.99-1.68,.13-.75-.29-1.49-.75-1.59Zm-18.66,5.21c-.24,.67-.7,1.64-1.59,2.39h0c-.9,.75-2.23,1.29-4.23,1.09-2.02-.2-3.09-1.12-3.68-2.14-.04-.06-.07-.13-.1-.19-.03-.06-.06-.12-.09-.19-.03-.06-.05-.12-.08-.17-.02-.05-.04-.1-.06-.16-.02-.04-.03-.08-.05-.12-.02-.04-.03-.08-.04-.11-.02-.06-.04-.13-.06-.19h0c-.05-.19-.1-.37-.13-.54,0,0,0,0,0-.01-.02-.11-.04-.22-.06-.32-.03-.19-.05-.36-.07-.52,0-.03,0-.07-.01-.1,0-.03,0-.06-.01-.09-.14-1.27-.18-3.76,.52-4.26,.68-.48,2.47-.94,5.21-.44,.09,.01,.19,.03,.29,.05,.42,.08,.83,.19,1.24,.32,.16,.05,.32,.1,.48,.16,.42,.15,.82,.32,1.19,.49,.13,.06,.25,.12,.36,.18,.14,.07,.26,.15,.39,.22,.03,.02,.05,.03,.08,.05,.05,.03,.1,.06,.14,.09,.36,.24,.62,.49,.75,.72,.46,.81,.1,2.42-.38,3.79Zm16.22,.8c-.33,.96-1.05,3.03-3.1,3.79-.59,.22-1.29,.33-2.11,.27-2.2-.14-3.33-1.14-3.92-2.22,0,0,0-.01,0-.02-.02-.04-.04-.08-.06-.12-.02-.05-.05-.1-.07-.14-.01-.02-.02-.05-.03-.07-.03-.07-.06-.14-.08-.21-.03-.08-.06-.16-.08-.24-.01-.04-.03-.08-.04-.12,0-.02-.01-.04-.02-.07,0-.03-.02-.07-.03-.1,0-.03-.01-.05-.02-.08-.09-.35-.13-.68-.15-.96-.12-1.41-.07-3.05,.54-3.77,.61-.73,2.76-1.4,4.76-1.48,.46-.02,.89-.01,1.28,.01,.05,0,.1,0,.15,.01,.06,0,.11,0,.16,.01,.15,.01,.3,.03,.44,.05,.05,0,.11,.01,.16,.02,.07,.01,.14,.02,.21,.03,.12,.02,.23,.04,.34,.07,.22,.05,.43,.1,.62,.16,.05,.02,.1,.03,.15,.05,.01,0,.02,0,.04,.01,.03,.01,.07,.02,.1,.04,.05,.02,.1,.04,.15,.06,.06,.02,.12,.05,.18,.07,.1,.05,.2,.09,.29,.14,.02,0,.03,.02,.05,.03,.29,.16,.5,.32,.63,.48,.53,.6-.1,3.03-.52,4.26Z"/><path class="cls-26" d="M144.98,88.86l-19.7-1.15c1.41,.64,1.97,1.22,2.73,2.36l16.41,1.14,.56-2.35Z"/></g><path class="cls-6" d="M158.82,94.34l-.9,10.5,6.85-1.51-5.18-9.41c-.35,.04-.7,.33-.77,.42Z"/></g></g></g><g><polygon class="cls-22" points="224.06 321.03 106.93 253.4 263.68 163.28 380.8 230.9 224.06 321.03"/><polygon class="cls-11" points="106.93 253.4 106.93 360.83 113.1 364.39 113.1 274.06 217.89 334.56 217.89 424.89 224.06 428.45 224.06 321.03 106.93 253.4"/><polygon points="113.1 364.39 119.26 360.83 119.26 277.61 113.1 274.06 113.1 364.39"/><polygon class="cls-26" points="224.06 428.45 230.22 424.89 230.22 334.56 374.64 251.55 374.64 341.89 380.81 338.33 380.8 230.9 224.06 321.03 224.06 428.45"/><polygon class="cls-11" points="374.64 341.89 368.48 338.33 368.48 255.11 374.64 251.55 374.64 341.89"/></g><g><g><path class="cls-15" d="M254.72,219.83c-.43,0-.84-.1-1.17-.29l-31.75-18.28c-.44-.26-.7-.66-.7-1.1s.26-.84,.7-1.1l41.09-23.74,34.82,20.05-41.83,24.17c-.32,.19-.74,.29-1.17,.29Z"/><g><g><path class="cls-13" d="M264.2,175.57l-40.9,21.97-.67,1.06v.85c0,.42,.24,.81,.67,1.06l30.49,17.56c.31,.18,.71,.28,1.12,.28s.81-.1,1.12-.28l40.17-23.21v-.85l-32-18.43Z"/><path class="cls-15" d="M264.2,175.57l-40.9,21.97-.67,1.06v.85c0,.42,.24,.81,.67,1.06l30.49,17.56c.31,.18,.71,.28,1.12,.28s.81-.1,1.12-.28l40.17-23.21v-.85l-32-18.43Z"/><path class="cls-13" d="M254.91,217.49c-.41,0-.81-.1-1.12-.28l-30.49-17.56c-.43-.25-.67-.63-.67-1.06s.24-.81,.67-1.06l39.47-22.8,33.44,19.26-40.17,23.21c-.31,.18-.71,.28-1.12,.28Z"/></g><g><path class="cls-10" d="M262.76,172.25l-39.11,22.6-.32,.44v3.31h0c0,.16,.11,.32,.32,.44l30.49,17.56c.42,.24,1.11,.24,1.53,0l39.11-22.6v-3.31l-32.02-18.44Z"/><path class="cls-25" d="M294.79,190.69l-.39,.22-5.02,2.9-.93,.54-32.77,18.93c-.42,.24-1.11,.24-1.53,0l-30.49-17.56c-.42-.24-.42-.64,0-.89l.41-.24,38.7-22.36,31.64,18.22,.09,.06,.29,.17Z"/><path class="cls-17" d="M254.91,213.47v3.31c-.28,0-.56-.06-.76-.18l-30.49-17.56c-.21-.12-.32-.28-.32-.44v-3.31c0,.16,.11,.32,.32,.44l30.49,17.56c.21,.12,.49,.18,.76,.18Z"/></g><path class="cls-7" d="M294.79,190.25l-5.56,3.21-.87,.5-32.68,18.89c-.42,.24-1.11,.24-1.53,0l-25.99-14.96c-.35-.19-.67-.38-.97-.56-1.57-.96-2.51-1.81-3.12-2.72-.02-.04-.05-.07-.07-.11-.05-.07-.08-.15-.1-.23-.07-.34,.16-.67,.54-.78,.75-.22,1.88-.62,2.91-1.21,.01,0,.02-.01,.04-.02l35.39-20.45,32.03,18.44Z"/><g><g><path class="cls-16" d="M289.04,189.86c-.39,.23-.39,.6,0,.83,.39,.23,1.03,.23,1.43,0,.4-.23,.4-.6,0-.83-.4-.23-1.04-.23-1.43,0Z"/><path class="cls-13" d="M293.64,187.17c-.55-.32-1.23-.27-1.93,.13-1.08,.63-2.01,2.02-2.42,3.48,.16,.05,.35,.07,.53,.06,.38-1.3,1.2-2.53,2.16-3.09,.31-.18,.61-.27,.88-.27,.19,0,.36,.05,.52,.13,.46,.27,.73,.91,.73,1.77,0,.14,0,.28-.02,.43l.5,.29c.04-.24,.05-.48,.05-.72,0-1.06-.36-1.87-.99-2.23Z"/><path class="cls-11" d="M294.53,190.4s-.01,.08-.02,.12l-.09-.06,.12-.07Z"/></g><g><path class="cls-16" d="M284.72,187.37c-.39,.23-.39,.6,0,.83,.39,.23,1.03,.23,1.43,0,.4-.23,.4-.6,0-.83-.4-.23-1.04-.23-1.43,0Z"/><path class="cls-13" d="M289.32,184.68c-.55-.31-1.23-.27-1.93,.13-1.08,.63-2.01,2.02-2.42,3.48,.16,.05,.35,.07,.53,.06,.38-1.3,1.2-2.53,2.16-3.09,.31-.18,.61-.27,.88-.27,.19,0,.36,.05,.52,.13,.46,.27,.73,.91,.73,1.77,0,.14,0,.28-.02,.43l.5,.29c.04-.24,.05-.48,.05-.72,0-1.05-.36-1.87-.99-2.23Z"/></g><g><path class="cls-16" d="M280.41,184.87c-.39,.23-.39,.6,0,.83,.39,.23,1.03,.23,1.43,0,.4-.23,.4-.6,0-.83-.4-.23-1.04-.23-1.43,0Z"/><path class="cls-13" d="M285.01,182.19c-.55-.32-1.23-.27-1.93,.13-1.08,.63-2.01,2.02-2.42,3.48,.16,.05,.35,.07,.53,.06,.38-1.3,1.2-2.53,2.16-3.09,.31-.18,.61-.27,.88-.27,.19,0,.36,.05,.52,.13,.46,.27,.73,.91,.73,1.77,0,.14,0,.28-.02,.43l.5,.29c.04-.24,.05-.48,.05-.72,0-1.06-.36-1.87-.99-2.23Z"/></g><g><path class="cls-16" d="M276.09,182.38c-.39,.23-.39,.6,0,.83,.39,.23,1.03,.23,1.43,0,.4-.23,.4-.6,0-.83-.4-.23-1.04-.23-1.43,0Z"/><path class="cls-13" d="M280.69,179.7c-.55-.32-1.23-.27-1.93,.13-1.08,.63-2.01,2.02-2.42,3.48,.16,.05,.35,.07,.53,.06,.38-1.3,1.2-2.53,2.16-3.09,.31-.18,.61-.27,.88-.27,.19,0,.36,.05,.52,.13,.46,.27,.73,.91,.73,1.77,0,.14,0,.28-.02,.42l.5,.29c.04-.24,.05-.48,.05-.72,0-1.06-.36-1.87-.99-2.23Z"/></g><g><path class="cls-16" d="M271.78,179.89c-.39,.23-.39,.6,0,.83,.39,.23,1.03,.23,1.43,0,.4-.23,.4-.6,0-.83-.4-.23-1.04-.23-1.43,0Z"/><path class="cls-13" d="M276.38,177.21c-.55-.32-1.23-.27-1.93,.13-1.08,.63-2.01,2.02-2.42,3.48,.16,.05,.35,.07,.53,.06,.38-1.3,1.2-2.53,2.16-3.09,.31-.18,.61-.27,.88-.27,.19,0,.36,.05,.52,.13,.46,.27,.73,.91,.73,1.77,0,.14,0,.28-.02,.43l.5,.29c.04-.24,.05-.48,.05-.72,0-1.06-.36-1.87-.99-2.23Z"/></g><g><path class="cls-16" d="M267.46,177.4c-.39,.23-.39,.6,0,.83,.39,.23,1.03,.23,1.43,0,.4-.23,.4-.6,0-.83-.4-.23-1.04-.23-1.43,0Z"/><path class="cls-13" d="M272.06,174.72c-.55-.31-1.23-.27-1.93,.13-1.08,.63-2.01,2.02-2.42,3.48,.16,.05,.35,.07,.53,.06,.38-1.3,1.2-2.53,2.16-3.09,.31-.18,.61-.27,.88-.27,.19,0,.36,.05,.52,.13,.46,.27,.73,.91,.73,1.77,0,.14,0,.28-.02,.42l.5,.29c.04-.24,.05-.48,.05-.72,0-1.06-.36-1.87-.99-2.23Z"/></g><g><path class="cls-16" d="M263.15,174.91c-.39,.23-.39,.6,0,.83,.39,.23,1.03,.23,1.43,0,.4-.23,.4-.6,0-.83-.4-.23-1.04-.23-1.43,0Z"/><path class="cls-13" d="M267.75,172.23c-.55-.32-1.23-.27-1.93,.13-1.08,.63-2.01,2.02-2.42,3.48,.16,.05,.35,.07,.53,.06,.38-1.3,1.2-2.53,2.16-3.09,.31-.18,.61-.27,.88-.27,.19,0,.36,.05,.52,.13,.46,.27,.73,.91,.73,1.77,0,.14,0,.28-.02,.42l.5,.29c.04-.24,.05-.48,.05-.72,0-1.05-.36-1.87-.99-2.23Z"/></g></g><g class="cls-24"><path d="M293.64,187.17c-.55-.32-1.23-.27-1.93,.13-1.08,.63-2.01,2.02-2.42,3.48,.16,.05,.35,.07,.53,.06,.38-1.3,1.2-2.53,2.16-3.09,.31-.18,.61-.27,.88-.27,.19,0,.36,.05,.52,.13,.46,.27,.73,.91,.73,1.77,0,.14,0,.28-.02,.43l.5,.29c.04-.24,.05-.48,.05-.72,0-1.06-.36-1.87-.99-2.23Z"/><path d="M289.32,184.68c-.55-.31-1.23-.27-1.93,.13-1.08,.63-2.01,2.02-2.42,3.48,.16,.05,.35,.07,.53,.06,.38-1.3,1.2-2.53,2.16-3.09,.31-.18,.61-.27,.88-.27,.19,0,.36,.05,.52,.13,.46,.27,.73,.91,.73,1.77,0,.14,0,.28-.02,.43l.5,.29c.04-.24,.05-.48,.05-.72,0-1.05-.36-1.87-.99-2.23Z"/><path d="M285.01,182.19c-.55-.32-1.23-.27-1.93,.13-1.08,.63-2.01,2.02-2.42,3.48,.16,.05,.35,.07,.53,.06,.38-1.3,1.2-2.53,2.16-3.09,.31-.18,.61-.27,.88-.27,.19,0,.36,.05,.52,.13,.46,.27,.73,.91,.73,1.77,0,.14,0,.28-.02,.43l.5,.29c.04-.24,.05-.48,.05-.72,0-1.06-.36-1.87-.99-2.23Z"/><path d="M280.69,179.7c-.55-.32-1.23-.27-1.93,.13-1.08,.63-2.01,2.02-2.42,3.48,.16,.05,.35,.07,.53,.06,.38-1.3,1.2-2.53,2.16-3.09,.31-.18,.61-.27,.88-.27,.19,0,.36,.05,.52,.13,.46,.27,.73,.91,.73,1.77,0,.14,0,.28-.02,.42l.5,.29c.04-.24,.05-.48,.05-.72,0-1.06-.36-1.87-.99-2.23Z"/><path d="M276.38,177.21c-.55-.32-1.23-.27-1.93,.13-1.08,.63-2.01,2.02-2.42,3.48,.16,.05,.35,.07,.53,.06,.38-1.3,1.2-2.53,2.16-3.09,.31-.18,.61-.27,.88-.27,.19,0,.36,.05,.52,.13,.46,.27,.73,.91,.73,1.77,0,.14,0,.28-.02,.43l.5,.29c.04-.24,.05-.48,.05-.72,0-1.06-.36-1.87-.99-2.23Z"/><path d="M272.06,174.72c-.55-.31-1.23-.27-1.93,.13-1.08,.63-2.01,2.02-2.42,3.48,.16,.05,.35,.07,.53,.06,.38-1.3,1.2-2.53,2.16-3.09,.31-.18,.61-.27,.88-.27,.19,0,.36,.05,.52,.13,.46,.27,.73,.91,.73,1.77,0,.14,0,.28-.02,.42l.5,.29c.04-.24,.05-.48,.05-.72,0-1.06-.36-1.87-.99-2.23Z"/><path d="M267.75,172.23c-.55-.32-1.23-.27-1.93,.13-1.08,.63-2.01,2.02-2.42,3.48,.16,.05,.35,.07,.53,.06,.38-1.3,1.2-2.53,2.16-3.09,.31-.18,.61-.27,.88-.27,.19,0,.36,.05,.52,.13,.46,.27,.73,.91,.73,1.77,0,.14,0,.28-.02,.42l.5,.29c.04-.24,.05-.48,.05-.72,0-1.05-.36-1.87-.99-2.23Z"/></g></g><g><path class="cls-20" d="M283.11,190.55l-30.56,17.62c-.42,.24-.37,.67,.12,.96l1.81,1.05c.49,.28,1.23,.31,1.66,.07l30.56-17.62c.42-.24,.37-.67-.12-.96l-1.81-1.05c-.49-.28-1.23-.31-1.66-.07Z"/><line class="cls-20" x1="253.57" y1="209.65" x2="285.67" y2="191.14"/><path class="cls-19" d="M229.13,194.54l30.45-17.55c.46-.26,1.2-.26,1.65,0l19.94,11.55c.46,.26,.45,.69,0,.95l-30.45,17.55c-.46,.26-1.2,.26-1.65,0l-19.94-11.55c-.46-.26-.45-.69,0-.95Z"/><line class="cls-19" x1="248.09" y1="206.48" x2="280.19" y2="187.98"/><line class="cls-19" x1="246.29" y1="205.44" x2="278.39" y2="186.93"/><line class="cls-19" x1="244.49" y1="204.39" x2="276.59" y2="185.89"/><line class="cls-19" x1="242.69" y1="203.35" x2="274.79" y2="184.85"/><line class="cls-19" x1="240.89" y1="202.31" x2="272.99" y2="183.81"/><line class="cls-19" x1="239.09" y1="201.26" x2="271.18" y2="182.76"/><line class="cls-19" x1="237.28" y1="200.22" x2="269.38" y2="181.72"/><line class="cls-19" x1="235.48" y1="199.18" x2="267.58" y2="180.68"/><line class="cls-19" x1="233.68" y1="198.14" x2="265.78" y2="179.63"/><line class="cls-19" x1="231.88" y1="197.09" x2="263.98" y2="178.59"/><line class="cls-19" x1="230.08" y1="196.05" x2="262.17" y2="177.55"/></g><g class="cls-8"><path d="M260.21,200.5c.01,.09,.11,.09,.12,0,.05-.37,.27-.54,.62-.56,.23-.01,.49-.04,.71,.02,.04,.01,.07-.02,.08-.06,.07-.21,.08-.45,.2-.64,.16,.12,.37,.26,.51,.06,.15-.22,.03-.92,.44-.52,.04,.04,.08,.04,.11-.01,.23-.36,.48-.38,.67-.15,.05,.14,.11,.27,.18,.36,.07,.09,.13-.04,.11-.11-.03-.1-.06-.21-.1-.31-.03-.29,.04-.71,.21-.83,.39-.28,.85,.39,.91,.7h0s0,.02,0,.03c.03,.14,.19,.07,.16-.06,0-.01,0-.03,0-.04-.07-.27,0-.69,.14-.92,.21-.36,.48-.18,.71,.09,.07,.08,.12-.02,.12-.09,0-.44,.35-1.06,.76-.53,.05,.07,.12,0,.14-.05,.05-.17,.09-.35,.13-.52,.03-.12,.07-.24,.11-.36,.02-.18,.08-.2,.18-.06,.15,.09,.26,.34,.47,.32,.28-.03,.32-.42,.31-.69,.17,.09,.37,.17,.53,.07,.16-.1,.21-.36,.24-.55,.14,.12,.3,.25,.47,.14,.17-.11,.24-.42,.28-.64,.21,.08,.35,.19,.47,.4,.04,.08,.1-.01,.1-.06,.02-.21-.06-.58,.05-.76,.22-.38,.69,.29,.78,.53,.05,.12,.19,.09,.18-.04-.01-.39-.11-1.59,.51-1.53,.1,0,.2,.05,.3,.11-.19,.65,.11,1.4,.77,1.67,.05,.02,.09,0,.11-.05,.21-.53-.16-1.31-.63-1.74,.05-.08,.11-.17,.18-.24,.22-.21,.52-.07,.71-.29,.12-.15,.05-.17,.24-.3,.19-.13,.24-.08,.41,.06,.08,.07,.14,.15,.2,.24,.05,.08,.12,0,.13-.07,.02-.17,.03-.52,.24-.58,.18-.05,.39,.15,.51,.26,.06,.05,.12,.02,.14-.05,.03-.1,.03-.21,.04-.32,0-.07,0-.15,.03-.22,.06-.17,.32-.47,.45-.02,.04,.13,.18,.09,.18-.03,0-.33,.1-.68,.33-.91,.12-.12,.27-.22,.45-.23,0,0,0,0,0,0-.02,.06-.04,.12-.05,.2-.01,.23,.09,.6,.34,.67,.22,.06,.4-.14,.45-.34,.07-.28-.1-.53-.34-.67-.01,0-.02-.01-.04-.02,.16-.11,.35-.18,.52-.24,.14-.05,.33-.09,.45-.18,.05-.04,.1-.18,.14-.2,.4-.22,.2,.05,.4,.05,.38-.02,.55-.2,.64-.51,.33,.33,.61-.17,.72-.54,.14,.2,.31,.52,.55,.58,.24,.06,.47-.17,.63-.31,0,0,0-.03,0-.02-.22,.16-.46,.35-.71,.15-.18-.14-.31-.4-.45-.59-.03-.03-.06,0-.07,.03-.06,.25-.33,.93-.65,.47-.04-.06-.09-.01-.1,.04-.1,.4-.29,.51-.68,.41-.16-.04-.19-.07-.33,.02-.1,.06-.13,.2-.24,.26-.06,.03-.13,.05-.19,.07-.18,.06-.36,.12-.53,.21-.11,.06-.21,.13-.3,.21-.58-.13-1,.47-1.11,1.04-.13-.13-.31-.19-.5-.05-.2,.15-.18,.46-.2,.71-.17-.15-.4-.29-.61-.18-.19,.1-.24,.34-.26,.55-.21-.25-.53-.46-.79-.18-.2,.21,.2,.19-.4,.4-.08,.03-.16,0-.24,.03-.17,.07-.31,.26-.4,.41-.01,.02-.02,.05-.03,.07-.07-.05-.15-.1-.22-.13-.83-.36-.9,.67-.89,1.35-.17-.26-.42-.52-.68-.5-.39,.03-.32,.59-.27,.96-.12-.14-.26-.24-.45-.32-.04-.01-.07,.02-.08,.05-.04,.14-.04,.32-.1,.45-.14,.33-.37,.21-.55,.03-.03-.03-.07,0-.08,.04-.03,.16-.06,.49-.24,.57-.17,.07-.39-.12-.51-.21-.06-.04-.11,.03-.11,.08,0,.24,.07,.75-.37,.51-.14-.08-.22-.25-.38-.33-.03-.02-.07-.01-.1,.02-.21,.32-.23,.67-.33,1.03-.44-.5-.88,.05-.93,.61-.22-.24-.53-.43-.8-.12-.18,.2-.24,.47-.25,.74-.23-.36-.58-.65-.96-.49-.34,.14-.41,.51-.37,.88-.03-.02-.06-.03-.09-.04-.3-.1-.48,.12-.59,.36-.07-.05-.15-.11-.22-.17-.01-.01-.05-.02-.07,0-.14,.12-.2,.25-.24,.43-.02,.07,0,.2-.04,.26-.12,.2-.26,0-.39-.12-.02-.02-.08-.04-.11-.01-.22,.2-.14,.39-.21,.65-.06,.2-.06,.13-.29,.07-.14-.04-.26-.07-.4-.06-.57,.02-.8,.36-.72,.91Zm17-9.72c.01,.14-.13,.32-.28,.28-.25-.07-.24-.4-.12-.61,.18,.05,.38,.16,.4,.33Zm-4.36,3.81c-.46-.23-.7-.76-.57-1.24,.35,.31,.63,.87,.57,1.24Z"/><path d="M249.89,194.36c.01,.09,.11,.09,.12,0,.05-.37,.27-.54,.62-.56,.23-.01,.49-.04,.71,.02,.04,.01,.07-.02,.08-.06,.07-.21,.08-.45,.2-.64,.16,.12,.37,.26,.51,.06,.15-.22,.03-.92,.44-.52,.04,.04,.08,.04,.11-.01,.23-.36,.48-.38,.67-.15,.05,.14,.11,.27,.18,.36,.07,.09,.13-.04,.11-.11-.03-.1-.06-.21-.1-.31-.03-.29,.04-.71,.21-.83,.39-.28,.85,.39,.91,.7h0s0,.02,0,.03c.04,.14,.19,.07,.16-.06,0-.01,0-.03,0-.04-.07-.27,0-.69,.14-.92,.21-.36,.48-.18,.71,.09,.07,.08,.12-.02,.12-.09,0-.44,.35-1.06,.76-.53,.05,.07,.12,0,.14-.05,.05-.17,.09-.35,.13-.52,.03-.12,.07-.24,.11-.36,.02-.18,.08-.2,.18-.06,.15,.09,.26,.34,.47,.32,.28-.03,.32-.42,.31-.69,.17,.09,.37,.17,.53,.07,.16-.1,.21-.36,.24-.55,.14,.12,.3,.25,.47,.14,.17-.11,.24-.42,.28-.64,.21,.08,.35,.19,.47,.4,.04,.08,.1-.01,.1-.06,.02-.21-.06-.58,.05-.76,.22-.38,.69,.29,.78,.53,.05,.12,.19,.09,.18-.04-.01-.39-.11-1.59,.51-1.53,.1,0,.2,.05,.3,.11-.19,.65,.11,1.4,.77,1.67,.05,.02,.09,0,.11-.05,.21-.53-.16-1.31-.63-1.74,.05-.08,.11-.17,.18-.24,.22-.21,.52-.07,.71-.29,.12-.15,.05-.17,.24-.3,.19-.13,.24-.08,.41,.06,.08,.07,.14,.15,.2,.24,.05,.08,.12,0,.13-.07,.02-.17,.03-.52,.24-.58,.18-.05,.39,.15,.51,.26,.06,.05,.12,.02,.14-.05,.03-.1,.03-.21,.04-.32,0-.07,0-.15,.03-.22,.06-.17,.32-.47,.45-.02,.04,.13,.18,.09,.18-.03,0-.33,.1-.68,.33-.91,.12-.12,.27-.22,.45-.23,0,0,0,0,0,0-.02,.06-.04,.12-.05,.2-.01,.23,.09,.6,.34,.67,.22,.06,.4-.14,.45-.34,.07-.28-.1-.53-.34-.67-.01,0-.02-.01-.04-.02,.16-.11,.35-.18,.52-.24,.14-.05,.33-.09,.45-.18,.05-.04,.1-.18,.14-.2,.4-.22,.2,.05,.4,.05,.38-.02,.55-.2,.64-.51,.33,.33,.61-.17,.72-.54,.14,.2,.31,.52,.55,.58,.24,.06,.47-.17,.63-.31,0,0,0-.03,0-.02-.22,.16-.46,.35-.71,.15-.18-.14-.31-.4-.45-.59-.03-.03-.06,0-.07,.03-.06,.25-.33,.93-.65,.47-.04-.06-.09-.01-.1,.04-.1,.4-.29,.51-.68,.41-.16-.04-.19-.07-.33,.02-.1,.06-.13,.2-.24,.26-.06,.03-.13,.05-.19,.07-.18,.06-.36,.12-.53,.21-.11,.06-.21,.13-.3,.21-.58-.13-1,.47-1.11,1.04-.13-.13-.31-.19-.5-.05-.2,.15-.18,.46-.2,.71-.17-.15-.4-.29-.61-.18-.19,.1-.24,.34-.26,.55-.21-.25-.53-.46-.79-.18-.2,.21,.2,.19-.4,.4-.08,.03-.16,0-.24,.03-.17,.07-.31,.26-.4,.41-.01,.02-.02,.05-.03,.07-.07-.05-.15-.1-.22-.13-.83-.36-.9,.67-.89,1.35-.17-.26-.42-.52-.68-.5-.39,.03-.32,.59-.27,.96-.12-.14-.26-.24-.45-.32-.04-.01-.07,.02-.08,.05-.04,.14-.04,.32-.1,.45-.14,.33-.37,.21-.55,.03-.03-.03-.07,0-.08,.04-.03,.16-.06,.49-.24,.57-.17,.07-.39-.12-.51-.21-.06-.04-.11,.03-.11,.08,0,.24,.07,.75-.37,.51-.14-.08-.22-.25-.38-.33-.03-.02-.08-.01-.1,.02-.21,.32-.23,.67-.33,1.03-.44-.5-.88,.05-.93,.61-.22-.24-.53-.43-.8-.12-.18,.2-.24,.47-.25,.74-.23-.36-.58-.65-.96-.49-.34,.14-.41,.51-.37,.88-.03-.02-.06-.03-.09-.04-.3-.1-.48,.12-.58,.36-.07-.05-.15-.11-.22-.17-.01-.01-.05-.02-.07,0-.14,.12-.2,.25-.24,.43-.02,.07,0,.2-.04,.26-.12,.2-.26,0-.39-.12-.02-.02-.08-.04-.11-.01-.22,.2-.14,.39-.21,.65-.06,.2-.06,.13-.29,.07-.14-.04-.26-.07-.4-.06-.57,.02-.79,.36-.72,.91Zm16.99-9.72c.01,.14-.13,.32-.28,.28-.25-.07-.24-.4-.12-.61,.18,.05,.38,.16,.4,.33Zm-4.36,3.81c-.46-.23-.7-.76-.57-1.24,.35,.31,.63,.87,.57,1.24Z"/><path d="M272.44,187.92c.18-.01,.38-.08,.52-.21,.23,.23,.51,.43,.65,.63,.07,.09,.13-.04,.13-.1-.01-.2,.11-.45,.25-.59,.15-.14,.25-.1,.43-.07,.2,.04,.27-.07,.28-.22,.26,.1,.4-.17,.48-.43,.12,.1,.26,.17,.4,.07,.15-.1,.23-.3,.3-.47,.22,.15,.32,.57,.64,.5,.26-.06,.47-.43,.52-.67,.01-.07-.05-.08-.07-.01-.05,.23-.33,.66-.61,.53-.22-.11-.26-.4-.48-.51-.02-.01-.05,0-.06,.03-.13,.3-.29,.68-.64,.35-.04-.04-.07,.01-.08,.05-.06,.21-.17,.56-.45,.36-.07-.05-.1,.05-.09,.1,.04,.24-.17,.11-.3,.09-.12-.02-.22,.01-.32,.09-.18,.14-.31,.36-.36,.59-.11-.12-.25-.22-.36-.33-.04-.04-.1-.09-.15-.14,.01-.03,.02-.05,.03-.08,.08-.29-.09-.62-.39-.68-.04,0-.07,.02-.08,.06-.1,.26,0,.49,.18,.7-.13,.07-.28,.08-.41,.16-.06,.04-.07,.21,.02,.2Zm.33-.88c.17,.06,.25,.23,.18,.38-.1-.12-.19-.25-.18-.38Z"/><path d="M255.17,202.33c.18-.01,.38-.08,.52-.21,.23,.23,.51,.43,.65,.63,.07,.09,.13-.04,.13-.1-.01-.2,.11-.45,.25-.59,.15-.14,.25-.1,.43-.07,.2,.04,.27-.07,.28-.22,.26,.1,.4-.17,.48-.43,.12,.1,.26,.17,.4,.07,.15-.1,.23-.3,.3-.47,.22,.15,.32,.57,.64,.5,.26-.06,.47-.43,.52-.67,.01-.07-.05-.08-.07-.01-.05,.23-.33,.66-.61,.53-.22-.11-.26-.4-.48-.51-.02-.01-.05,0-.06,.03-.13,.3-.29,.68-.64,.35-.04-.04-.07,.01-.08,.05-.06,.21-.17,.56-.45,.36-.07-.05-.1,.05-.09,.1,.04,.24-.17,.11-.3,.09-.12-.02-.22,.01-.32,.09-.18,.14-.31,.36-.36,.59-.11-.12-.25-.22-.36-.33-.04-.04-.1-.09-.15-.14,.01-.03,.02-.05,.03-.08,.08-.29-.09-.62-.39-.68-.04,0-.07,.02-.08,.06-.1,.26,0,.49,.18,.7-.13,.07-.28,.08-.41,.16-.06,.04-.07,.21,.02,.2Zm.33-.88c.17,.06,.25,.23,.18,.38-.1-.12-.19-.25-.18-.38Z"/><path d="M267.81,191.72s.04,0,.04-.02c.01-.13,0-.3,.15-.33,.12-.03,.28,.08,.38,.14,.04,.03,.07-.04,.07-.07,0-.08,.04-.34,.12-.4,.12-.08,.29,.17,.35,.24,.05,.06,.11,0,.11-.07,0-.21,.11-.7,.39-.65,.07,.01,.12,.04,.18,.09-.01,.31,.07,.63,.32,.79,.07,.04,.11-.04,.11-.09,.03-.24-.08-.61-.27-.85,.03-.19,.1-.36,.22-.45,.17-.12,.31,.02,.48,0,.11-.01,.16-.11,.19-.21,.22,.15,.37-.08,.47-.3,.28,.22,.51-.03,.58-.32,.13,.1,.28,.18,.43,.17,.25-.02,.21-.3,.18-.47-.01-.08-.09-.01-.09,.04,.04,.39-.41,.1-.54-.04-.06-.06-.14,0-.14,.08,.01,.27-.17,.52-.42,.29-.03-.03-.08,0-.09,.03-.07,.17-.16,.5-.39,.29-.05-.04-.09,.02-.09,.06-.05,.33-.27,.12-.49,.15-.21,.03-.33,.23-.39,.41-.02,.05-.03,.1-.04,.15-.08-.06-.17-.1-.26-.1-.38-.02-.45,.42-.46,.74-.1-.13-.24-.26-.38-.19-.16,.08-.17,.31-.18,.49-.14-.09-.33-.19-.47-.08-.14,.1-.12,.34-.08,.49Z"/><path d="M242.03,194.27s.04,0,.04-.02c.01-.13,0-.3,.15-.33,.12-.03,.28,.08,.38,.14,.04,.03,.07-.04,.07-.07,0-.08,.04-.34,.12-.4,.12-.08,.29,.17,.35,.24,.05,.06,.11,0,.11-.07,0-.21,.11-.7,.39-.65,.07,.01,.12,.04,.18,.09-.01,.31,.07,.63,.32,.79,.07,.04,.11-.04,.11-.09,.03-.24-.07-.61-.27-.85,.03-.19,.1-.36,.22-.45,.17-.12,.31,.02,.48,0,.11-.02,.16-.11,.19-.21,.22,.15,.37-.08,.47-.3,.28,.22,.51-.03,.58-.32,.13,.1,.28,.18,.43,.17,.25-.02,.21-.3,.18-.47-.01-.08-.09-.01-.09,.04,.04,.39-.41,.1-.54-.04-.06-.06-.14,0-.14,.08,.01,.27-.17,.52-.42,.29-.03-.03-.08,0-.09,.03-.07,.17-.16,.5-.39,.29-.05-.04-.09,.02-.09,.06-.05,.33-.27,.12-.49,.15-.21,.03-.32,.23-.39,.41-.02,.05-.03,.1-.04,.15-.08-.06-.17-.1-.26-.1-.38-.02-.45,.42-.46,.74-.1-.13-.24-.26-.38-.19-.16,.08-.17,.31-.18,.49-.14-.09-.33-.19-.47-.08-.14,.1-.12,.34-.08,.49Z"/><path d="M267.37,191.9s.03,0,.04-.01c0,0,0-.01,.01-.02,0,0,0-.01,.01-.02,0-.01,0,0,0,0,0-.01,.02-.02,.03-.03,0,0,.01,0,.02-.01,0,0,0,0,0,0,0,0,0,0,0,0,.01,0,.03,0,.04,0,0,0,0,0,0,0,0,0,0,0,0,0,0,0,.01,0,.02,0,0,0,.01,0,.02,0,0,0,0,0,.01,0,0,0,0,0,0,0,0,0,0,0,0,0,.04,.01,.07,.04,.1,.06,0,0,.03,0,.04,0,.01,0,.02-.03,.03-.04,0-.03,0-.07-.02-.09-.06-.04-.14-.08-.22-.06-.08,.02-.14,.09-.16,.17,0,.02-.01,.04,0,.06Z"/><path d="M266.74,192.58s.02,0,.02,0c.01-.14,.03-.29,.14-.38,.1-.07,.24-.09,.35-.11,.1-.02,.2-.05,.3-.08,.05-.02,.05-.15,0-.13-.17,.05-.35,.08-.52,.13-.06,.02-.12,.04-.17,.08-.06,.05-.09,.12-.11,.19-.03,.1-.03,.21-.02,.31Z"/><path d="M258.48,196.9s.08,.03,.09-.02c.13-.39,.44-.35,.63,0,.04,.07,.08-.02,.08-.06,0-.27,.03-.65,.18-.89,.2-.3,.33,.06,.55,.05,.21,0,.27-.25,.29-.46,.19,.12,.37,0,.46-.25,.23,.2,.4,.06,.5-.22,.12,.1,.28,.29,.39,.26,.22-.06,.25-1.18,.58-.51,.02,.03,.03,.05,.05,.05,0,.05,.02,.1,.06,.12,.32,.2,.58,.14,.74-.21,.17-.37,.3-1.7,.88-.85,.04,.06,.12,0,.12-.05,.01-.29,.03-.67,.37-.34,.05,.05,.1-.03,.1-.07,.01-.19,0-.67,.32-.45,.15,.11,.26,.31,.3,.5,.02,.09,.11,.01,.1-.05-.07-.36,.04-.7,.22-1.01,.03-.05-.02-.15-.07-.08-.15,.24-.26,.5-.28,.77-.11-.21-.27-.41-.46-.38-.22,.03-.25,.29-.27,.5-.34-.29-.44,.02-.47,.37-.22-.24-.49-.31-.72,.05-.08,.12-.12,.34-.18,.55-.01-.14-.07-.26-.17-.36-.35-.33-.57,.2-.64,.6-.13-.16-.29-.24-.45,0-.06,.1-.15,.57-.2,.58-.03,0-.3-.25-.35-.27-.06-.03-.1,0-.11,.06,0,.22-.13,.27-.37,.14-.05-.06-.12-.02-.13,.05,0,.19-.12,.26-.35,.2-.06-.08-.16-.05-.15,.06,0,.08,.02,.26-.03,.32-.12,.17-.23,0-.34-.05-.15-.07-.28,0-.37,.13-.2,.25-.22,.61-.21,.93-.22-.31-.59-.34-.69,.06-.41-.4-.73-1-.91-1.52-.04-.11-.13-.02-.13,.06,.03,.7,.66,1.14,1.03,1.67Zm4.12-2.83c.28-.21,.3,.31,.21,.47-.09,.17-.24,.24-.42,.21,0,0,0-.01,0-.02-.01-.18,.06-.54,.21-.66Z"/><path d="M257.94,179.75c.18-.01,.38-.08,.52-.21,.23,.23,.51,.43,.65,.63,.07,.09,.13-.04,.13-.1-.01-.2,.11-.45,.25-.59,.15-.14,.25-.1,.43-.07,.2,.04,.27-.07,.28-.22,.26,.1,.4-.17,.48-.43,.12,.1,.26,.17,.4,.07,.15-.1,.23-.3,.3-.47,.22,.15,.32,.57,.64,.5,.26-.06,.47-.43,.52-.67,.01-.07-.05-.08-.07-.01-.05,.23-.33,.66-.61,.53-.22-.11-.27-.4-.48-.51-.02-.01-.05,0-.06,.03-.13,.3-.29,.68-.64,.35-.04-.04-.07,.01-.08,.05-.06,.21-.17,.56-.45,.36-.07-.05-.1,.05-.09,.1,.04,.24-.17,.11-.3,.09-.12-.02-.22,.01-.32,.09-.18,.14-.31,.36-.36,.59-.11-.12-.25-.22-.36-.33-.04-.04-.1-.09-.15-.14,.01-.03,.02-.05,.03-.08,.08-.29-.09-.62-.39-.68-.04,0-.07,.02-.08,.06-.1,.26,0,.49,.18,.7-.13,.07-.28,.08-.41,.16-.06,.04-.07,.21,.02,.2Zm.33-.88c.17,.06,.25,.23,.18,.38-.1-.12-.19-.25-.18-.38Z"/><path d="M253.37,183.5s.04,0,.04-.02c.01-.13,0-.3,.15-.33,.12-.03,.28,.08,.38,.14,.04,.02,.07-.04,.07-.07,0-.08,.04-.34,.12-.4,.12-.08,.29,.17,.35,.24,.05,.06,.11,0,.11-.07,0-.21,.11-.7,.39-.65,.07,.01,.12,.04,.18,.09-.01,.31,.07,.63,.32,.79,.07,.04,.11-.04,.11-.09,.03-.24-.07-.61-.27-.85,.03-.19,.1-.36,.22-.45,.17-.12,.31,.02,.48,0,.11-.01,.16-.11,.19-.21,.22,.15,.37-.08,.47-.3,.28,.22,.51-.03,.58-.32,.13,.1,.28,.18,.43,.17,.25-.02,.21-.3,.18-.47-.01-.08-.09-.01-.09,.04,.04,.39-.41,.1-.54-.04-.06-.06-.14,0-.14,.08,.01,.27-.17,.52-.42,.29-.03-.03-.08,0-.09,.03-.07,.17-.16,.5-.39,.29-.05-.04-.09,.02-.1,.06-.05,.33-.27,.12-.49,.15-.21,.03-.33,.23-.39,.41-.02,.05-.03,.1-.04,.15-.08-.06-.17-.1-.26-.1-.38-.02-.45,.42-.46,.74-.1-.13-.24-.26-.38-.19-.16,.08-.17,.31-.18,.49-.14-.09-.33-.19-.47-.08-.14,.1-.12,.34-.08,.49Z"/><path d="M252.2,184.2s.02,0,.02,0c.01-.14,.03-.29,.14-.38,.1-.07,.24-.09,.35-.11,.1-.02,.2-.05,.3-.08,.05-.02,.05-.15,0-.13-.17,.05-.35,.08-.52,.13-.06,.02-.12,.04-.17,.08-.06,.05-.09,.12-.11,.19-.03,.1-.03,.21-.02,.31Z"/><path d="M243.31,189.43s.08,.03,.09-.02c.13-.39,.44-.35,.63,0,.04,.07,.08-.02,.08-.06,0-.27,.03-.65,.18-.89,.2-.3,.33,.06,.55,.05,.21,0,.27-.25,.29-.46,.19,.12,.37-.01,.46-.25,.23,.2,.4,.06,.5-.22,.12,.1,.28,.29,.39,.26,.22-.06,.25-1.18,.58-.51,.02,.03,.03,.05,.05,.05,0,.05,.02,.1,.06,.12,.32,.2,.58,.14,.74-.21,.17-.37,.3-1.7,.88-.85,.04,.06,.12,0,.12-.05,.01-.29,.03-.67,.37-.34,.05,.05,.1-.03,.1-.07,.01-.19,0-.67,.32-.45,.15,.11,.26,.31,.3,.5,.02,.09,.11,.01,.1-.05-.07-.36,.04-.7,.22-1.01,.03-.05-.02-.15-.07-.08-.15,.24-.26,.5-.28,.77-.11-.21-.27-.41-.46-.38-.22,.03-.25,.29-.27,.5-.35-.29-.44,.02-.47,.38-.22-.24-.49-.31-.72,.05-.08,.12-.12,.34-.18,.55-.01-.14-.07-.26-.17-.36-.35-.33-.57,.2-.64,.6-.13-.16-.29-.24-.45,0-.06,.1-.15,.57-.2,.58-.03,0-.3-.25-.35-.27-.06-.03-.1,0-.11,.06,0,.22-.13,.27-.37,.14-.05-.06-.12-.02-.13,.05,0,.19-.12,.26-.35,.2-.06-.08-.16-.05-.15,.06,0,.08,.02,.26-.03,.32-.12,.17-.23,0-.34-.05-.15-.07-.28,0-.37,.13-.2,.25-.22,.61-.21,.93-.22-.31-.59-.34-.69,.06-.41-.4-.73-1-.91-1.52-.04-.11-.13-.02-.13,.06,.03,.7,.66,1.14,1.03,1.67Zm4.12-2.83c.28-.21,.3,.31,.21,.47-.09,.17-.24,.24-.42,.21,0,0,0-.01,0-.02-.01-.18,.06-.54,.21-.66Z"/><path d="M244.12,201.45s.08,.03,.09-.02c.13-.39,.44-.35,.63,0,.04,.07,.08-.02,.08-.06,0-.27,.03-.65,.18-.89,.2-.3,.33,.06,.55,.05,.21,0,.27-.25,.29-.46,.19,.12,.37-.01,.46-.25,.23,.2,.4,.06,.5-.22,.12,.1,.28,.29,.39,.26,.22-.06,.25-1.18,.58-.51,.02,.03,.03,.05,.05,.05,0,.05,.02,.1,.06,.12,.32,.2,.58,.14,.74-.21,.17-.37,.3-1.7,.88-.85,.04,.06,.12,0,.12-.05,.01-.29,.03-.67,.37-.34,.05,.05,.1-.03,.1-.07,.01-.19,0-.67,.32-.45,.15,.11,.26,.31,.3,.5,.02,.09,.11,.01,.1-.05-.07-.36,.04-.7,.22-1.01,.03-.05-.02-.15-.07-.08-.15,.24-.26,.5-.28,.77-.11-.21-.27-.41-.46-.38-.22,.03-.25,.29-.27,.5-.34-.28-.44,.02-.47,.38-.22-.24-.49-.31-.72,.05-.08,.12-.12,.34-.18,.55-.01-.14-.07-.26-.17-.36-.35-.33-.57,.2-.64,.6-.13-.16-.29-.24-.45,0-.06,.1-.15,.57-.2,.58-.03,0-.3-.25-.35-.27-.06-.03-.1,0-.11,.06,0,.22-.13,.27-.37,.14-.05-.06-.12-.02-.13,.05,0,.19-.12,.26-.35,.2-.06-.08-.16-.05-.15,.06,0,.08,.02,.26-.03,.32-.12,.17-.23,0-.34-.05-.15-.07-.28,0-.37,.13-.2,.25-.22,.61-.21,.93-.22-.31-.59-.34-.69,.06-.41-.4-.73-1-.91-1.52-.04-.11-.13-.02-.13,.06,.03,.7,.66,1.14,1.03,1.67Zm4.12-2.83c.28-.21,.3,.31,.21,.47-.09,.17-.24,.24-.42,.21,0,0,0-.01,0-.02-.01-.18,.06-.54,.21-.66Z"/><path d="M265.28,187.59c.16,.73,.57,1.49,1.08,2.04,.05,.06,.15,.08,.17-.02,.07-.25-.03-.87,.26-.96,.22-.07,.35,.34,.54,.45,.04,.03,.08,0,.1-.04,.16-.3,.11-.73,.3-1.01,.07,.11,.17,.21,.3,.14,.11-.06,.14-.25,.17-.4,.25,.17,.42-.02,.51-.31,.28,.27,.48,.07,.64-.26,.11,.12,.2,.24,.38,.26,.03,0,.06,0,.08-.04,.07-.16,.08-.33,.13-.49,.12-.43,.37,0,.47,.19,.03,.05,.11,.08,.14,0,.09-.2,.09-.42,.14-.63,.01-.06,.02-.15,.06-.21,.08-.12,.25-.14,.38-.07,.12,.06,.18,.3,.21,.42,.03,.11,.16,.1,.16-.02,0-.38-.08-1.12,.34-1.3,.09-.04,.19-.04,.28,0-.11,.19-.16,.4-.1,.6,.11,.38,.47,.3,.51-.07,.02-.17-.04-.39-.15-.56,.14-.2,.33-.35,.55-.46,.08-.04,.05-.24-.04-.2-.21,.1-.46,.28-.64,.5-.13-.11-.29-.16-.47-.07-.37,.18-.43,.67-.44,1.1-.12-.2-.29-.35-.51-.27-.32,.12-.3,.58-.36,.9-.11-.21-.29-.46-.5-.32-.11,.07-.15,.27-.18,.39-.01,.05-.03,.28-.07,.31-.09,.07-.27-.2-.32-.25-.04-.04-.1-.04-.12,.02-.11,.25-.25,.58-.54,.22-.05-.06-.12-.02-.13,.05-.03,.13-.1,.57-.4,.27-.05-.05-.12-.02-.13,.05-.02,.07-.06,.55-.25,.24-.03-.05-.08-.07-.13-.03-.27,.27-.22,.7-.36,1.04-.19-.18-.27-.56-.6-.44-.37,.14-.33,.55-.36,.88-.41-.51-.65-1.11-.86-1.72-.06-.18-.25-.13-.21,.06Z"/><path d="M261.51,191.83c.14-.06,.19-.19,.2-.33,.12,.11,.24,.29,.41,.19,.1-.06,.13-.18,.14-.3,.13,.13,.29,.22,.47,.07,.15-.12,.13-.29,.15-.45,.04,.06,.09,.11,.15,.12,.1,.02,.17-.08,.21-.16,.09-.17,.12-.36,.16-.54,.16,.17,.33,.38,.55,.45,.32,.1,.4-.33,.43-.55,.02-.13-.14-.2-.16-.05-.02,.19-.07,.47-.32,.34-.19-.1-.34-.29-.49-.44-.05-.05-.1-.03-.12,.03-.05,.16-.07,.33-.12,.49-.02,.06-.05,.18-.11,.21-.08,.04-.14-.11-.16-.16-.04-.07-.1-.05-.12,.02-.04,.14,0,.31-.06,.45-.05,.1-.18,.15-.28,.11-.09-.04-.16-.14-.21-.22-.06-.09-.12,.04-.11,.1,.01,.11,.03,.42-.16,.34-.12-.05-.19-.22-.31-.29-.06-.03-.08,.07-.08,.11,.02,.14-.03,.27-.11,.39-.01,.02-.02,.09,.02,.07Z"/><path d="M250.99,205.43c.14-.06,.19-.19,.2-.33,.12,.11,.24,.29,.41,.19,.1-.06,.13-.18,.14-.3,.13,.13,.29,.22,.47,.07,.15-.12,.13-.29,.15-.45,.04,.06,.09,.11,.15,.12,.1,.02,.17-.08,.21-.16,.09-.17,.12-.36,.16-.54,.16,.17,.33,.38,.55,.45,.32,.1,.4-.33,.43-.55,.02-.13-.14-.2-.16-.05-.02,.19-.07,.47-.32,.34-.19-.1-.34-.29-.49-.44-.05-.05-.1-.03-.12,.03-.05,.16-.07,.33-.12,.49-.02,.06-.05,.18-.11,.21-.08,.04-.14-.11-.16-.16-.04-.08-.1-.05-.12,.02-.04,.14,0,.31-.06,.45-.05,.1-.18,.15-.28,.11-.09-.04-.16-.14-.21-.22-.06-.09-.12,.04-.11,.1,.01,.11,.03,.42-.16,.34-.12-.05-.19-.22-.31-.29-.06-.03-.08,.07-.08,.11,.02,.14-.03,.27-.11,.39-.01,.02-.02,.09,.02,.07Z"/><path d="M238.47,196.13c.14-.06,.19-.19,.2-.33,.12,.11,.24,.29,.41,.19,.1-.06,.13-.18,.14-.3,.13,.13,.29,.22,.47,.07,.15-.12,.13-.29,.15-.45,.04,.06,.09,.11,.15,.12,.1,.02,.17-.08,.21-.16,.09-.17,.12-.36,.16-.54,.16,.17,.33,.38,.55,.45,.32,.1,.4-.32,.43-.55,.02-.13-.14-.2-.16-.05-.02,.19-.07,.47-.32,.34-.19-.1-.34-.29-.49-.44-.05-.05-.1-.03-.12,.03-.05,.16-.07,.33-.12,.49-.02,.06-.05,.18-.11,.21-.08,.04-.14-.11-.16-.16-.04-.07-.1-.05-.12,.02-.04,.14,0,.31-.06,.45-.05,.1-.18,.15-.28,.11-.09-.04-.16-.14-.21-.22-.06-.09-.12,.04-.11,.1,.01,.11,.03,.42-.16,.34-.12-.05-.19-.22-.31-.29-.06-.03-.08,.07-.08,.11,.02,.14-.03,.27-.11,.39-.01,.02-.02,.09,.02,.07Z"/><path d="M253.4,197.26c.04,.06,.09,0,.09-.05,0-.29,0-.6,.09-.87,.05-.16,.13-.32,.32-.34,.18-.02,.28,.13,.43,.2,.43,.2,.57-.36,.6-.71,.16,.07,.29,.04,.36-.11,.26,.23,.44-.04,.5-.34,.13,.14,.26,.27,.45,.08,.17-.16,.15-.4,.16-.62,.18,.18,.38,.4,.64,.22,.25-.17,.23-.5,.27-.78,.15,.06,.27,.16,.4,.25,.02,.01,.05,0,.06-.02,.05-.08,.07-.14,.12-.22,.01-.11,.07-.2,.17-.25,.14,.07,.25,.16,.35,.28,.04,.04,.09,.03,.11-.01,.07-.13,.09-.27,.15-.4,.13-.26,.26-.18,.46,0,.07,.06,.13,0,.15-.07,.04-.16,.01-.35,.07-.51,.17-.49,.61,.05,.72,.28,.04,.09,.15,.04,.15-.05,0-.27-.17-.95,.14-1.06,.07-.03,.06-.2-.03-.17-.32,.1-.31,.53-.29,.88-.17-.23-.41-.44-.67-.32-.24,.11-.25,.42-.28,.67-.14-.11-.31-.2-.46-.08-.14,.11-.2,.38-.24,.58-.13-.09-.26-.18-.42-.25-.02-.01-.05,0-.06,.03-.07,.1-.08,.21-.14,.32-.14,.27-.28,.03-.49-.05-.04-.01-.06,.02-.07,.05-.05,.21-.02,.66-.28,.75-.24,.09-.42-.19-.56-.33-.05-.05-.1-.03-.12,.03-.03,.11-.01,.24-.05,.34-.04,.11-.24,.29-.34,.26,0,0-.16-.15-.13-.12-.07-.06-.11,.06-.11,.11,.04,.23-.08,.33-.35,.29-.06-.07-.12,.01-.11,.08-.06,.17-.15,.19-.28,.06-.04-.04-.08,.01-.09,.05-.03,.16-.04,.33-.1,.49-.05,.13-.18,.28-.35,.23-.06-.01-.14-.13-.19-.16-.17-.12-.39-.15-.56-.01-.29,.24-.27,.74-.25,1.13-.34-.43-.78-.9-.85-1.44-.01-.1-.11-.07-.12,.02-.04,.65,.65,1.19,.99,1.67Z"/><path d="M258.79,182.73c.16,.73,.57,1.49,1.08,2.04,.05,.06,.15,.08,.17-.02,.07-.25-.03-.87,.26-.96,.22-.07,.35,.34,.54,.45,.04,.03,.08,0,.1-.04,.16-.3,.11-.73,.3-1.01,.07,.11,.17,.21,.3,.14,.11-.06,.14-.25,.17-.4,.25,.17,.42-.02,.51-.31,.28,.27,.48,.07,.64-.26,.11,.12,.2,.24,.38,.26,.03,0,.06,0,.08-.04,.07-.16,.08-.33,.13-.49,.12-.43,.37,0,.47,.19,.03,.06,.11,.08,.14,0,.09-.2,.09-.42,.14-.63,.01-.06,.02-.15,.06-.21,.08-.12,.25-.14,.38-.07,.12,.06,.18,.3,.21,.42,.03,.11,.16,.1,.16-.02,0-.38-.08-1.12,.34-1.3,.09-.04,.19-.04,.28,0-.11,.19-.16,.4-.1,.6,.11,.38,.47,.3,.51-.07,.02-.17-.04-.39-.15-.56,.14-.2,.33-.35,.55-.46,.08-.04,.05-.24-.04-.2-.21,.1-.46,.28-.64,.5-.13-.11-.29-.16-.47-.07-.37,.18-.43,.67-.44,1.1-.12-.2-.29-.35-.51-.27-.32,.12-.3,.58-.36,.9-.11-.21-.29-.46-.5-.32-.11,.07-.15,.27-.18,.39-.01,.05-.03,.28-.07,.31-.09,.06-.27-.2-.32-.25-.04-.04-.1-.04-.12,.02-.11,.25-.25,.58-.54,.22-.05-.06-.12-.02-.13,.05-.03,.13-.1,.57-.4,.27-.05-.05-.12-.02-.13,.05-.02,.07-.06,.55-.25,.24-.03-.05-.08-.07-.13-.03-.27,.27-.22,.7-.36,1.04-.19-.18-.27-.56-.6-.44-.37,.14-.33,.55-.36,.88-.41-.51-.65-1.11-.86-1.72-.06-.18-.25-.13-.21,.06Z"/><path d="M239.26,198.22c.16,.73,.57,1.49,1.08,2.04,.05,.06,.15,.08,.17-.02,.07-.25-.03-.87,.26-.96,.22-.07,.35,.34,.54,.45,.04,.03,.08,0,.1-.04,.16-.3,.11-.73,.3-1.01,.07,.11,.17,.21,.3,.14,.11-.06,.14-.25,.17-.4,.25,.17,.42-.02,.51-.31,.28,.27,.48,.07,.64-.26,.11,.12,.2,.24,.38,.26,.03,0,.06,0,.08-.04,.07-.16,.08-.33,.13-.49,.12-.43,.37,0,.47,.19,.03,.06,.11,.08,.14,0,.09-.2,.09-.42,.14-.63,.01-.06,.02-.15,.06-.21,.08-.12,.25-.14,.38-.07,.12,.06,.18,.3,.21,.42,.03,.11,.16,.1,.16-.02,0-.38-.08-1.12,.34-1.3,.09-.04,.19-.04,.28,0-.11,.19-.16,.4-.1,.6,.11,.38,.47,.3,.51-.07,.02-.17-.04-.39-.15-.56,.14-.2,.33-.35,.55-.46,.08-.04,.05-.24-.04-.2-.21,.1-.46,.28-.64,.5-.13-.11-.29-.16-.47-.07-.37,.18-.43,.67-.44,1.1-.12-.2-.29-.35-.51-.27-.32,.12-.3,.58-.36,.9-.11-.21-.29-.46-.5-.32-.11,.07-.15,.27-.18,.39-.01,.05-.03,.28-.07,.31-.09,.07-.27-.2-.32-.25-.04-.04-.1-.04-.12,.02-.11,.25-.25,.58-.54,.22-.05-.06-.12-.02-.13,.05-.03,.13-.1,.57-.4,.27-.05-.05-.12-.02-.13,.05-.02,.07-.06,.55-.25,.24-.03-.05-.08-.07-.13-.03-.27,.27-.22,.7-.36,1.04-.19-.18-.27-.56-.6-.44-.37,.14-.33,.55-.36,.88-.41-.51-.65-1.11-.86-1.72-.06-.18-.25-.13-.21,.06Z"/><path d="M255.18,186.13c.14-.06,.19-.19,.2-.33,.12,.11,.24,.29,.41,.19,.1-.06,.13-.18,.14-.3,.13,.13,.29,.22,.47,.07,.15-.12,.13-.29,.15-.45,.04,.06,.09,.11,.15,.12,.1,.02,.17-.08,.21-.16,.09-.17,.12-.36,.16-.54,.16,.17,.33,.38,.55,.45,.32,.1,.4-.33,.43-.55,.02-.13-.14-.2-.16-.05-.02,.19-.07,.47-.32,.34-.19-.1-.34-.29-.49-.44-.05-.05-.1-.03-.12,.03-.05,.16-.07,.33-.12,.49-.02,.06-.05,.18-.11,.21-.08,.04-.14-.11-.16-.16-.04-.07-.1-.05-.12,.02-.04,.14,0,.31-.06,.45-.05,.1-.18,.15-.28,.11-.09-.04-.16-.14-.21-.22-.06-.09-.12,.04-.11,.1,.01,.11,.03,.42-.16,.34-.12-.05-.19-.22-.31-.29-.06-.03-.08,.07-.08,.11,.02,.14-.03,.27-.11,.39-.01,.02-.02,.09,.02,.07Z"/><path d="M247.55,191.51c.04,.06,.09,0,.09-.05,0-.29,0-.59,.09-.87,.05-.16,.13-.32,.32-.34,.18-.02,.28,.13,.42,.2,.43,.2,.57-.36,.6-.71,.16,.07,.29,.04,.36-.11,.26,.23,.44-.04,.5-.34,.13,.14,.26,.27,.45,.08,.17-.16,.15-.4,.16-.62,.18,.18,.38,.4,.64,.22,.25-.17,.23-.5,.27-.78,.14,.06,.27,.16,.4,.25,.02,.01,.04,0,.06-.02,.05-.08,.07-.14,.12-.22,.01-.11,.07-.2,.17-.25,.14,.07,.25,.16,.35,.28,.04,.04,.09,.03,.11-.01,.07-.13,.09-.27,.15-.4,.13-.26,.26-.18,.46,0,.07,.06,.13,0,.15-.07,.04-.16,.01-.35,.07-.51,.17-.49,.61,.05,.72,.28,.04,.09,.15,.04,.15-.05,0-.27-.17-.95,.14-1.06,.07-.03,.06-.2-.03-.17-.32,.1-.31,.53-.29,.88-.17-.23-.41-.44-.67-.32-.24,.11-.25,.42-.28,.67-.14-.11-.31-.2-.46-.08-.14,.11-.2,.38-.24,.58-.13-.09-.26-.18-.42-.25-.02-.01-.05,0-.06,.03-.07,.1-.08,.21-.14,.32-.14,.27-.28,.03-.49-.05-.04-.01-.06,.02-.07,.05-.05,.21-.02,.66-.28,.75-.24,.09-.42-.19-.56-.33-.05-.05-.1-.03-.12,.03-.03,.11-.01,.24-.05,.34-.04,.11-.24,.29-.34,.26,0,0-.16-.15-.13-.12-.07-.06-.11,.06-.11,.11,.04,.23-.08,.33-.35,.29-.06-.07-.12,.01-.11,.08-.06,.17-.15,.19-.28,.06-.04-.04-.08,.01-.09,.05-.03,.16-.04,.33-.1,.49-.05,.13-.18,.28-.35,.23-.06-.01-.14-.13-.19-.16-.17-.12-.39-.15-.56-.01-.29,.24-.27,.74-.25,1.13-.34-.43-.78-.9-.85-1.44-.01-.1-.11-.07-.12,.02-.04,.65,.65,1.19,.99,1.67Z"/></g></g><g><g><path class="cls-27" d="M242.17,156.95c-1.51-1.34-3.63-2.18-5.86-2.7-5.73,.08-9.3,1.62-14.46,4.09l-38.65,16.98,2.09,21.31c4.85-1.92,25.14-13.64,35.17-19.09,4.45-2.42,8.06-3.76,9.52-3.6,4.53,.49,7.74,2.4,13.41,1.9,9.53-.83,3.83-14.45-1.22-18.9Z"/><path class="cls-6" d="M236.47,163.92l5.36,11.99s-.67-.13-1.26-.04c0,0-2.25-3.96-3.51-6.14-1.14-1.99-2.46-4.55-2.46-4.55,0,0-4.19-2.64-5.34-4.99-1.15-2.35,7.21,3.73,7.21,3.73Z"/></g><g><g><path class="cls-11" d="M249.37,185.77c-.13,.02-.26-.05-.31-.18l-1.06-2.63c-.06-.15,.01-.32,.16-.38,.15-.06,.32,.01,.38,.16l1.06,2.63c.06,.15-.01,.32-.16,.38-.02,0-.05,.02-.07,.02Z"/><g><path class="cls-13" d="M243.36,179.35l4.39,4.69c.64,.69,1.8,.17,1.7-.77l-.63-6.44-5.46,2.52Z"/><g class="cls-15"><path d="M243.36,179.35l4.39,4.69c.64,.69,1.8,.17,1.7-.77l-.63-6.44-5.46,2.52Z"/></g><path class="cls-13" d="M233.58,142.97c-.3-.55-.91-.73-1.62-.66-1.89,.17-4.47,2.12-3.65,3.59l15.06,33.45c.81,.51,2.37,.34,3.63-.4,.83-.48,1.54-1.2,1.82-2.12l-15.24-33.86Z"/><g class="cls-8"><path d="M233.58,142.97c-.3-.55-.91-.73-1.62-.66-1.89,.17-4.47,2.12-3.65,3.59l15.06,33.45c.81,.51,2.37,.34,3.63-.4,.83-.48,1.54-1.2,1.82-2.12l-15.24-33.86Z"/></g></g><path class="cls-26" d="M230.58,140.53c-.28-.64-1.04-.94-1.68-.65-.64,.28-.94,1.04-.65,1.68l1.21,2.68h0c.08,.17,.27,.29,.55,.33,.57,.06,1.31-.26,1.65-.73,.17-.23,.21-.45,.13-.63h0l-1.21-2.68Z"/></g><path class="cls-27" d="M239.04,155.1c1.42-.03,2.67,.18,3.04,.24,1.65,.28,2.9,.66,4.25,1.53,.49,.31,.96,.69,1.23,1.21,.28,.52,.33,1.13,.41,1.72,.43,3.07,2.43,5.61,2.87,8.65,.39,2.69-.78,9.39-3.06,10.07-1.42,.42-2.32-2.81-2.27-4.88-.96,1.17-2.64-.29-2.66-3.7-.02-2.82,.13-6.42,.13-6.42l-3.94-8.41Z"/><path class="cls-6" d="M244.49,161.41s.51,.82-.09,1.83-1.46,1.51-1.46,1.51l.05-1.24,1.5-2.1Z"/><path class="cls-27" d="M221.85,158.35c4.21-1.97,7.88-3.53,10.93-2.97,4.09,.76,4.55,2.09,8.91,3.74,6.19,2.35,1.06,6.17-4.56,4.96-5.62-1.21-7.87-3.89-7.87-3.89,0,0-7.85,4.71-7.41-1.84Z"/></g></g></g><g><g><g><polygon class="cls-13" points="184.2 278.43 259.99 234.67 211.57 206.71 135.77 250.47 184.2 278.43"/><polygon class="cls-23" points="184.2 278.43 259.99 234.67 211.57 206.71 135.77 250.47 184.2 278.43"/><g><path class="cls-10" d="M221.09,255.97v-1.35c-.03-1.67,2.96-6.43,6.68-8.58l30.11-17.38v6.07l-36.79,21.24Z"/><path class="cls-7" d="M257.88,228.65l-30.11,17.38c-3.72,2.14-6.71,6.91-6.69,8.58v1.35s-46.31-26.74-46.31-26.74h0s-.01-1.35-.01-1.35c-.01-1.67,2.97-6.43,6.69-8.58l30.1-17.37h.01s46.32,26.73,46.32,26.73Z"/><path class="cls-7" d="M257.88,228.65l-30.11,17.38c-3.72,2.14-6.71,6.91-6.69,8.58v1.35s-46.31-26.74-46.31-26.74h0s-.01-1.35-.01-1.35c-.01-1.67,2.97-6.43,6.69-8.58l30.11-17.38,46.32,26.74Z"/><path class="cls-1" d="M221.08,254.71l-2.88-1.67-3.8-2.2c2.13-.24,3.64,.08,4.68,.68,1.39,.79,1.93,2.09,2.01,3.19Z"/><path class="cls-17" d="M221.08,254.71l-2.88-1.67-3.8-2.2c2.13-.24,3.64,.08,4.68,.68,1.39,.79,1.93,2.09,2.01,3.19Z"/></g><polygon class="cls-13" points="184.21 279.69 184.2 278.43 135.77 250.47 135.77 251.73 184.21 279.69"/><polygon class="cls-24" points="184.21 279.69 184.2 278.43 135.77 250.47 135.77 251.73 184.21 279.69"/><polygon class="cls-13" points="184.21 279.69 260 235.93 259.99 234.67 184.2 278.43 184.21 279.69"/></g><path class="cls-10" d="M221.08,254.71c-.01-1.67-3.06-3.06-6.79-.92l-30.1,17.25v6.24l36.9-21.3s0,.41-.01-1.26Z"/><polygon class="cls-25" points="184.19 277.27 184.19 271.03 137.87 244.29 137.87 250.53 184.19 277.27"/><path class="cls-7" d="M214.3,253.79l-1.35,.77-28.75,16.47-40.92-23.62-5.4-3.12,30.1-17.24c2.73-1.57,4.26-1.44,5.33-.83h0l46.95,27.11c-1.7-.96-3.67-.76-5.96,.47Z"/><g><polygon class="cls-17" points="182.09 266.33 207.72 251.54 209.07 250.77 210.06 251.34 208.71 252.11 183.07 266.9 182.09 266.33"/><polygon class="cls-17" points="179.72 264.97 205.35 250.18 206.7 249.4 207.69 249.97 206.34 250.75 180.71 265.54 179.72 264.97"/><polygon class="cls-17" points="177.35 263.6 202.99 248.81 204.34 248.04 205.32 248.61 203.97 249.38 178.34 264.17 177.35 263.6"/><polygon class="cls-17" points="174.99 262.23 200.62 247.44 201.97 246.67 202.96 247.24 201.61 248.01 175.97 262.8 174.99 262.23"/><polygon class="cls-17" points="172.62 260.87 198.25 246.08 199.6 245.3 200.59 245.87 199.24 246.65 173.61 261.44 172.62 260.87"/><polygon class="cls-17" points="170.25 259.5 195.89 244.71 197.23 243.94 198.22 244.51 196.87 245.28 171.24 260.07 170.25 259.5"/><polygon class="cls-17" points="167.88 258.13 193.52 243.34 194.87 242.57 195.85 243.14 194.5 243.91 168.87 258.7 167.88 258.13"/><polygon class="cls-17" points="165.52 256.77 191.15 241.98 192.5 241.2 193.49 241.77 192.14 242.55 166.5 257.34 165.52 256.77"/><polygon class="cls-17" points="163.15 255.4 188.78 240.61 190.13 239.84 191.12 240.41 189.77 241.18 164.14 255.97 163.15 255.4"/><polygon class="cls-17" points="160.78 254.03 186.42 239.24 187.77 238.47 188.75 239.04 187.4 239.81 161.77 254.6 160.78 254.03"/><polygon class="cls-17" points="158.42 252.67 184.05 237.88 185.4 237.1 186.39 237.67 185.04 238.45 159.4 253.24 158.42 252.67"/><polygon class="cls-17" points="156.05 251.3 181.68 236.51 183.03 235.74 184.02 236.31 182.67 237.08 157.04 251.87 156.05 251.3"/><polygon class="cls-17" points="153.68 249.93 179.32 235.14 180.66 234.37 181.65 234.94 180.3 235.71 154.67 250.5 153.68 249.93"/><polygon class="cls-17" points="151.32 248.57 176.95 233.78 178.3 233 179.28 233.57 177.94 234.35 152.3 249.14 151.32 248.57"/><polygon class="cls-17" points="148.95 247.2 174.58 232.41 175.93 231.64 176.92 232.21 175.57 232.98 149.93 247.77 148.95 247.2"/><polygon class="cls-17" points="146.58 245.83 172.21 231.04 173.56 230.27 174.55 230.84 173.2 231.61 147.57 246.4 146.58 245.83"/><polygon class="cls-17" points="144.21 244.47 169.85 229.68 171.2 228.9 172.18 229.47 170.83 230.25 145.2 245.04 144.21 244.47"/></g><path class="cls-16" d="M214.58,252.17c-.56,.05-1.74,.43-2.38,.58-2.74,.62-7.57,2.82-12.19,5.14-6.18,3.09-12,6.39-12,6.39l-42.38-24.44,22.34-12.8c1.1-.63,2-.98,2.76-1.14,.8,.14,1.43,.38,1.93,.66l.3-.52c.12,.05,.23,.1,.34,.17l46.95,27.11c-2.64-1.52-3.86-1.32-5.68-1.15Z"/><polygon class="cls-21" points="184.16 272.39 188.76 270.06 184.19 272.84 179.61 270.2 184.16 272.39"/><polygon class="cls-21" points="184.2 275.51 192.62 270.65 184.2 275.19 174.73 270.04 184.2 275.51"/><polygon class="cls-21" points="137.87 245.67 144.96 249.94 137.87 246.32 137.87 245.67"/><polygon class="cls-21" points="137.88 248.1 148.4 254.53 137.87 248.68 137.88 248.1"/><path class="cls-10" d="M214.4,250.84c-.56,.06-1.16,.16-1.81,.31-2.74,.62-7.57,2.82-12.19,5.14-6.18,3.09-12,6.39-12,6.39l-46.35-26.73s17.63-10.15,24.55-11.49c3.25-.63,5.24-.19,6.45,.5h0s46.01,26.56,46.01,26.56c-1.04-.6-2.55-.92-4.68-.68Z"/><g><path class="cls-17" d="M213.81,248.48c-1.04-.6-2.55-.92-4.68-.68-.56,.06-1.16,.16-1.81,.31-1.82,.41-4.57,1.52-7.57,2.91-1.51,.69-3.08,1.46-4.62,2.23-3.72,1.86-7.31,3.8-9.57,5.05l1.05,.61c2.27-1.25,5.86-3.18,9.57-5.05,1.55-.78,3.12-1.54,4.62-2.23,3-1.38,5.74-2.5,7.57-2.91,.65-.15,1.25-.25,1.81-.31,2.13-.24,3.64,.08,4.68,.68l-1.05-.61Z"/><path class="cls-17" d="M211.44,247.11c-1.04-.6-2.55-.92-4.68-.68-.56,.06-1.16,.16-1.81,.31-1.82,.41-4.57,1.52-7.57,2.91-1.51,.69-3.08,1.46-4.62,2.23-3.72,1.86-7.31,3.8-9.57,5.05l1.05,.61c2.27-1.25,5.86-3.18,9.57-5.05,1.55-.78,3.12-1.54,4.62-2.23,3-1.38,5.74-2.5,7.57-2.91,.65-.15,1.25-.25,1.81-.31,2.13-.24,3.64,.08,4.68,.68l-1.05-.61Z"/><path class="cls-17" d="M209.07,245.74c-1.04-.6-2.55-.92-4.68-.68-.56,.06-1.16,.16-1.81,.31-1.82,.41-4.57,1.52-7.57,2.91-1.51,.69-3.08,1.46-4.62,2.23-3.72,1.86-7.31,3.8-9.57,5.05l1.05,.61c2.27-1.25,5.86-3.18,9.57-5.05,1.55-.78,3.12-1.54,4.62-2.23,3-1.38,5.74-2.5,7.57-2.91,.65-.15,1.25-.25,1.81-.31,2.13-.24,3.64,.08,4.68,.68l-1.05-.61Z"/><path class="cls-17" d="M206.7,244.38c-1.04-.6-2.55-.92-4.68-.68-.56,.06-1.16,.16-1.81,.31-1.82,.41-4.57,1.52-7.57,2.91-1.51,.69-3.08,1.46-4.62,2.23-3.72,1.86-7.31,3.8-9.57,5.05l1.05,.61c2.27-1.25,5.86-3.18,9.57-5.05,1.55-.78,3.12-1.54,4.62-2.23,3-1.38,5.74-2.5,7.57-2.91,.65-.15,1.25-.25,1.81-.31,2.13-.24,3.64,.08,4.68,.68l-1.05-.61Z"/><path class="cls-17" d="M204.33,243.01c-1.04-.6-2.55-.92-4.68-.68-.56,.06-1.16,.16-1.81,.31-1.82,.41-4.57,1.52-7.57,2.91-1.51,.69-3.08,1.46-4.62,2.23-3.72,1.86-7.31,3.8-9.57,5.05l1.05,.61c2.27-1.25,5.86-3.18,9.57-5.05,1.55-.78,3.12-1.54,4.62-2.23,3-1.38,5.74-2.5,7.57-2.91,.65-.15,1.25-.25,1.81-.31,2.13-.24,3.64,.08,4.68,.68l-1.05-.61Z"/><path class="cls-17" d="M201.96,241.64c-1.04-.6-2.55-.92-4.68-.68-.56,.06-1.16,.16-1.81,.31-1.82,.41-4.57,1.52-7.57,2.91-1.51,.69-3.08,1.46-4.62,2.23-3.72,1.86-7.31,3.8-9.57,5.05l1.05,.61c2.27-1.25,5.86-3.18,9.57-5.05,1.55-.78,3.12-1.54,4.62-2.23,3-1.38,5.74-2.5,7.57-2.91,.65-.15,1.25-.25,1.81-.31,2.13-.24,3.64,.08,4.68,.68l-1.05-.61Z"/><path class="cls-17" d="M199.59,240.27c-1.04-.6-2.55-.92-4.68-.68-.56,.06-1.16,.16-1.81,.31-1.82,.41-4.57,1.52-7.57,2.91-1.51,.69-3.08,1.46-4.62,2.23-3.72,1.86-7.31,3.8-9.57,5.05l1.05,.61c2.27-1.25,5.86-3.18,9.57-5.05,1.55-.78,3.12-1.54,4.62-2.23,3-1.38,5.74-2.5,7.57-2.91,.65-.15,1.25-.25,1.81-.31,2.13-.24,3.64,.08,4.68,.68l-1.05-.61Z"/><path class="cls-17" d="M197.22,238.9c-1.04-.6-2.55-.92-4.68-.68-.56,.06-1.16,.16-1.81,.31-1.82,.41-4.57,1.52-7.57,2.91-1.51,.69-3.08,1.46-4.62,2.23-3.72,1.86-7.31,3.8-9.57,5.05l1.05,.61c2.27-1.25,5.86-3.18,9.57-5.05,1.55-.78,3.12-1.54,4.62-2.23,3-1.38,5.74-2.5,7.57-2.91,.65-.15,1.25-.25,1.81-.31,2.13-.24,3.64,.08,4.68,.68l-1.05-.61Z"/><path class="cls-17" d="M191.22,237.46c-.56,.06-1.16,.16-1.81,.31-2.74,.62-7.57,2.82-12.19,5.14-3.72,1.86-7.31,3.8-9.57,5.05l-1.05-.61c2.27-1.25,5.86-3.18,9.57-5.05,4.62-2.32,9.45-4.52,12.19-5.14,.65-.15,1.25-.25,1.81-.31,2.13-.24,3.64,.08,4.68,.68l1.05,.61c-1.04-.6-2.55-.92-4.68-.68Z"/><path class="cls-17" d="M188.85,236.09c-.56,.06-1.16,.16-1.81,.31-2.74,.62-7.57,2.82-12.19,5.14-3.72,1.86-7.31,3.8-9.57,5.05l-1.05-.61c2.27-1.25,5.86-3.18,9.57-5.05,4.62-2.32,9.45-4.52,12.19-5.14,.65-.15,1.25-.25,1.81-.31,2.13-.24,3.64,.08,4.68,.68l1.05,.61c-1.04-.6-2.55-.92-4.68-.68Z"/><path class="cls-17" d="M186.48,234.72c-.56,.06-1.16,.16-1.81,.31-2.74,.62-7.57,2.82-12.19,5.14-3.72,1.86-7.31,3.8-9.57,5.05l-1.05-.61c2.27-1.25,5.86-3.18,9.57-5.05,4.62-2.32,9.45-4.52,12.19-5.14,.65-.15,1.25-.25,1.81-.31,2.13-.24,3.64,.08,4.68,.68l1.05,.61c-1.04-.6-2.55-.92-4.68-.68Z"/><path class="cls-17" d="M184.11,233.35c-.56,.06-1.16,.16-1.81,.31-2.74,.62-7.57,2.82-12.19,5.14-3.72,1.86-7.31,3.8-9.57,5.05l-1.05-.61c2.27-1.25,5.86-3.18,9.57-5.05,4.62-2.32,9.45-4.52,12.19-5.14,.65-.15,1.25-.25,1.81-.31,2.13-.24,3.64,.08,4.68,.68l1.05,.61c-1.04-.6-2.55-.92-4.68-.68Z"/><path class="cls-17" d="M181.73,231.98c-.56,.06-1.16,.16-1.81,.31-2.74,.62-7.57,2.82-12.19,5.14-3.72,1.86-7.31,3.8-9.57,5.05l-1.05-.61c2.27-1.25,5.86-3.18,9.57-5.05,4.62-2.32,9.45-4.52,12.19-5.14,.65-.15,1.25-.25,1.81-.31,2.13-.24,3.64,.08,4.68,.68l1.05,.61c-1.04-.6-2.55-.92-4.68-.68Z"/><path class="cls-17" d="M179.36,230.62c-.56,.06-1.16,.16-1.81,.31-2.74,.62-7.57,2.82-12.19,5.14-3.72,1.86-7.31,3.8-9.57,5.05l-1.05-.61c2.27-1.25,5.86-3.18,9.57-5.05,4.62-2.32,9.45-4.52,12.19-5.14,.65-.15,1.25-.25,1.81-.31,2.13-.24,3.64,.08,4.68,.68l1.05,.61c-1.04-.6-2.55-.92-4.68-.68Z"/><path class="cls-17" d="M176.99,229.25c-.56,.06-1.16,.16-1.81,.31-2.74,.62-7.57,2.82-12.19,5.14-3.72,1.86-7.31,3.8-9.57,5.05l-1.05-.61c2.27-1.25,5.86-3.18,9.57-5.05,4.62-2.32,9.45-4.52,12.19-5.14,.65-.15,1.25-.25,1.81-.31,2.13-.24,3.64,.08,4.68,.68l1.05,.61c-1.04-.6-2.55-.92-4.68-.68Z"/><path class="cls-17" d="M174.62,227.88c-.56,.06-1.16,.16-1.81,.31-2.74,.62-7.57,2.82-12.19,5.14-3.72,1.86-7.31,3.8-9.57,5.05l-1.05-.61c2.27-1.25,5.86-3.18,9.57-5.05,4.62-2.32,9.45-4.52,12.19-5.14,.65-.15,1.25-.25,1.81-.31,2.13-.24,3.64,.08,4.68,.68l1.05,.61c-1.04-.6-2.55-.92-4.68-.68Z"/><path class="cls-17" d="M172.25,226.51c-.56,.06-1.16,.16-1.81,.31-2.74,.62-7.57,2.82-12.19,5.14-3.72,1.86-7.31,3.8-9.57,5.05l-1.05-.61c2.27-1.25,5.86-3.18,9.57-5.05,4.62-2.32,9.45-4.52,12.19-5.14,.65-.15,1.25-.25,1.81-.31,2.13-.24,3.64,.08,4.68,.68l1.05,.61c-1.04-.6-2.55-.92-4.68-.68Z"/></g><g><path class="cls-17" d="M223.44,243.54c-1.39,.8-2.68,1.97-3.75,3.21l-.96-.56c1.07-1.24,2.36-2.41,3.75-3.21l26.99-15.55,.96,.56-26.99,15.55Z"/><path class="cls-17" d="M223.44,243.54c-1.39,.8-2.68,1.97-3.75,3.21l-.96-.56c1.07-1.24,2.36-2.41,3.75-3.21l26.99-15.55,.96,.56-26.99,15.55Z"/><path class="cls-14" d="M217.97,246.31l.38-.45c1.22-1.41,2.55-2.55,3.88-3.31l27.23-15.69,1.94,1.12-27.72,15.97c-1.23,.71-2.48,1.78-3.62,3.1l-.26,.3-1.82-1.05Z"/><path class="cls-17" d="M221.07,242.17c-1.39,.8-2.68,1.97-3.75,3.21l-.96-.56c1.07-1.24,2.36-2.41,3.75-3.21l26.99-15.55,.96,.56-26.99,15.55Z"/><path class="cls-17" d="M218.7,240.8c-1.39,.8-2.68,1.97-3.75,3.21l-.96-.56c1.07-1.24,2.36-2.41,3.75-3.21l26.99-15.55,.96,.56-26.99,15.55Z"/><path class="cls-17" d="M216.33,239.43c-1.39,.8-2.68,1.97-3.75,3.21l-.96-.56c1.07-1.24,2.36-2.41,3.75-3.21l26.99-15.55,.96,.56-26.99,15.55Z"/><path class="cls-17" d="M213.97,238.07c-1.39,.8-2.68,1.97-3.75,3.21l-.96-.56c1.07-1.24,2.36-2.41,3.75-3.21l26.99-15.55,.96,.56-26.99,15.55Z"/><path class="cls-17" d="M211.6,236.7c-1.39,.8-2.68,1.97-3.75,3.21l-.96-.56c1.07-1.24,2.36-2.41,3.75-3.21l26.99-15.55,.96,.56-26.99,15.55Z"/><path class="cls-17" d="M209.23,235.33c-1.39,.8-2.68,1.97-3.75,3.21l-.96-.56c1.07-1.24,2.36-2.41,3.75-3.21l26.99-15.55,.96,.56-26.99,15.55Z"/><path class="cls-17" d="M206.86,233.96c-1.39,.8-2.68,1.97-3.75,3.21l-.96-.56c1.07-1.24,2.36-2.41,3.75-3.21l26.99-15.55,.96,.56-26.99,15.55Z"/><path class="cls-17" d="M204.49,232.6c-1.39,.8-2.68,1.97-3.75,3.21l-.96-.56c1.07-1.24,2.36-2.41,3.75-3.21l26.99-15.55,.96,.56-26.99,15.55Z"/><path class="cls-17" d="M202.12,231.23c-1.39,.8-2.68,1.97-3.75,3.21l-.96-.56c1.07-1.24,2.36-2.41,3.75-3.21l26.99-15.55,.96,.56-26.99,15.55Z"/><path class="cls-17" d="M199.75,229.86c-1.39,.8-2.68,1.97-3.75,3.21l-.96-.56c1.07-1.24,2.36-2.41,3.75-3.21l26.99-15.55,.96,.56-26.99,15.55Z"/><path class="cls-17" d="M197.39,228.49c-1.39,.8-2.68,1.97-3.75,3.21l-.96-.56c1.07-1.24,2.36-2.41,3.75-3.21l26.99-15.55,.96,.56-26.99,15.55Z"/><path class="cls-17" d="M195.02,227.13c-1.39,.8-2.68,1.97-3.75,3.21l-.96-.56c1.07-1.24,2.36-2.41,3.75-3.21l26.99-15.55,.96,.56-26.99,15.55Z"/><path class="cls-17" d="M192.65,225.76c-1.39,.8-2.68,1.97-3.75,3.21l-.96-.56c1.07-1.24,2.36-2.41,3.75-3.21l26.99-15.55,.96,.56-26.99,15.55Z"/><path class="cls-17" d="M190.28,224.39c-1.39,.8-2.68,1.97-3.75,3.21l-.96-.56c1.07-1.24,2.36-2.41,3.75-3.21l26.99-15.55,.96,.56-26.99,15.55Z"/><path class="cls-17" d="M187.91,223.02c-1.39,.8-2.68,1.97-3.75,3.21l-.96-.56c1.07-1.24,2.36-2.41,3.75-3.21l26.99-15.55,.96,.56-26.99,15.55Z"/><path class="cls-17" d="M185.54,221.66c-1.39,.8-2.68,1.97-3.75,3.21l-.96-.56c1.07-1.24,2.36-2.41,3.75-3.21l26.99-15.55,.96,.56-26.99,15.55Z"/><path class="cls-14" d="M215.63,244.92l.38-.45c1.22-1.41,2.55-2.55,3.88-3.31l27.23-15.69,1.94,1.12-27.72,15.97c-1.23,.71-2.48,1.78-3.62,3.1l-.26,.3-1.82-1.05Z"/><path class="cls-14" d="M213.28,243.52l.38-.45c1.22-1.41,2.55-2.55,3.88-3.31l27.23-15.69,1.94,1.12-27.72,15.97c-1.23,.71-2.48,1.78-3.62,3.1l-.26,.3-1.82-1.05Z"/><path class="cls-14" d="M210.94,242.12l.38-.45c1.22-1.41,2.55-2.55,3.88-3.31l27.23-15.69,1.94,1.12-27.72,15.97c-1.23,.71-2.48,1.78-3.62,3.11l-.26,.3-1.82-1.05Z"/><path class="cls-14" d="M196.75,233.88l.38-.45c1.22-1.41,2.55-2.55,3.88-3.31l27.23-15.69,1.94,1.12-27.72,15.97c-1.23,.71-2.48,1.78-3.62,3.1l-.26,.3-1.82-1.05Z"/><path class="cls-14" d="M194.4,232.48l.38-.45c1.22-1.41,2.55-2.55,3.88-3.31l27.23-15.69,1.94,1.12-27.72,15.97c-1.23,.71-2.48,1.78-3.62,3.1l-.26,.3-1.82-1.05Z"/><path class="cls-14" d="M192.06,231.08l.38-.45c1.22-1.41,2.55-2.55,3.88-3.31l27.23-15.69,1.94,1.12-27.72,15.97c-1.23,.71-2.48,1.78-3.62,3.1l-.26,.3-1.82-1.05Z"/></g><polygon class="cls-21" points="251.57 233.96 257.88 230.63 257.88 230.12 251.57 233.96"/><polygon class="cls-21" points="257.88 232.49 247.36 238.37 257.88 232.11 257.88 232.49"/><path class="cls-12" d="M149.28,231.99c5.69-3,13.31-6.75,17.33-7.52,3.25-.63,5.24-.19,6.45,.5h0s46.01,26.56,46.01,26.56c-1.04-.6-2.55-.92-4.68-.68,0,0-22.77-13.89-37.48-18.63-14.71-4.74-27.64-.22-27.64-.22Z"/></g><g><path class="cls-27" d="M117.34,124.87c-8.68,.49-18.94,5.6-20.37,18.25-1.21,10.68,.03,46.48,.75,54.68,.87,9.87,1.06,12.77,7.1,17.62,8.73,7.01,37.24,29.95,48.87,34.52,7.18,2.82,14.17,4.97,20.03,4.28l-16.72-9.64s6.13-.4,10.67-1.4c4.54-1,2.58-4.53-2.17-4.38-3.87,.12-10.07-4.58-19.54-5.01l5.36-2.85-31.3-30.53s.17-51.68-.76-48.19c-.08,.29-1.92-27.34-1.92-27.34Z"/><path class="cls-22" d="M118.35,123.59s-6.51-.18-10.75,1.63c-6.87,2.93-11.21,10.88-11.82,21.33-.48,8.08,0,35.76,0,35.76,0,0,11.61,4.29,24.41-.87,.11-.99,.98-30.21,.98-30.21,0,0,5.18-18.33-2.82-27.64Z"/></g></g></g><g id="Paper"><g><g class="cls-15"><path d="M322.99,249.51l-43.03,24.84c-.67,.39-1.75,.39-2.42,0l-31.67-18.28c-.67-.39-.67-1.01,0-1.4l43.03-24.84c.67-.39,1.75-.39,2.42,0l31.67,18.28c.67,.39,.67,1.01,0,1.4Z"/></g><g class="cls-15"><path d="M322.99,253.95l-43.03,24.84c-.67,.39-1.75,.39-2.42,0l-31.67-18.28c-.67-.39-.67-1.01,0-1.4l43.03-24.84c.67-.39,1.75-.39,2.42,0l31.67,18.28c.67,.39,.67,1.01,0,1.4Z"/></g><g><path class="cls-25" d="M322.99,251.73l-43.03,24.84c-.67,.39-1.75,.39-2.42,0l-31.67-18.28c-.67-.39-.67-1.01,0-1.4l43.03-24.84c.67-.39,1.75-.39,2.42,0l31.67,18.28c.67,.39,.67,1.01,0,1.4Z"/><path class="cls-17" d="M291.32,232.05l30.07,17.36-41.43,23.92c-.67,.39-1.75,.39-2.42,0l-30.07-17.36,41.43-23.92c.67-.39,1.75-.39,2.42,0Z"/><path class="cls-7" d="M322.99,247.36l-43.03,24.84c-.67,.39-1.75,.39-2.42,0l-31.67-18.28c-.67-.39-.67-1.01,0-1.4l43.03-24.84c.67-.39,1.75-.39,2.42,0l31.67,18.28c.67,.39,.67,1.01,0,1.4Z"/></g></g></g><g id="Pencil"><g id="Pencil-2"><path id="Shadow-5" class="cls-15" d="M267.4,221.35c-1.37,.7,2.09,3.14,3.81,2.2l30.03-17.59,3.6-3.8c.17-.18,0-.47-.24-.39l-6.95,2.12-30.25,17.46Z"/><g><g><path class="cls-27" d="M297.92,201.21l6.4-1.25c.19-.04,.31,.18,.19,.33l-4.34,4.92-2.24-3.99Z"/><path class="cls-11" d="M304.51,200.29c.13-.14,0-.36-.19-.33l-1.25,.24h0c.35,.22,.55,.61,.52,1.02v.11s.92-1.05,.92-1.05Z"/><path class="cls-13" d="M276.31,218.88l.52-.3,.63-.36,22.7-13.02c.24-.7,.12-1.46-.18-2.12-.45-1.02-1.34-1.82-2.06-1.86l-22.69,13.01-1.21,.69c.81-.41,3.08,3.54,2.28,3.96Z"/><path class="cls-25" d="M278.3,217.75l1.17-.67c.34-.18,.15-1.03-.26-1.91-.53-1.17-1.58-2.29-2.04-2.05l-.86,.49-.31,.18c.46-.24,1.51,.88,2.04,2.05,.39,.84,.58,1.66,.29,1.88h0s-.02,.02-.03,.02Z"/><path class="cls-13" d="M278.59,217.58c.8-.43-1.49-4.38-2.3-3.95l-1.17,.67c.8-.43,3.1,3.53,2.3,3.95l1.17-.67Z"/><path class="cls-25" d="M276.31,218.88l1.16-.66c.79-.41-1.39-4.25-2.23-3.99-.02,0-.03,.01-.05,.02l-1.16,.67c.81-.41,3.08,3.54,2.28,3.96Z"/><path class="cls-23" d="M304.54,200.07l-.22-.11-4.64,2.54-24.01,13.77c-.04-.07-.08-.08-.11-.03,.68,1.06,1.2,2.4,.75,2.64l.52-.3,.63-.36,22.7-13.02h0s4.34-4.92,4.34-4.92c.06-.07,.06-.15,.03-.22Z"/><path class="cls-6" d="M271.4,221.69l4.9-2.81c.34-.18,.15-1.02-.24-1.89-.53-1.17-1.58-2.31-2.04-2.07t0,0l-4.92,2.82c-.98,.56-.08,2.69,1.01,3.63,.41,.36,.86,.52,1.29,.31Z"/></g><path class="cls-16" d="M271.7,220.17c-.28-1.11-1.18-2.19-2-2.42-.3-.09-.55-.04-.73,.1-.74,.68,.12,2.63,1.15,3.53,.4,.35,.84,.51,1.26,.32,.37-.21,.51-.78,.32-1.53Z"/></g></g></g><g id="Lamp"><g id="Lamp-2"><ellipse id="Shadow-6" class="cls-15" cx="339.21" cy="231.37" rx="20.29" ry="11.24"/><g><g><g><path class="cls-13" d="M326.63,168.54c-2.27,8.65-10.03,11.48-17.33,6.32-7.3-5.16-11.39-16.35-9.12-25,2.27-8.65,10.03-11.48,17.33-6.32,7.3,5.16,11.39,16.35,9.12,25Z"/><path class="cls-13" d="M334.61,144.51l2.25,6.14,2.25,6.14c-2.57,6.78-8.42,16.1-19.24,20.07l-12.97-35.32c10.82-3.97,21.35-.53,27.7,2.97Z"/><g class="cls-28"><path d="M331.71,143.16s-5.65,6.41-2.64,13.21c0,0-3.96-4.77-3.05-9.27,.91-4.5,5.69-3.94,5.69-3.94Z"/></g></g><g><path class="cls-13" d="M330.56,143.53c6.31-2.27,12.02-.94,12.02-.94l1.79,4.97,.2,.55,1.79,4.97s-3.56,4.64-9.84,6.91c0,0-.01,0-.02,0,0,0,0,0-.01,0h0c-1.46,.52-3.2,.24-4.89-.96-3.39-2.41-5.27-7.62-4.21-11.63,.54-2.02,1.71-3.35,3.18-3.87h0Z"/><g class="cls-23"><path d="M330.56,143.53c6.31-2.27,12.02-.94,12.02-.94l1.79,4.97,.2,.55,1.79,4.97s-3.56,4.64-9.84,6.91c0,0-.01,0-.02,0,0,0,0,0-.01,0h0c-1.46,.52-3.2,.24-4.89-.96-3.39-2.41-5.27-7.62-4.21-11.63,.54-2.02,1.71-3.35,3.18-3.87h0Z"/></g><path class="cls-23" d="M306.92,141.54h0s.01,0,.02,0c.02,0,.05-.01,.07-.02,9.34-3.39,18.45-1.28,24.84,1.61,5.78-1.68,10.74-.53,10.74-.53l1.79,4.97,.2,.55,1.79,4.97s-2.99,3.88-8.31,6.28c-2.98,6.4-8.65,14.01-18.15,17.5h0c-3.14,1.16-6.92,.59-10.59-2-7.3-5.16-11.39-16.35-9.12-25,1.13-4.31,3.62-7.17,6.74-8.32Z"/><path class="cls-13" d="M347.5,151.08c-.7,2.66-3.09,3.52-5.34,1.93-2.24-1.59-3.49-5.04-2.78-7.7,.7-2.66,3.09-3.52,5.34-1.93,2.24,1.59,3.49,5.04,2.78,7.7Z"/></g></g><path class="cls-26" d="M339.05,156.78c.68-1.06,2.26-1.88,3.52-1.82,.67,.03,1.11,.31,1.28,.72h0s13.9,28.99,13.9,28.99h-.01c.13,.36,.07,.81-.24,1.29-.68,1.06-2.26,1.88-3.52,1.82-.68-.03-1.12-.31-1.28-.73h0s-13.87-28.93-13.87-28.93h0c-.16-.37-.1-.83,.22-1.34Z"/><g><path class="cls-13" d="M323.13,229.33c-.01-.45,.03-.9,.13-1.35,.81-5.05,5.17-10.5,8.21-12.24h17.16c3.04,1.74,7.4,7.19,8.21,12.24,.1,.45,.14,.9,.13,1.35,0,.08-.02,.23-.02,.23-.16,2.37-1.79,4.72-4.93,6.53-6.61,3.82-17.33,3.82-23.94,0-3.14-1.81-4.77-4.16-4.93-6.53,0,0-.02-.15-.02-.23Z"/><g class="cls-23"><path d="M323.13,229.33c-.01-.45,.03-.9,.13-1.35,.81-5.05,5.17-10.5,8.21-12.24h17.16c3.04,1.74,7.4,7.19,8.21,12.24,.1,.45,.14,.9,.13,1.35,0,.08-.02,.23-.02,.23-.16,2.37-1.79,4.72-4.93,6.53-6.61,3.82-17.33,3.82-23.94,0-3.14-1.81-4.77-4.16-4.93-6.53,0,0-.02-.15-.02-.23Z"/></g><path class="cls-13" d="M348.19,215.46c4.49,2.59,4.49,6.8,0,9.4-4.49,2.59-11.78,2.59-16.27,0-4.49-2.59-4.49-6.8,0-9.4s11.78-2.59,16.27,0Z"/></g><path class="cls-26" d="M342.18,218.22c1.25,.72,1.25,1.89,0,2.62-1.25,.72-3.28,.72-4.53,0-1.25-.72-1.25-1.89,0-2.62,1.25-.72,3.28-.72,4.53,0Z"/><polygon class="cls-26" points="351.07 187.92 337.1 218.62 342.75 220.42 356.33 190.68 351.07 187.92"/><g><path class="cls-13" d="M356.76,180.51h0c.8-.25,1.76,.03,2.66,.94,1.73,1.74,2.61,5.08,1.96,7.45-.29,1.07-.85,1.74-1.53,2.01v.02s-5.88,2.2-5.88,2.2l-2.93-10.49,5.7-2.15Z"/><g class="cls-23"><path d="M356.76,180.51h0c.8-.25,1.76,.03,2.66,.94,1.73,1.74,2.61,5.08,1.96,7.45-.29,1.07-.85,1.74-1.53,2.01v.02s-5.88,2.2-5.88,2.2l-2.93-10.49,5.7-2.15Z"/></g><path class="cls-13" d="M353.63,183.63c1.73,1.74,2.61,5.08,1.96,7.45-.65,2.37-2.57,2.88-4.3,1.13-1.73-1.74-2.61-5.08-1.96-7.45,.65-2.37,2.57-2.88,4.3-1.13Z"/></g></g></g></g><g id="Backpack"><g id="Backpack-2"><g><path class="cls-13" d="M58.21,261.65c-6.55-.49-21.91,8.37-24.5,13.34-2.72,5.21-15.62,77.12-10.44,84.21,6.51,8.9,40,27.56,55.13,27.97,12.48,.33,25-10.41,27.1-13.63,3.43-5.28,3.89-80.03,.3-86.54-5.81-10.55-39.24-24.72-47.58-25.35Z"/><path class="cls-5" d="M58.21,261.65c-6.55-.49-21.91,8.37-24.5,13.34-2.72,5.21-15.62,77.12-10.44,84.21,6.51,8.9,40,27.56,55.13,27.97,12.48,.33,25-10.41,27.1-13.63,3.43-5.28,3.89-80.03,.3-86.54-5.81-10.55-39.24-24.72-47.58-25.35Z"/><path class="cls-16" d="M108.28,325.07c-.01-3.13-.04-6.23-.1-9.22-.02-1.2-.05-2.38-.08-3.54-.06-2.32-.13-4.56-.22-6.69-.04-1.06-.09-2.1-.14-3.1-.08-1.5-.16-2.93-.25-4.27-.09-1.34-.19-2.59-.31-3.74-.04-.38-.07-.75-.11-1.11-.35-3.23-.77-5.5-1.28-6.41-.16-.3-.36-.6-.56-.9-.07-.1-.14-.2-.22-.3-.15-.2-.3-.41-.47-.62-.1-.12-.19-.24-.3-.36-.16-.19-.34-.39-.52-.58-.11-.12-.22-.25-.34-.37-.27-.28-.55-.56-.85-.84-.19-.18-.39-.36-.59-.54-.13-.12-.27-.24-.41-.36-.23-.2-.46-.39-.69-.59-.12-.1-.23-.19-.35-.29-.26-.22-.53-.43-.81-.65-6.02,2.1-11.72,4.1-11.89,4.2-.37,.21-6.56,3.46-6.81,12.63l-2.13,37.03-.21,3.52c-.2,4.91-7.08,49.97,6.94,48.17,.18-.02,.37-.04,.56-.06,9.52-2.76,17.69-9.98,19.35-12.53,.27-.41,.52-1.25,.75-2.44,.09-.48,.18-1.01,.27-1.6,.04-.29,.09-.6,.13-.92,.13-.96,.24-2.04,.35-3.21,.04-.39,.07-.8,.11-1.21,.53-6.21,.89-14.82,1.06-24.05,.03-1.85,.06-3.72,.08-5.6,.01-1.25,.02-2.51,.03-3.77,0-.63,0-1.26,0-1.89,0-1.26,0-2.52,0-3.77Z"/><path class="cls-9" d="M106.8,291.18c-.29-2.04-.62-3.5-1-4.19-5.81-10.55-39.24-24.72-47.58-25.35-6.55-.49-21.91,8.37-24.5,13.34-.42,.81-1.08,3.16-1.87,6.57,12.69,7.71,45.6,25.11,49.15,24.05,4.36-1.3,25.39-13.83,25.8-14.41v-.02Z"/><g><path class="cls-13" d="M63.38,346.47c-6.76-3.65-21.71-13.32-25.88-15.55-1.97-1.05-3.64-.96-4.75-.28-.64,.39-2.84,1.78-3.42,2.1-.95,.53-1.54,1.49-1.62,2.56-.55,7.82-.91,11.04-.78,14.83,.08,2.59,.42,4.91,4.05,7.85,3.63,2.94,19.44,12.56,24.14,15.15,4.42,2.45,9.18,4.34,11.22,2.99,.53-.35,2.93-1.74,3.55-2.16,.61-.4,.97-1.09,1.01-2.14,.16-4.01,.77-12.55,.96-15.46,.23-3.6-1.36-6.05-8.49-9.9Z"/><path class="cls-24" d="M63.38,346.47c-6.76-3.65-21.71-13.32-25.88-15.55-1.97-1.05-3.64-.96-4.75-.28-.64,.39-2.84,1.78-3.42,2.1-.95,.53-1.54,1.49-1.62,2.56-.55,7.82-.91,11.04-.78,14.83,.08,2.59,.42,4.91,4.05,7.85,3.63,2.94,19.44,12.56,24.14,15.15,4.42,2.45,9.18,4.34,11.22,2.99,.53-.35,2.93-1.74,3.55-2.16,.61-.4,.97-1.09,1.01-2.14,.16-4.01,.77-12.55,.96-15.46,.23-3.6-1.36-6.05-8.49-9.9Z"/><path class="cls-9" d="M67.82,355.23l3.61-2c-.88-2.14-3.16-4.13-8.05-6.77-6.76-3.65-21.71-13.32-25.88-15.55-1.97-1.05-3.64-.96-4.75-.28-.64,.39-2.84,1.78-3.42,2.1-.72,.4-1.22,1.03-1.47,1.78l39.96,20.71Z"/><path class="cls-13" d="M27.71,335.31c-.55,7.82-.91,11.04-.78,14.83,.08,2.59,.42,4.91,4.05,7.85,3.63,2.94,19.44,12.56,24.14,15.15,5.75,3.18,12.08,5.44,12.26,.85,.16-4.01,.77-12.55,.96-15.46,.23-3.6-1.36-6.05-8.49-9.9-6.76-3.65-21.71-13.32-25.88-15.55-3.53-1.88-6.09-.12-6.26,2.22Z"/><path class="cls-2" d="M27.71,335.31c-.55,7.82-.91,11.04-.78,14.83,.08,2.59,.42,4.91,4.05,7.85,3.63,2.94,19.44,12.56,24.14,15.15,5.75,3.18,12.08,5.44,12.26,.85,.16-4.01,.77-12.55,.96-15.46,.23-3.6-1.36-6.05-8.49-9.9-6.76-3.65-21.71-13.32-25.88-15.55-3.53-1.88-6.09-.12-6.26,2.22Z"/><path class="cls-13" d="M71.43,353.23c-.7-2.07-4.13-.71-4.93,2-.81,2.71-.8,6.34-1.19,7.51-.39,1.17-37.4-20.87-38.41-22.12-.47-.58,.11-7.16,1.48-8.33s4.5-3.22,6.56-2.78,24.51,13.99,28.9,16.37c4.39,2.38,7.84,4.8,7.59,7.36Z"/><path class="cls-16" d="M71.43,353.23c-.7-2.07-4.13-.71-4.93,2-.81,2.71-.8,6.34-1.19,7.51-.39,1.17-37.4-20.87-38.41-22.12-.47-.58,.11-7.16,1.48-8.33s4.5-3.22,6.56-2.78,24.51,13.99,28.9,16.37c4.39,2.38,7.84,4.8,7.59,7.36Z"/><path class="cls-26" d="M53.84,360.11l4.47,2.44c.54,.29,1.1,.05,1.25-.55l.57-2.26c.12-.49-.14-1.09-.58-1.34l-4.48-2.52c-.53-.3-1.08-.06-1.23,.53l-.58,2.37c-.12,.49,.14,1.09,.59,1.33Z"/><path class="cls-26" d="M31.78,346.92l4.47,2.44c.54,.29,1.1,.05,1.25-.55l.57-2.26c.12-.49-.14-1.09-.58-1.34l-4.48-2.52c-.53-.3-1.08-.06-1.23,.53l-.58,2.37c-.12,.49,.14,1.09,.59,1.33Z"/></g><path class="cls-23" d="M25.79,314.68c.87-5.68,1.38-9.56,2.33-14.32,1.85-1.31,4.41-2.94,4.41-2.94,5.32,1.87,10.65,3.74,15.97,5.62,4.98,1.75,9.96,3.5,14.94,5.26,1.13,.4,2.26,.8,3.39,1.19,1.06,.37,2.13,1.04,3.19,1.33,2.73,.74,6.8-1.47,8.88-3.04,2.08-1.57,3.35-3.06,5.98-3.62-.37,5.17-.79,10.34-1.24,15.5-.43,4.86-.51,9.79-2.18,14.39-1.03,2.44-2.66,4.19-5.25,4.82-2.85,.69-5.88,.41-8.74-.08,0,0-.42,4.36-.91,6.51-.7,1.9-3.47,3.46-3.87,3.35-2.52-.66-2.52-12.48-2.52-12.48l-18.96-10.29s-.68,4.24-1.29,6.31c-1.06,1.64-3.09,3.44-3.83,3.25-3.18-.81-1.79-13.52-1.79-13.52,0,0-5.71-3.18-8.52-7.25Z"/><path class="cls-13" d="M57.54,261.61c-7.19-.45-20.39,6.12-24.39,11.56-4,5.44-9.33,32.84-6.95,37.85,2.34,4.93,21.89,16.53,33.74,22.25,9.47,4.57,14.41,3.5,18.2,1.62,2.85-1.42,2.95-6.05,3.33-9.49,.97-8.84,2.24-24.7,7.91-29.58,5.67-4.87,16.04-8.63,17.41-4.61,0,0,1.95-5.8-8.75-12.19-17.73-10.58-31.65-16.86-40.5-17.41Z"/><path class="cls-16" d="M57.54,261.61c-7.19-.45-20.39,6.12-24.39,11.56-4,5.44-9.33,32.84-6.95,37.85,2.34,4.93,21.89,16.53,33.74,22.25,9.47,4.57,14.41,3.5,18.2,1.62,2.85-1.42,2.95-6.05,3.33-9.49,.97-8.84,2.24-24.7,7.91-29.58,5.67-4.87,16.04-8.63,17.41-4.61,0,0,1.95-5.8-8.75-12.19-17.73-10.58-31.65-16.86-40.5-17.41Z"/><g><path class="cls-22" d="M61.23,318.27l6.26,2.84s-2,15.52-2.45,23.17c0,0-1.7,3.2-3.13,3.66-1.43,.45-3.03-3.35-3.16-6.13-.13-2.78,1.4-16.95,2.49-23.53Z"/><path class="cls-26" d="M60.95,319.77l6.38,2.67c.77,.32,1.49-.09,1.61-.91l.45-3.14c.1-.68-.34-1.46-.97-1.73l-6.41-2.77c-.76-.33-1.47,.07-1.59,.89l-.45,3.28c-.09,.68,.35,1.45,.98,1.71Z"/><path class="cls-17" d="M62.06,338.74c.96,.46,1.69,1.73,1.62,2.84-.07,1.1-.91,1.65-1.87,1.22-.97-.43-1.69-1.7-1.62-2.84,.07-1.13,.91-1.68,1.87-1.22Z"/></g><g><path class="cls-22" d="M35.37,305.23l6.11,3.16s-1.81,15.33-2.66,22.95c0,0-1.86,3.11-3.32,3.49-1.45,.38-2.85-3.5-2.84-6.29,.01-2.79,1.28-16.79,2.71-23.31Z"/><path class="cls-26" d="M35.01,306.72l6.24,2.99c.75,.36,1.49-.01,1.65-.83l.61-3.11c.13-.67-.26-1.47-.88-1.78l-6.26-3.1c-.74-.37-1.48,0-1.63,.81l-.62,3.25c-.13,.67,.27,1.46,.89,1.76Z"/><path class="cls-17" d="M36.13,325.65c.94,.51,1.6,1.82,1.47,2.92-.13,1.1-.99,1.6-1.93,1.12-.94-.48-1.6-1.79-1.47-2.92,.13-1.13,1-1.63,1.93-1.12Z"/></g><g><path class="cls-13" d="M110.16,339.92c-.38-.22-5.89-4.83-6.53-5.21-1.14-.66-18.78,9.94-20.46,11.81-1.17,1.3-.59,22.42,0,23.96,.21,.55,6.32,4.66,6.53,5.21,.59,1.54,19.19-9.21,20.46-11.98,1.27-2.77,1.68-22.83,0-23.79Z"/><path class="cls-2" d="M110.16,339.92c-.38-.22-5.89-4.83-6.53-5.21-1.14-.66-18.78,9.94-20.46,11.81-1.17,1.3-.59,22.42,0,23.96,.21,.55,6.32,4.66,6.53,5.21,.59,1.54,19.19-9.21,20.46-11.98,1.27-2.77,1.68-22.83,0-23.79Z"/><path class="cls-13" d="M89.7,351.74c-1.17,1.3-.59,22.42,0,23.96,.59,1.54,19.19-9.21,20.46-11.98,1.27-2.77,1.68-22.83,0-23.79-1.14-.66-18.78,9.94-20.46,11.81Z"/><path class="cls-9" d="M103.63,334.72c.64,.37,6.15,4.99,6.52,5.2-1.13-.65-18.77,9.95-20.45,11.81l-6.54-5.2c1.67-1.88,19.32-12.48,20.46-11.81Z"/><path class="cls-24" d="M89.7,351.74c-1.17,1.3-.59,22.42,0,23.96,.59,1.54,19.19-9.21,20.46-11.98,1.27-2.77,1.68-22.83,0-23.79-1.14-.66-18.78,9.94-20.46,11.81Z"/><path class="cls-13" d="M83.17,346.53c1.31-.76,4.99,1.46,6.55,2.95s2.99,8.18,7.16,9.45,10.42-4.01,11.86-7.52c1.44-3.51,3.32-10.95,1.41-13.74-1.91-2.79-5.4-4.44-8.47-2.98-3.07,1.46-17.98,8.57-18.51,11.84Z"/><path class="cls-15" d="M83.17,346.53c1.31-.76,4.99,1.46,6.55,2.95s2.99,8.18,7.16,9.45,10.42-4.01,11.86-7.52c1.44-3.51,3.32-10.95,1.41-13.74-1.91-2.79-5.4-4.44-8.47-2.98-3.07,1.46-17.98,8.57-18.51,11.84Z"/><path class="cls-26" d="M102.03,350.44c-.96,.46-1.69,1.73-1.62,2.84,.07,1.1,.91,1.65,1.87,1.22,.97-.43,1.69-1.7,1.62-2.84-.07-1.13-.91-1.68-1.87-1.22Z"/></g></g></g></g><g id="Books"><g id="Books-2"><g id="Book"><g><polygon points="207.14 416.68 169.08 438.38 106.22 402.3 144.27 380.6 207.14 416.68"/><path class="cls-10" d="M168.65,436.73l36.71-21.07c-.96-2.72-.89-5.9,.2-9.52l-36.47,20.84s-.7,2.3-.43,9.74Z"/><path class="cls-11" d="M170.96,424.01c-1.95,1.12-3.53,3.84-3.53,6.07v7.09c0,2.24,1.58,3.14,3.53,2.02l36.18-20.76v-1.76s-35.69,20.35-35.69,20.35c-1.17,.67-2.12,.13-2.11-1.21l.03-6.57c0-1.34,.95-2.97,2.12-3.64l35.65-20.36v-1.99l-36.18,20.76Z"/><path class="cls-22" d="M207.13,403.25l-62.87-36.08-36.17,20.76c-1.95,1.12-3.53,3.84-3.53,6.07v7.1c0,1.11,.39,1.9,1.03,2.27l62.87,36.08c-.64-.37-1.03-1.15-1.03-2.27v-7.1c0-2.23,1.57-4.95,3.52-6.07l36.18-20.76Z"/><path class="cls-26" d="M168.46,426.63c-.64,1.1-1.03,2.34-1.03,3.45v7.1c0,1.11,.4,1.9,1.04,2.27l-62.87-36.08c-.64-.37-1.03-1.15-1.03-2.27v-7.1c0-1.12,.4-2.36,1.03-3.45l62.86,36.07Z"/></g></g><g id="Book-2"><g><polygon class="cls-17" points="203.4 398.36 168.12 418.47 109.83 385.02 145.11 364.91 203.4 398.36"/><path class="cls-3" d="M167.72,416.94l34.03-19.53c-.89-2.52-.82-5.47,.18-8.83l-33.82,19.32s-.65,2.13-.4,9.03Z"/><path class="cls-13" d="M169.86,405.15c-1.81,1.04-3.27,3.56-3.27,5.63v6.58c0,2.07,1.46,2.91,3.27,1.88l33.54-19.25v-1.63s-33.09,18.87-33.09,18.87c-1.08,.62-1.96,.12-1.96-1.13l.03-6.1c0-1.24,.88-2.76,1.96-3.38l33.05-18.88v-1.85l-33.54,19.25Z"/><path class="cls-18" d="M169.86,405.15c-1.81,1.04-3.27,3.56-3.27,5.63v6.58c0,2.07,1.46,2.91,3.27,1.88l33.54-19.25v-1.63s-33.09,18.87-33.09,18.87c-1.08,.62-1.96,.12-1.96-1.13l.03-6.1c0-1.24,.88-2.76,1.96-3.38l33.05-18.88v-1.85l-33.54,19.25Z"/><path class="cls-13" d="M203.4,385.91l-58.29-33.45-33.54,19.25c-1.81,1.04-3.27,3.56-3.27,5.63v6.58c0,1.03,.36,1.76,.96,2.1l58.29,33.45c-.6-.34-.96-1.07-.96-2.1v-6.58c0-2.07,1.46-4.59,3.26-5.63l33.54-19.24Z"/><path class="cls-23" d="M203.4,385.91l-58.29-33.45-33.54,19.25c-1.81,1.04-3.27,3.56-3.27,5.63v6.58c0,1.03,.36,1.76,.96,2.1l58.29,33.45c-.6-.34-.96-1.07-.96-2.1v-6.58c0-2.07,1.46-4.59,3.26-5.63l33.54-19.24Z"/><path class="cls-13" d="M167.54,407.58c-.59,1.02-.96,2.17-.96,3.2v6.58c0,1.03,.37,1.76,.96,2.1l-58.29-33.45c-.6-.34-.96-1.07-.96-2.1v-6.58c0-1.04,.37-2.18,.96-3.2l58.28,33.45Z"/><path class="cls-28" d="M167.54,407.58c-.59,1.02-.96,2.17-.96,3.2v6.58c0,1.03,.37,1.76,.96,2.1l-58.29-33.45c-.6-.34-.96-1.07-.96-2.1v-6.58c0-1.04,.37-2.18,.96-3.2l58.28,33.45Z"/></g></g></g></g><g id="Speech_Bubble"><g id="Bubble"><g id="Facebook"><g><path class="cls-13" d="M198.53,87.79c-.31-.18-.75-.16-1.22,.12-.96,.55-1.73,1.89-1.73,3,0,.55,.2,.94,.51,1.12,.08,.05,1.44,.84,1.52,.89,.31,.18,.75,.16,1.22-.12,.96-.55,1.73-1.89,1.73-3,0-.55-.19-.94-.51-1.12"/><path class="cls-13" d="M198.83,88.8c-.96,.55-1.73,1.89-1.73,3,0,1.1,.78,1.55,1.73,1,.96-.55,1.73-1.89,1.73-3,0-1.1-.78-1.55-1.73-1Z"/><path class="cls-4" d="M198.53,87.79l1.53,.89c-.31-.18-.75-.16-1.22,.12-.63,.36-1.17,1.06-1.48,1.81l-1.53-.89c.3-.75,.85-1.45,1.48-1.81,.48-.28,.91-.3,1.22-.12Z"/><path class="cls-15" d="M197.58,92.91c-.11-.06-1.42-.83-1.5-.87-.32-.18-.51-.57-.51-1.12l1.53,.89c0,.54,.18,.92,.48,1.11Z"/><path class="cls-16" d="M195.82,89.73l1.53,.89c-.16,.4-.25,.81-.25,1.19h0s-1.53-.89-1.53-.89c0-.38,.09-.79,.25-1.19Z"/></g></g><g id="Facebook-2"><g><path class="cls-13" d="M212.32,84.04c-.5-.29-1.18-.25-1.93,.19-1.51,.87-2.74,2.99-2.74,4.74,0,.88,.31,1.49,.81,1.77,.13,.07,1.64,.95,1.77,1.03,.49,.29,1.18,.25,1.93-.19,1.51-.87,2.74-2.99,2.74-4.74,0-.87-.31-1.48-.8-1.77"/><path class="cls-13" d="M212.17,85.26c-1.51,.87-2.74,2.99-2.74,4.74s1.22,2.45,2.74,1.58,2.74-2.99,2.74-4.74c0-1.74-1.23-2.45-2.74-1.58Z"/><path class="cls-4" d="M212.32,84.04l1.78,1.03c-.5-.29-1.18-.25-1.93,.19-.99,.57-1.86,1.68-2.34,2.86l-1.78-1.03c.48-1.19,1.35-2.29,2.34-2.86,.76-.44,1.44-.48,1.93-.19Z"/><path class="cls-15" d="M210.2,91.75c-.17-.1-1.62-.94-1.74-1-.5-.28-.81-.9-.81-1.77l1.78,1.03c0,.85,.29,1.45,.77,1.75Z"/><path class="cls-16" d="M208.05,87.09l1.78,1.03c-.25,.63-.4,1.27-.4,1.87h0s-1.78-1.03-1.78-1.03c0-.6,.15-1.25,.4-1.87Z"/></g></g><g id="Facebook-3"><g><path class="cls-13" d="M225.34,73.2c-.68-.39-1.62-.34-2.66,.26-2.08,1.2-3.76,4.11-3.76,6.51,0,1.2,.42,2.05,1.11,2.44,.18,.1,1.59,.92,1.77,1.02,.68,.39,1.62,.34,2.66-.26,2.08-1.2,3.76-4.11,3.76-6.51,0-1.2-.42-2.04-1.1-2.43"/><path class="cls-13" d="M224.46,74.49c-2.08,1.2-3.76,4.11-3.76,6.51s1.68,3.37,3.76,2.17c2.08-1.2,3.76-4.11,3.76-6.51,0-2.4-1.68-3.37-3.76-2.17Z"/><path class="cls-4" d="M225.34,73.2l1.78,1.03c-.68-.39-1.62-.34-2.66,.26-1.36,.79-2.55,2.31-3.21,3.94l-1.78-1.03c.66-1.63,1.85-3.15,3.21-3.93,1.04-.6,1.98-.66,2.66-.26Z"/><path class="cls-15" d="M221.75,83.4c-.23-.14-1.56-.9-1.72-.99-.68-.39-1.11-1.23-1.11-2.44l1.78,1.03c0,1.17,.4,2,1.05,2.4Z"/><path class="cls-16" d="M219.47,77.4l1.78,1.03c-.35,.86-.55,1.75-.55,2.57h0s-1.78-1.03-1.78-1.03c0-.83,.2-1.72,.55-2.57Z"/></g></g><g><path class="cls-13" d="M264.07,4.46c-1.89-1.11-4.36-1.02-7.06,.54-.49,.28,2.49,2.46,2.01,2.82-.26-1.9-1.04-3.26-2.16-3.94-.46-.28-5.77-3.21-6.25-3.47-1.18-.63-2.69-.54-4.34,.41-1.83,1.06-3.72,2.35-4.94,4.63,0,0-3.45-1.9-3.89-2.15-1.88-1.1-4.35-1-7.04,.56-5.71,3.3-10.37,11.94-10.7,19.64-1.41,.23-2.91,.78-4.46,1.68-8.31,4.8-15.05,17.67-15.05,28.75,0,5.88,1.9,10.07,4.91,11.99,.52,.33,6,3.33,6.49,3.6,2.62,1.45,6.01,1.28,9.72-.86,1.44-.83,2.83-1.91,4.14-3.17,.57,.71,1.23,1.28,1.96,1.71,.44,.25,2.17,1.25,2.6,1.5,2.25,1.31,5.19,1.21,8.4-.65,4.28-2.47,8.06-7.45,10.39-13.08,1.67,.47,3.66,.17,5.8-1.07,5.42-3.13,9.88-11.06,10.62-18.44,4.9-4.15,8.58-12.06,8.58-18.98,0-4.34-1.45-7.39-3.74-8.69-.43-.24-5.58-3.07-6.01-3.32Z"/><path class="cls-4" d="M264.07,4.46c-1.89-1.11-4.36-1.02-7.06,.54-.49,.28,2.49,2.46,2.01,2.82-.26-1.9-1.04-3.26-2.16-3.94-.46-.28-5.77-3.21-6.25-3.47-1.18-.63-2.69-.54-4.34,.41-1.83,1.06-3.72,2.35-4.94,4.63,0,0-3.45-1.9-3.89-2.15-1.88-1.1-4.35-1-7.04,.56-5.71,3.3-10.37,11.94-10.7,19.64-1.41,.23-2.91,.78-4.46,1.68-8.31,4.8-15.05,17.67-15.05,28.75,0,5.88,1.9,10.07,4.91,11.99,.52,.33,6,3.33,6.49,3.6,2.62,1.45,6.01,1.28,9.72-.86,1.44-.83,2.83-1.91,4.14-3.17,.57,.71,1.23,1.28,1.96,1.71,.44,.25,2.17,1.25,2.6,1.5,2.25,1.31,5.19,1.21,8.4-.65,4.28-2.47,8.06-7.45,10.39-13.08,1.67,.47,3.66,.17,5.8-1.07,5.42-3.13,9.88-11.06,10.62-18.44,4.9-4.15,8.58-12.06,8.58-18.98,0-4.34-1.45-7.39-3.74-8.69-.43-.24-5.58-3.07-6.01-3.32Z"/><path class="cls-13" d="M229.52,14.65c-2.14,3.69-3.55,8.07-3.73,12.18l-6.07-3.35c.17-4.11,1.6-8.49,3.74-12.18l6.06,3.34Z"/><path class="cls-16" d="M229.52,14.65c-2.14,3.69-3.55,8.07-3.73,12.18l-6.07-3.35c.17-4.11,1.6-8.49,3.74-12.18l6.06,3.34Z"/><path class="cls-15" d="M220.46,18.64c-.41,1.62-.67,3.25-.74,4.85l6.07,3.35c.07-1.59,.33-3.23,.74-4.84l-6.07-3.35Z"/><path class="cls-13" d="M211.28,69.32c-.75-.42-5.72-3.13-6.16-3.42-3.02-1.92-4.92-6.11-4.92-11.99,0-4.85,1.3-10.05,3.44-14.76l6.07,3.35c-2.15,4.71-3.44,9.91-3.44,14.77,0,5.93,1.93,10.14,5,12.05Z"/><path class="cls-16" d="M211.28,69.32c-.75-.42-5.72-3.13-6.16-3.42-3.02-1.92-4.92-6.11-4.92-11.99,0-4.85,1.3-10.05,3.44-14.76l6.07,3.35c-2.15,4.71-3.44,9.91-3.44,14.77,0,5.93,1.93,10.14,5,12.05Z"/><path class="cls-15" d="M205.12,65.9c.44,.28,5.41,3,6.16,3.42-3.07-1.91-5-6.12-5-12.05,0-.53,.02-1.07,.05-1.61l-6.07-3.35c-.03,.54-.05,1.08-.05,1.61,0,5.88,1.89,10.07,4.92,11.99Z"/><path class="cls-13" d="M229.75,68.52c-.64-.37-1.95-1.12-2.32-1.34-.73-.42-1.39-.99-1.96-1.7,.38-.36,.75-.74,1.12-1.14,.72,1.88,1.8,3.3,3.16,4.18Z"/><path class="cls-24" d="M229.75,68.52c-.64-.37-1.95-1.12-2.32-1.34-.73-.42-1.39-.99-1.96-1.7,.38-.36,.75-.74,1.12-1.14,.72,1.88,1.8,3.3,3.16,4.18Z"/><path class="cls-13" d="M273.82,16.47c0-7.9-4.81-11.54-10.73-8.11-1.5,.87-2.92,2.1-4.22,3.59,.17-.89,.27-1.78,.27-2.65,0-4.99-3.04-7.29-6.78-5.13-2.33,1.35-4.39,4.1-5.61,7.2-1.35-5.06-5.43-6.95-10.26-4.17-5.71,3.3-10.37,11.94-10.7,19.64-1.41,.23-2.91,.78-4.46,1.68-8.31,4.8-15.05,17.67-15.05,28.75s6.74,16.17,15.05,11.38c1.85-1.07,3.63-2.54,5.27-4.31,1.93,5.06,6.5,6.77,11.84,3.69,4.28-2.47,8.06-7.45,10.39-13.08,1.67,.47,3.66,.17,5.8-1.07,5.42-3.13,9.88-11.06,10.62-18.44,4.9-4.15,8.58-12.06,8.58-18.98Z"/><path class="cls-13" d="M261.86,9.15c-1.05,.77-2.06,1.71-3,2.79,.17-.89,.27-1.78,.27-2.65,0-.53-.03-1.02-.1-1.48,.08-.05,.15-.1,.23-.16l2.6,1.5Z"/><path class="cls-16" d="M261.86,9.15c-1.05,.77-2.06,1.71-3,2.79,.17-.89,.27-1.78,.27-2.65,0-.53-.03-1.02-.1-1.48,.08-.05,.15-.1,.23-.16l2.6,1.5Z"/><path class="cls-13" d="M248.75,7.62c-.79,1.13-1.48,2.4-2,3.74-.22-.82-.74-2.62-2.43-4.16-1.02-.93-2.98-1.77-2.98-1.77,.33-.64,.69-1.04,1.09-1.6l6.32,3.79Z"/><path class="cls-16" d="M248.75,7.62c-.79,1.13-1.48,2.4-2,3.74-.22-.82-.74-2.62-2.43-4.16-1.02-.93-2.98-1.77-2.98-1.77,.33-.64,.69-1.04,1.09-1.6l6.32,3.79Z"/></g><g><path class="cls-7" d="M226.53,41.55c-1.64,.94-2.96,3.24-2.96,5.13,0,1.89,1.33,2.65,2.96,1.71,1.64-.94,2.96-3.24,2.96-5.13,0-1.89-1.33-2.65-2.96-1.71Z"/><path class="cls-7" d="M239.62,33.97c-1.64,.94-2.96,3.24-2.96,5.13,0,1.89,1.33,2.65,2.96,1.71,1.64-.94,2.96-3.24,2.96-5.13,0-1.89-1.33-2.65-2.96-1.71Z"/><path class="cls-7" d="M252.7,26.42c-1.64,.94-2.96,3.24-2.96,5.13,0,1.89,1.33,2.65,2.96,1.71,1.64-.94,2.96-3.24,2.96-5.13,0-1.89-1.33-2.65-2.96-1.71Z"/></g></g></g></svg>