<?xml version="1.0" encoding="UTF-8"?><svg id="Layer_2" xmlns="http://www.w3.org/2000/svg" xmlns:xlink="http://www.w3.org/1999/xlink" viewBox="0 0 376.32 345.88"><defs><style>.cls-1{stroke-width:3px;}.cls-1,.cls-2,.cls-3,.cls-4,.cls-5,.cls-6,.cls-7{stroke-linecap:round;stroke-linejoin:round;}.cls-1,.cls-2,.cls-3,.cls-5,.cls-6,.cls-8,.cls-7{stroke:#263238;}.cls-1,.cls-2,.cls-9,.cls-4,.cls-10,.cls-6{fill:none;}.cls-2{stroke-width:.75px;}.cls-11,.cls-12,.cls-5,.cls-13,.cls-8{fill:#fff;}.cls-3,.cls-14{fill:#c6ff00;}.cls-9,.cls-4{stroke:#fff;}.cls-9,.cls-10,.cls-8{stroke-miterlimit:10;}.cls-15{clip-path:url(#clippath-2);}.cls-16{clip-path:url(#clippath-6);}.cls-10{stroke:#c6ff00;}.cls-12{opacity:.8;}.cls-17{clip-path:url(#clippath-7);}.cls-18{clip-path:url(#clippath-1);}.cls-19{clip-path:url(#clippath-4);}.cls-20{clip-path:url(#clippath-9);}.cls-21{clip-path:url(#clippath);}.cls-13{opacity:.53;}.cls-22{clip-path:url(#clippath-3);}.cls-8{stroke-width:2px;}.cls-23{clip-path:url(#clippath-8);}.cls-7,.cls-24{fill:#263238;}.cls-25{clip-path:url(#clippath-5);}.cls-26{opacity:.17;}</style><clipPath id="clippath"><rect class="cls-5" x="195.46" y="9.2" width="141.53" height="237.6" rx="7.39" ry="7.39"/></clipPath><clipPath id="clippath-1"><path class="cls-5" d="M188.73,193.63c-.93,.02-1.86,.08-2.77,.23,0,0-5.5-.25-9,8.5s-1,18.5-5.5,25.5-8,7.75-36.75,8-38.75,5.25-50.25-9.75-7-22.5-16.5-26c-4.69-1.73-7.73-1.14-9.97,.59-2.97,3.49-5.39,6.76-4.53,11.91,1.5,9,10.25,23.75,28.25,35.25s39.25,15.75,63,13.25,33.5-12.75,41.75-24.75,9.25-26.25,8-33.75c-.74-4.42-3.04-7.36-5.73-8.98Z"/></clipPath><clipPath id="clippath-2"><path class="cls-3" d="M142.52,106.83s9.9,4.86,14.75,6.16c4.86,1.31,16.06,1.31,16.62,5.42,.56,4.11-1.68,26.52-2.99,33.8-1.31,7.28-1.49,18.12-.75,20.92,.75,2.8,2.99,7.28,.37,11.77-2.61,4.48-4.11,10.27-10.08,9.34-5.98-.93-7.47-5.23-7.47-5.23l-36.42,4.48s-2.8-14.75-5.98-27.83c-3.17-13.07-9.71-31.75-9.15-40.71,.56-8.96,12.14-14.57,20.17-17.18,8.03-2.61,20.92-.93,20.92-.93Z"/></clipPath><clipPath id="clippath-3"><path class="cls-3" d="M113.57,152.96s1.12,13.26,2.24,19.24,1.31,10.46,1.31,10.46c0,0,4.48-.93,5.42,2.61,.93,3.55-.19,8.59-3.92,11.39-3.74,2.8-8.78,4.67-12.51,3.55s-5.04-10.46-5.04-16.25,0-13.26-1.68-17.56c-1.68-4.3,3.17-18.3,14.19-13.45Z"/></clipPath><clipPath id="clippath-4"><path class="cls-5" d="M128.14,121.59s5.98,17.74,8.59,17.18,3.92-19.61,3.92-19.61c0,0-5.42,4.11-12.51,2.43Z"/></clipPath><clipPath id="clippath-5"><path class="cls-5" d="M112.83,104.59s6.66,12,11.77,16.06c4.76,3.78,12.14,5.42,15.69,1.12,3.55-4.3,4.48-14.01,4.3-20.17-.19-6.16-4.67-10.27-9.71-15.31-5.04-5.04-12.7-11.58-17.74-8.22s-5.98,22.6-4.3,26.52Z"/></clipPath><clipPath id="clippath-6"><path class="cls-5" d="M151.32,199.1c-.67,.4-1.36,.77-2.1,1.04-1.79,.65-5.52,2.67-7.01,8.47-2,7.75,8,28.75,9.25,38s2.25,12.75,2.25,12.75c0,0,3.75,1,10,2s8.5-2.25,8.5-2.25c0,0,2.75-23-1.25-37s-4.75-20.5-10-22.5c-3.67-1.4-7.98-1.48-9.64-.51Z"/></clipPath><clipPath id="clippath-7"><path class="cls-3" d="M150.45,256.36s17.25,4.25,28,0c0,0-6.25,29-10.75,41.75s-4.25,18.75-5,25.75-5,19.25-10.5,21.25-6-7.5-2.25-16.75,5.25-20.5,3.75-34-3.25-38-3.25-38Z"/></clipPath><clipPath id="clippath-8"><path class="cls-5" d="M138.2,200.86s-9-3.75-15.5,2.25-4.5,19-4,21.5,1,5.25,1,5.25l1.25,31.75,17.5,.25s3.25-25.25,5.75-36.25,2.5-19.5-6-24.75Z"/></clipPath><clipPath id="clippath-9"><path class="cls-3" d="M116.7,256.61s3.25,24,6.5,35,6.5,24,6.5,37,10.5,18.5,13.25,16,.5-15-1.75-21.5-5.25-22.75-4.25-31.25,6.25-34,6.25-34c0,0-17.5,1-26.5-1.25Z"/></clipPath></defs><g id="Background_Simple"><g><path class="cls-14" d="M356.42,53.93S332.09,8.22,278.37,1.45c-53.73-6.77-91.23,26.24-130.77,43.17-20.7,8.87-44.35,5.42-66.33,9.71C10.99,68.06-15.49,154.02,13.79,202.91c25.34,42.32,69.95,64.33,137.86,69.41,67.92,5.08,115.56,11,176.39-30.47,60.82-41.48,56.77-127.82,28.38-187.92Z"/><path class="cls-12" d="M356.42,53.93S332.09,8.22,278.37,1.45c-53.73-6.77-91.23,26.24-130.77,43.17-20.7,8.87-44.35,5.42-66.33,9.71C10.99,68.06-15.49,154.02,13.79,202.91c25.34,42.32,69.95,64.33,137.86,69.41,67.92,5.08,115.56,11,176.39-30.47,60.82-41.48,56.77-127.82,28.38-187.92Z"/></g></g><g id="Shadow"><g><g><ellipse class="cls-14" cx="122.58" cy="303.96" rx="78.71" ry="22.21"/><ellipse class="cls-13" cx="122.58" cy="303.96" rx="78.71" ry="22.21"/></g><g><path class="cls-14" d="M343.8,303c0,3.73-33.94,6.76-75.81,6.76s-75.81-3.03-75.81-6.76,33.94-6.76,75.81-6.76,75.81,3.03,75.81,6.76Z"/><path class="cls-13" d="M343.8,303c0,3.73-33.94,6.76-75.81,6.76s-75.81-3.03-75.81-6.76,33.94-6.76,75.81-6.76,75.81,3.03,75.81,6.76Z"/></g></g></g><g id="Device"><g><path class="cls-7" d="M197.46,.5h137.51c6.17,0,11.18,5.01,11.18,11.18V244.32c0,6.17-5.01,11.18-11.18,11.18H197.46c-6.17,0-11.18-5.01-11.18-11.18V11.68c0-6.17,5.01-11.18,11.18-11.18Z" transform="translate(532.44 256) rotate(180)"/><g><rect class="cls-11" x="195.46" y="9.2" width="141.53" height="237.6" rx="7.39" ry="7.39"/><g class="cls-21"><g><path class="cls-14" d="M195.46,160.54v78.87c0,4.08,3.31,7.39,7.39,7.39h126.75c4.08,0,7.39-3.31,7.39-7.39v-78.87H195.46Z"/><path class="cls-13" d="M195.46,160.54v78.87c0,4.08,3.31,7.39,7.39,7.39h126.75c4.08,0,7.39-3.31,7.39-7.39v-78.87H195.46Z"/></g><g><circle class="cls-14" cx="265.72" cy="71.5" r="34.5"/><circle class="cls-13" cx="265.72" cy="71.5" r="34.5"/><g><path class="cls-24" d="M276.55,81.32c-2.4,0-4.42,1.63-5.03,3.83h-13.63c-.5-1.8-1.93-3.2-3.74-3.67v-1.56h23.44c.67,0,1.24-.48,1.37-1.13l2.76-14.52c.08-.41-.03-.83-.3-1.15-.27-.32-.66-.51-1.07-.51h-26.2v-6.52c0-.61-.39-1.14-.97-1.33l-7.59-2.41c-.73-.23-1.52,.17-1.75,.91-.23,.73,.17,1.52,.91,1.75l6.62,2.1v24.42c-2.16,.64-3.73,2.64-3.73,5.01,0,2.88,2.35,5.23,5.23,5.23,2.4,0,4.42-1.63,5.03-3.83h13.63c.61,2.21,2.63,3.83,5.03,3.83,2.88,0,5.23-2.35,5.23-5.23s-2.35-5.23-5.23-5.23Zm-16.03-15.91h4.01v11.73s0,0,0,0h-4.01s0,0,0,0v-11.73Zm6.8,0h4.01v11.73s0,0,0,0h-4.01s0,0,0,0v-11.73Zm9.11,11.73h-2.32s0,0,0,0v-11.73h4.54l-2.23,11.73Zm-18.7-11.73v11.73s0,0,0,0h-3.59v-11.73h3.59Zm-4.88,23.58c-1.35,0-2.44-1.09-2.44-2.44s1.09-2.44,2.44-2.44,2.44,1.09,2.44,2.44-1.09,2.44-2.44,2.44Zm23.7,0c-1.35,0-2.44-1.09-2.44-2.44s1.09-2.44,2.44-2.44,2.44,1.09,2.44,2.44-1.09,2.44-2.44,2.44Z"/><circle class="cls-8" cx="282.97" cy="61.31" r="10.19"/><polyline class="cls-1" points="278.27 60.13 282.19 65.62 289.24 56.6"/></g></g><rect class="cls-14" x="227.22" y="124.5" width="76.5" height="24" rx="3" ry="3"/><g><path d="M246.64,134.75c-.16-.18-.24-.39-.24-.64v-4.15c0-.17,0-.31,.02-.43,.01-.12,.04-.24,.08-.36,.04-.12,.1-.22,.17-.29s.18-.14,.31-.18c.13-.05,.28-.07,.47-.07h1.72c.29,0,.55,.02,.78,.05,.23,.03,.46,.1,.67,.19,.22,.09,.4,.21,.54,.36,.14,.15,.26,.34,.34,.57,.09,.23,.13,.51,.13,.82,0,.66-.21,1.16-.64,1.49-.43,.34-1.04,.51-1.82,.51h-1.14v1.5c0,.25-.08,.46-.24,.64-.16,.18-.35,.27-.58,.27s-.41-.09-.57-.27Zm2.26-3.14c.2,0,.36-.02,.5-.05,.13-.03,.25-.08,.35-.15,.1-.07,.17-.17,.22-.3,.05-.13,.07-.29,.07-.49,0-.36-.08-.61-.25-.73-.17-.13-.44-.19-.81-.19h-.95v1.92h.87Z"/><path d="M252.74,134.62c-.3-.3-.45-.72-.45-1.25v-1.84c0-.31,.06-.54,.17-.7,.12-.16,.3-.24,.55-.24,.24,0,.41,.08,.51,.23,.11,.16,.16,.39,.16,.71v1.81c0,.26,.07,.46,.2,.6,.13,.14,.3,.21,.51,.21,.25,0,.46-.09,.64-.28,.17-.19,.26-.42,.26-.71v-1.63c0-.31,.06-.54,.17-.7,.12-.16,.3-.24,.55-.24,.24,0,.41,.08,.51,.23,.11,.16,.16,.39,.16,.71v2.72c0,.26-.06,.45-.17,.58-.11,.12-.29,.19-.54,.19-.46,0-.69-.26-.69-.77v-.05c-.13,.3-.31,.52-.54,.66-.23,.14-.54,.22-.91,.22-.44,0-.81-.15-1.11-.46Z"/><path d="M257.73,134.08v-2.79c0-.18,.05-.33,.15-.45,.1-.12,.21-.19,.35-.21,.14-.02,.27-.02,.41,0,.14,.03,.25,.11,.35,.23,.1,.12,.15,.27,.15,.43v.15c.04-.11,.09-.21,.15-.31,.06-.1,.14-.2,.23-.3,.09-.1,.2-.18,.33-.24,.13-.06,.26-.09,.4-.09,.11,0,.2,.02,.29,.06,.08,.04,.15,.1,.18,.16,.04,.07,.07,.14,.08,.22,.02,.08,.01,.16,0,.25-.02,.08-.05,.16-.1,.22-.04,.07-.1,.12-.18,.17-.08,.04-.16,.06-.26,.06-.3,0-.56,.08-.79,.25-.22,.17-.33,.4-.33,.69v1.52c0,.31-.05,.54-.16,.69-.11,.15-.29,.22-.54,.22-.47,0-.7-.31-.7-.94Z"/><path d="M262.63,134.94c-.27-.09-.51-.23-.73-.41-.22-.18-.39-.42-.52-.72-.13-.3-.19-.64-.19-1.02,0-.44,.1-.83,.31-1.18,.21-.35,.49-.62,.84-.81,.36-.19,.75-.29,1.19-.29,.29,0,.56,.04,.8,.12s.44,.18,.58,.3c.09,.08,.15,.17,.19,.27,.03,.11,.04,.21,.02,.3-.02,.09-.07,.18-.12,.25-.06,.07-.14,.12-.23,.13-.09,.01-.2,0-.3-.06-.29-.15-.56-.22-.81-.2-.32,.02-.57,.12-.76,.31-.18,.19-.28,.47-.28,.86,0,.21,.03,.4,.1,.57,.07,.17,.18,.31,.34,.43,.16,.11,.36,.17,.59,.17,.28,0,.55-.07,.83-.21,.11-.05,.21-.07,.3-.05,.1,.02,.17,.06,.23,.15,.06,.08,.1,.17,.13,.27,.02,.1,.02,.2-.02,.31-.04,.11-.1,.2-.19,.28-.14,.12-.35,.21-.62,.28-.27,.07-.55,.11-.84,.11s-.58-.05-.85-.14Z"/><path d="M265.93,134.08v-4.51c0-.31,.05-.55,.15-.7s.28-.24,.51-.24c.48,0,.72,.31,.72,.94v1.69c.31-.55,.84-.8,1.58-.76,.19,.01,.37,.05,.54,.13,.17,.07,.32,.18,.46,.31,.13,.13,.24,.3,.32,.51,.08,.21,.12,.44,.12,.71v1.93c0,.31-.06,.55-.17,.71-.11,.16-.29,.24-.54,.24-.46,0-.69-.31-.69-.94v-1.85c0-.25-.07-.45-.2-.6-.13-.14-.3-.21-.51-.21-.25,0-.46,.09-.64,.28-.18,.18-.26,.42-.26,.72v1.66c0,.31-.05,.55-.16,.71-.11,.16-.29,.24-.54,.24-.46,0-.69-.31-.69-.94Z"/><path d="M271.56,134.72c-.27-.23-.4-.53-.4-.9,0-.54,.21-.92,.62-1.12,.41-.2,1.14-.3,2.18-.3v-.28c0-.45-.24-.68-.72-.68-.35,0-.77,.11-1.27,.32-.16,.06-.29,.04-.41-.08-.12-.12-.17-.26-.16-.44,0-.18,.09-.3,.25-.38,.2-.1,.46-.18,.78-.25,.32-.07,.62-.1,.9-.1s.55,.03,.77,.1c.22,.07,.43,.17,.6,.32,.18,.14,.31,.34,.4,.59,.09,.25,.14,.55,.14,.9v1.88c0,.18-.04,.34-.13,.47-.08,.13-.19,.2-.31,.23-.12,.03-.24,.03-.36,0-.12-.03-.22-.11-.31-.24-.09-.13-.13-.29-.13-.47v-.07c-.2,.58-.67,.86-1.41,.86-.42,0-.76-.12-1.03-.36Zm2.05-.72c.23-.21,.35-.48,.35-.8v-.18c-.17,0-.31,0-.42,0-.11,0-.23,0-.36,.02-.13,.01-.23,.03-.31,.04-.08,.02-.16,.05-.23,.08-.08,.03-.14,.08-.18,.12-.04,.05-.07,.11-.1,.18-.02,.07-.04,.15-.03,.24,0,.16,.06,.29,.15,.4,.09,.11,.23,.17,.4,.18,.26,.02,.51-.07,.74-.28Z"/><path d="M276.3,134.54c-.08-.06-.13-.13-.16-.22-.03-.09-.03-.17,0-.25,.03-.08,.07-.15,.13-.22,.06-.06,.14-.1,.23-.11,.09,0,.19,.01,.3,.07,.02,0,.08,.04,.17,.09,.09,.05,.17,.09,.23,.12,.07,.03,.16,.06,.28,.09,.12,.03,.25,.05,.38,.06,.09,.01,.19,.01,.29,0,.11,0,.2-.03,.29-.05s.17-.07,.23-.13c.06-.06,.09-.14,.09-.24,0-.08-.05-.15-.14-.22-.09-.07-.22-.13-.39-.17l-.61-.16c-.23-.06-.41-.12-.55-.17-.14-.05-.28-.11-.42-.18-.14-.07-.25-.16-.32-.25-.07-.09-.13-.2-.18-.33-.04-.13-.07-.28-.07-.46,0-.43,.19-.76,.55-.99s.86-.33,1.48-.29c.18,0,.35,.03,.51,.07,.16,.04,.28,.07,.37,.1,.08,.03,.19,.08,.32,.14,.1,.05,.18,.11,.23,.2,.05,.09,.07,.17,.06,.26,0,.08-.04,.16-.08,.24-.05,.07-.11,.12-.21,.14-.09,.02-.2,.01-.31-.03-.28-.11-.58-.18-.89-.21-.11,0-.22,0-.34,0-.12,0-.23,.03-.32,.09-.1,.05-.15,.12-.15,.21,0,.11,.04,.19,.12,.25,.08,.06,.21,.11,.38,.15l.6,.15c.25,.06,.45,.13,.62,.2,.16,.07,.32,.15,.45,.25,.13,.1,.24,.23,.3,.38,.07,.15,.1,.32,.11,.53,0,.33-.08,.6-.25,.83-.17,.23-.41,.39-.7,.5-.29,.1-.63,.15-1.01,.13-.64-.02-1.2-.2-1.67-.53Z"/><path d="M281.65,134.83c-.35-.17-.63-.42-.84-.77-.21-.35-.31-.77-.31-1.27,0-.43,.1-.81,.29-1.16,.19-.34,.46-.62,.82-.81,.35-.2,.75-.3,1.21-.3,.36,0,.68,.06,.95,.17,.27,.11,.49,.27,.64,.47,.16,.2,.28,.43,.35,.68,.08,.25,.12,.52,.12,.82,0,.24-.15,.36-.44,.36h-2.55c.03,.71,.42,1.07,1.15,1.07,.21,0,.4-.04,.6-.12,.19-.08,.36-.18,.51-.3,.12-.07,.24-.08,.37-.02,.12,.06,.21,.17,.26,.34,.05,.16,.02,.3-.09,.41-.1,.09-.19,.16-.29,.23-.09,.06-.21,.13-.36,.21-.15,.08-.32,.13-.51,.17-.2,.04-.41,.06-.64,.06-.46,0-.87-.08-1.22-.25Zm2.05-2.44c-.02-.34-.1-.6-.23-.78-.13-.18-.35-.27-.65-.27-.28,0-.51,.1-.67,.29s-.25,.45-.27,.76h1.82Z"/><path d="M242.51,143.38c-.27-.09-.51-.23-.73-.41-.22-.18-.39-.42-.52-.72-.13-.3-.19-.64-.19-1.02,0-.44,.1-.83,.31-1.18,.21-.35,.49-.62,.84-.81,.36-.19,.75-.29,1.19-.29,.29,0,.56,.04,.8,.12,.25,.08,.44,.18,.58,.3,.09,.08,.15,.17,.19,.27,.03,.11,.04,.21,.02,.3-.02,.09-.07,.18-.12,.25-.06,.07-.14,.12-.23,.13-.09,.01-.2,0-.3-.06-.29-.15-.56-.22-.81-.2-.32,.02-.57,.12-.76,.31-.18,.19-.28,.47-.28,.86,0,.21,.03,.4,.1,.57,.07,.17,.18,.31,.34,.43,.16,.11,.36,.17,.59,.17,.28,0,.55-.07,.83-.21,.11-.05,.21-.07,.3-.05,.1,.02,.17,.06,.23,.15,.06,.08,.1,.17,.13,.27,.02,.1,.02,.2-.02,.31-.04,.11-.1,.2-.19,.28-.14,.12-.35,.21-.62,.28-.27,.07-.55,.11-.84,.11s-.58-.05-.85-.14Z"/><path d="M246.27,142.89c-.42-.41-.62-.96-.62-1.65,0-.32,.05-.62,.15-.89,.1-.27,.25-.51,.44-.73,.19-.21,.45-.38,.76-.5,.31-.12,.67-.18,1.07-.18,.77,0,1.37,.21,1.79,.63,.42,.42,.63,.97,.63,1.67,0,.32-.05,.61-.15,.89-.1,.27-.25,.51-.45,.72-.2,.21-.45,.37-.76,.49-.31,.12-.67,.18-1.07,.18-.78,0-1.38-.21-1.79-.62Zm2.53-.65c.17-.24,.25-.57,.25-1s-.08-.78-.25-1.02c-.17-.24-.41-.36-.73-.36s-.57,.12-.73,.36c-.17,.24-.25,.58-.25,1.02,0,.42,.08,.75,.25,.99,.17,.24,.41,.36,.73,.36s.57-.12,.73-.36Z"/><path d="M251.53,143.22c-.11-.16-.16-.39-.16-.7v-2.58c0-.31,.06-.53,.16-.68,.11-.15,.29-.22,.53-.22s.4,.06,.53,.19c.12,.12,.18,.3,.18,.54v.09c.11-.3,.29-.52,.55-.67,.26-.15,.57-.22,.93-.22,.17,0,.32,.01,.45,.04,.13,.02,.25,.07,.38,.13,.13,.06,.24,.16,.33,.29,.09,.13,.17,.29,.23,.49,.09-.19,.2-.35,.32-.49,.12-.13,.26-.23,.41-.29,.15-.06,.29-.11,.44-.13,.14-.02,.3-.04,.47-.04,.44,0,.79,.14,1.06,.42,.27,.28,.41,.69,.41,1.21v1.93c0,.31-.05,.55-.16,.71-.11,.16-.29,.24-.54,.24-.47,0-.7-.31-.7-.94v-1.85c0-.25-.07-.44-.2-.59-.13-.15-.3-.22-.5-.22-.25,0-.47,.09-.64,.25-.17,.17-.26,.41-.26,.72v1.69c0,.31-.06,.55-.17,.71-.11,.16-.29,.24-.54,.24-.46,0-.69-.31-.69-.94v-1.75c0-.29-.06-.51-.18-.67-.12-.16-.29-.23-.51-.23-.26,0-.48,.08-.64,.23-.17,.15-.25,.37-.25,.65v1.78c0,.63-.24,.94-.73,.94-.24,0-.41-.08-.51-.24Z"/><path d="M259.94,144.85c-.11-.16-.16-.39-.16-.71v-4.1c0-.31,.06-.56,.18-.73,.12-.18,.3-.26,.53-.26,.22,0,.38,.06,.5,.19,.12,.13,.18,.29,.18,.5v.05c.13-.28,.33-.49,.58-.63,.25-.14,.55-.2,.88-.2,.56,0,1.02,.2,1.38,.6s.53,.97,.53,1.71c0,.37-.05,.7-.16,1-.1,.29-.25,.53-.43,.71s-.39,.32-.62,.41c-.23,.09-.49,.14-.76,.14-.33,0-.62-.07-.86-.2-.25-.13-.42-.32-.54-.55v1.38c0,.63-.24,.94-.73,.94-.24,0-.41-.08-.51-.24Zm3.01-2.62c.17-.25,.26-.59,.26-1.02,0-.17-.02-.33-.05-.48-.04-.15-.09-.29-.16-.43-.07-.13-.17-.24-.31-.32-.13-.08-.29-.12-.46-.12-.69,0-1.04,.46-1.04,1.37,0,.46,.09,.8,.27,1.03,.18,.23,.43,.34,.75,.34s.58-.12,.75-.37Z"/><path d="M265.66,143.23c-.1-.16-.16-.39-.16-.7v-4.52c0-.31,.05-.54,.16-.7,.1-.16,.27-.24,.51-.24,.25,0,.44,.08,.55,.24,.12,.16,.17,.39,.17,.7v4.52c0,.31-.06,.54-.17,.7-.12,.16-.3,.24-.55,.24-.24,0-.41-.08-.51-.24Z"/><path d="M268.92,143.27c-.35-.17-.63-.42-.84-.77-.21-.35-.31-.77-.31-1.27,0-.43,.1-.81,.29-1.16,.19-.34,.46-.62,.82-.81,.35-.2,.75-.3,1.21-.3,.36,0,.68,.06,.95,.17,.27,.11,.49,.27,.64,.47,.16,.2,.28,.43,.35,.68,.08,.25,.12,.52,.12,.82,0,.24-.15,.36-.44,.36h-2.55c.03,.71,.42,1.07,1.15,1.07,.21,0,.4-.04,.6-.12,.19-.08,.36-.18,.51-.3,.12-.07,.24-.08,.37-.02,.12,.06,.21,.17,.26,.34,.05,.16,.02,.3-.09,.41-.1,.09-.19,.16-.29,.23-.09,.06-.21,.13-.36,.21-.15,.08-.32,.13-.51,.17-.2,.04-.41,.06-.64,.06-.46,0-.87-.08-1.22-.25Zm2.05-2.44c-.02-.34-.1-.6-.23-.78-.13-.18-.35-.27-.65-.27-.28,0-.51,.1-.67,.29-.16,.2-.25,.45-.27,.76h1.82Z"/><path d="M273.67,143.12c-.24-.26-.36-.68-.36-1.28v-1.87h-.27c-.16,0-.29-.04-.37-.12-.08-.08-.12-.21-.12-.39,0-.31,.16-.46,.47-.46h.38l.1-.86c.05-.54,.28-.81,.67-.81,.36,0,.54,.3,.54,.89v.78h.54c.31,0,.46,.16,.46,.49,0,.16-.04,.28-.12,.36-.08,.08-.2,.12-.37,.12h-.51v1.56c0,.38,.04,.64,.13,.78,.09,.14,.25,.21,.48,.2h.25c.08-.02,.15,0,.22,.06,.06,.05,.11,.12,.13,.2,.02,.08,.03,.16,.03,.25,0,.08-.03,.16-.07,.24-.04,.07-.11,.12-.18,.15-.2,.08-.54,.12-1.02,.12-.44,0-.78-.14-1.02-.4Z"/><path d="M277.64,143.27c-.35-.17-.63-.42-.84-.77-.21-.35-.31-.77-.31-1.27,0-.43,.1-.81,.29-1.16,.19-.34,.46-.62,.82-.81,.35-.2,.75-.3,1.21-.3,.36,0,.68,.06,.95,.17,.27,.11,.49,.27,.64,.47,.16,.2,.28,.43,.35,.68,.08,.25,.12,.52,.12,.82,0,.24-.15,.36-.44,.36h-2.55c.03,.71,.41,1.07,1.15,1.07,.2,0,.4-.04,.6-.12,.19-.08,.36-.18,.51-.3,.12-.07,.24-.08,.37-.02,.12,.06,.21,.17,.26,.34,.05,.16,.02,.3-.09,.41-.1,.09-.19,.16-.29,.23-.09,.06-.21,.13-.36,.21-.15,.08-.32,.13-.51,.17-.2,.04-.41,.06-.64,.06-.46,0-.87-.08-1.22-.25Zm2.05-2.44c-.02-.34-.1-.6-.23-.78-.13-.18-.35-.27-.65-.27-.28,0-.51,.1-.67,.29-.16,.2-.25,.45-.27,.76h1.82Z"/><path d="M282.07,142.95c-.35-.4-.53-.97-.53-1.71,0-.37,.05-.7,.16-1,.1-.29,.25-.53,.43-.71,.18-.18,.39-.32,.62-.41,.23-.09,.49-.14,.76-.14,.33,0,.62,.07,.86,.2s.42,.32,.54,.56v-1.74c0-.31,.06-.54,.17-.7,.12-.16,.3-.24,.55-.24,.24,0,.41,.08,.51,.23,.1,.16,.16,.39,.16,.71v4.47c0,.31-.06,.56-.18,.73-.12,.18-.29,.26-.53,.26-.22,0-.38-.06-.5-.19-.12-.13-.18-.29-.18-.5v-.05c-.25,.55-.74,.82-1.46,.82-.57,0-1.02-.2-1.38-.59Zm2.83-1.68c0-.46-.09-.8-.27-1.03-.18-.23-.43-.35-.75-.35s-.58,.12-.75,.38c-.17,.25-.25,.59-.25,1.02,0,.17,.02,.33,.05,.49,.04,.16,.09,.3,.16,.44,.07,.14,.17,.25,.31,.33,.13,.08,.29,.13,.46,.13,.69,0,1.04-.47,1.04-1.41Z"/><path d="M287.73,137.6c-.04-.34,.09-.58,.39-.72,.3-.14,.6-.14,.9,0,.3,.14,.43,.38,.39,.72l-.41,3.26c-.01,.13-.06,.24-.15,.32-.08,.08-.18,.11-.27,.11s-.19-.04-.28-.11c-.08-.08-.13-.18-.15-.32l-.41-3.26Zm.32,5.68c-.14-.15-.22-.32-.22-.53s.07-.38,.21-.53c.14-.15,.32-.22,.53-.22,.2,0,.37,.07,.52,.21s.22,.32,.22,.54c0,.21-.07,.38-.21,.53-.14,.15-.32,.22-.53,.22s-.38-.07-.53-.22Z"/></g><line class="cls-6" x1="211.35" y1="180.93" x2="319.73" y2="180.93"/><line class="cls-6" x1="211.35" y1="193.87" x2="319.73" y2="193.87"/><line class="cls-6" x1="211.35" y1="206.81" x2="319.73" y2="206.81"/><line class="cls-6" x1="211.35" y1="219.75" x2="319.73" y2="219.75"/><path class="cls-14" d="M329.59,9.2h-126.75c-4.08,0-7.39,3.31-7.39,7.39v5.29h81.68l4.31-4.85h55.54v-.43c0-4.08-3.31-7.39-7.39-7.39Z"/></g><rect class="cls-6" x="195.46" y="9.2" width="141.53" height="237.6" rx="7.39" ry="7.39"/></g><path class="cls-11" d="M343.92,215.32v7.58c0,.4,.33,.73,.73,.73h0c.4,0,.73-.33,.73-.73v-7.58c0-.4-.33-.73-.73-.73h0c-.4,0-.73,.33-.73,.73Z"/><path class="cls-11" d="M343.92,186.26v15.61c0,.34,.33,.62,.73,.62h0c.4,0,.73-.28,.73-.62v-15.61c0-.34-.33-.62-.73-.62h0c-.4,0-.73,.28-.73,.62Z"/></g></g><g id="Plants"><g><g><path class="cls-10" d="M41.36,232.61s4-10-9.33-36c-13.33-26-.67-68-.67-68"/><path class="cls-10" d="M49.36,235.28s4.67-10-.67-24.67c-5.33-14.67-3.92-22.99-3.92-22.99"/><path class="cls-10" d="M29.07,189.96s-10.38-12.68-14.38-28.02c-4-15.33-4-22.67-4-22.67"/><path class="cls-10" d="M35.36,229.94s-4.67-6-6-24c-1.33-18,3.33-32.67,3.33-32.67"/></g><polygon class="cls-11" points="30.22 286.48 53.95 286.48 56.92 228.09 27.26 228.09 30.22 286.48"/><polygon class="cls-26" points="30.22 286.48 53.95 286.48 56.92 228.09 27.26 228.09 30.22 286.48"/><path class="cls-14" d="M36.13,196.56c.05,.4,.59,.69,.7,1.07,.1,.39-.22,.91-.07,1.28,.15,.37,.75,.51,.95,.85,.2,.34,.02,.94,.26,1.25,.24,.31,.86,.3,1.14,.58,.28,.28,.26,.9,.58,1.14,.31,.24,.91,.07,1.25,.27,.34,.2,.49,.8,.85,.95,.36,.15,.89-.17,1.28-.07,.38,.1,.67,.64,1.07,.7,.39,.05,.81-.4,1.21-.4s.83,.45,1.21,.4c.4-.05,.69-.6,1.07-.7,.38-.1,.91,.22,1.28,.07,.37-.15,.51-.75,.85-.95,.34-.2,.94-.02,1.25-.26,.31-.24,.3-.86,.58-1.14,.28-.28,.9-.26,1.14-.58,.24-.31,.07-.91,.27-1.25,.2-.34,.8-.49,.95-.85,.15-.36-.17-.89-.07-1.28,.1-.38,.64-.67,.7-1.07,.05-.39-.4-.81-.4-1.21s.45-.83,.4-1.21c-.05-.4-.59-.69-.7-1.07-.1-.39,.22-.91,.07-1.28-.15-.37-.75-.51-.95-.85-.2-.34-.02-.94-.26-1.25-.24-.31-.86-.3-1.14-.58s-.26-.9-.58-1.14c-.31-.24-.91-.07-1.25-.27-.34-.2-.49-.8-.85-.95-.36-.15-.89,.17-1.28,.07-.38-.1-.67-.64-1.07-.7-.39-.05-.81,.4-1.21,.4s-.83-.45-1.21-.4c-.4,.05-.69,.59-1.07,.7-.38,.1-.91-.22-1.28-.07-.37,.15-.51,.75-.85,.95-.34,.2-.94,.02-1.25,.26-.31,.24-.3,.86-.58,1.14-.28,.28-.9,.26-1.14,.58-.24,.31-.07,.91-.27,1.25-.2,.34-.8,.49-.95,.85-.15,.36,.17,.89,.07,1.28-.1,.38-.64,.67-.7,1.07-.05,.39,.4,.81,.4,1.22s-.45,.83-.4,1.21Zm-12.58-26.29c0-.51-.56-1.04-.5-1.53,.07-.5,.75-.87,.88-1.35,.13-.49-.28-1.15-.09-1.61,.19-.46,.95-.65,1.2-1.08,.25-.43,.03-1.18,.33-1.58,.3-.4,1.08-.38,1.44-.73,.35-.35,.33-1.13,.73-1.44,.39-.3,1.14-.08,1.58-.33,.43-.25,.61-1.01,1.08-1.2,.46-.19,1.12,.22,1.61,.09,.48-.13,.85-.81,1.35-.88,.49-.06,1.03,.5,1.53,.5s1.04-.56,1.53-.5c.5,.07,.87,.75,1.35,.88,.49,.13,1.15-.28,1.61-.09,.46,.19,.65,.95,1.08,1.2,.43,.25,1.18,.03,1.58,.33,.4,.3,.38,1.08,.73,1.44,.35,.35,1.13,.33,1.44,.73,.3,.39,.08,1.14,.33,1.58,.25,.43,1.01,.61,1.2,1.08,.19,.46-.22,1.12-.09,1.61,.13,.48,.81,.85,.88,1.35,.06,.49-.5,1.03-.5,1.53s.56,1.04,.5,1.53c-.07,.5-.75,.87-.88,1.35-.13,.49,.28,1.15,.09,1.61-.19,.46-.95,.65-1.2,1.08-.25,.43-.03,1.18-.33,1.58-.3,.4-1.08,.38-1.44,.73-.35,.35-.33,1.13-.73,1.44-.39,.3-1.14,.08-1.58,.33-.43,.25-.61,1.01-1.08,1.2-.46,.19-1.12-.22-1.61-.09-.48,.13-.85,.81-1.35,.88-.49,.06-1.03-.5-1.53-.5s-1.04,.56-1.53,.5c-.5-.07-.87-.75-1.35-.88-.49-.13-1.15,.28-1.61,.09-.46-.19-.65-.95-1.08-1.2-.43-.25-1.18-.03-1.58-.33-.4-.3-.38-1.08-.73-1.44-.35-.35-1.13-.33-1.44-.73-.3-.39-.08-1.14-.33-1.58-.25-.43-1.01-.61-1.2-1.08-.19-.46,.22-1.12,.09-1.61-.13-.48-.81-.85-.88-1.35-.06-.49,.5-1.03,.5-1.53Zm-1.35,44.72c0-.51-.56-1.04-.5-1.53,.07-.5,.75-.87,.88-1.35,.13-.49-.28-1.15-.09-1.61,.19-.46,.95-.65,1.2-1.08,.25-.43,.03-1.18,.33-1.58,.3-.4,1.08-.38,1.44-.73s.33-1.13,.73-1.44c.39-.3,1.14-.08,1.58-.33,.43-.25,.61-1.01,1.08-1.2,.46-.19,1.12,.22,1.61,.09,.48-.13,.85-.81,1.35-.88,.49-.06,1.03,.5,1.53,.5s1.04-.56,1.53-.5c.5,.07,.87,.75,1.35,.88,.49,.13,1.15-.28,1.61-.09,.46,.19,.65,.95,1.08,1.2,.43,.25,1.18,.03,1.58,.33,.4,.3,.38,1.08,.73,1.44,.35,.35,1.13,.33,1.44,.73,.3,.39,.08,1.14,.33,1.58,.25,.43,1.01,.61,1.2,1.08,.19,.46-.22,1.12-.09,1.61,.13,.48,.81,.85,.88,1.35,.06,.49-.5,1.03-.5,1.53s.56,1.04,.5,1.53c-.07,.5-.75,.87-.88,1.35-.13,.49,.28,1.15,.09,1.61-.19,.46-.95,.65-1.2,1.08-.25,.43-.03,1.18-.33,1.58-.3,.4-1.08,.38-1.44,.73s-.33,1.13-.73,1.44c-.39,.3-1.14,.08-1.58,.33-.43,.25-.61,1.01-1.08,1.2-.46,.19-1.12-.22-1.61-.09-.48,.13-.85,.81-1.35,.88-.49,.06-1.03-.5-1.53-.5s-1.04,.56-1.53,.5c-.5-.07-.87-.75-1.35-.88-.49-.13-1.15,.28-1.61,.09-.46-.19-.65-.95-1.08-1.2-.43-.25-1.18-.03-1.58-.33-.4-.3-.38-1.08-.73-1.44-.35-.35-1.13-.33-1.44-.73-.3-.39-.08-1.14-.33-1.58-.25-.43-1.01-.61-1.2-1.08-.19-.46,.22-1.12,.09-1.61-.13-.48-.81-.85-.88-1.35-.06-.49,.5-1.03,.5-1.53Zm23,6.35c0-.33-.58-.7-.53-1.02,.04-.33,.69-.54,.78-.85,.09-.32-.37-.83-.25-1.13,.13-.31,.81-.34,.97-.62,.17-.29-.15-.89,.05-1.15,.2-.26,.87-.11,1.1-.35,.23-.23,.09-.9,.35-1.1,.26-.2,.87,.11,1.15-.05,.28-.16,.31-.85,.62-.97,.3-.13,.81,.34,1.13,.25,.32-.08,.52-.74,.85-.78,.32-.04,.69,.53,1.02,.53s.7-.58,1.02-.53c.33,.04,.54,.69,.85,.78,.32,.09,.83-.37,1.13-.25,.31,.13,.34,.81,.62,.97,.29,.17,.89-.15,1.15,.05,.26,.2,.11,.87,.35,1.1,.23,.23,.9,.09,1.1,.35,.2,.26-.11,.87,.05,1.15,.16,.28,.85,.31,.97,.62,.13,.3-.34,.81-.25,1.13,.08,.32,.74,.52,.78,.85,.04,.32-.53,.69-.53,1.02s.58,.7,.53,1.03c-.04,.33-.69,.54-.78,.85-.09,.32,.37,.83,.25,1.13-.13,.31-.81,.34-.97,.62-.17,.29,.15,.89-.05,1.15-.2,.26-.87,.11-1.1,.35-.23,.23-.09,.9-.35,1.1-.26,.2-.87-.11-1.15,.05-.28,.16-.31,.85-.62,.97-.3,.13-.81-.34-1.13-.25-.32,.08-.52,.74-.85,.78-.32,.04-.69-.53-1.02-.53s-.7,.58-1.02,.53c-.33-.04-.54-.69-.85-.78-.32-.09-.83,.37-1.13,.25-.31-.13-.34-.81-.62-.97-.29-.17-.89,.15-1.15-.05-.26-.2-.11-.87-.35-1.1-.23-.23-.9-.09-1.1-.35-.2-.26,.11-.87-.05-1.15-.16-.28-.85-.31-.97-.62-.13-.3,.34-.81,.25-1.13-.08-.32-.74-.52-.78-.85-.04-.32,.53-.69,.53-1.02Zm-24.32-91.48c0-.51-.56-1.04-.5-1.53,.07-.5,.75-.87,.88-1.35,.13-.49-.28-1.15-.09-1.61,.19-.46,.95-.65,1.2-1.08,.25-.43,.03-1.18,.33-1.58,.3-.4,1.08-.38,1.44-.73,.35-.35,.33-1.13,.73-1.44,.39-.3,1.14-.08,1.58-.33,.43-.25,.61-1.01,1.08-1.2,.46-.19,1.12,.22,1.61,.09,.48-.13,.85-.81,1.35-.88,.49-.06,1.03,.5,1.53,.5s1.04-.56,1.53-.5c.5,.07,.87,.75,1.35,.88,.49,.13,1.15-.28,1.61-.09,.46,.19,.65,.95,1.08,1.2,.43,.25,1.18,.03,1.58,.33,.4,.3,.38,1.08,.73,1.44s1.13,.33,1.44,.73c.3,.39,.08,1.14,.33,1.58,.25,.43,1.01,.61,1.2,1.08,.19,.46-.22,1.12-.09,1.61,.13,.48,.81,.85,.88,1.35,.06,.49-.5,1.03-.5,1.53s.56,1.04,.5,1.53c-.07,.5-.75,.87-.88,1.35-.13,.49,.28,1.15,.09,1.61-.19,.46-.95,.65-1.2,1.08-.25,.43-.03,1.18-.33,1.58-.3,.4-1.08,.38-1.44,.73-.35,.35-.33,1.13-.73,1.44-.39,.3-1.14,.08-1.58,.33-.43,.25-.61,1.01-1.08,1.2-.46,.19-1.12-.22-1.61-.09-.48,.13-.85,.81-1.35,.88-.49,.06-1.03-.5-1.53-.5s-1.04,.56-1.53,.5c-.5-.07-.87-.75-1.35-.88-.49-.13-1.15,.28-1.61,.09-.46-.19-.65-.95-1.08-1.2-.43-.25-1.18-.03-1.58-.33-.4-.3-.38-1.08-.73-1.44s-1.13-.33-1.44-.73c-.3-.39-.08-1.14-.33-1.58-.25-.43-1.01-.61-1.2-1.08-.19-.46,.22-1.12,.09-1.61-.13-.48-.81-.85-.88-1.35-.06-.49,.5-1.03,.5-1.53ZM.51,150.24c0-.51-.56-1.04-.5-1.53,.07-.5,.75-.87,.88-1.35,.13-.49-.28-1.15-.09-1.61,.19-.46,.95-.65,1.2-1.08,.25-.43,.03-1.18,.33-1.58,.3-.4,1.08-.38,1.44-.73,.35-.35,.33-1.13,.73-1.44,.39-.3,1.14-.08,1.58-.33,.43-.25,.61-1.01,1.08-1.2,.46-.19,1.12,.22,1.61,.09,.48-.13,.85-.81,1.35-.88,.49-.06,1.03,.5,1.53,.5s1.04-.56,1.53-.5c.5,.07,.87,.75,1.35,.88,.49,.13,1.15-.28,1.61-.09,.46,.19,.65,.95,1.08,1.2,.43,.25,1.18,.03,1.58,.33,.4,.3,.38,1.08,.73,1.44,.35,.35,1.13,.33,1.44,.73,.3,.39,.08,1.14,.33,1.58,.25,.43,1.01,.61,1.2,1.08,.19,.46-.22,1.12-.09,1.61,.13,.48,.81,.85,.88,1.35,.06,.49-.5,1.03-.5,1.53s.56,1.04,.5,1.53c-.07,.5-.75,.87-.88,1.35-.13,.49,.28,1.15,.09,1.61-.19,.46-.95,.65-1.2,1.08-.25,.43-.03,1.18-.33,1.58-.3,.4-1.08,.38-1.44,.73-.35,.35-.33,1.13-.73,1.44-.39,.3-1.14,.08-1.58,.33-.43,.25-.61,1.01-1.08,1.2-.46,.19-1.12-.22-1.61-.09-.48,.13-.85,.81-1.35,.88-.49,.06-1.03-.5-1.53-.5s-1.04,.56-1.53,.5c-.5-.07-.87-.75-1.35-.88-.49-.13-1.15,.28-1.61,.09-.46-.19-.65-.95-1.08-1.2-.43-.25-1.18-.03-1.58-.33-.4-.3-.38-1.08-.73-1.44-.35-.35-1.13-.33-1.44-.73-.3-.39-.08-1.14-.33-1.58-.25-.43-1.01-.61-1.2-1.08-.19-.46,.22-1.12,.09-1.61-.13-.48-.81-.85-.88-1.35-.06-.49,.5-1.03,.5-1.53Z"/><path class="cls-13" d="M36.13,196.56c.05,.4,.59,.69,.7,1.07,.1,.39-.22,.91-.07,1.28,.15,.37,.75,.51,.95,.85,.2,.34,.02,.94,.26,1.25,.24,.31,.86,.3,1.14,.58,.28,.28,.26,.9,.58,1.14,.31,.24,.91,.07,1.25,.27,.34,.2,.49,.8,.85,.95,.36,.15,.89-.17,1.28-.07,.38,.1,.67,.64,1.07,.7,.39,.05,.81-.4,1.21-.4s.83,.45,1.21,.4c.4-.05,.69-.6,1.07-.7,.38-.1,.91,.22,1.28,.07,.37-.15,.51-.75,.85-.95,.34-.2,.94-.02,1.25-.26,.31-.24,.3-.86,.58-1.14,.28-.28,.9-.26,1.14-.58,.24-.31,.07-.91,.27-1.25,.2-.34,.8-.49,.95-.85,.15-.36-.17-.89-.07-1.28,.1-.38,.64-.67,.7-1.07,.05-.39-.4-.81-.4-1.21s.45-.83,.4-1.21c-.05-.4-.59-.69-.7-1.07-.1-.39,.22-.91,.07-1.28-.15-.37-.75-.51-.95-.85-.2-.34-.02-.94-.26-1.25-.24-.31-.86-.3-1.14-.58s-.26-.9-.58-1.14c-.31-.24-.91-.07-1.25-.27-.34-.2-.49-.8-.85-.95-.36-.15-.89,.17-1.28,.07-.38-.1-.67-.64-1.07-.7-.39-.05-.81,.4-1.21,.4s-.83-.45-1.21-.4c-.4,.05-.69,.59-1.07,.7-.38,.1-.91-.22-1.28-.07-.37,.15-.51,.75-.85,.95-.34,.2-.94,.02-1.25,.26-.31,.24-.3,.86-.58,1.14-.28,.28-.9,.26-1.14,.58-.24,.31-.07,.91-.27,1.25-.2,.34-.8,.49-.95,.85-.15,.36,.17,.89,.07,1.28-.1,.38-.64,.67-.7,1.07-.05,.39,.4,.81,.4,1.22s-.45,.83-.4,1.21Zm-12.58-26.29c0-.51-.56-1.04-.5-1.53,.07-.5,.75-.87,.88-1.35,.13-.49-.28-1.15-.09-1.61,.19-.46,.95-.65,1.2-1.08,.25-.43,.03-1.18,.33-1.58,.3-.4,1.08-.38,1.44-.73,.35-.35,.33-1.13,.73-1.44,.39-.3,1.14-.08,1.58-.33,.43-.25,.61-1.01,1.08-1.2,.46-.19,1.12,.22,1.61,.09,.48-.13,.85-.81,1.35-.88,.49-.06,1.03,.5,1.53,.5s1.04-.56,1.53-.5c.5,.07,.87,.75,1.35,.88,.49,.13,1.15-.28,1.61-.09,.46,.19,.65,.95,1.08,1.2,.43,.25,1.18,.03,1.58,.33,.4,.3,.38,1.08,.73,1.44,.35,.35,1.13,.33,1.44,.73,.3,.39,.08,1.14,.33,1.58,.25,.43,1.01,.61,1.2,1.08,.19,.46-.22,1.12-.09,1.61,.13,.48,.81,.85,.88,1.35,.06,.49-.5,1.03-.5,1.53s.56,1.04,.5,1.53c-.07,.5-.75,.87-.88,1.35-.13,.49,.28,1.15,.09,1.61-.19,.46-.95,.65-1.2,1.08-.25,.43-.03,1.18-.33,1.58-.3,.4-1.08,.38-1.44,.73-.35,.35-.33,1.13-.73,1.44-.39,.3-1.14,.08-1.58,.33-.43,.25-.61,1.01-1.08,1.2-.46,.19-1.12-.22-1.61-.09-.48,.13-.85,.81-1.35,.88-.49,.06-1.03-.5-1.53-.5s-1.04,.56-1.53,.5c-.5-.07-.87-.75-1.35-.88-.49-.13-1.15,.28-1.61,.09-.46-.19-.65-.95-1.08-1.2-.43-.25-1.18-.03-1.58-.33-.4-.3-.38-1.08-.73-1.44-.35-.35-1.13-.33-1.44-.73-.3-.39-.08-1.14-.33-1.58-.25-.43-1.01-.61-1.2-1.08-.19-.46,.22-1.12,.09-1.61-.13-.48-.81-.85-.88-1.35-.06-.49,.5-1.03,.5-1.53Zm-1.35,44.72c0-.51-.56-1.04-.5-1.53,.07-.5,.75-.87,.88-1.35,.13-.49-.28-1.15-.09-1.61,.19-.46,.95-.65,1.2-1.08,.25-.43,.03-1.18,.33-1.58,.3-.4,1.08-.38,1.44-.73s.33-1.13,.73-1.44c.39-.3,1.14-.08,1.58-.33,.43-.25,.61-1.01,1.08-1.2,.46-.19,1.12,.22,1.61,.09,.48-.13,.85-.81,1.35-.88,.49-.06,1.03,.5,1.53,.5s1.04-.56,1.53-.5c.5,.07,.87,.75,1.35,.88,.49,.13,1.15-.28,1.61-.09,.46,.19,.65,.95,1.08,1.2,.43,.25,1.18,.03,1.58,.33,.4,.3,.38,1.08,.73,1.44,.35,.35,1.13,.33,1.44,.73,.3,.39,.08,1.14,.33,1.58,.25,.43,1.01,.61,1.2,1.08,.19,.46-.22,1.12-.09,1.61,.13,.48,.81,.85,.88,1.35,.06,.49-.5,1.03-.5,1.53s.56,1.04,.5,1.53c-.07,.5-.75,.87-.88,1.35-.13,.49,.28,1.15,.09,1.61-.19,.46-.95,.65-1.2,1.08-.25,.43-.03,1.18-.33,1.58-.3,.4-1.08,.38-1.44,.73s-.33,1.13-.73,1.44c-.39,.3-1.14,.08-1.58,.33-.43,.25-.61,1.01-1.08,1.2-.46,.19-1.12-.22-1.61-.09-.48,.13-.85,.81-1.35,.88-.49,.06-1.03-.5-1.53-.5s-1.04,.56-1.53,.5c-.5-.07-.87-.75-1.35-.88-.49-.13-1.15,.28-1.61,.09-.46-.19-.65-.95-1.08-1.2-.43-.25-1.18-.03-1.58-.33-.4-.3-.38-1.08-.73-1.44-.35-.35-1.13-.33-1.44-.73-.3-.39-.08-1.14-.33-1.58-.25-.43-1.01-.61-1.2-1.08-.19-.46,.22-1.12,.09-1.61-.13-.48-.81-.85-.88-1.35-.06-.49,.5-1.03,.5-1.53Zm23,6.35c0-.33-.58-.7-.53-1.02,.04-.33,.69-.54,.78-.85,.09-.32-.37-.83-.25-1.13,.13-.31,.81-.34,.97-.62,.17-.29-.15-.89,.05-1.15,.2-.26,.87-.11,1.1-.35,.23-.23,.09-.9,.35-1.1,.26-.2,.87,.11,1.15-.05,.28-.16,.31-.85,.62-.97,.3-.13,.81,.34,1.13,.25,.32-.08,.52-.74,.85-.78,.32-.04,.69,.53,1.02,.53s.7-.58,1.02-.53c.33,.04,.54,.69,.85,.78,.32,.09,.83-.37,1.13-.25,.31,.13,.34,.81,.62,.97,.29,.17,.89-.15,1.15,.05,.26,.2,.11,.87,.35,1.1,.23,.23,.9,.09,1.1,.35,.2,.26-.11,.87,.05,1.15,.16,.28,.85,.31,.97,.62,.13,.3-.34,.81-.25,1.13,.08,.32,.74,.52,.78,.85,.04,.32-.53,.69-.53,1.02s.58,.7,.53,1.03c-.04,.33-.69,.54-.78,.85-.09,.32,.37,.83,.25,1.13-.13,.31-.81,.34-.97,.62-.17,.29,.15,.89-.05,1.15-.2,.26-.87,.11-1.1,.35-.23,.23-.09,.9-.35,1.1-.26,.2-.87-.11-1.15,.05-.28,.16-.31,.85-.62,.97-.3,.13-.81-.34-1.13-.25-.32,.08-.52,.74-.85,.78-.32,.04-.69-.53-1.02-.53s-.7,.58-1.02,.53c-.33-.04-.54-.69-.85-.78-.32-.09-.83,.37-1.13,.25-.31-.13-.34-.81-.62-.97-.29-.17-.89,.15-1.15-.05-.26-.2-.11-.87-.35-1.1-.23-.23-.9-.09-1.1-.35-.2-.26,.11-.87-.05-1.15-.16-.28-.85-.31-.97-.62-.13-.3,.34-.81,.25-1.13-.08-.32-.74-.52-.78-.85-.04-.32,.53-.69,.53-1.02Zm-24.32-91.48c0-.51-.56-1.04-.5-1.53,.07-.5,.75-.87,.88-1.35,.13-.49-.28-1.15-.09-1.61,.19-.46,.95-.65,1.2-1.08,.25-.43,.03-1.18,.33-1.58,.3-.4,1.08-.38,1.44-.73,.35-.35,.33-1.13,.73-1.44,.39-.3,1.14-.08,1.58-.33,.43-.25,.61-1.01,1.08-1.2,.46-.19,1.12,.22,1.61,.09,.48-.13,.85-.81,1.35-.88,.49-.06,1.03,.5,1.53,.5s1.04-.56,1.53-.5c.5,.07,.87,.75,1.35,.88,.49,.13,1.15-.28,1.61-.09,.46,.19,.65,.95,1.08,1.2,.43,.25,1.18,.03,1.58,.33,.4,.3,.38,1.08,.73,1.44s1.13,.33,1.44,.73c.3,.39,.08,1.14,.33,1.58,.25,.43,1.01,.61,1.2,1.08,.19,.46-.22,1.12-.09,1.61,.13,.48,.81,.85,.88,1.35,.06,.49-.5,1.03-.5,1.53s.56,1.04,.5,1.53c-.07,.5-.75,.87-.88,1.35-.13,.49,.28,1.15,.09,1.61-.19,.46-.95,.65-1.2,1.08-.25,.43-.03,1.18-.33,1.58-.3,.4-1.08,.38-1.44,.73-.35,.35-.33,1.13-.73,1.44-.39,.3-1.14,.08-1.58,.33-.43,.25-.61,1.01-1.08,1.2-.46,.19-1.12-.22-1.61-.09-.48,.13-.85,.81-1.35,.88-.49,.06-1.03-.5-1.53-.5s-1.04,.56-1.53,.5c-.5-.07-.87-.75-1.35-.88-.49-.13-1.15,.28-1.61,.09-.46-.19-.65-.95-1.08-1.2-.43-.25-1.18-.03-1.58-.33-.4-.3-.38-1.08-.73-1.44s-1.13-.33-1.44-.73c-.3-.39-.08-1.14-.33-1.58-.25-.43-1.01-.61-1.2-1.08-.19-.46,.22-1.12,.09-1.61-.13-.48-.81-.85-.88-1.35-.06-.49,.5-1.03,.5-1.53ZM.51,150.24c0-.51-.56-1.04-.5-1.53,.07-.5,.75-.87,.88-1.35,.13-.49-.28-1.15-.09-1.61,.19-.46,.95-.65,1.2-1.08,.25-.43,.03-1.18,.33-1.58,.3-.4,1.08-.38,1.44-.73,.35-.35,.33-1.13,.73-1.44,.39-.3,1.14-.08,1.58-.33,.43-.25,.61-1.01,1.08-1.2,.46-.19,1.12,.22,1.61,.09,.48-.13,.85-.81,1.35-.88,.49-.06,1.03,.5,1.53,.5s1.04-.56,1.53-.5c.5,.07,.87,.75,1.35,.88,.49,.13,1.15-.28,1.61-.09,.46,.19,.65,.95,1.08,1.2,.43,.25,1.18,.03,1.58,.33,.4,.3,.38,1.08,.73,1.44,.35,.35,1.13,.33,1.44,.73,.3,.39,.08,1.14,.33,1.58,.25,.43,1.01,.61,1.2,1.08,.19,.46-.22,1.12-.09,1.61,.13,.48,.81,.85,.88,1.35,.06,.49-.5,1.03-.5,1.53s.56,1.04,.5,1.53c-.07,.5-.75,.87-.88,1.35-.13,.49,.28,1.15,.09,1.61-.19,.46-.95,.65-1.2,1.08-.25,.43-.03,1.18-.33,1.58-.3,.4-1.08,.38-1.44,.73-.35,.35-.33,1.13-.73,1.44-.39,.3-1.14,.08-1.58,.33-.43,.25-.61,1.01-1.08,1.2-.46,.19-1.12-.22-1.61-.09-.48,.13-.85,.81-1.35,.88-.49,.06-1.03-.5-1.53-.5s-1.04,.56-1.53,.5c-.5-.07-.87-.75-1.35-.88-.49-.13-1.15,.28-1.61,.09-.46-.19-.65-.95-1.08-1.2-.43-.25-1.18-.03-1.58-.33-.4-.3-.38-1.08-.73-1.44-.35-.35-1.13-.33-1.44-.73-.3-.39-.08-1.14-.33-1.58-.25-.43-1.01-.61-1.2-1.08-.19-.46,.22-1.12,.09-1.61-.13-.48-.81-.85-.88-1.35-.06-.49,.5-1.03,.5-1.53Z"/></g></g><g id="Character"><g><g><path class="cls-7" d="M117.95,283.61l-31.69-1.18c-1.37-.05-2.58,1.08-2.45,2.45,.05,.56,.35,.99,1.14,.99,2.25,0,3.5-.75,3.5-.75l25,7.5s8.25,2,4.5-9Z"/><path class="cls-7" d="M116.7,256.61v29.5l-43.25,22.5s-3.25,4.5,.5,5c4.77,.64,5-3.75,5-3.75,0,0,47-14.25,48-14.25s45.5,12,45.5,12c0,0-1.75,2,1.5,3s3.5-3,2.5-4.5-48.5-22-48.5-22v-26.75l-11.25-.75Z"/><path class="cls-5" d="M185.04,192.24c-2.15-.37-4.24-1.02-6.15-2.08-2.6-1.43-6.26-3.76-10.43-7.3-8.25-7-16.25-21.5-23.25-29.25s-20.5-12-39.75-10-29,9.75-32.75,19.75-4.25,19.5-8.25,28.25-12.5,12-11,21,10.25,23.75,28.25,35.25,39.25,15.75,63,13.25,33.5-12.75,41.75-24.75,9.25-26.25,8-33.75c-1.06-6.38-5.38-9.68-9.41-10.37Z"/><path class="cls-26" d="M93.89,156.26c-3.86,1.71-7.49,4.11-10.73,7.26-8.78,8.55-4.96,20.33-7.81,31.02-1.53,5.74-4.21,10.72-4.21,10.72,0,0,3.44,21.43,17.22,29.85,13.78,8.42,35.97,14.16,54.73,10.72,18.75-3.44,28.7-13.39,33.3-21.81,4.59-8.42,2.68-22.2-9.18-30.23-11.86-8.04-19.52-24.11-30.23-31.76-12.75-9.1-29.4-11.8-43.08-5.75Z"/><g><path class="cls-11" d="M188.73,193.63c-.93,.02-1.86,.08-2.77,.23,0,0-5.5-.25-9,8.5s-1,18.5-5.5,25.5-8,7.75-36.75,8-38.75,5.25-50.25-9.75-7-22.5-16.5-26c-4.69-1.73-7.73-1.14-9.97,.59-2.97,3.49-5.39,6.76-4.53,11.91,1.5,9,10.25,23.75,28.25,35.25s39.25,15.75,63,13.25,33.5-12.75,41.75-24.75,9.25-26.25,8-33.75c-.74-4.42-3.04-7.36-5.73-8.98Z"/><g class="cls-18"><path class="cls-26" d="M188.73,193.63c-.93,.02-1.86,.08-2.77,.23,0,0-5.5-.25-9,8.5s-1,18.5-5.5,25.5-8,7.75-36.75,8-38.75,5.25-50.25-9.75-7-22.5-16.5-26c-4.69-1.73-7.73-1.14-9.97,.59-2.97,3.49-5.39,6.76-4.53,11.91,1.5,9,10.25,23.75,28.25,35.25s39.25,15.75,63,13.25,33.5-12.75,41.75-24.75,9.25-26.25,8-33.75c-.74-4.42-3.04-7.36-5.73-8.98Z"/></g><path class="cls-6" d="M188.73,193.63c-.93,.02-1.86,.08-2.77,.23,0,0-5.5-.25-9,8.5s-1,18.5-5.5,25.5-8,7.75-36.75,8-38.75,5.25-50.25-9.75-7-22.5-16.5-26c-4.69-1.73-7.73-1.14-9.97,.59-2.97,3.49-5.39,6.76-4.53,11.91,1.5,9,10.25,23.75,28.25,35.25s39.25,15.75,63,13.25,33.5-12.75,41.75-24.75,9.25-26.25,8-33.75c-.74-4.42-3.04-7.36-5.73-8.98Z"/></g></g><path class="cls-7" d="M104.2,183.86s-11.5,12.5-14.75,24.5,2,25.25,11.25,28.5,22.75-1.25,29-3.75,15.5,2,25.75,2.25,11.75-20.25,9.25-32.5-13.5-23.25-24.25-25-30.75-.75-36.25,6Z"/><g><path class="cls-14" d="M142.52,106.83s9.9,4.86,14.75,6.16c4.86,1.31,16.06,1.31,16.62,5.42,.56,4.11-1.68,26.52-2.99,33.8-1.31,7.28-1.49,18.12-.75,20.92,.75,2.8,2.99,7.28,.37,11.77-2.61,4.48-4.11,10.27-10.08,9.34-5.98-.93-7.47-5.23-7.47-5.23l-36.42,4.48s-2.8-14.75-5.98-27.83c-3.17-13.07-9.71-31.75-9.15-40.71,.56-8.96,12.14-14.57,20.17-17.18,8.03-2.61,20.92-.93,20.92-.93Z"/><g class="cls-15"><path class="cls-26" d="M169.56,131.18c-.94,2.98-5.25,13.86-5.25,13.86,0,0,1.71-10,2.86-18,1.14-8,1.43-7.14-2.29-7.14s-10.29-3.14-12.57-4.29c-2.29-1.14-1.14,1.43-3.43-.29-2.29-1.71-5.72-7.14-5.72-7.14-6.29-1.43-31.44,1.71-33.72,8.86-1.53,4.77-.76,29.4,1.02,48.15,.04,.16,.08,.32,.12,.47,2.16,8.9,4.15,18.57,5.2,23.84,1.09,1.55,2.31,2.75,3.59,3.64l33.33-4.1c4.15-4.45,7.37-10.7,8.47-11.98,1.28-1.49,5.43-4.29,5.72-6.86,.29-2.57-1.14-20.29,.29-26.58,1.09-4.8,2.01-10.42,2.39-12.43Zm-8.11,29.01c-3.72,4.86-13.72,1.43-19.43-.57-5.72-2-10.86,4-17.15,2.57-6.29-1.43,1.43-10.57,9.43-10.86,8-.29,6-.57,13.15-9.15,7.14-8.57,11.43-.86,14.29,5.72s-.29,12.29-.29,12.29Z"/><path class="cls-6" d="M169.97,118.6s-.19,8.78-1.68,13.45c-1.49,4.67-4.11,12.89-4.11,17.56s.93,11.39-.56,15.69c-1.49,4.3-8.22,11.02-8.22,17.56"/></g><path class="cls-6" d="M142.52,106.83s9.9,4.86,14.75,6.16c4.86,1.31,16.06,1.31,16.62,5.42,.56,4.11-1.68,26.52-2.99,33.8-1.31,7.28-1.49,18.12-.75,20.92,.75,2.8,2.99,7.28,.37,11.77-2.61,4.48-4.11,10.27-10.08,9.34-5.98-.93-7.47-5.23-7.47-5.23l-36.42,4.48s-2.8-14.75-5.98-27.83c-3.17-13.07-9.71-31.75-9.15-40.71,.56-8.96,12.14-14.57,20.17-17.18,8.03-2.61,20.92-.93,20.92-.93Z"/></g><g><path class="cls-14" d="M113.57,152.96s1.12,13.26,2.24,19.24,1.31,10.46,1.31,10.46c0,0,4.48-.93,5.42,2.61,.93,3.55-.19,8.59-3.92,11.39-3.74,2.8-8.78,4.67-12.51,3.55s-5.04-10.46-5.04-16.25,0-13.26-1.68-17.56c-1.68-4.3,3.17-18.3,14.19-13.45Z"/><g class="cls-22"><path class="cls-26" d="M117.85,188.17c-2.73,.61-8.78,1.51-9.39-.91-.61-2.42,3.43-5.16,3.43-5.16l3.23,.32v-2.12s-1.51-12.42-3.03-16.96c-1.51-4.54-9.69,0-12.71,3.07,1.68,4.3,1.68,11.77,1.68,17.55s1.31,15.13,5.04,16.25c3.74,1.12,8.78-.75,12.51-3.55,2.06-1.55,3.32-3.78,3.89-6.06-.93-1.77-3.31-2.73-4.66-2.43Z"/></g><path class="cls-6" d="M113.57,152.96s1.12,13.26,2.24,19.24,1.31,10.46,1.31,10.46c0,0,4.48-.93,5.42,2.61,.93,3.55-.19,8.59-3.92,11.39-3.74,2.8-8.78,4.67-12.51,3.55s-5.04-10.46-5.04-16.25,0-13.26-1.68-17.56c-1.68-4.3,3.17-18.3,14.19-13.45Z"/></g><path class="cls-6" d="M118.06,183.22s-2.24-.19-6.16-1.12c-3.92-.93-6.35,.93-7.1,6.16"/><path class="cls-7" d="M124.03,114.86s-.56,8.22-1.87,15.5c-1.31,7.28-4.3,11.95-4.3,11.95,0,0,0-16.62-2.61-24.65-2.61-8.03-1.68-13.82,2.24-11.95,3.92,1.87,6.54,9.15,6.54,9.15Z"/><path class="cls-3" d="M121.98,115.42s-.56,5.42,0,10.27c.56,4.86,1.49,8.03,1.49,8.03l5.23-5.42-2.24,6.54,11.77,7.47,7.28-11.21-4.3-4.86s6.72,3.74,7.28,3.55c.56-.19-.93-9.34-4.11-14.94-3.17-5.6-12.14-8.96-15.13-8.03-2.99,.93-7.84,5.79-7.28,8.59Z"/><g><path class="cls-11" d="M128.14,121.59s5.98,17.74,8.59,17.18,3.92-19.61,3.92-19.61c0,0-5.42,4.11-12.51,2.43Z"/><g class="cls-19"><path class="cls-14" d="M128.14,121.59s5.98,17.74,8.59,17.18,3.92-19.61,3.92-19.61c0,0-5.42,4.11-12.51,2.43Z"/><path class="cls-13" d="M128.14,121.59s5.98,17.74,8.59,17.18,3.92-19.61,3.92-19.61c0,0-5.42,4.11-12.51,2.43Z"/></g><path class="cls-6" d="M128.14,121.59s5.98,17.74,8.59,17.18,3.92-19.61,3.92-19.61c0,0-5.42,4.11-12.51,2.43Z"/></g><g><path class="cls-11" d="M112.83,104.59s6.66,12,11.77,16.06c4.76,3.78,12.14,5.42,15.69,1.12,3.55-4.3,4.48-14.01,4.3-20.17-.19-6.16-4.67-10.27-9.71-15.31-5.04-5.04-12.7-11.58-17.74-8.22s-5.98,22.6-4.3,26.52Z"/><g class="cls-25"><path class="cls-14" d="M140.28,121.77c.12-.14,.22-.3,.33-.45-1.78,.71-3.84,1.28-6.02,1.37-6.68,.29-11.04-5.81-11.04-5.81,0,0-.58-.87-4.07-7.26-3.49-6.39-2.32-24.11-2.32-24.11,0,0,2.61,3.49,9.87,5.23,7.26,1.74,12.78,2.03,12.78,2.03l-.27-1.68c-1.41-1.57-3.02-3.14-4.68-4.81-5.04-5.04-12.7-11.58-17.74-8.22s-5.98,22.6-4.3,26.52c0,0,6.66,12,11.77,16.06,4.76,3.78,12.14,5.42,15.69,1.12Z"/><path class="cls-13" d="M140.28,121.77c.12-.14,.22-.3,.33-.45-1.78,.71-3.84,1.28-6.02,1.37-6.68,.29-11.04-5.81-11.04-5.81,0,0-.58-.87-4.07-7.26-3.49-6.39-2.32-24.11-2.32-24.11,0,0,2.61,3.49,9.87,5.23,7.26,1.74,12.78,2.03,12.78,2.03l-.27-1.68c-1.41-1.57-3.02-3.14-4.68-4.81-5.04-5.04-12.7-11.58-17.74-8.22s-5.98,22.6-4.3,26.52c0,0,6.66,12,11.77,16.06,4.76,3.78,12.14,5.42,15.69,1.12Z"/><path class="cls-6" d="M120.11,103.29s4.3,1.12,5.98-1.49"/><path class="cls-6" d="M134.68,99.92s4.11,1.12,5.79-2.05"/><path class="cls-6" d="M117.12,99.55s2.8-2.99,7.84-2.05"/><path class="cls-6" d="M133,96.38s1.68-3.17,7.1-2.61"/><path class="cls-6" d="M130.38,109.45s2.8,1.12,3.92-1.31"/><path class="cls-6" d="M130.19,114.12s4.86,.56,6.91-2.24"/></g><path class="cls-6" d="M112.83,104.59s6.66,12,11.77,16.06c4.76,3.78,12.14,5.42,15.69,1.12,3.55-4.3,4.48-14.01,4.3-20.17-.19-6.16-4.67-10.27-9.71-15.31-5.04-5.04-12.7-11.58-17.74-8.22s-5.98,22.6-4.3,26.52Z"/></g><path class="cls-5" d="M117.68,189.94s-.19-3.74,.37-6.72c.56-2.99,1.68-4.3,1.68-7.66s.19-4.67,2.43-4.67,6.54,.19,6.72,1.68c.19,1.49,.37,2.43-.56,2.24-.93-.19-4.86-.37-4.86-.37l-.56,1.49s4.48,1.49,5.42,2.05c.93,.56,1.12,4.67,1.12,6.91s-.93,3.92-2.99,4.67c-2.05,.75-3.92-1.87-3.92-1.87,0,0,.37,2.8-1.68,3.74-2.05,.93-3.74-.37-3.17-1.49Z"/><g><path class="cls-5" d="M126.19,165.92l-3.3,28.59c-.19,1.62,1.12,3.02,2.75,2.95l25.23-1.09c1.15-.05,2.13-.83,2.44-1.93l7.86-27.97c.48-1.71-.82-3.4-2.6-3.37l-29.79,.47c-1.33,.02-2.44,1.03-2.59,2.35Z"/><path class="cls-26" d="M127.47,167.07l-3.03,26.3c-.17,1.49,1.03,2.78,2.53,2.72l23.2-1c1.05-.05,1.96-.76,2.24-1.78l7.23-25.72c.44-1.57-.75-3.12-2.39-3.1l-27.4,.43c-1.22,.02-2.24,.94-2.39,2.16Z"/><g><line class="cls-2" x1="126.72" y1="173.57" x2="124.43" y2="193.37"/><path class="cls-2" d="M131.45,164.89l-1.6,.03c-1.22,.02-2.24,.94-2.39,2.16l-.35,3.05"/></g></g><g><path class="cls-5" d="M165.12,183.03s-2.99-4.48-5.23-4.48-12.33,5.79-14.94,7.47c-2.61,1.68,.19,2.43,.19,2.43,0,0-.56,1.12,.56,2.24,1.12,1.12,2.05,1.12,2.05,1.12,0,0,.37,.75,1.49,1.31,1.12,.56,3.36,.56,3.36,.56,0,0,.93,.75,4.11,.75s6.16-.19,8.03-2.43c1.87-2.24,1.68-4.48,.37-8.96Z"/><path class="cls-6" d="M145.13,188.45s11.95-2.05,14.19-4.3"/><path class="cls-6" d="M147.75,191.81s9.71-1.49,12.7-3.17"/><path class="cls-6" d="M152.61,193.68s5.98-.37,8.59-1.49"/></g><path class="cls-9" d="M99.2,202.61s38.75-5.25,54.5-3.5"/><g><path class="cls-5" d="M150.45,256.36s10.75-4.5,28,0c0,0-1.75,2.75-12.75,5s-15.25-5-15.25-5Z"/><g><path class="cls-11" d="M151.32,199.1c-.67,.4-1.36,.77-2.1,1.04-1.79,.65-5.52,2.67-7.01,8.47-2,7.75,8,28.75,9.25,38s2.25,12.75,2.25,12.75c0,0,3.75,1,10,2s8.5-2.25,8.5-2.25c0,0,2.75-23-1.25-37s-4.75-20.5-10-22.5c-3.67-1.4-7.98-1.48-9.64-.51Z"/><g class="cls-16"><path class="cls-14" d="M170.89,261.81s1.16-22.65-5.23-41.53c-6.39-18.88-11.91-18.3-16.55-14.52s-4.94,12.2-2.32,20.62c2.61,8.42,6.97,17.72,7.55,25.56,.58,7.84-.29,13.07,2.9,13.36,3.19,.29,13.36,2.32,13.65-3.49Z"/><path class="cls-13" d="M170.89,261.81s1.16-22.65-5.23-41.53c-6.39-18.88-11.91-18.3-16.55-14.52s-4.94,12.2-2.32,20.62c2.61,8.42,6.97,17.72,7.55,25.56,.58,7.84-.29,13.07,2.9,13.36,3.19,.29,13.36,2.32,13.65-3.49Z"/></g><path class="cls-6" d="M151.32,199.1c-.67,.4-1.36,.77-2.1,1.04-1.79,.65-5.52,2.67-7.01,8.47-2,7.75,8,28.75,9.25,38s2.25,12.75,2.25,12.75c0,0,3.75,1,10,2s8.5-2.25,8.5-2.25c0,0,2.75-23-1.25-37s-4.75-20.5-10-22.5c-3.67-1.4-7.98-1.48-9.64-.51Z"/></g><g><g><path class="cls-14" d="M150.45,256.36s17.25,4.25,28,0c0,0-6.25,29-10.75,41.75s-4.25,18.75-5,25.75-5,19.25-10.5,21.25-6-7.5-2.25-16.75,5.25-20.5,3.75-34-3.25-38-3.25-38Z"/><g class="cls-17"><path class="cls-26" d="M172.92,267.62c1.37-3.96,2.1-7.67,2.48-10.31-6.85,1.65-15.18,.79-20.27-.03,.56,7.94,1.93,29.86,1.23,44.62-.81,16.95-4.85,23.68-7.99,31.28-.9,3.59-1.09,6.89-.54,9.15,1.58,1.36,4.61,.76,7.65-1.8,5.52-4.65,6.68-21.2,7.26-30.21s7.55-35.14,10.17-42.69Z"/></g><path class="cls-6" d="M150.45,256.36s17.25,4.25,28,0c0,0-6.25,29-10.75,41.75s-4.25,18.75-5,25.75-5,19.25-10.5,21.25-6-7.5-2.25-16.75,5.25-20.5,3.75-34-3.25-38-3.25-38Z"/></g><polygon class="cls-3" points="168.2 292.86 167.95 316.36 169.95 315.36 168.2 292.86"/><polygon class="cls-3" points="168.7 290.36 170.7 313.11 172.45 311.86 168.7 290.36"/></g></g><g><path class="cls-5" d="M143.2,257.86s-8.25-4.25-26.5-1.25c0,0,3.5,5.5,10.75,7.25s15.75-6,15.75-6Z"/><g><path class="cls-11" d="M138.2,200.86s-9-3.75-15.5,2.25-4.5,19-4,21.5,1,5.25,1,5.25l1.25,31.75,17.5,.25s3.25-25.25,5.75-36.25,2.5-19.5-6-24.75Z"/><g class="cls-23"><path class="cls-14" d="M136.62,207.79c-10.17-3.49-12.49,5.81-13.36,13.94-.87,8.13-.87,37.47-.58,39.21,.03,.18,.17,.42,.4,.7l15.37,.22s3.25-25.25,5.75-36.25c.18-.77,.33-1.53,.48-2.27,.06-4.73-.9-13.09-8.07-15.55Z"/><path class="cls-13" d="M136.62,207.79c-10.17-3.49-12.49,5.81-13.36,13.94-.87,8.13-.87,37.47-.58,39.21,.03,.18,.17,.42,.4,.7l15.37,.22s3.25-25.25,5.75-36.25c.18-.77,.33-1.53,.48-2.27,.06-4.73-.9-13.09-8.07-15.55Z"/></g><path class="cls-6" d="M138.2,200.86s-9-3.75-15.5,2.25-4.5,19-4,21.5,1,5.25,1,5.25l1.25,31.75,17.5,.25s3.25-25.25,5.75-36.25,2.5-19.5-6-24.75Z"/></g><g><g><path class="cls-14" d="M116.7,256.61s3.25,24,6.5,35,6.5,24,6.5,37,10.5,18.5,13.25,16,.5-15-1.75-21.5-5.25-22.75-4.25-31.25,6.25-34,6.25-34c0,0-17.5,1-26.5-1.25Z"/><g class="cls-20"><path class="cls-26" d="M134.3,285.92c1.16-21.49,6.68-27.88,6.68-27.88l-.49-.06c-4.08,.14-12.02,.26-18.56-.48,.39,5.58,1.82,23.25,5.03,38.11,3.86,17.9,3.28,28.06,6.18,36.2,2.9,8.13,9,14.23,9,7.55s-9-31.95-7.84-53.44Z"/></g><path class="cls-6" d="M116.7,256.61s3.25,24,6.5,35,6.5,24,6.5,37,10.5,18.5,13.25,16,.5-15-1.75-21.5-5.25-22.75-4.25-31.25,6.25-34,6.25-34c0,0-17.5,1-26.5-1.25Z"/></g><polygon class="cls-3" points="122.45 287.11 121.45 311.86 122.7 312.36 122.45 287.11"/><polygon class="cls-3" points="123.2 288.11 124.2 312.86 126.2 311.11 123.2 288.11"/></g></g><g><path class="cls-7" d="M118.24,80.87s-5.04,16.62-1.49,30.81c3.55,14.19,1.87,30.07,1.49,38.85s-3.55,16.06-10.64,21.66c-7.1,5.6-16.62,4.67-23.72-.19-7.1-4.86-9.34-18.68-5.42-28.39,3.92-9.71,13.63-26.71,16.43-35.48,2.8-8.78,1.12-13.26,1.87-21.48,.75-8.22,5.6-23.16,15.69-26.52,10.08-3.36,21.85-3.17,29.88,7.66,8.03,10.83,8.78,27.45,9.52,32.87s2.99,7.28,7.47,8.22c4.48,.93,3.74,4.11,.37,4.48s-12.09-1.93-14.52-5.11c-2.43-3.17-.42-8.15-4.53-13.01s-18.3-6.72-22.41-14.38Z"/><path class="cls-4" d="M114.42,145.62c.14,7.06-.34,13.12-1.97,16.49-4.86,10.09-12,10-20.5,8.5"/><path class="cls-4" d="M118.24,80.87s-9.29,10.24-7.79,23.74c.83,7.49,2.85,21.28,3.66,33.79"/><path class="cls-4" d="M87.53,149.21c-2.51,2.27-4.08,.9-4.08,.9"/><path class="cls-4" d="M96.45,104.11s2,22.5-3.5,36c-1.03,2.53-2.01,4.46-2.92,5.94"/><path class="cls-4" d="M143.13,77.97c-2.66-2.75-6.72-5.41-12.67-5.86-13-1-13.33,5.96-13.33,5.96,0,0-5.17-11.46,13.33-11.96"/><path class="cls-4" d="M147.45,84.61s-.46-1.33-1.59-3.13"/></g></g></g></svg>