<?xml version="1.0" encoding="UTF-8"?><svg id="Layer_2" xmlns="http://www.w3.org/2000/svg" viewBox="0 0 411.33 314.46"><defs><style>.cls-1,.cls-2,.cls-3,.cls-4,.cls-5{fill:#fff;}.cls-6,.cls-4,.cls-7,.cls-8{stroke:#382f2d;}.cls-6,.cls-4,.cls-7,.cls-8,.cls-9,.cls-10{stroke-linecap:round;stroke-linejoin:round;}.cls-6,.cls-11{fill:#a768ff;}.cls-12{opacity:.5;}.cls-2{opacity:.4;}.cls-3{opacity:.3;}.cls-7,.cls-9,.cls-10{fill:none;}.cls-5{opacity:.7;}.cls-8,.cls-13{fill:#382f2d;}.cls-9{stroke-width:.5px;}.cls-9,.cls-10{stroke:#fff;}.cls-10{stroke-width:3px;}</style></defs><g id="Background_Simple"><g><path class="cls-11" d="M311.59,42.05S271.33-2.06,207.58,.08,89.48,44.9,44.52,78.34C-.44,111.78-12.52,163.72,13.65,204.27c26.17,40.55,67.77,23.48,120.78,49.8,53.01,26.33,63.08,41.27,122.13,34.86,59.05-6.4,104.01-71.86,97.3-141.59-6.71-69.73-42.27-105.3-42.27-105.3Z"/><path class="cls-5" d="M311.59,42.05S271.33-2.06,207.58,.08,89.48,44.9,44.52,78.34C-.44,111.78-12.52,163.72,13.65,204.27c26.17,40.55,67.77,23.48,120.78,49.8,53.01,26.33,63.08,41.27,122.13,34.86,59.05-6.4,104.01-71.86,97.3-141.59-6.71-69.73-42.27-105.3-42.27-105.3Z"/></g></g><g id="Ground"><g><ellipse class="cls-11" cx="212.82" cy="303.64" rx="198.52" ry="10.83"/><ellipse class="cls-3" cx="212.82" cy="303.64" rx="198.52" ry="10.83"/></g></g><g id="Plants"><g><g><g><path class="cls-11" d="M330.13,140.39c-.06,0,.7-3.73,.77-3.96,.86-2.66,4.1-7.3,7.23-7.3,2.26,0,3.79,2.06,3.57,4.22-.23,2.2-2.21,4.08-3.99,5.16-2.1,1.27-7.57,1.88-7.58,1.88Z"/><path class="cls-11" d="M324.06,115.28c2.95,1.06,4.42,6.52,4.33,9.32,0,.24-.57,4.01-.62,3.98,0,0-.05-.02-.06-.03,.24,.86,.48,1.79,.73,2.8,.44,1.88,.93,4.01,1.3,6.36,.38,2.35,.72,4.91,.83,7.65,.12,2.74,.11,5.63-.29,8.6,0,.03-.01,.07-.02,.1,.39-.83,1.55-3.13,1.65-3.29,1.54-2.34,5.88-5.96,8.9-5.13,2.18,.6,3.11,2.99,2.33,5.01-.8,2.06-3.2,3.35-5.22,3.92-2.27,.65-7.33-.12-7.73-.18-.41,2.83-1.05,5.7-1.86,8.56-.46,1.64-.98,3.28-1.52,4.91,.36-.71,.68-1.34,.74-1.43,1.54-2.34,5.88-5.96,8.9-5.13,2.18,.6,3.11,2.99,2.33,5.01-.8,2.06-3.2,3.35-5.22,3.92-2.04,.58-6.37,.02-7.51-.15-.21,.62-.42,1.25-.64,1.88-1.04,3-2.08,5.98-3.02,8.94-.33,1.04-.62,2.08-.91,3.12,.32-.63,.59-1.16,.64-1.23,1.54-2.34,5.88-5.96,8.9-5.13,2.18,.6,3.11,2.99,2.33,5.01-.8,2.06-3.2,3.35-5.22,3.92-1.95,.55-5.94,.07-7.3-.12-.27,1.07-.53,2.15-.74,3.2-.13,.72-.3,1.41-.39,2.14-.1,.72-.2,1.44-.3,2.14-.14,1.37-.3,2.78-.4,4.12-.08,.93-.14,1.82-.2,2.72,.32-1.04,.98-3.07,1.05-3.23,.77-1.69,2.69-4.12,4.8-5.46,.11-.25,.25-.49,.4-.72,1.24-1.77,3.75-2.33,5.46-.85,2.37,2.05,1.78,7.67,.69,10.25-.06,.15-.95,1.72-1.52,2.71,.42-.53,.83-1.04,1.28-1.58,.87-1.07,1.77-2.11,2.74-3.23,.48-.52,.97-1.06,1.47-1.59,.48-.54,1.05-1.05,1.58-1.59,1.25-1.21,2.58-2.38,3.95-3.53-.93-.77-4.2-3.53-5.15-5.41-.94-1.87-1.61-4.51-.63-6.5,.96-1.94,3.35-2.87,5.26-1.67,2.66,1.67,2.92,7.31,2.23,10.03-.04,.17-.76,2.06-1.17,3.09,.83-.68,1.65-1.37,2.51-2.03,2.48-1.92,5.05-3.78,7.6-5.65,.78-.57,1.56-1.15,2.33-1.73-.33-.27-4.3-3.47-5.35-5.57-.94-1.87-1.61-4.51-.63-6.5,.96-1.94,3.35-2.87,5.26-1.67,2.66,1.67,2.92,7.31,2.23,10.03-.05,.2-1.08,2.93-1.38,3.6,1.71-1.27,3.4-2.56,5.01-3.89,2.23-1.84,4.32-3.76,6.2-5.77-.16-.12-4.3-3.45-5.38-5.6-.94-1.87-1.61-4.51-.63-6.5,.96-1.94,3.35-2.87,5.26-1.67,2.66,1.67,2.92,7.31,2.23,10.03-.05,.18-.83,2.25-1.22,3.23,.08,.05,.07,.04,.15,.09,1.99-2.18,3.65-4.55,5.09-6.84,.84-1.32,1.56-2.64,2.24-3.93-.84-.54-4.63-3.05-5.82-4.88-1.14-1.76-2.1-4.31-1.34-6.39,.74-2.04,3.02-3.22,5.05-2.24,2.82,1.36,3.71,6.95,3.32,9.72-.02,.15-.4,1.66-.7,2.76,.3-.59,.61-1.19,.89-1.76,1.03-2.14,1.84-4.15,2.55-5.95,.39-1.02,.73-1.96,1.03-2.83-.54-.96-2.69-4.84-2.89-6.98-.2-2.08,.12-4.79,1.75-6.29,1.6-1.47,4.16-1.47,5.51,.34,1.88,2.51,.09,7.88-1.53,10.16-.14,.2-2.68,3.03-2.71,2.98,0,0-.03-.05-.03-.06-.28,.85-.58,1.76-.94,2.74-.67,1.81-1.44,3.85-2.43,6.02-.98,2.17-2.11,4.49-3.52,6.84-1.41,2.35-3.01,4.75-4.99,7.01-.02,.03-.05,.05-.07,.07,.78-.48,3.01-1.76,3.2-1.83,2.57-1.11,8.19-1.73,10.25,.63,1.49,1.7,.95,4.21-.82,5.46-1.81,1.28-4.52,1.03-6.51,.4-2.25-.71-6.05-4.14-6.35-4.41-1.9,2.14-4.02,4.17-6.28,6.12-1.29,1.11-2.63,2.19-3.98,3.26,.69-.39,1.31-.74,1.4-.78,2.57-1.11,8.19-1.73,10.26,.63,1.49,1.7,.95,4.21-.82,5.46-1.81,1.28-4.52,1.03-6.51,.4-2.02-.64-5.32-3.5-6.18-4.27-.52,.4-1.04,.81-1.56,1.21-2.52,1.93-5.04,3.84-7.45,5.79-.85,.69-1.66,1.4-2.48,2.1,.61-.35,1.13-.64,1.22-.68,2.57-1.11,8.19-1.73,10.25,.63,1.49,1.7,.95,4.21-.82,5.46-1.81,1.28-4.52,1.03-6.51,.4-1.93-.61-5-3.22-6.02-4.13-.81,.75-1.63,1.49-2.38,2.26-.5,.53-1.03,1.01-1.5,1.57-.48,.55-.96,1.09-1.43,1.62-.87,1.07-1.78,2.16-2.61,3.22-.58,.73-1.12,1.44-1.67,2.16,.84-.69,2.51-2.02,2.66-2.11,2.38-1.48,7.84-2.95,10.23-.93,1.73,1.46,1.57,4.02,.01,5.52-1.59,1.54-4.31,1.7-6.38,1.38-2.27-.36-6.39-3.04-6.9-3.38-.9,1.18-1.76,2.34-2.56,3.45-2.77,3.83-4.93,7.13-6.41,9.45-.05,.08-.1,.16-.15,.24l-1.92-.93c.1-.15,.2-.3,.3-.46,1.55-2.32,3.8-5.6,6.69-9.4,.91-1.21,1.9-2.47,2.94-3.77-.27-.29-1.77-1.96-2.98-3.69-2.2,.86-6.79,.9-7.38,.9-.1,1.48-.18,2.93-.23,4.29-.2,4.72-.18,8.67-.14,11.42,0,.11,0,.21,0,.32l-2.11-1.02c.02-2.74,.1-6.44,.38-10.82,.09-1.51,.22-3.11,.37-4.76-.58-.15-5.35-1.37-7.16-2.81-1.63-1.31-3.35-3.42-3.29-5.64,.06-2.17,1.84-4.01,4.08-3.72,3.11,.4,5.72,5.42,6.23,8.17,.03,.16,.16,1.96,.22,3.1,.06-.67,.12-1.33,.19-2.02,.14-1.37,.32-2.73,.5-4.2,.11-.71,.23-1.42,.35-2.14,.1-.72,.3-1.46,.45-2.2,.38-1.7,.84-3.41,1.35-5.12-1.2-.12-5.45-.62-7.27-1.67-1.81-1.04-3.83-2.87-4.11-5.07-.27-2.15,1.21-4.24,3.47-4.3,3.13-.08,6.47,4.49,7.4,7.13,.06,.16,.51,2.14,.73,3.22,.31-1.03,.62-2.05,.97-3.08,1.01-2.97,2.12-5.94,3.22-8.9,.34-.91,.66-1.82,.99-2.73-.43-.04-5.5-.52-7.54-1.7-1.81-1.04-3.83-2.87-4.11-5.07-.27-2.15,1.21-4.24,3.47-4.3,3.13-.08,6.47,4.49,7.4,7.13,.07,.2,.71,3.04,.84,3.77,.72-2,1.43-4.01,2.04-6.01,.85-2.76,1.53-5.52,1.99-8.24-.2-.02-5.49-.5-7.58-1.7-1.81-1.04-3.83-2.87-4.11-5.07-.27-2.15,1.21-4.24,3.47-4.3,3.13-.08,6.47,4.49,7.4,7.13,.06,.17,.55,2.33,.76,3.37,.1,0,.08,0,.18,0,.46-2.92,.54-5.81,.47-8.51-.03-1.57-.15-3.06-.3-4.52-1,.01-5.54,.01-7.54-.86-1.92-.84-4.12-2.44-4.64-4.59-.51-2.11,.74-4.35,2.98-4.65,3.11-.42,6.93,3.75,8.13,6.28,.07,.14,.58,1.61,.94,2.68-.08-.65-.14-1.33-.23-1.96-.32-2.35-.75-4.48-1.15-6.37-.24-1.07-.47-2.03-.7-2.93-.98-.5-4.91-2.56-6.26-4.22-1.31-1.63-2.54-4.06-2-6.21,.52-2.1,2.66-3.52,4.79-2.76Z"/><path class="cls-11" d="M380.74,163.61c-2.45-.1-7.35-2.61-7.35-2.61-.05-.03,2.64-2.72,2.83-2.88,2.19-1.75,7.45-3.83,10.06-2.1,1.88,1.25,2.02,3.81,.65,5.48-1.4,1.71-4.09,2.19-6.18,2.1Z"/></g><g class="cls-12"><path class="cls-1" d="M330.13,140.39c-.06,0,.7-3.73,.77-3.96,.86-2.66,4.1-7.3,7.23-7.3,2.26,0,3.79,2.06,3.57,4.22-.23,2.2-2.21,4.08-3.99,5.16-2.1,1.27-7.57,1.88-7.58,1.88Z"/><path class="cls-1" d="M324.06,115.28c2.95,1.06,4.42,6.52,4.33,9.32,0,.24-.57,4.01-.62,3.98,0,0-.05-.02-.06-.03,.24,.86,.48,1.79,.73,2.8,.44,1.88,.93,4.01,1.3,6.36,.38,2.35,.72,4.91,.83,7.65,.12,2.74,.11,5.63-.29,8.6,0,.03-.01,.07-.02,.1,.39-.83,1.55-3.13,1.65-3.29,1.54-2.34,5.88-5.96,8.9-5.13,2.18,.6,3.11,2.99,2.33,5.01-.8,2.06-3.2,3.35-5.22,3.92-2.27,.65-7.33-.12-7.73-.18-.41,2.83-1.05,5.7-1.86,8.56-.46,1.64-.98,3.28-1.52,4.91,.36-.71,.68-1.34,.74-1.43,1.54-2.34,5.88-5.96,8.9-5.13,2.18,.6,3.11,2.99,2.33,5.01-.8,2.06-3.2,3.35-5.22,3.92-2.04,.58-6.37,.02-7.51-.15-.21,.62-.42,1.25-.64,1.88-1.04,3-2.08,5.98-3.02,8.94-.33,1.04-.62,2.08-.91,3.12,.32-.63,.59-1.16,.64-1.23,1.54-2.34,5.88-5.96,8.9-5.13,2.18,.6,3.11,2.99,2.33,5.01-.8,2.06-3.2,3.35-5.22,3.92-1.95,.55-5.94,.07-7.3-.12-.27,1.07-.53,2.15-.74,3.2-.13,.72-.3,1.41-.39,2.14-.1,.72-.2,1.44-.3,2.14-.14,1.37-.3,2.78-.4,4.12-.08,.93-.14,1.82-.2,2.72,.32-1.04,.98-3.07,1.05-3.23,.77-1.69,2.69-4.12,4.8-5.46,.11-.25,.25-.49,.4-.72,1.24-1.77,3.75-2.33,5.46-.85,2.37,2.05,1.78,7.67,.69,10.25-.06,.15-.95,1.72-1.52,2.71,.42-.53,.83-1.04,1.28-1.58,.87-1.07,1.77-2.11,2.74-3.23,.48-.52,.97-1.06,1.47-1.59,.48-.54,1.05-1.05,1.58-1.59,1.25-1.21,2.58-2.38,3.95-3.53-.93-.77-4.2-3.53-5.15-5.41-.94-1.87-1.61-4.51-.63-6.5,.96-1.94,3.35-2.87,5.26-1.67,2.66,1.67,2.92,7.31,2.23,10.03-.04,.17-.76,2.06-1.17,3.09,.83-.68,1.65-1.37,2.51-2.03,2.48-1.92,5.05-3.78,7.6-5.65,.78-.57,1.56-1.15,2.33-1.73-.33-.27-4.3-3.47-5.35-5.57-.94-1.87-1.61-4.51-.63-6.5,.96-1.94,3.35-2.87,5.26-1.67,2.66,1.67,2.92,7.31,2.23,10.03-.05,.2-1.08,2.93-1.38,3.6,1.71-1.27,3.4-2.56,5.01-3.89,2.23-1.84,4.32-3.76,6.2-5.77-.16-.12-4.3-3.45-5.38-5.6-.94-1.87-1.61-4.51-.63-6.5,.96-1.94,3.35-2.87,5.26-1.67,2.66,1.67,2.92,7.31,2.23,10.03-.05,.18-.83,2.25-1.22,3.23,.08,.05,.07,.04,.15,.09,1.99-2.18,3.65-4.55,5.09-6.84,.84-1.32,1.56-2.64,2.24-3.93-.84-.54-4.63-3.05-5.82-4.88-1.14-1.76-2.1-4.31-1.34-6.39,.74-2.04,3.02-3.22,5.05-2.24,2.82,1.36,3.71,6.95,3.32,9.72-.02,.15-.4,1.66-.7,2.76,.3-.59,.61-1.19,.89-1.76,1.03-2.14,1.84-4.15,2.55-5.95,.39-1.02,.73-1.96,1.03-2.83-.54-.96-2.69-4.84-2.89-6.98-.2-2.08,.12-4.79,1.75-6.29,1.6-1.47,4.16-1.47,5.51,.34,1.88,2.51,.09,7.88-1.53,10.16-.14,.2-2.68,3.03-2.71,2.98,0,0-.03-.05-.03-.06-.28,.85-.58,1.76-.94,2.74-.67,1.81-1.44,3.85-2.43,6.02-.98,2.17-2.11,4.49-3.52,6.84-1.41,2.35-3.01,4.75-4.99,7.01-.02,.03-.05,.05-.07,.07,.78-.48,3.01-1.76,3.2-1.83,2.57-1.11,8.19-1.73,10.25,.63,1.49,1.7,.95,4.21-.82,5.46-1.81,1.28-4.52,1.03-6.51,.4-2.25-.71-6.05-4.14-6.35-4.41-1.9,2.14-4.02,4.17-6.28,6.12-1.29,1.11-2.63,2.19-3.98,3.26,.69-.39,1.31-.74,1.4-.78,2.57-1.11,8.19-1.73,10.26,.63,1.49,1.7,.95,4.21-.82,5.46-1.81,1.28-4.52,1.03-6.51,.4-2.02-.64-5.32-3.5-6.18-4.27-.52,.4-1.04,.81-1.56,1.21-2.52,1.93-5.04,3.84-7.45,5.79-.85,.69-1.66,1.4-2.48,2.1,.61-.35,1.13-.64,1.22-.68,2.57-1.11,8.19-1.73,10.25,.63,1.49,1.7,.95,4.21-.82,5.46-1.81,1.28-4.52,1.03-6.51,.4-1.93-.61-5-3.22-6.02-4.13-.81,.75-1.63,1.49-2.38,2.26-.5,.53-1.03,1.01-1.5,1.57-.48,.55-.96,1.09-1.43,1.62-.87,1.07-1.78,2.16-2.61,3.22-.58,.73-1.12,1.44-1.67,2.16,.84-.69,2.51-2.02,2.66-2.11,2.38-1.48,7.84-2.95,10.23-.93,1.73,1.46,1.57,4.02,.01,5.52-1.59,1.54-4.31,1.7-6.38,1.38-2.27-.36-6.39-3.04-6.9-3.38-.9,1.18-1.76,2.34-2.56,3.45-2.77,3.83-4.93,7.13-6.41,9.45-.05,.08-.1,.16-.15,.24l-1.92-.93c.1-.15,.2-.3,.3-.46,1.55-2.32,3.8-5.6,6.69-9.4,.91-1.21,1.9-2.47,2.94-3.77-.27-.29-1.77-1.96-2.98-3.69-2.2,.86-6.79,.9-7.38,.9-.1,1.48-.18,2.93-.23,4.29-.2,4.72-.18,8.67-.14,11.42,0,.11,0,.21,0,.32l-2.11-1.02c.02-2.74,.1-6.44,.38-10.82,.09-1.51,.22-3.11,.37-4.76-.58-.15-5.35-1.37-7.16-2.81-1.63-1.31-3.35-3.42-3.29-5.64,.06-2.17,1.84-4.01,4.08-3.72,3.11,.4,5.72,5.42,6.23,8.17,.03,.16,.16,1.96,.22,3.1,.06-.67,.12-1.33,.19-2.02,.14-1.37,.32-2.73,.5-4.2,.11-.71,.23-1.42,.35-2.14,.1-.72,.3-1.46,.45-2.2,.38-1.7,.84-3.41,1.35-5.12-1.2-.12-5.45-.62-7.27-1.67-1.81-1.04-3.83-2.87-4.11-5.07-.27-2.15,1.21-4.24,3.47-4.3,3.13-.08,6.47,4.49,7.4,7.13,.06,.16,.51,2.14,.73,3.22,.31-1.03,.62-2.05,.97-3.08,1.01-2.97,2.12-5.94,3.22-8.9,.34-.91,.66-1.82,.99-2.73-.43-.04-5.5-.52-7.54-1.7-1.81-1.04-3.83-2.87-4.11-5.07-.27-2.15,1.21-4.24,3.47-4.3,3.13-.08,6.47,4.49,7.4,7.13,.07,.2,.71,3.04,.84,3.77,.72-2,1.43-4.01,2.04-6.01,.85-2.76,1.53-5.52,1.99-8.24-.2-.02-5.49-.5-7.58-1.7-1.81-1.04-3.83-2.87-4.11-5.07-.27-2.15,1.21-4.24,3.47-4.3,3.13-.08,6.47,4.49,7.4,7.13,.06,.17,.55,2.33,.76,3.37,.1,0,.08,0,.18,0,.46-2.92,.54-5.81,.47-8.51-.03-1.57-.15-3.06-.3-4.52-1,.01-5.54,.01-7.54-.86-1.92-.84-4.12-2.44-4.64-4.59-.51-2.11,.74-4.35,2.98-4.65,3.11-.42,6.93,3.75,8.13,6.28,.07,.14,.58,1.61,.94,2.68-.08-.65-.14-1.33-.23-1.96-.32-2.35-.75-4.48-1.15-6.37-.24-1.07-.47-2.03-.7-2.93-.98-.5-4.91-2.56-6.26-4.22-1.31-1.63-2.54-4.06-2-6.21,.52-2.1,2.66-3.52,4.79-2.76Z"/><path class="cls-1" d="M380.74,163.61c-2.45-.1-7.35-2.61-7.35-2.61-.05-.03,2.64-2.72,2.83-2.88,2.19-1.75,7.45-3.83,10.06-2.1,1.88,1.25,2.02,3.81,.65,5.48-1.4,1.71-4.09,2.19-6.18,2.1Z"/></g></g><g><g><path class="cls-11" d="M352.13,224.97s-14.87-35.84-23.19-34.28,14.27,57.14,14.27,57.14c0,0-26.16-49.35-44-49.35s6.54,54.54,29.14,72.72c0,0-35.68-38.44-56.49-30.13-20.81,8.31,41.62,47.27,41.62,47.27,0,0-36.27-11.43-32.11-2.6,4.16,8.83,15.46,10.39,15.46,10.39l-41.03,2.08h142.71l-32.11-3.12s33.3-16.62,24.38-23.38c-8.92-6.75-28.54,7.79-28.54,7.79,0,0,33.89-37.4,27.35-51.43-6.54-14.03-35.68,25.45-35.68,25.45,0,0,23.78-50.39,19.03-59.22-4.76-8.83-20.81,30.65-20.81,30.65Z"/><path class="cls-2" d="M352.13,224.97s-14.87-35.84-23.19-34.28,14.27,57.14,14.27,57.14c0,0-26.16-49.35-44-49.35s6.54,54.54,29.14,72.72c0,0-35.68-38.44-56.49-30.13-20.81,8.31,41.62,47.27,41.62,47.27,0,0-36.27-11.43-32.11-2.6,4.16,8.83,15.46,10.39,15.46,10.39l-41.03,2.08h142.71l-32.11-3.12s33.3-16.62,24.38-23.38c-8.92-6.75-28.54,7.79-28.54,7.79,0,0,33.89-37.4,27.35-51.43-6.54-14.03-35.68,25.45-35.68,25.45,0,0,23.78-50.39,19.03-59.22-4.76-8.83-20.81,30.65-20.81,30.65Z"/></g><g><path class="cls-7" d="M356.89,226.86c-13.08,38.65-13.08,66-13.08,66,0,0,15.46,.59,31.51-11.3"/><path class="cls-7" d="M350.35,247.67s-2.97-14.27-10.7-33.89"/><path class="cls-7" d="M311.7,225.07l33.3,49.35s22.6-19.03,30.33-29.73"/><path class="cls-7" d="M344.4,286.32s-35.08-16.65-49.35-26.16"/></g></g></g></g><g id="Device"><g><rect class="cls-4" x="198.16" y="20.19" width="122.68" height="278.02" rx="7.92" ry="7.92"/><path class="cls-13" d="M316.74,68.86c-.9,0-1.63-.73-1.63-1.63v-21.85c0-.9,.73-1.63,1.63-1.63s1.63,.73,1.63,1.63v21.85c0,.9-.73,1.63-1.63,1.63Z"/><path class="cls-13" d="M316.74,89.1c-.9,0-1.63-.73-1.63-1.63v-12.21c0-.9,.73-1.63,1.63-1.63s1.63,.73,1.63,1.63v12.21c0,.9-.73,1.63-1.63,1.63Z"/><rect class="cls-8" x="188.9" y="20.19" width="122.68" height="278.02" rx="7.92" ry="7.92"/><rect class="cls-11" x="197.07" y="38.7" width="106.34" height="238.46"/><line class="cls-10" x1="234.45" y1="31.08" x2="262.76" y2="31.08"/><path class="cls-1" d="M246.43,285.6c0,1.95-1.22,3.54-2.72,3.54s-2.72-1.58-2.72-3.54,1.22-3.54,2.72-3.54,2.72,1.58,2.72,3.54Z"/><g><ellipse class="cls-1" cx="250.24" cy="76.54" rx="18.44" ry="21.5"/><ellipse class="cls-8" cx="250.24" cy="68.1" rx="7" ry="8.17"/><path class="cls-8" d="M250.24,78.45c-7.03,0-12.72,5.36-12.72,11.98,0,.63,.07,1.23,.16,1.83,3.29,3.58,7.7,5.79,12.56,5.79s9.26-2.21,12.56-5.79c.1-.6,.16-1.21,.16-1.83,0-6.61-5.7-11.98-12.72-11.98Z"/></g><g><path class="cls-13" d="M272.66,170.17h-44.84c-2.37,0-4.29-2.08-4.29-4.65v-27.66c0-15.95,11.98-28.93,26.72-28.93s26.72,12.98,26.72,28.93v27.66c0,2.57-1.92,4.65-4.29,4.65Zm-40.55-9.3h36.26v-23.01c0-10.83-8.13-19.63-18.13-19.63s-18.13,8.81-18.13,19.63v23.01Z"/><rect class="cls-1" x="219.11" y="151.3" width="62.26" height="58.9"/><path class="cls-8" d="M259.31,191.86l-4.62-11.11c1.96-1.44,3.24-3.87,3.24-6.63,0-4.42-3.31-8.01-7.39-8.01s-7.39,3.59-7.39,8.01c0,2.76,1.29,5.19,3.24,6.63l-4.62,11.11h17.53Z"/></g><g><path class="cls-1" d="M231.28,263.13c.1,.07,.21,.11,.32,.11,.17,0,.33-.08,.44-.22l71.37-97.09v-1.84l-72.25,98.29c-.18,.24-.13,.58,.12,.76Z"/><path class="cls-1" d="M289.05,73.68c-.18,.24-.13,.58,.12,.76,.1,.07,.21,.11,.32,.11,.17,0,.33-.08,.44-.22l13.48-18.34v-1.84l-14.36,19.53Z"/><path class="cls-1" d="M197.07,200.65l88.08-119.83c.18-.24,.13-.58-.12-.76-.24-.18-.58-.13-.76,.12l-87.21,118.63v1.84Z"/><path class="cls-1" d="M222.99,274.95c.17,0,.33-.08,.44-.22l4.96-6.75c.18-.24,.13-.58-.12-.76-.24-.18-.58-.13-.76,.12l-4.96,6.75c-.18,.24-.13,.58,.12,.76,.1,.07,.21,.11,.32,.11Z"/><path class="cls-1" d="M303.41,185.36l-58.59,79.71c-.18,.24-.13,.58,.12,.76,.1,.07,.21,.11,.32,.11,.17,0,.33-.08,.44-.22l57.72-78.51v-1.84Z"/></g></g></g><g id="Character"><g><g><path class="cls-8" d="M97.61,73.34s1.4-2.58,1.4-7.05-5.42-7.06-11.77-7.77c-6.36-.71-9.18,1.88-8.24,3.53,.94,1.65,3.53,3.53,3.53,3.53,0,0-6.36-3.53-10.6-.71s1.88,1.65,.71,4.47-7.77,1.65-9.42,9.18,3.06,15.07-1.18,18.37c-4.24,3.3-16.95-1.18-20.72,7.06-3.77,8.24,1.56,11.89-7.39,17.07s-15.45,10.24-12.86,22.96c2.59,12.71,11.07,17.19,27.78,12.71,16.72-4.47,15.54-14.6,20.96-24.96,5.42-10.36,13.89-8.24,16.48-14.13,2.59-5.89-.71-12.95-.47-18.37,.24-5.42,5.65-6.59,7.77-12.95,2.12-6.36,4.02-12.96,4.02-12.96Z"/><path class="cls-9" d="M23.01,143.8c-.42,.84-.65,1.78-.65,2.85"/><path class="cls-9" d="M88.57,68.66s-2.95-3.4,2.72-1.81c7.13,2-1.24,10.24-4.47,11.9-6.46,3.32-15,2.26-20.02,8.27-4.53,5.44,1.59,11.11-1.13,15.42-2.72,4.31-13.6,1.81-17.23,7.03-3.63,5.21,6.57,16.32-3.85,22.44-7.54,4.43-15.8,6.13-19.79,9.64"/><path class="cls-9" d="M71.65,88.79c-.55,1.49-.88,3.13-.54,4.59,.91,3.85,6.12,11.11,1.36,15.19-4.76,4.08-12.92,3.85-14.28,8.61-1.36,4.76,1.36,17.91-3.17,24.03-4.53,6.12-13.38,5.67-18.14,9.75-4.76,4.08-4.08,6.35-4.08,6.35"/><path class="cls-9" d="M74.06,84.3s-.53,.71-1.15,1.81"/></g><path class="cls-4" d="M100.65,143.43l1.16,9.01s6.01,6.01,10.4,9.71c4.39,3.7,15.72,11.56,15.72,11.56l-5.78,1.62s-18.72-11.1-22.42-12.02c-3.7-.92-6.47-6.24-7.63-7.86-1.16-1.62,5.55-13.64,8.55-12.02Z"/><g><path class="cls-4" d="M112.1,289.86s5.65,4.78,7.97,6.38c2.32,1.59,5.07,2.32,4.64,3.19s-1.6,1.74-7.1,1.02c-5.51-.73-7.1-2.61-8.12-2.9-1.01-.29-3.48,.43-5.36-.73s1.1-8.07,1.1-8.07c0,0,2.81,3.43,6.87,1.11Z"/><path class="cls-4" d="M124.71,299.43s.03-.09,.04-.13c-3.35,.45-6.54-.21-9.45-.89-3.57-.84-4.61-2.73-7.97-2.73-1.7,0-3.01-.32-3.91-.64,.02,.81,.21,1.48,.7,1.79,1.88,1.16,4.35,.43,5.36,.73,1.01,.29,2.61,2.17,8.12,2.9,5.51,.72,6.67-.15,7.1-1.02Z"/></g><g><path class="cls-4" d="M82.46,96.59s1.09,7.34-.31,10.3c-1.4,2.97-5.78,3.28-9.52,3.9-3.75,.62-12.33,3.9-11.39,12.33,.94,8.43,11.71,26.69,11.71,31.84s-3.28,7.8-6.87,17.79c-3.59,9.99-3.12,28.56-2.03,40.58,1.09,12.02,4.68,23.41,4.68,23.41,0,0-9.05,14.52-12.96,20.76-3.9,6.24-17.95,33.4-17.95,33.4,0,0,0,.94,2.19,1.56,2.19,.62,4.68,.31,4.68,.31,0,0,26.85-32.31,31.84-37.77,4.99-5.46,9.68-14.98,10.3-19.36,.62-4.37-.16-31.06-.16-31.06,0,0,5.62,13.42,9.99,20.29s7.33,12.96,7.33,12.96c0,0-1.08,9.21,.01,17.01,1.09,7.8,.17,32.86,1.26,34.89,1.09,2.03,5.32,1.18,6.25,.25,.94-.94,1.38-7.04,1.38-7.04,0,0,1.87-19.04,2.97-27.94,1.09-8.9,2.97-16.55,2.34-18.57-.62-2.03-4.53-23.73-7.49-34.03-2.97-10.3-12.02-29.5-14.05-34.5-2.03-4.99-3.12-9.52-2.81-11.08,.31-1.56,6.4-10.93,7.96-13.42,1.56-2.5,2.19-7.02,.31-11.08-1.87-4.06,0-9.52-.31-12.8-.31-3.28-5.15-4.68-7.65-5.93-2.5-1.25-3.43-4.06-3.43-6.4s1.4-5.62,1.4-5.62c0,0-7.65-4.99-9.68-4.99Z"/><path class="cls-7" d="M101.38,129.98s-1.77-4.64-2.05-6.41"/><path class="cls-7" d="M81.11,147.36s2.83,.63,8.48-2.2"/></g><path class="cls-8" d="M110.72,202.42c-2.83-9.85-11.23-27.81-13.73-33.74-12.03,4.5-23.22,.66-28.49-1.82-.77,1.66-1.58,3.57-2.42,5.9-3.59,9.99-3.12,28.57-2.03,40.58,1.09,12.02,4.68,23.41,4.68,23.41,0,0-9.05,14.52-12.96,20.76-3.9,6.24-17.95,33.4-17.95,33.4,0,0,0,.94,2.19,1.56,2.19,.62,4.68,.31,4.68,.31,0,0,26.85-32.31,31.84-37.77,4.99-5.46,9.68-14.98,10.3-19.36,.62-4.37-.16-31.06-.16-31.06,0,0,5.62,13.42,9.99,20.29,4.37,6.87,7.33,12.96,7.33,12.96,0,0-1.08,9.21,.01,17.01,1.09,7.8,.17,32.86,1.26,34.89,1.09,2.03,5.32,1.18,6.25,.25,.94-.94,1.38-7.04,1.38-7.04,0,0,1.87-19.04,2.97-27.94,1.09-8.9,2.97-16.55,2.34-18.57-.62-2.03-4.53-23.73-7.49-34.03Z"/><g><polygon class="cls-6" points="171.85 192.51 171.85 190.47 173.56 190.47 173.56 174.45 171.85 174.45 154.97 174.45 153.26 174.45 153.26 190.47 154.97 190.47 154.97 192.51 153.26 192.51 153.26 196.23 159.84 196.23 159.84 194.98 166.98 194.98 166.98 196.23 173.57 196.23 173.57 192.51 171.85 192.51"/><path class="cls-6" d="M62.75,169.66h117.76c.98,0,1.78,.8,1.78,1.78v3.58c0,.98-.8,1.78-1.78,1.78H62.75v-7.15h0Z"/><rect class="cls-6" x="139.12" y="168.59" width="9.15" height="9.29" rx=".99" ry=".99"/><circle class="cls-6" cx="48.09" cy="173.24" r="18.59" transform="translate(-130.64 192.7) rotate(-80.7)"/><path class="cls-4" d="M51.91,173.24c2.2-1.15,3.69-3.26,3.69-5.68,0-3.65-3.36-6.61-7.51-6.61s-7.51,2.96-7.51,6.61c0,2.42,1.48,4.53,3.69,5.68-2.2,1.15-3.69,3.26-3.69,5.68,0,3.65,3.36,6.61,7.51,6.61s7.51-2.96,7.51-6.61c0-2.42-1.48-4.53-3.69-5.68Z"/></g><g><path class="cls-4" d="M124.26,176.96s5.81,2.45,7.62,2.45,3.87-1.81,4.91-4c1.03-2.2,1.03-3.23,.39-2.71-.65,.52-1.29,1.03-1.29,1.03,0,0,1.03-2.2-.13-1.94-1.16,.26-1.81,1.55-1.81,1.55,0,0-.13-1.94-1.16-1.03-1.03,.9-1.81,2.07-1.81,2.07,0,0-.13-2.45-.77-1.81-.65,.65-3.1,4.13-3.1,4.13l-2.84,.26Z"/><path class="cls-4" d="M130.97,174.38s-.39,3.1-2.32,3.62"/><path class="cls-4" d="M133.94,173.35s-1.03,4.91-2.58,5.68"/><path class="cls-4" d="M135.88,173.74s-1.16,3.87-2.07,5.17"/></g><path class="cls-4" d="M93.85,113.41c-2.24-1.32-3.11-3.97-3.11-6.2s1.4-5.62,1.4-5.62c0,0-7.65-4.99-9.68-4.99,0,0,1.09,7.34-.31,10.3-.45,.94-1.19,1.62-2.12,2.12,1.02,3.47,5.18,11.22,7.45,14.01,2.86,3.51,4.23-3.92,6.38-9.62Z"/><g><path class="cls-4" d="M70.25,111.81s-5.94,.66-9.02,6.6-16.53,32.9-15.39,34.51c6.54,9.2,30.33,15.82,32.75,18.24s5.51,5.31,7.93,6.85,7.26,.88,8.14,.44c.88-.44,1.54-2.42,0-2.42s-2.33-1.11-2.55-1.99c-.22-.88,2.42,.88,3.74,.22,1.32-.66-2.95-3.07-4.27-4.17-1.32-1.1-2.42-2.64-4.18-2.64s-5.06-.04-5.06-.04c0,0-8.1-5.87-13-10.24-6.6-5.89-12.41-9.06-12.41-9.06l14.85-24.43"/><path class="cls-4" d="M91.58,170.09c-1.32-1.1-2.42-2.64-4.18-2.64s-5.06-.04-5.06-.04c0,0-8.1-5.87-13-10.24-6.6-5.89-12.41-9.06-12.41-9.06l5.94-9.77c-3.9-2.44-8-2.84-10.07-2.87-3.96,8.34-7.58,16.58-6.97,17.45,6.54,9.2,30.33,15.82,32.75,18.24,2.42,2.42,5.51,5.31,7.93,6.85,2.42,1.54,7.26,.88,8.14,.44,.88-.44,1.54-2.42,0-2.42s-2.33-1.11-2.55-1.99c-.22-.88,2.42,.88,3.74,.22,1.32-.66-2.95-3.07-4.27-4.17Z"/></g><g><path class="cls-4" d="M99.63,85.82c-.78-1.56-.78-2.81-.47-4.99,.31-2.19-1.56-7.49-1.56-7.49,0,0-.02,.01-.03,.02-1.91,3.31-7.43,5.27-9.88,6.02-2.69,.83,1.24,2.69,.83,5.17-.41,2.48-5.79,3.93-5.79,3.93,0,0-1.54-3.31-3.72-3.31s-3.73,5-2.48,7.65c1.25,2.65,3.91,2.05,3.91,2.05,0,0-.16,4.68,2.81,6.09,2.97,1.4,7.96,3.28,9.83,3.59,1.87,.31,3.75-.62,4.53-3.43,.78-2.81,1.25-8.59,1.25-8.59,0,0,2.81-1.87,3.59-2.97,.78-1.09-2.03-2.19-2.81-3.75Z"/><path class="cls-13" d="M96.59,85.89c0,.86-.28,1.55-.62,1.55s-.62-.69-.62-1.55,.28-1.55,.62-1.55,.62,.69,.62,1.55Z"/><path class="cls-7" d="M93.9,83.31s1.65-1.86,2.9-1.45"/><path class="cls-7" d="M96.8,96.13s-2.28,.83-4.34-1.03"/></g><g><path class="cls-4" d="M37.82,290.93s-3.73,7.48-3.59,8.5,7.54,6.38,11.02,8.26c3.48,1.88,9.71,2.17,9.28-.43s-6.38-4.35-7.83-8.26c-1.45-3.91-2.01-6.19-2.01-6.19,0,0-3.57,.21-6.87-1.87Z"/><path class="cls-4" d="M54.53,307.3c-1.99,.27-4.73,.21-7.83-1.14-5.37-2.33-10.57-7.09-11.99-8.44-.32,.82-.51,1.45-.48,1.7,.15,1.02,7.54,6.38,11.02,8.26,3.46,1.87,9.64,2.17,9.28-.4Z"/></g></g></g></svg>