<?xml version="1.0" encoding="UTF-8"?><svg id="Layer_2" xmlns="http://www.w3.org/2000/svg" viewBox="0 0 500 368.76"><defs><style>.cls-1{fill:#dbb178;}.cls-2{fill:#f0f0f0;}.cls-3,.cls-4,.cls-5,.cls-6,.cls-7,.cls-8,.cls-9,.cls-10{fill:#fff;}.cls-11{fill:#fafafa;}.cls-4{opacity:.9;}.cls-12,.cls-7{opacity:.5;}.cls-5,.cls-13{opacity:.4;}.cls-14{fill:#f5f5f5;}.cls-6,.cls-15{opacity:.3;}.cls-16,.cls-17,.cls-9{opacity:.2;}.cls-18{fill:#e0e0e0;}.cls-8{opacity:.7;}.cls-19{fill:#e6e6e6;}.cls-17{isolation:isolate;}.cls-20{fill:#c0854b;}.cls-21{opacity:.1;}.cls-22{fill:#ebebeb;}.cls-23{fill:#407bff;}.cls-10{opacity:.6;}.cls-24{fill:#a02724;}.cls-25{fill:#263238;}</style></defs><g id="Background_Complete"><rect class="cls-22" x="416.78" y="343.54" width="33.12" height=".25"/><rect class="cls-22" x="322.53" y="346.26" width="8.69" height=".25"/><rect class="cls-22" x="396.59" y="334.26" width="19.19" height=".25"/><rect class="cls-22" x="52.46" y="335.94" width="43.19" height=".25"/><rect class="cls-22" x="104.56" y="335.94" width="6.33" height=".25"/><rect class="cls-22" x="131.47" y="340.16" width="93.68" height=".25"/><g><path class="cls-22" d="M238.4,282.85H45.3c-3.15,0-5.71-2.56-5.71-5.71V5.71c0-3.15,2.56-5.71,5.71-5.71H238.4c3.15,0,5.71,2.56,5.71,5.71V277.14c0,3.15-2.56,5.71-5.71,5.71ZM45.3,.25c-3.01,0-5.46,2.45-5.46,5.46V277.14c0,3.01,2.45,5.46,5.46,5.46H238.4c3.01,0,5.46-2.45,5.46-5.46V5.71c0-3.01-2.45-5.46-5.46-5.46H45.3Z"/><path class="cls-22" d="M454.7,282.85h-193.1c-3.15,0-5.71-2.56-5.71-5.71V5.71c0-3.15,2.56-5.71,5.71-5.71h193.1c3.15,0,5.71,2.56,5.71,5.71V277.14c0,3.15-2.56,5.71-5.71,5.71ZM261.6,.25c-3.01,0-5.46,2.45-5.46,5.46V277.14c0,3.01,2.45,5.46,5.46,5.46h193.1c3.01,0,5.46-2.45,5.46-5.46V5.71c0-3.01-2.45-5.46-5.46-5.46h-193.1Z"/></g><rect class="cls-22" y="327.45" width="500" height=".25"/><g><g><path class="cls-2" d="M377.52,36.38h26.88c8.52,0,15.44,6.92,15.44,15.44v26.88c0,8.52-6.92,15.44-15.44,15.44h-26.88c-8.52,0-15.44-6.92-15.44-15.44v-26.88c0-8.52,6.92-15.44,15.44-15.44Z"/><g><path class="cls-11" d="M398.15,57.09c0,4.92-2.5,8.91-7.42,8.91s-7.42-3.99-7.42-8.91c0-4.92,2.5-8.91,7.42-8.91s7.42,3.99,7.42,8.91Z"/><path class="cls-11" d="M390.73,82.33h13.73v-8.16c0-4.51-6.15-8.16-13.73-8.16s-13.73,3.66-13.73,8.16v8.16h13.73Z"/></g></g><g><rect class="cls-19" x="121.93" y="55.74" width="40.34" height="40.34" rx="10.78" ry="10.78"/><path class="cls-11" d="M141.28,78.09c.48-.69,1.17-1.45,2.09-2.29,.67-.61,1.16-1.12,1.48-1.54,.31-.42,.47-.89,.47-1.42,0-.75-.3-1.35-.9-1.79-.6-.44-1.4-.66-2.4-.66s-1.81,.2-2.55,.59c-.74,.4-1.37,.95-1.88,1.66l-3.69-2.17c.85-1.3,2.01-2.31,3.46-3.02,1.45-.71,3.18-1.07,5.17-1.07,2.34,0,4.22,.5,5.63,1.5,1.41,1,2.12,2.38,2.12,4.15,0,.83-.14,1.57-.41,2.2-.27,.63-.61,1.16-1.01,1.6-.4,.44-.91,.94-1.54,1.51-.75,.67-1.3,1.24-1.65,1.69-.35,.46-.52,1.01-.52,1.66h-4.61c0-1.06,.24-1.93,.72-2.62Zm-.49,9.48c-.56-.54-.84-1.2-.84-1.97s.27-1.42,.82-1.94c.55-.52,1.25-.78,2.11-.78s1.56,.26,2.11,.78c.55,.52,.82,1.16,.82,1.94s-.28,1.43-.84,1.97c-.56,.54-1.26,.81-2.09,.81s-1.53-.27-2.09-.81Z"/></g><rect class="cls-22" x="393.29" y="193.84" width="31.22" height="31.22" rx="8.34" ry="8.34"/><path class="cls-11" d="M408.26,211.14c.37-.53,.91-1.13,1.62-1.77,.52-.47,.9-.87,1.15-1.19,.24-.32,.37-.69,.37-1.1,0-.58-.23-1.04-.7-1.38-.46-.34-1.08-.51-1.85-.51s-1.4,.15-1.97,.46c-.57,.31-1.06,.74-1.45,1.29l-2.86-1.68c.66-1.01,1.55-1.79,2.68-2.34,1.13-.55,2.46-.83,4-.83,1.81,0,3.26,.39,4.36,1.16,1.09,.77,1.64,1.84,1.64,3.21,0,.65-.11,1.21-.32,1.7-.21,.49-.47,.9-.78,1.24-.31,.34-.7,.73-1.19,1.17-.58,.52-1.01,.96-1.28,1.31-.27,.35-.4,.78-.4,1.29h-3.57c0-.82,.18-1.5,.55-2.03Zm-.38,7.33c-.43-.42-.65-.92-.65-1.52s.21-1.1,.64-1.5c.43-.4,.97-.6,1.63-.6s1.2,.2,1.63,.6c.43,.4,.64,.9,.64,1.5s-.22,1.11-.65,1.52c-.43,.42-.97,.63-1.62,.63s-1.18-.21-1.62-.63Z"/><g><rect class="cls-22" x="87.55" y="116.24" width="40.34" height="40.34" rx="10.78" ry="10.78"/><path class="cls-11" d="M107.72,125.01c-5.04,0-9.12,4.08-9.12,9.12s4.08,17.12,9.12,17.12,9.12-12.08,9.12-17.12-4.08-9.12-9.12-9.12Zm0,11.87c-1.52,0-2.75-1.23-2.75-2.75s1.23-2.75,2.75-2.75,2.75,1.23,2.75,2.75-1.23,2.75-2.75,2.75Z"/></g><path class="cls-22" d="M111.75,191.49c.14-.91,.22-1.85,.22-2.8s-.08-1.89-.22-2.8l-2.8-.36c-.22-1.04-.55-2.03-.97-2.97l2.06-1.94c-.86-1.68-1.97-3.21-3.29-4.53l-2.5,1.36c-.77-.7-1.62-1.31-2.52-1.84l.52-2.79c-1.64-.84-3.43-1.44-5.32-1.73l-1.21,2.55c-.52-.05-1.04-.08-1.57-.08s-1.05,.03-1.57,.08l-1.21-2.55c-1.89,.3-3.68,.89-5.32,1.73l.52,2.79c-.91,.53-1.75,1.14-2.52,1.84l-2.5-1.36c-1.32,1.32-2.43,2.85-3.29,4.53l2.06,1.94c-.42,.95-.75,1.94-.97,2.97l-2.8,.36c-.14,.91-.22,1.85-.22,2.8s.08,1.89,.22,2.8l2.8,.36c.22,1.04,.55,2.03,.97,2.97l-2.06,1.94c.86,1.68,1.97,3.21,3.29,4.53l2.5-1.36c.77,.7,1.62,1.31,2.52,1.84l-.52,2.79c1.64,.84,3.43,1.44,5.32,1.73l1.21-2.55c.51,.05,1.04,.08,1.57,.08s1.05-.03,1.57-.08l1.21,2.55c1.89-.3,3.68-.89,5.32-1.73l-.52-2.79c.91-.53,1.75-1.14,2.52-1.84l2.5,1.36c1.32-1.32,2.43-2.85,3.29-4.53l-2.06-1.94c.42-.95,.75-1.94,.97-2.97l2.8-.36Zm-17.6,3.43c-3.44,0-6.22-2.79-6.22-6.22s2.79-6.22,6.22-6.22,6.22,2.79,6.22,6.22-2.79,6.22-6.22,6.22Z"/><path class="cls-18" d="M120.77,211.6c.07-.46,.11-.92,.11-1.4s-.04-.94-.11-1.4l-1.4-.18c-.11-.52-.28-1.01-.49-1.49l1.03-.97c-.43-.84-.98-1.6-1.64-2.26l-1.25,.68c-.39-.35-.81-.66-1.26-.92l.26-1.39c-.82-.42-1.72-.72-2.66-.87l-.61,1.28c-.26-.03-.52-.04-.78-.04s-.53,.01-.78,.04l-.61-1.28c-.94,.15-1.84,.45-2.66,.87l.26,1.39c-.45,.26-.87,.57-1.26,.92l-1.25-.68c-.66,.66-1.22,1.42-1.64,2.26l1.03,.97c-.21,.47-.38,.97-.49,1.49l-1.4,.18c-.07,.46-.11,.92-.11,1.4s.04,.94,.11,1.4l1.4,.18c.11,.52,.28,1.01,.49,1.49l-1.03,.97c.43,.84,.98,1.6,1.64,2.26l1.25-.68c.39,.35,.81,.66,1.26,.92l-.26,1.39c.82,.42,1.72,.72,2.66,.87l.61-1.28c.26,.03,.52,.04,.78,.04s.53-.01,.78-.04l.61,1.28c.94-.15,1.84-.45,2.66-.87l-.26-1.39c.45-.26,.87-.57,1.26-.92l1.25,.68c.66-.66,1.22-1.42,1.64-2.26l-1.03-.97c.21-.47,.38-.97,.49-1.49l1.4-.18Zm-8.8,1.71c-1.72,0-3.11-1.39-3.11-3.11s1.39-3.11,3.11-3.11,3.11,1.39,3.11,3.11-1.39,3.11-3.11,3.11Z"/><path class="cls-2" d="M429.74,191.43c.37-.27,.73-.57,1.07-.91s.64-.69,.91-1.07l-.86-1.12c.29-.44,.52-.91,.71-1.39l1.41,.04c.29-.9,.44-1.83,.44-2.76l-1.36-.4c-.03-.52-.11-1.04-.24-1.54l1.17-.8c-.28-.88-.71-1.72-1.27-2.49l-1.33,.47c-.16-.2-.34-.4-.53-.58s-.38-.36-.58-.53l.47-1.33c-.77-.56-1.62-.99-2.49-1.27l-.8,1.17c-.51-.13-1.02-.21-1.54-.24l-.4-1.36c-.93,0-1.87,.15-2.76,.44l.04,1.41c-.48,.19-.95,.42-1.39,.71l-1.12-.86c-.37,.27-.73,.57-1.07,.91-.34,.34-.64,.69-.91,1.07l.86,1.12c-.29,.44-.52,.91-.71,1.39l-1.41-.04c-.29,.9-.44,1.83-.44,2.76l1.36,.4c.03,.52,.11,1.04,.24,1.54l-1.17,.8c.28,.88,.71,1.72,1.27,2.49l1.33-.47c.16,.2,.34,.4,.53,.58,.19,.19,.38,.36,.58,.53l-.47,1.33c.77,.56,1.62,.99,2.49,1.27l.8-1.17c.51,.13,1.02,.21,1.54,.24l.4,1.36c.93,0,1.87-.15,2.76-.44l-.04-1.42c.48-.19,.95-.42,1.39-.71l1.12,.86Zm-7.43-5.01c-1.22-1.22-1.22-3.19,0-4.4s3.19-1.22,4.4,0,1.22,3.19,0,4.4-3.19,1.22-4.4,0Z"/></g></g><g id="Shadow"><ellipse id="_Path_" class="cls-14" cx="250" cy="357.44" rx="193.89" ry="11.32"/></g><g id="Graphic"><g><g><g><polygon class="cls-25" points="285.56 58.81 285.56 43.22 293.22 42.15 293.22 57.73 285.56 58.81"/><polygon class="cls-25" points="260.09 67.48 254.35 58.35 259.24 54.84 264.97 63.97 260.09 67.48"/><polygon class="cls-25" points="313.8 57.11 319.54 46.37 324.42 48.5 318.69 59.25 313.8 57.11"/></g><g class="cls-12"><polygon class="cls-3" points="285.56 58.81 285.56 43.22 293.22 42.15 293.22 57.73 285.56 58.81"/><polygon class="cls-3" points="260.09 67.48 254.35 58.35 259.24 54.84 264.97 63.97 260.09 67.48"/><polygon class="cls-3" points="313.8 57.11 319.54 46.37 324.42 48.5 318.69 59.25 313.8 57.11"/></g><path class="cls-25" d="M294.31,44.66l-9.84,1.38c-1.59,.22-2.87-.88-2.87-2.47h0c0-1.59,1.29-3.05,2.87-3.28l9.84-1.38c1.59-.22,2.87,.88,2.87,2.47h0c0,1.59-1.29,3.05-2.87,3.28Z"/><path class="cls-25" d="M260.83,54.6l-7.3,5.24c-.73,.52-1.66,.4-2.08-.27h0c-.42-.67-.17-1.64,.56-2.16l7.3-5.24c.73-.52,1.66-.4,2.08,.27h0c.42,.67,.17,1.64-.56,2.16Z"/><path class="cls-25" d="M325.24,49.76l-7.3-3.19c-.73-.32-.98-1.22-.56-2.01h0c.42-.79,1.35-1.17,2.08-.85l7.3,3.19c.73,.32,.98,1.22,.56,2.01h0c-.42,.79-1.35,1.17-2.08,.85Z"/><path class="cls-8" d="M294.31,44.66l-9.84,1.38c-1.59,.22-2.87-.88-2.87-2.47h0c0-1.59,1.29-3.05,2.87-3.28l9.84-1.38c1.59-.22,2.87,.88,2.87,2.47h0c0,1.59-1.29,3.05-2.87,3.28Z"/><path class="cls-8" d="M260.83,54.6l-7.3,5.24c-.73,.52-1.66,.4-2.08-.27h0c-.42-.67-.17-1.64,.56-2.16l7.3-5.24c.73-.52,1.66-.4,2.08,.27h0c.42,.67,.17,1.64-.56,2.16Z"/><path class="cls-8" d="M325.24,49.76l-7.3-3.19c-.73-.32-.98-1.22-.56-2.01h0c.42-.79,1.35-1.17,2.08-.85l7.3,3.19c.73,.32,.98,1.22,.56,2.01h0c-.42,.79-1.35,1.17-2.08,.85Z"/></g><path class="cls-23" d="M289.39,156.35c-26.63,3.74-48.22-14.81-48.22-41.44s21.59-51.26,48.22-55c26.63-3.74,48.22,14.81,48.22,41.44l6.58-.92c0-30.27-24.53-51.35-54.8-47.1-30.27,4.25-54.8,32.24-54.8,62.5s24.53,51.35,54.8,47.1v-6.58Z"/><g><g><rect class="cls-25" x="265.32" y="145.23" width="7.64" height="1.6" transform="translate(13.55 314.66) rotate(-61.9)"/><rect class="cls-25" x="305.81" y="69.42" width="7.64" height="1.6" transform="translate(101.83 310.27) rotate(-61.9)"/></g><rect class="cls-25" x="253.53" y="89.41" width="1.6" height="6.8" transform="translate(67.47 288.73) rotate(-66.41)"/><rect class="cls-25" x="268.34" y="72.53" width="1.6" height="6.77" transform="translate(.87 154.83) rotate(-32.14)"/><g><rect class="cls-25" x="250.49" y="132.5" width="7.68" height="1.6" transform="translate(-30.02 173.28) rotate(-35.66)"/><rect class="cls-25" x="320.61" y="82.16" width="7.68" height="1.6" transform="translate(12.48 204.7) rotate(-35.66)"/></g><rect class="cls-25" x="245.26" y="112.05" width="9.69" height="3.2" transform="translate(-13.38 35.92) rotate(-8)"/><rect class="cls-25" x="287.79" y="64.05" width="3.2" height="9.6"/><rect class="cls-25" x="287.79" y="142.61" width="3.2" height="9.6"/></g><g><path class="cls-23" d="M276.95,97.72h0c-.78,.89-.78,2.15,0,2.82l10.73,9.22,2.82-3.21-10.73-9.22c-.78-.67-2.04-.49-2.82,.4Z"/><path class="cls-5" d="M276.95,97.72h0c-.78,.89-.78,2.15,0,2.82l10.73,9.22,2.82-3.21-10.73-9.22c-.78-.67-2.04-.49-2.82,.4Z"/></g><polygon class="cls-23" points="348.88 98.97 340.87 109.7 332.86 101.22 348.88 98.97"/><g><path class="cls-25" d="M310.29,147.31l12.5-1.76-1.11,5.77-22.53,3.17,.89-4.59,13.56-12.53c1.64-1.56,2.78-2.84,3.42-3.84s.96-1.99,.96-2.98-.38-1.73-1.13-2.22c-.75-.49-1.84-.63-3.25-.44-1.19,.17-2.34,.6-3.44,1.29-1.11,.69-2.07,1.59-2.89,2.7l-4.63-2.71c1.22-1.84,2.89-3.4,5.02-4.68,2.13-1.28,4.45-2.09,6.97-2.45,2.07-.29,3.89-.21,5.46,.25,1.57,.46,2.79,1.24,3.65,2.33,.86,1.1,1.3,2.41,1.3,3.94,0,1.84-.51,3.64-1.53,5.4-1.02,1.76-2.79,3.79-5.31,6.1l-7.91,7.23Z"/><path class="cls-25" d="M352.58,140.73l-4.89,.69-1.23,6.42-6.72,.94,1.28-6.43-16.02,2.25,.89-4.76,17.51-21.33,7.52-1.06-16.32,20.19,7.82-1.1,1.11-5.72,6.42-.9-1.11,5.72,4.89-.69-1.15,5.77Z"/><path class="cls-25" d="M372.22,108.42l6.21-.87-21.85,43.11-6.16,.87,21.81-43.11Z"/><path class="cls-25" d="M400.57,110.48l-.89,4.59-15.9,27.53-7.65,1.08,15.26-26.29-9.65,1.36-.98,4.98-6.12,.86,2.08-10.75,23.85-3.35Z"/><path class="cls-25" d="M302.57,184.09c-1.12-.17-2.03-.45-2.71-.86l1.46-2.98c.71,.42,1.51,.7,2.4,.86,.89,.16,1.8,.17,2.73,.04,.99-.14,1.78-.41,2.35-.82,.58-.41,.86-.89,.86-1.45,0-.46-.23-.78-.69-.96-.46-.18-1.19-.34-2.2-.48-1.01-.15-1.83-.32-2.46-.51-.64-.18-1.19-.52-1.65-1-.47-.48-.7-1.17-.7-2.08,0-1.05,.29-2.01,.88-2.9,.58-.88,1.41-1.61,2.48-2.19,1.07-.58,2.32-.97,3.74-1.17,1.05-.15,2.04-.17,2.97-.07,.93,.1,1.73,.31,2.4,.65l-1.35,2.94c-.58-.32-1.23-.53-1.95-.62-.72-.1-1.48-.09-2.26,.02-1.02,.14-1.83,.43-2.42,.87-.59,.44-.89,.94-.89,1.5,0,.34,.13,.61,.38,.8,.25,.19,.57,.33,.95,.42,.38,.09,.92,.18,1.62,.27,.99,.13,1.8,.28,2.44,.47,.64,.18,1.18,.51,1.63,.97,.45,.46,.68,1.12,.68,1.98,0,1.06-.3,2.03-.89,2.91-.59,.87-1.43,1.61-2.51,2.19-1.08,.59-2.34,.98-3.77,1.18-1.23,.17-2.4,.17-3.53,0Z"/><path class="cls-25" d="M320.94,169.09l-.67,3.46,7.21-1.01-.55,2.87-7.23,1.02-.71,3.69,8.47-1.19-.6,2.97-12.02,1.69,3.1-15.96,11.73-1.65-.6,2.97-8.14,1.14Z"/><path class="cls-25" d="M344.05,171.5c-.78,1.15-1.87,2.03-3.26,2.65l2.71,4.41-3.79,.53-2.44-4-3.06,.43-.86,4.47-3.62,.51,3.1-15.96,6.32-.89c1.92-.27,3.41-.06,4.48,.63,1.06,.69,1.6,1.8,1.6,3.32s-.39,2.75-1.17,3.89Zm-3.45-.56c.66-.64,.99-1.47,.99-2.49,0-.74-.25-1.26-.75-1.56-.5-.3-1.22-.38-2.15-.25l-2.84,.4-1.09,5.54,3.06-.43c1.2-.17,2.13-.57,2.78-1.21Z"/><path class="cls-25" d="M364.05,160.15l-9.82,16.9-3.53,.5-3.62-15.02,3.7-.52,2.51,10.71,7.03-12.05,3.73-.52Z"/><path class="cls-25" d="M365.33,159.97l3.61-.51-3.1,15.96-3.61,.51,3.1-15.96Z"/><path class="cls-25" d="M373.6,173.75c-1.16-.4-2.05-1.06-2.67-2-.62-.93-.93-2.06-.93-3.39,0-1.76,.4-3.4,1.21-4.93,.81-1.52,1.94-2.8,3.4-3.82,1.46-1.02,3.14-1.66,5.03-1.93,1.39-.2,2.62-.13,3.68,.19,1.06,.32,1.87,.89,2.42,1.7l-2.59,2.49c-.83-1.1-2.08-1.53-3.75-1.29-1.14,.16-2.14,.57-3.02,1.22-.87,.66-1.55,1.47-2.03,2.46-.48,.98-.72,2.04-.72,3.16,0,1.2,.38,2.09,1.14,2.69,.76,.6,1.83,.8,3.2,.6,1.64-.23,3.02-1.02,4.12-2.38l2.13,1.87c-1.54,2.01-3.73,3.21-6.56,3.61-1.55,.22-2.91,.13-4.07-.27Z"/><path class="cls-25" d="M391.86,159.12l-.67,3.46,7.21-1.01-.55,2.87-7.23,1.02-.71,3.69,8.47-1.19-.6,2.97-12.02,1.69,3.1-15.96,11.73-1.65-.6,2.97-8.14,1.14Z"/></g><path class="cls-23" d="M307.66,86.99h0c-.78-.67-2.04-.49-2.82,.4l-14.54,16.59c-1.44-.23-3.05,.34-4.18,1.63-1.65,1.88-1.65,4.55,0,5.96,1.65,1.41,4.31,1.04,5.96-.84,1.13-1.29,1.47-2.95,1.04-4.33l14.54-16.59c.78-.89,.78-2.15,0-2.82Z"/></g></g><g id="Speech_bubble"><g><path class="cls-23" d="M196.47,89.52c-10.69,0-19.35,6.31-19.35,14.09,0,5.66,4.59,10.52,11.2,12.76-.71,3.3-1.94,6.4-3.61,9.22,4.96-.73,9.16-3.73,11.55-7.9,.07,0,.14,0,.21,0,10.69,0,19.35-6.31,19.35-14.09s-8.66-14.09-19.35-14.09Z"/><path class="cls-8" d="M196.47,89.52c-10.69,0-19.35,6.31-19.35,14.09,0,5.66,4.59,10.52,11.2,12.76-.71,3.3-1.94,6.4-3.61,9.22,4.96-.73,9.16-3.73,11.55-7.9,.07,0,.14,0,.21,0,10.69,0,19.35-6.31,19.35-14.09s-8.66-14.09-19.35-14.09Z"/><g><circle class="cls-25" cx="187.94" cy="104.35" r="1.97"/><path class="cls-25" d="M198.31,104.35c0,1.09-.88,1.97-1.97,1.97s-1.97-.88-1.97-1.97,.88-1.97,1.97-1.97,1.97,.88,1.97,1.97Z"/><circle class="cls-25" cx="204.74" cy="104.35" r="1.97"/></g></g></g><g id="Chair"><g><g><g><rect class="cls-25" x="161.3" y="262.68" width="6.57" height="43.18"/><rect class="cls-7" x="161.3" y="262.68" width="6.57" height="43.18"/></g><path class="cls-25" d="M184.55,338.19l-15.38-2.78v-30.89c0-.96-.78-1.73-1.73-1.73h-5.69c-.96,0-1.73,.78-1.73,1.73v30.89l-15.38,2.78c-2.23,.4-3.85,2.34-3.85,4.61l23.81-2.15,23.81,2.15c0-2.27-1.62-4.21-3.85-4.61Z"/><g><path class="cls-23" d="M145.77,347.47c0,2.76-2.24,5-5,5s-5-2.24-5-5,2.24-5,5-5,5,2.24,5,5Z"/><path class="cls-23" d="M193.4,347.47c0,2.76-2.24,5-5,5s-5-2.24-5-5,2.24-5,5-5,5,2.24,5,5Z"/></g><path class="cls-23" d="M168.49,347.47c0,2.76-1.14,5-3.9,5s-3.9-2.24-3.9-5,1.14-5,3.9-5,3.9,2.24,3.9,5Z"/><g class="cls-12"><polygon points="169.32 335.44 169.32 341.08 171.17 341.25 171.17 335.78 169.32 335.44"/><polygon points="158.04 335.77 158.04 341.24 159.9 341.07 159.9 335.43 158.04 335.77"/></g></g><g><path class="cls-25" d="M121.69,223.35c-1.76,0-3.1,1.6-2.77,3.34l6.1,32.87c.57,3.08,3.26,5.32,6.4,5.32h96.12c2.38,0,4.32-1.93,4.32-4.32,0-3.39-2.75-6.13-6.13-6.13h-54.85c-2.99,0-5.6-2.04-6.31-4.94l-4.91-19.82c-.92-3.71-4.25-6.32-8.07-6.32h-29.88Z"/><path class="cls-25" d="M134.67,249.49l-4.91-19.82c-.92-3.71-4.25-6.32-8.07-6.32h0c-1.76,0-3.1,1.6-2.77,3.34l6.1,32.87c.57,3.08,3.26,5.32,6.4,5.32h66.25c2.38,0,4.32-1.93,4.32-4.32h0c0-3.39-2.75-6.13-6.13-6.13h-54.85c-2.99,0-5.6-2.04-6.31-4.94Z"/><path class="cls-9" d="M134.67,249.49l-4.91-19.82c-.92-3.71-4.25-6.32-8.07-6.32h0c-1.76,0-3.1,1.6-2.77,3.34l6.1,32.87c.57,3.08,3.26,5.32,6.4,5.32h66.25c2.38,0,4.32-1.93,4.32-4.32h0c0-3.39-2.75-6.13-6.13-6.13h-54.85c-2.99,0-5.6-2.04-6.31-4.94Z"/></g></g></g><g id="Plant"><g><g><path class="cls-23" d="M371.98,305.1s.13-13.36-4.72-11.6c-4.85,1.76,4.72,11.6,4.72,11.6Z"/><path class="cls-23" d="M377.22,292.74s6.43-10.68,.62-12.21c-5.81-1.53-.62,12.21-.62,12.21Z"/><path class="cls-23" d="M402.67,285.2s13.37-.69,10.34-5.7c-3.02-5.01-10.34,5.7-10.34,5.7Z"/><path class="cls-23" d="M381.52,288.75s14.02-3.16,11.38,4.7-11.38-4.7-11.38-4.7Z"/><g><path class="cls-23" d="M371.35,317.17s-5.41-12.11-8.4-7.81c-2.99,4.3,8.4,7.81,8.4,7.81Z"/><path class="cls-23" d="M386.61,286.22s14.26-3.74,9.82-9c-4.44-5.26-9.82,9-9.82,9Z"/><path class="cls-23" d="M397.39,284.76s11.28,5.54,6.07,9.15c-5.2,3.61-6.07-9.15-6.07-9.15Z"/><path class="cls-23" d="M373.41,299.73s7.81-9.4,10.22-2.57c2.41,6.83-10.22,2.57-10.22,2.57Z"/></g><g class="cls-13"><path class="cls-3" d="M371.35,317.17s-5.41-12.11-8.4-7.81c-2.99,4.3,8.4,7.81,8.4,7.81Z"/><path class="cls-3" d="M386.61,286.22s14.26-3.74,9.82-9c-4.44-5.26-9.82,9-9.82,9Z"/><path class="cls-3" d="M397.39,284.76s11.28,5.54,6.07,9.15c-5.2,3.61-6.07-9.15-6.07-9.15Z"/><path class="cls-3" d="M373.41,299.73s7.81-9.4,10.22-2.57c2.41,6.83-10.22,2.57-10.22,2.57Z"/></g><path class="cls-23" d="M371.27,311.93s5.6-12.02,10.11-5.96c4.51,6.06-10.11,5.96-10.11,5.96Z"/><path class="cls-23" d="M371.36,324.54c-1.6-7.61-1.56-16.19,.71-23.63,4.58-14.98,18.62-18.54,32.83-16.27,1.13,.18,.62,1.89-.5,1.71-7.54-1.2-16.04-1.32-22.56,3.24-4.7,3.29-7.36,8.52-8.64,13.99-1.54,6.57-1.5,13.92-.11,20.53,.23,1.12-1.49,1.56-1.72,.43h0Z"/><g class="cls-15"><path d="M371.36,324.54c-1.6-7.61-1.56-16.19,.71-23.63,4.58-14.98,18.62-18.54,32.83-16.27,1.13,.18,.62,1.89-.5,1.71-7.54-1.2-16.04-1.32-22.56,3.24-4.7,3.29-7.36,8.52-8.64,13.99-1.54,6.57-1.5,13.92-.11,20.53,.23,1.12-1.49,1.56-1.72,.43h0Z"/></g></g><g><path class="cls-23" d="M360.23,301.03s-6.95-16.32-11.54-12.06c-4.59,4.26,11.54,12.06,11.54,12.06Z"/><path class="cls-23" d="M359.63,283.69s1.65-15.81-5.78-15.14c-7.43,.68,5.78,15.14,5.78,15.14Z"/><path class="cls-23" d="M384.62,263.41s14.86-6.67,8.76-11.45c-6.1-4.78-8.76,11.45-8.76,11.45Z"/><path class="cls-23" d="M362.41,276.96s14.3-9.96,15.46,.76c1.16,10.72-15.46-.76-15.46-.76Z"/><g><path class="cls-23" d="M365.93,315.99s-12.59-12.38-13.71-5.84c-1.12,6.54,13.71,5.84,13.71,5.84Z"/><path class="cls-23" d="M366.86,271.67s14.26-10.77,6.4-15.25c-7.86-4.47-6.4,15.25-6.4,15.25Z"/><path class="cls-23" d="M378.37,265.18s15.79,1.82,11.78,8.49c-4.01,6.67-11.78-8.49-11.78-8.49Z"/><path class="cls-23" d="M359,293.86s3.9-14.85,10.28-7.58c6.38,7.27-10.28,7.58-10.28,7.58Z"/></g><g class="cls-13"><path class="cls-3" d="M365.93,315.99s-12.59-12.38-13.71-5.84c-1.12,6.54,13.71,5.84,13.71,5.84Z"/><path class="cls-3" d="M366.86,271.67s14.26-10.77,6.4-15.25c-7.86-4.47-6.4,15.25-6.4,15.25Z"/><path class="cls-3" d="M378.37,265.18s15.79,1.82,11.78,8.49c-4.01,6.67-11.78-8.49-11.78-8.49Z"/><path class="cls-3" d="M359,293.86s3.9-14.85,10.28-7.58c6.38,7.27-10.28,7.58-10.28,7.58Z"/></g><path class="cls-23" d="M363.06,309.65s0-17.07,8.35-11.66c8.36,5.41-8.35,11.66-8.35,11.66Z"/><path class="cls-23" d="M369.85,324.97c-5.86-8.56-10.38-19.03-11.74-29.08-2.74-20.24,11.36-30.69,28.75-34.12,1.38-.27,1.71,2.02,.34,2.29-9.22,1.82-18.97,5.39-23.98,13.79-3.61,6.05-3.86,13.58-2.42,20.8,1.74,8.66,5.69,17.6,10.78,25.04,.86,1.26-.87,2.54-1.73,1.28h0Z"/><g class="cls-15"><path d="M369.85,324.97c-5.86-8.56-10.38-19.03-11.74-29.08-2.74-20.24,11.36-30.69,28.75-34.12,1.38-.27,1.71,2.02,.34,2.29-9.22,1.82-18.97,5.39-23.98,13.79-3.61,6.05-3.86,13.58-2.42,20.8,1.74,8.66,5.69,17.6,10.78,25.04,.86,1.26-.87,2.54-1.73,1.28h0Z"/></g></g><g><path class="cls-23" d="M358.57,305.34s3.33-11.07,6.89-8.37c3.56,2.7-6.89,8.37-6.89,8.37Z"/><path class="cls-23" d="M357.41,293.77s-2.57-10.48,2.63-10.25-2.63,10.25-2.63,10.25Z"/><path class="cls-23" d="M338.32,281s-10.87-4.01-7.08-7.37c3.78-3.36,7.08,7.37,7.08,7.37Z"/><path class="cls-23" d="M354.89,289.37s-10.78-6.21-10.61,.96c.16,7.17,10.61-.96,10.61-.96Z"/><g><path class="cls-23" d="M355.98,315.47s7.58-8.61,8.95-4.29c1.37,4.32-8.95,4.29-8.95,4.29Z"/><path class="cls-23" d="M351.33,285.98s-10.82-6.76-5.8-9.96c5.03-3.21,5.8,9.96,5.8,9.96Z"/><path class="cls-23" d="M342.79,282s-10.74,1.68-7.37,6c3.37,4.32,7.37-6,7.37-6Z"/><path class="cls-23" d="M358.77,300.53s-4.04-9.78-7.79-4.75c-3.75,5.03,7.79,4.75,7.79,4.75Z"/></g><g class="cls-13"><path class="cls-3" d="M355.98,315.47s7.58-8.61,8.95-4.29c1.37,4.32-8.95,4.29-8.95,4.29Z"/><path class="cls-3" d="M351.33,285.98s-10.82-6.76-5.8-9.96c5.03-3.21,5.8,9.96,5.8,9.96Z"/><path class="cls-3" d="M342.79,282s-10.74,1.68-7.37,6c3.37,4.32,7.37-6,7.37-6Z"/><path class="cls-3" d="M358.77,300.53s-4.04-9.78-7.79-4.75c-3.75,5.03,7.79,4.75,7.79,4.75Z"/></g><path class="cls-23" d="M357.39,311.16s-1.54-11.37-6.82-7.52c-5.28,3.85,6.82,7.52,6.82,7.52Z"/><path class="cls-23" d="M354.08,321.56c3.28-5.88,5.45-12.98,5.49-19.71,.07-13.56-10.62-20.1-22.95-21.88-.98-.14-1,1.4-.03,1.54,6.54,.94,13.59,3.03,17.81,8.48,3.04,3.92,3.89,8.93,3.55,13.78-.42,5.82-2.34,11.89-5.18,16.99-.48,.86,.83,1.67,1.31,.8h0Z"/><g class="cls-15"><path d="M354.08,321.56c3.28-5.88,5.45-12.98,5.49-19.71,.07-13.56-10.62-20.1-22.95-21.88-.98-.14-1,1.4-.03,1.54,6.54,.94,13.59,3.03,17.81,8.48,3.04,3.92,3.89,8.93,3.55,13.78-.42,5.82-2.34,11.89-5.18,16.99-.48,.86,.83,1.67,1.31,.8h0Z"/></g></g><path class="cls-23" d="M385.2,318.75l-3.87,29.19c-.5,3.76-3.7,6.56-7.49,6.56h-24.07c-3.79,0-6.99-2.81-7.49-6.56l-3.87-29.19h46.78Z"/><path class="cls-6" d="M385.2,318.75l-3.87,29.19c-.5,3.76-3.7,6.56-7.49,6.56h-24.07c-3.79,0-6.99-2.81-7.49-6.56l-3.87-29.19h46.78Z"/></g></g><g id="Character"><g><path class="cls-25" d="M175.28,129.29s10.94,3.27,5.83,11.35l-4.75-6.92-1.08-4.43Z"/><polygon class="cls-1" points="214.69 171 219.46 164 224.18 165.5 225.04 167.4 219.16 175.81 214.69 171"/><path class="cls-23" d="M221.76,172.82c-4.79,7.51-12.32,18.44-15.2,17.8-8.46-1.89-20.09-9.9-26.06-18.7-1.87-2.75-1.32-6.48,1.27-8.57l-.02-.07c2.74-2.23,6.76-1.81,8.99,.93,.11,.13,.21,.27,.3,.41,5.29,7.59,12.03,14.8,13.1,15.4,1.29,.75,4.64-2.43,11.73-11.39l5.89,4.19Z"/><path class="cls-10" d="M221.76,172.82c-4.79,7.51-12.32,18.44-15.2,17.8-8.46-1.89-20.09-9.9-26.06-18.7-1.87-2.75-1.32-6.48,1.27-8.57l-.02-.07c2.74-2.23,6.76-1.81,8.99,.93,.11,.13,.21,.27,.3,.41,5.29,7.59,12.03,14.8,13.1,15.4,1.29,.75,4.64-2.43,11.73-11.39l5.89,4.19Z"/><path class="cls-1" d="M221.87,166.78l9.45,1.85-4.4-7.92s-5.72,.02-7.46,3.29l2.41,2.78Z"/><path class="cls-16" d="M194.5,185.15c-6.85-4.68-7.75-15.66-7.75-15.66l-3.88-1.77-1.83,4.94c3.38,4.71,8.32,9.15,13.46,12.49Z"/><polygon class="cls-1" points="238 165.23 233.96 158.8 226.92 160.7 231.32 168.63 238 165.23"/><path class="cls-23" d="M185.52,209.19l-33.52,2.2s-.24-8.99-1.41-17.29c-.36-2.88-.94-5.74-1.73-8.54-.87-2.86-1.96-6.07-3.3-9.8-.16-.46-.34-.92-.53-1.41-.44-1.16-.89-2.37-1.4-3.63v-.06c-.97-2.56,.33-5.43,2.89-6.39,.23-.09,.47-.16,.71-.21,2.13-.45,4.28-.86,6.46-1.2l1.88-.29c5.02-.75,10.08-1.2,15.16-1.35,2.63,0,5.43,.08,7.83,.19l1.99,.1c2.54,.15,4.3,.31,4.3,.31,0,0,1.1,.22,1.75,6.12,0,.29,.07,.62,.1,.96,.09,1.22,.15,2.76,.19,4.61,.07,7.6-.34,20.3-1.38,35.68Z"/><path class="cls-10" d="M185.52,209.19l-33.52,2.2s-.24-8.99-1.41-17.29c-.36-2.88-.94-5.74-1.73-8.54-.87-2.86-1.96-6.07-3.3-9.8-.16-.46-.34-.92-.53-1.41-.44-1.16-.89-2.37-1.4-3.63v-.06c-.97-2.56,.33-5.43,2.89-6.39,.23-.09,.47-.16,.71-.21,2.13-.45,4.28-.86,6.46-1.2l1.88-.29c5.02-.75,10.08-1.2,15.16-1.35,2.63,0,5.43,.08,7.83,.19l1.99,.1c2.54,.15,4.3,.31,4.3,.31,0,0,1.1,.22,1.75,6.12,0,.29,.07,.62,.1,.96,.09,1.22,.15,2.76,.19,4.61,.07,7.6-.34,20.3-1.38,35.68Z"/><path class="cls-23" d="M156.75,162.43l8.36,11.14,5.97-5.13,7.79,3.76-4.22-10.91c-1.31-.03-2.64-.05-3.93-.05-4.68,.14-9.35,.55-13.99,1.2Z"/><path class="cls-4" d="M156.75,162.43l8.36,11.14,5.97-5.13,7.79,3.76-4.22-10.91c-1.31-.03-2.64-.05-3.93-.05-4.68,.14-9.35,.55-13.99,1.2Z"/><polygon class="cls-1" points="230.74 343.62 223.61 343.62 226.86 289.8 240.2 289.8 230.74 343.62"/><path class="cls-25" d="M222.82,342.94c-.08-.68,8.43-1.32,8.43-1.32,0,0,5.93,4.55,11.12,5.04,5.19,.48,2.82,3.89-2.82,4.68l-13.93,1.95c-4,.59-1.98-3.2-2.81-10.34Z"/><path class="cls-23" d="M235.52,343.23c-1.09-.06-2.16-.27-3.19-.6-.04-.01-.08-.03-.11-.07h0c-.03-.07-.03-.14,0-.21,0-.09,.46-2.2,1.55-2.82,.33-.2,.73-.25,1.1-.13,.54,.16,.67,.46,.68,.67,0,.43-.41,.91-.98,1.35,.57-.16,1.17-.16,1.74,0,.25,.09,.45,.28,.56,.53,.17,.32,.13,.7-.09,.98-.36,.26-.82,.37-1.26,.3Zm-2.3-.9c1.29,.33,2.78,.55,3.11,.2,.08-.08,.07-.22,0-.41-.05-.11-.15-.2-.26-.24-.97-.12-1.96,.04-2.85,.45Zm1.17-2.5c-.15,0-.29,.04-.42,.12-.57,.49-.98,1.16-1.16,1.89,1.1-.63,2.2-1.42,2.2-1.76,0-.07-.12-.14-.31-.21-.1-.03-.21-.04-.32-.04Z"/><polygon class="cls-16" points="226.29 299.21 238.48 299.58 240.2 289.8 226.86 289.8 226.29 299.21"/><polygon class="cls-1" points="196.52 344.52 189.69 343.62 200.5 284.02 213.98 287.87 196.52 344.52"/><path class="cls-25" d="M188.8,342.66c0-.69,8.53,0,8.53,0,0,0,5.17,5.39,10.24,6.6,5.07,1.21,2.2,4.28-3.49,4.2l-14.07-.16c-4.08-.04-1.47-3.45-1.21-10.64Z"/><path class="cls-23" d="M201.8,344.89c-1.24-.15-2.45-.53-3.56-1.1l-.08-.05h0s0-.05,0-.08c-.03-.06-.03-.13,0-.2,0-.08,.78-2.08,1.96-2.55,.35-.15,.75-.15,1.1,0,.51,.25,.59,.55,.57,.76,0,.43-.54,.85-1.17,1.19,.59-.07,1.18,.02,1.72,.26,.23,.12,.4,.35,.46,.6,.13,.33,.04,.71-.23,.95-.22,.16-.5,.24-.77,.22Zm-2.67-1.28c1.22,.52,2.67,.97,3.05,.66,.08-.07,.1-.2,0-.41-.03-.12-.11-.22-.22-.28-.93-.24-1.9-.24-2.83,.02Zm1.41-2.3c-.11,0-.22,.02-.32,.07-.64,.4-1.13,1-1.42,1.69,1.22-.45,2.38-1.1,2.4-1.42,0-.07-.1-.16-.27-.24-.11-.06-.22-.09-.34-.1h-.04Z"/><polygon class="cls-16" points="213.98 287.87 200.5 284.02 198.37 295.77 210.85 298.03 213.98 287.87"/><path class="cls-23" d="M223.33,294.42l17.15,.91c4.39-20.22,8.77-42.51,7.9-47.4-1.65-9.37-14.39-18.91-63.8-26.98l-23.01,34.56s33.64-1.57,64.29-1.57c0,0-1.71,19.24-2.54,40.49Z"/><path class="cls-21" d="M223.33,294.42l17.15,.91c4.39-20.22,8.77-42.51,7.9-47.4-1.65-9.37-14.39-18.91-63.8-26.98l-23.01,34.56s33.64-1.57,64.29-1.57c0,0-1.71,19.24-2.54,40.49Z"/><polygon class="cls-23" points="222.18 291.72 222.69 296.22 241.48 296.86 242.4 292.73 222.18 291.72"/><path class="cls-1" d="M173.63,161.26c-.97-.02-1.94-.03-2.89-.03-4.16,.13-8.31,.46-12.44,.99,1.8,2.14,7.41,5.5,11.17,5.5,5.25,0,4.08-3.9,4.17-6.46Z"/><path class="cls-23" d="M196.67,290.93l17.53,2.85c7.12-19.93,14.24-41.14,14.12-45.92-.24-9.51-2.33-14.45-36.76-22.14,0,0-1.83-2.66-6.04-16.5l-33.53,2.2s-15.31,28.2-3.47,40.25c2.63,2.67,7.78,3.87,13.05,3.83,0,0,12.1,.05,41.98-1.34,0,0-3.51,17.06-6.88,36.78Z"/><polygon class="cls-23" points="195.97 287.87 216.28 291.31 214.35 295.57 195.88 292.55 195.97 287.87"/><polygon class="cls-21" points="222.18 291.72 222.69 296.22 241.48 296.86 242.4 292.73 222.18 291.72"/><path class="cls-1" d="M171.09,158.37c-.38,2.47-.28,4.99,.31,7.41l-9.2-1.35c-.85-.12-1.33-1.02-.98-1.8,1.26-2.87,1.75-8.62,2.06-11.28,.18-1.6,.24-3.06,.25-4.07s0-1.41,0-1.41l4.11,1.88,6.71,3.07c-1.55,2.29-2.66,4.85-3.27,7.55Z"/><path class="cls-17" d="M174.36,150.82c-1.56,2.29-2.68,4.85-3.3,7.55-3.36-1.33-6.13-3.82-7.81-7.02,.18-1.6,.24-3.06,.25-4.07,1.46,.14,2.83,.3,4.12,.47l6.73,3.07Z"/><g><path class="cls-23" d="M174.85,144.27c-.27,3.07,1.3,5.55,3.5,5.55s4.2-2.49,4.47-5.55c.27-3.07-1.3-5.55-3.5-5.55s-4.21,2.49-4.47,5.55Z"/><path class="cls-12" d="M174.46,144.27c-.27,3.07,1.3,5.55,3.5,5.55s4.2-2.49,4.47-5.55c.27-3.07-1.3-5.55-3.5-5.55s-4.21,2.49-4.47,5.55Z"/></g><path class="cls-1" d="M159.07,138.86c1.64,7.53,2.21,12,6.66,15.43,6.69,5.17,15.55,.58,16.2-7.21,.58-7.01-2.19-18.14-10.11-20.27-7.8-2.1-14.38,4.51-12.75,12.04Z"/><path class="cls-1" d="M157.33,146.72c1.35,1.62,3.2,2.57,4.78,2.84,2.37,.4,2.91-1.79,1.7-3.92-1.09-1.91-3.63-4.43-5.75-3.86-2.09,.55-2.27,3.09-.73,4.94Z"/><path class="cls-25" d="M170.94,139.61c.1,.62,.5,1.08,.91,1.03,.41-.05,.66-.59,.56-1.2-.1-.62-.5-1.08-.91-1.03-.41,.05-.66,.59-.56,1.2Z"/><path class="cls-25" d="M177.95,138.78c.1,.62,.5,1.08,.91,1.03,.41-.05,.66-.59,.56-1.2-.1-.62-.5-1.08-.91-1.03s-.66,.59-.56,1.21Z"/><path class="cls-20" d="M175.77,139.35s1.96,3.39,3.78,4.93c-.94,1.15-2.88,.91-2.88,.91l-.9-5.83Z"/><path class="cls-25" d="M168.43,137.61c-.06,0-.12-.01-.18-.05-.18-.1-.24-.32-.14-.5,.97-1.75,2.67-1.85,2.74-1.86,.19-.03,.37,.15,.38,.35,0,.2-.15,.37-.35,.38-.07,0-1.37,.1-2.14,1.48-.07,.12-.19,.19-.32,.19Z"/><path class="cls-25" d="M180.59,136.02c-.12,0-.23-.06-.3-.16-.94-1.38-2.3-1.4-2.32-1.4-.2,0-.37-.17-.36-.37,0-.2,.17-.36,.37-.36h0c.07,0,1.77,.03,2.92,1.72,.11,.17,.07,.4-.1,.51-.06,.04-.14,.06-.21,.06Z"/><path class="cls-25" d="M160.54,148.76s4.79-4.89,2.44-16.89c0,0,3.85,3.27,12.79,.85,0,0-5.28,.52-7.71-1.96,0,0,4.93,2.29,12.89,0,0,0-1.42-8.07-10.03-8.49,0,0,2.77-2.33,5.43-1.87,0,0-2.72-2.35-9.65,2.22l-2.71,1.08s-7.72-2.78-12.01,3.76c-3.39,5.17-1.68,21.45,8.56,21.3Z"/><g><path class="cls-25" d="M178.07,146.55s-2.42-.61-9.24-.76c.76,2.07,2.21,3.77,5.7,3.81,3.49,.04,3.53-3.06,3.53-3.06Z"/><path class="cls-24" d="M172.95,147.96c1.69,.02,2.9,.43,3.78,1.07-.5,.35-1.22,.58-2.19,.57-1.69-.02-2.89-.42-3.77-1.07,.5-.35,1.21-.58,2.19-.57Z"/><path class="cls-3" d="M177.76,146.48c-.2,.43-.4,.87-1.09,.99-1.42,.07-5.05-.41-6.02-.64-.62-.12-1.15-.34-1.52-1.04,5.25,.12,7.81,.53,8.63,.68Z"/></g><g><path class="cls-23" d="M156.83,141.46v-8.08c0-5.02,3.34-9.27,7.92-10.63l2.7-.48c-4.7,1.4-8.12,5.75-8.12,10.9v8.28h-2.5Z"/><path class="cls-23" d="M163.1,145.37c.27,3.07-1.3,5.55-3.5,5.55s-4.21-2.49-4.47-5.55c-.27-3.07,1.3-5.55,3.5-5.55s4.21,2.49,4.47,5.55Z"/><path class="cls-12" d="M163.1,145.37c.27,3.07-1.3,5.55-3.5,5.55s-4.21-2.49-4.47-5.55c-.27-3.07,1.3-5.55,3.5-5.55s4.21,2.49,4.47,5.55Z"/><path class="cls-23" d="M161.77,145.37c.27,3.07-1.3,5.55-3.5,5.55s-4.21-2.49-4.47-5.55c-.27-3.07,1.3-5.55,3.5-5.55s4.21,2.49,4.47,5.55Z"/><path class="cls-6" d="M158.98,146.17l-.18-1.62h.31c-.4-1.59-1.52-2.78-2.75-2.78s-2.13,1.19-2.26,2.78h.2l.18,1.62h-.24c.4,1.59,1.52,2.78,2.75,2.78s2.13-1.19,2.26-2.78h-.27Z"/></g><g><g><g><path class="cls-1" d="M144.63,146.03l4.36-8.58,3.53,8.35s-3.54,4.49-7.19,3.85l-.7-3.61Z"/><polygon class="cls-1" points="155.79 134.28 158.36 141.43 152.52 145.79 148.99 137.44 155.79 134.28"/></g><polygon class="cls-1" points="145.77 155.3 149.98 148.23 149.54 145.36 145.84 144.05 140.57 152.25 145.77 155.3"/></g><path class="cls-23" d="M148.81,150.91l-7.67,16.88s3.74-3.35,5.8-3.83c3.28-.77,13.17,2.22,3.15,13.11,0,0-19.86,12.42-23.91,7.6-3.15-3.74,10.23-26.47,16.36-36.43l6.28,2.67Z"/><path class="cls-10" d="M148.81,150.91l-7.67,16.88s3.74-3.35,5.8-3.83c3.28-.77,13.17,2.22,3.15,13.11,0,0-19.86,12.42-23.91,7.6-3.15-3.74,10.23-26.47,16.36-36.43l6.28,2.67Z"/><path class="cls-16" d="M141.14,167.79l-2.17,6.58,6.28-9.66c-1.94,1.14-4.11,3.08-4.11,3.08Z"/></g><g><g><path class="cls-23" d="M169.87,152.82c-1,0-1.94-.04-2.51-.16-1.67-.37-6.01-2.74-6.19-2.84l.4-.72s4.41,2.41,5.97,2.75c1.52,.33,6.35,0,6.4,0l.06,.82c-.13,0-2.24,.16-4.13,.16Z"/><path class="cls-23" d="M170.77,152.99l3.96-.3s-.11-1.24-1.98-1.19c-1.87,.05-1.98,1.49-1.98,1.49Z"/></g><g class="cls-12"><path d="M169.87,152.82c-1,0-1.94-.04-2.51-.16-1.67-.37-6.01-2.74-6.19-2.84l.4-.72s4.41,2.41,5.97,2.75c1.52,.33,6.35,0,6.4,0l.06,.82c-.13,0-2.24,.16-4.13,.16Z"/><path d="M170.77,152.99l3.96-.3s-.11-1.24-1.98-1.19c-1.87,.05-1.98,1.49-1.98,1.49Z"/></g></g></g></g><g id="Desk"><g><g><path class="cls-23" d="M330.06,353.59c-.83,.1-1.58-.61-1.66-1.59l-10-115.79c-.19-2.23-1.79-3.91-3.71-3.91h-47.24c-1.92,0-3.51,1.68-3.71,3.91l-10,115.79c-.08,.97-.83,1.68-1.66,1.59h0c-.83-.1-1.44-.97-1.36-1.94l10-115.79c.35-4.05,3.24-7.1,6.73-7.1h47.24c3.49,0,6.38,3.05,6.73,7.1l10,115.79c.08,.97-.52,1.84-1.36,1.94h0Z"/><g class="cls-13"><path d="M330.06,353.59c-.83,.1-1.58-.61-1.66-1.59l-10-115.79c-.19-2.23-1.79-3.91-3.71-3.91h-47.24c-1.92,0-3.51,1.68-3.71,3.91l-10,115.79c-.08,.97-.83,1.68-1.66,1.59h0c-.83-.1-1.44-.97-1.36-1.94l10-115.79c.35-4.05,3.24-7.1,6.73-7.1h47.24c3.49,0,6.38,3.05,6.73,7.1l10,115.79c.08,.97-.52,1.84-1.36,1.94h0Z"/></g><rect class="cls-25" x="198.96" y="223.8" width="132.47" height="10.64" rx="2.03" ry="2.03"/><path class="cls-9" d="M273.3,223.8h56.1c1.12,0,2.03,.91,2.03,2.03v6.58c0,1.12-.91,2.03-2.03,2.03h-56.1v-10.64h0Z"/><g><path class="cls-23" d="M278.32,353.59c-.83,.1-1.58-.61-1.66-1.59l-10-115.79c-.19-2.23-1.79-3.91-3.71-3.91h-47.24c-1.92,0-3.51,1.68-3.71,3.91l-10,115.79c-.08,.97-.83,1.68-1.66,1.59h0c-.83-.1-1.44-.97-1.36-1.94l10-115.79c.35-4.05,3.24-7.1,6.73-7.1h47.24c3.49,0,6.38,3.05,6.73,7.1l10,115.79c.08,.97-.52,1.84-1.36,1.94h0Z"/><g class="cls-13"><path d="M278.32,353.59c-.83,.1-1.58-.61-1.66-1.59l-10-115.79c-.19-2.23-1.79-3.91-3.71-3.91h-47.24c-1.92,0-3.51,1.68-3.71,3.91l-10,115.79c-.08,.97-.83,1.68-1.66,1.59h0c-.83-.1-1.44-.97-1.36-1.94l10-115.79c.35-4.05,3.24-7.1,6.73-7.1h47.24c3.49,0,6.38,3.05,6.73,7.1l10,115.79c.08,.97-.52,1.84-1.36,1.94h0Z"/></g></g></g><g><g><path class="cls-25" d="M241.33,218.55h37.06v3.47c0,.97-.78,1.75-1.75,1.75h-33.55c-.97,0-1.75-.78-1.75-1.75v-3.47h0Z"/><path class="cls-9" d="M241.33,218.55h37.06v3.47c0,.97-.78,1.75-1.75,1.75h-33.55c-.97,0-1.75-.78-1.75-1.75v-3.47h0Z"/></g><g><path class="cls-25" d="M215.12,218.55h37.06v3.47c0,.97-.78,1.75-1.75,1.75h-33.55c-.97,0-1.75-.78-1.75-1.75v-3.47h0Z"/><path class="cls-10" d="M215.12,218.55h37.06v3.47c0,.97-.78,1.75-1.75,1.75h-33.55c-.97,0-1.75-.78-1.75-1.75v-3.47h0Z"/><rect class="cls-25" x="244.45" y="220.55" width="3.44" height="1.24"/><rect class="cls-25" x="238.94" y="220.55" width="3.44" height="1.24"/></g><g><path class="cls-25" d="M280.96,223.8h1.77c1.02,0,1.89-.73,2.05-1.74l6-36.89c.2-1.26-.77-2.4-2.04-2.41l-28.79-.05-7.77,41.04h1.77s27.02,.05,27.02,.05Z"/><path class="cls-10" d="M280.96,223.8h1.77c1.02,0,1.89-.73,2.05-1.74l6-36.89c.2-1.26-.77-2.4-2.04-2.41l-28.79-.05-7.77,41.04h1.77s27.02,.05,27.02,.05Z"/><path class="cls-16" d="M252.67,221.13l-.49,2.61h1.77s27.02,.05,27.02,.05h1.77c1.02,0,1.89-.73,2.05-1.74l.14-.87-32.25-.06Z"/><path class="cls-25" d="M252.21,223.78h1.77c1.02,0,1.89-.74,2.05-1.74l5.93-36.91c.2-1.26-.77-2.4-2.05-2.4h0l-7.7,41.05Z"/><path class="cls-6" d="M252.21,223.78h1.77c1.02,0,1.89-.74,2.05-1.74l5.93-36.91c.2-1.26-.77-2.4-2.05-2.4h0l-7.7,41.05Z"/></g></g></g></g></svg>