<?xml version="1.0" standalone="no"?><svg xmlns="http://www.w3.org/2000/svg" viewBox="0 0 1440 320"><path fill="#ededed" fill-opacity="1" d="M0,64L40,80C80,96,160,128,240,149.3C320,171,400,181,480,176C560,171,640,149,720,154.7C800,160,880,192,960,176C1040,160,1120,96,1200,90.7C1280,85,1360,139,1400,165.3L1440,192L1440,320L1400,320C1360,320,1280,320,1200,320C1120,320,1040,320,960,320C880,320,800,320,720,320C640,320,560,320,480,320C400,320,320,320,240,320C160,320,80,320,40,320L0,320Z"></path></svg>