<?xml version="1.0" encoding="UTF-8"?><svg id="Layer_2" xmlns="http://www.w3.org/2000/svg" viewBox="0 0 466.52 465.27"><defs><style>.cls-1{fill:#c2bebd;}.cls-2{opacity:.5;}.cls-3,.cls-4,.cls-5{fill:#1f2238;}.cls-6{fill:#6b605d;}.cls-6,.cls-7,.cls-8,.cls-9,.cls-10,.cls-11,.cls-4{stroke:#1f2238;}.cls-6,.cls-7,.cls-8,.cls-9,.cls-10,.cls-11,.cls-4,.cls-5{stroke-linecap:round;stroke-linejoin:round;}.cls-7,.cls-12{stroke-width:2px;}.cls-7,.cls-13,.cls-9{fill:#fff;}.cls-12{fill:#f2f1f0;stroke:#fff;stroke-miterlimit:10;}.cls-13{opacity:.7;}.cls-8{fill:#bfbbb9;}.cls-14{fill:#e3e1e0;}.cls-15{opacity:.3;}.cls-16,.cls-10{fill:#74e3d9;}.cls-11{fill:none;}.cls-5{stroke:#a6a09e;}</style></defs><g id="Background_Simple"><g><path class="cls-16" d="M267.37,1.29S184.55-11.93,116.44,46.19C48.32,104.31,26.02,198.75,5.94,274.82c-20.08,76.07,12.12,143.69,76.36,165.33,64.23,21.65,94.96-33.51,176.2-50.97,81.24-17.47,105.37-9.86,164.59-68.56,59.22-58.7,51.28-169.93-17.13-240.65C337.55,9.25,267.37,1.29,267.37,1.29Z"/><path class="cls-13" d="M267.37,1.29S184.55-11.93,116.44,46.19C48.32,104.31,26.02,198.75,5.94,274.82c-20.08,76.07,12.12,143.69,76.36,165.33,64.23,21.65,94.96-33.51,176.2-50.97,81.24-17.47,105.37-9.86,164.59-68.56,59.22-58.7,51.28-169.93-17.13-240.65C337.55,9.25,267.37,1.29,267.37,1.29Z"/></g></g><g id="Moon"><g><circle class="cls-12" cx="226.03" cy="85.39" r="78.56"/><ellipse class="cls-14" cx="178.98" cy="82.78" rx="20.56" ry="21.82"/><circle class="cls-14" cx="214.23" cy="38.71" r="17.2" transform="translate(35.37 162.82) rotate(-45)"/><ellipse class="cls-14" cx="214.23" cy="106.28" rx="8.81" ry="10.07"/><ellipse class="cls-14" cx="182.34" cy="123.9" rx="7.13" ry="6.71"/><ellipse class="cls-14" cx="240.25" cy="60.54" rx="9.65" ry="8.81"/><circle class="cls-14" cx="244.03" cy="29.9" r="5.04"/><path class="cls-14" d="M182.76,45.43c0,3.94-3.57,7.13-7.97,7.13s-7.97-3.19-7.97-7.13,3.57-7.13,7.97-7.13,7.97,3.19,7.97,7.13Z"/><ellipse class="cls-14" cx="215.29" cy="73.86" rx="10.74" ry="11.54"/><path class="cls-14" d="M219.24,142.34c-2.53,5.23-10.36,6.67-17.49,3.22s-10.85-10.48-8.32-15.71c2.53-5.23,10.36-6.67,17.49-3.22,7.13,3.45,10.85,10.48,8.32,15.71Z"/></g></g><g id="Clouds"><g><path class="cls-1" d="M334.92,58.06c-3.97-2.16-5.77-.36-7.22-2.16-1.44-1.8,3.97-6.5-6.86-11.19,0,0-.72-10.1-15.52-10.46-14.79-.36-10.83,10.1-14.79,12.63-3.97,2.53-5.05-1.44-9.02,1.08-3.97,2.53-2.17,7.58-5.41,8.3-3.25,.72-7.58-3.25-11.55-.72-3.97,2.53-3.97,4.69-5.77,4.69s-5.41-1.44-7.58,0c-2.17,1.44-4.69,3.25-4.69,3.25h91.3s1.08-3.25-2.89-5.41Z"/><g class="cls-2"><path class="cls-1" d="M334.92,58.06c-3.97-2.16-5.77-.36-7.22-2.16-1.44-1.8,3.97-6.5-6.86-11.19,0,0-.72-10.1-15.52-10.46-14.79-.36-10.83,10.1-14.79,12.63-3.97,2.53-5.05-1.44-9.02,1.08-3.97,2.53-2.17,7.58-5.41,8.3-3.25,.72-7.58-3.25-11.55-.72-3.97,2.53-3.97,4.69-5.77,4.69s-5.41-1.44-7.58,0c-2.17,1.44-4.69,3.25-4.69,3.25h91.3s1.08-3.25-2.89-5.41Z"/></g></g><g><path class="cls-1" d="M360.66,39.73c-1.63-.89-2.37-.15-2.96-.89-.59-.74,1.63-2.67-2.81-4.59,0,0-.3-4.15-6.37-4.29-6.07-.15-4.44,4.15-6.07,5.18-1.63,1.04-2.07-.59-3.7,.44-1.63,1.04-.89,3.11-2.22,3.41-1.33,.3-3.11-1.33-4.74-.3-1.63,1.04-1.63,1.93-2.37,1.93s-2.22-.59-3.11,0c-.89,.59-1.93,1.33-1.93,1.33h37.47s.44-1.33-1.18-2.22Z"/><g class="cls-2"><path class="cls-1" d="M360.66,39.73c-1.63-.89-2.37-.15-2.96-.89-.59-.74,1.63-2.67-2.81-4.59,0,0-.3-4.15-6.37-4.29-6.07-.15-4.44,4.15-6.07,5.18-1.63,1.04-2.07-.59-3.7,.44-1.63,1.04-.89,3.11-2.22,3.41-1.33,.3-3.11-1.33-4.74-.3-1.63,1.04-1.63,1.93-2.37,1.93s-2.22-.59-3.11,0c-.89,.59-1.93,1.33-1.93,1.33h37.47s.44-1.33-1.18-2.22Z"/></g></g><g><path class="cls-1" d="M198.89,90.37c-6.26-3.41-9.1-.57-11.37-3.41-2.27-2.84,6.26-10.24-10.8-17.63,0,0-1.14-15.92-24.45-16.49-23.31-.57-17.06,15.92-23.31,19.9-6.26,3.98-7.96-2.27-14.22,1.71-6.26,3.98-3.41,11.94-8.53,13.08-5.12,1.14-11.94-5.12-18.2-1.14-6.25,3.98-6.25,7.39-9.1,7.39s-8.53-2.27-11.94,0c-3.41,2.27-7.39,5.12-7.39,5.12H203.44s1.71-5.12-4.55-8.53Z"/><g class="cls-2"><path class="cls-1" d="M198.89,90.37c-6.26-3.41-9.1-.57-11.37-3.41-2.27-2.84,6.26-10.24-10.8-17.63,0,0-1.14-15.92-24.45-16.49-23.31-.57-17.06,15.92-23.31,19.9-6.26,3.98-7.96-2.27-14.22,1.71-6.26,3.98-3.41,11.94-8.53,13.08-5.12,1.14-11.94-5.12-18.2-1.14-6.25,3.98-6.25,7.39-9.1,7.39s-8.53-2.27-11.94,0c-3.41,2.27-7.39,5.12-7.39,5.12H203.44s1.71-5.12-4.55-8.53Z"/></g></g></g><g id="Graves"><path class="cls-1" d="M23.76,361.96H426.96l15.05-167.72-10-2-.76-44.09c-.13-7.72-6.43-13.91-14.15-13.91h0c-8.17,0-14.65,6.9-14.13,15.06l6.04,94.94-67.62,2.74c-3.59,.15-6.45,3.05-6.55,6.64l-.83,31.62-16,1-1-82-18-1,1.52-31.06-16.37,.49,.57-34.1c6.37-2.58,11.49-7.6,14.19-13.9l11.87,2.07,1.72-13.77-11.85-2.73c-1.32-8.05-6.35-14.87-13.28-18.63l1.63-13.35-18-2-2.02,12.93c-9.24,2.2-16.58,9.35-19.06,18.47l-10.92-.4-2,11,12.43,.86c1.56,8.6,7.35,15.73,15.13,19.16l-2.56,31.98h-13l-1,31-11,1v22h-46l-1.17-15.24c-1.38-17.92-17.21-32.58-35.18-32.58h0c-16.5,0-28.75,13.44-27.23,29.87l2.59,27.96-96.04,5.7c-12.04,.71-21.12,11.21-20.1,23.22l9.88,98.8ZM286.45,99.32c3.07,2.32,5.42,5.54,6.63,9.27l-7.56-1.63,.93-7.64Zm-1.43,22.92l6.75,1.18c-1.61,2.99-4,5.49-6.89,7.26l.14-8.43Zm-17.23-25.34l-1.77,11.34-8.81-.33c1.84-4.98,5.69-9,10.58-11.02Zm-11.04,22.71l9.27,.64-.84,10.44c-4.06-2.47-7.12-6.41-8.43-11.08Z"/></g><g id="Character_3"><g><ellipse class="cls-15" cx="404.52" cy="408.96" rx="62" ry="10.5"/><g><path class="cls-4" d="M333.52,62.63s-6.35,6.35-11,13.68c-4.64,7.33-2.2,18.57-1.95,21.01,.24,2.44,.73,6.84,.73,6.84l3.42-6.35s1.71,12.71,1.71,15.64,1.22,14.66,1.22,14.66l4.89-7.33s2.69,6.35,2.93,8.8c.24,2.44,2.2,7.57,2.2,7.57,0,0,11.24,9.04,11.48,10.75,.24,1.71,2.2-4.15,2.2-4.15l7.82,5.62s2.2-8.06,4.4-13.68,12.95-13.19,14.66-22.97c1.71-9.77,4.64-17.35,1.71-26.63s-17.59-24.19-27.12-24.92c-9.53-.73-19.3,1.47-19.3,1.47Z"/><path class="cls-9" d="M353.13,184.45s-1.62,13.38-1.62,14.77-.69,3.23-2.54,3.92c-1.85,.69-3.92,.46-3.23,2.77,.69,2.31,3,4.85,4.85,5.31,1.85,.46,4.85-4.15,4.85-4.15,0,0,2.77,2.31,3,3,.23,.69,5.54-.23,6-2.54,.46-2.31,.92-3.69-.92-5.31-1.85-1.62-4.15-1.85-4.61-3.23-.46-1.38,.23-17.08,.23-17.08l-5.54-1.15-.23,2.54-.23,1.15Z"/><g><path class="cls-4" d="M435.04,350.81s1.85,3.23,3.46,4.38c1.62,1.15,2.54,1.85,4.85,1.85s5.08,0,6-.92c.92-.92,1.85,0,1.15,.46-.69,.46-2.08,1.62-2.77,3.92-.69,2.31-.69,6.23-.69,6.23h-2.54v4.61c0,.69,1.62,2.54,1.85,4.15,.23,1.62,1.38,2.31,.23,1.62-1.15-.69-6.69-6.92-8.77-7.15-2.08-.23-4.61-.92-4.61-.92,0,0-5.08-14.08-7.85-19.38-2.77-5.31-5.31-11.08-5.31-11.08,0,0,5.77-.69,6.46-.46,.69,.23,4.15,5.08,4.15,5.08l4.38,7.61Z"/><g><path class="cls-8" d="M402.04,299.36s-1.15,11.08-.69,14.31c.46,3.23,4.15,6.23,5.31,8.08,1.15,1.85,3,6.92,5.31,12.46,2.31,5.54,17.54,46.38,18,47.53,.46,1.15-2.31,3.69-2.08,5.77,.23,2.08,.92,2.77,.23,4.61s-3.46,8.31-6.23,10.85c-2.77,2.54-7.61,4.38-7.85,7.38-.23,3,3,4.15,5.08,4.85s7.38,.92,8.77-1.38c1.38-2.31,1.15-2.77,1.85-3.46s1.85-1.62,1.85,.23-.69,3.69,.69,4.38c1.38,.69,4.61,.46,5.54-.23,.92-.69,1.85-1.85,1.85-1.85,0,0,1.85,1.62,4.38,1.38,2.54-.23,3.46-3.23,3.46-3.23,0,0,.92,2.54,4.15,.92,3.23-1.62,2.31-4.85,2.31-4.85l-.69,1.15s4.61,.92,4.38-2.77c-.23-3.69-6.69-5.31-6.69-5.31,0,0-3.23-4.15-5.08-7.38-1.85-3.23-3.69-7.15-3.69-7.15,0,0,.69-1.62,0-3.46-.69-1.85-3.23-4.38-3.23-4.38,0,0-6.69-27.23-9-31.61-2.31-4.38-4.85-10.61-4.85-10.61,0,0-2.77-10.15-2.54-14.08,.23-3.92,1.15-5.08-.69-7.15-1.85-2.08-3.23-3.92-3.92-5.31-.69-1.38-1.62-2.77-2.54-4.38s-2.31-3.46-3.46-4.38c-1.15-.92-2.54-2.54-4.85-2.77-2.31-.23-5.31,.69-5.54,2.77"/><g><path class="cls-11" d="M427.66,408.73s-5.08-3.46-8.54-1.85c-3.46,1.62-1.62,2.31,2.77,3,4.38,.69,6.46,2.54,5.77-1.15Z"/><path class="cls-11" d="M437.12,410.11s-5.77,.46-3.92,1.38,6,.46,3.92-1.38Z"/><path class="cls-11" d="M444.73,409.42c0,.64-.98,1.15-2.19,1.15s-2.19-.52-2.19-1.15,.98-1.15,2.19-1.15,2.19,.52,2.19,1.15Z"/><path class="cls-11" d="M448.42,408.73c0,.51,.88,.92,1.96,.92s1.96-.41,1.96-.92-.88-.92-1.96-.92-1.96,.41-1.96,.92Z"/><path class="cls-11" d="M453.5,404.69c0,.32,.41,.58,.92,.58s.92-.26,.92-.58-.41-.58-.92-.58-.92,.26-.92,.58Z"/><line class="cls-11" x1="439.65" y1="412.88" x2="438.27" y2="407.11"/><line class="cls-11" x1="447.5" y1="411.04" x2="445.88" y2="406.19"/><path class="cls-11" d="M429.73,401.11s7.85-.46,11.31,.46"/><path class="cls-11" d="M437.81,398.35s6-.46,9.23,.92"/></g></g><polygon class="cls-9" points="376.54 276.68 379.84 291.15 388.21 286.07 392.78 260.94 382.88 265 376.54 276.68"/><g><path class="cls-8" d="M362.12,361.89s-.46,8.08-2.08,11.77c-1.62,3.69-5.31,7.85-5.31,11.08s1.38,5.31,1.62,7.15c.23,1.85-2.54,11.54-3.46,13.84-.92,2.31-2.31,5.77-1.15,7.38,1.15,1.62,1.85,2.54,3,1.62,1.15-.92,1.15-2.31,1.15-2.31,0,0,.46,2.08,1.62,2.08s3.46-2.08,3.46-2.08c0,0,0,1.85,1.62,1.85s3.92-2.54,3.92-2.54c0,0,1.15,3.69,3.46,3,2.31-.69,3-2.54,3-2.54,0,0,3,2.08,5.08,2.08s4.61-1.15,4.38-4.15c-.23-3-8.08-5.31-8.08-5.31,0,0-1.38-4.85-3-8.31-1.62-3.46-2.54-7.85-2.54-9.69s-.23-9.92-.23-11.77,3.92-12.69,3.92-12.69c0,0,4.38-16.38,3.46-19.84s-8.77-4.61-10.84,1.85c-2.08,6.46-3,17.54-3,17.54Z"/><g><path class="cls-11" d="M380.58,409.19s-.69-2.31-4.85-1.15c-4.15,1.15-2.77,1.38-.46,2.54,2.31,1.15,6.69,.23,5.31-1.38Z"/><path class="cls-11" d="M371.35,410.34s-5.77,.46-3.69,1.38,3.92,0,3.92,0"/><path class="cls-11" d="M364.89,410.11s-3-1.38-2.31,.23c.69,1.62,3.46,.46,2.31-.23Z"/><path class="cls-11" d="M359.82,409.88s-4.61-.92-3,.69c1.62,1.62,3.46-.92,3-1.62"/><path class="cls-11" d="M354.74,409.65c-.55-.42-3.69,1.15-2.31,1.85,1.38,.69,4.15-.46,2.31-1.85Z"/><line class="cls-11" x1="372.97" y1="412.19" x2="369.74" y2="406.42"/><line class="cls-11" x1="366.51" y1="411.73" x2="365.82" y2="407.35"/><line class="cls-11" x1="360.97" y1="412.42" x2="360.74" y2="408.27"/></g></g><path class="cls-10" d="M377.81,226.9s-1.62,10.85-1.62,15.23-1.15,21.46-1.15,24.69v14.54s1.85-1.38,4.38-3.92,7.38-6.46,8.08-7.61c.69-1.15,3.23-3.46,3.23-3.46,0,0-11.77,23.31-12.46,24.46-.69,1.15,0,2.77,0,2.77,0,0,3.92,10.84,3.46,11.77s-2.77,4.85-2.08,6.23c.69,1.38,1.15,2.77,1.15,2.77,0,0-2.54-2.31-3.92-.23-1.38,2.08-1.38,5.54-1.38,5.54,0,0-4.61,3.46-7.15,8.54s-6,11.08-6,12.69,.69,2.54-.46,9.23c-1.15,6.69-.69,20.77-1.85,23.54-1.15,2.77,.23-1.15,2.08-4.38,1.85-3.23,3.46-4.61,3.92-8.08,.46-3.46,3.69-11.08,3.69-11.08,0,0-.46,5.54-.46,9s-1.15,6.46-1.62,8.31c-.46,1.85-.46,3.69,0,4.85s1.62,3.46,1.85,4.85c.23,1.38,.23,4.85,.23,4.15s3.23-2.77,4.61-1.15c1.38,1.62,3.46,4.85,3.46,4.85,0,0,.23,3.23,.23,2.54s.23-4.85,1.15-8.08,2.31-3.23,1.62-4.38c-.69-1.15-4.85-5.08-5.77-7.38-.92-2.31-2.31-.92-.69-3.69,1.62-2.77,1.38-2.31,3.23-5.77,1.85-3.46,2.54-3.92,3.23-5.54,.69-1.62,1.85,1.62,1.85,1.62v6c0,.92,2.77,5.31,2.77,5.31,0,0,.23-1.85,.23-7.61s-1.15-4.61,0-10.15,2.31-8.31,3.23-11.77,5.31-10.38,6.92-16.38,1.62-9.46,1.62-15-.23-11.31,0-15c.23-3.69,1.62-18.69,1.85-23.54,.23-4.85,1.85-13.15,1.85-14.54v-3.23s4.38,1.62,6.69,7.61c2.31,6,1.85,13.38,.46,16.15-1.38,2.77-6.23,21-6.46,24.69-.23,3.69-.69,6.23-.69,6.23,0,0,3.23-1.15,4.85-.69,1.62,.46,3,0,3.92,2.08,.92,2.08,1.85,5.54,1.85,5.54,0,0,2.54-2.08,3.69-.69s2.54,2.31,3,3.23,.46-.23,.46,1.85v6.46c0,1.38,2.08,2.54,1.85,3.23-.23,.69-2.77,2.31-3.23,3-.46,.69,.69-1.38-2.54,1.85-3.23,3.23-3,4.85-6,5.08-3,.23-4.38-.46-4.15,.23,.23,.69,6.46,8.08,7.85,12.69,1.38,4.61,3.92,9.46,3.92,11.77s4.61-2.08,5.31-2.77c.69-.69,2.54-3.69,3.23-4.15s2.08-.23,2.08-1.15,.46-4.85,.69-6c.23-1.15,2.31,.46,2.77,1.85,.46,1.38,1.62,.92,2.31,2.54,.69,1.62,3.23,4.15,3.23,4.15,0,0-4.85-9.69-6.46-15.46-1.62-5.77-2.08-16.61-1.38-18.46,.69-1.85-3.69-2.08-3.69-2.08,0,0,2.31-2.77,1.38-4.61-.92-1.85-4.38-1.38-5.31-3-.92-1.62-3.23-5.77-3.23-5.77,0,0,4.15-3.92,14.31-29.07,10.15-25.15,9.23-31.38,9.23-41.76s.55-23.42-6.14-27.57c-6.69-4.15-6.78,13.27-15.55,13.27s-26.07-.46-30.69-.46-4.38,.23-6.46,1.38c-2.08,1.15-4.38,7.38-4.38,7.38Z"/><path class="cls-4" d="M411.73,309.97s-.99-2.57-1.2-6.25c-.2-3.68,1.43-3.44,1.43-3.44,0,0-1.83,.37-3.06,.37s-4.9-2.45-4.9-2.45c0,0,.2,1.84-.82,1.84s-3.68,1.23-3.68,1.23l-1.43,1.23,1.23,1.23s-.82,1.64-1.64,1.84c-.82,.2-.41,1.02-1.23,1.84s-1.63,5.72-1.63,5.72c0,0,3.07-3.68,4.7-4.5,1.63-.82,5.72,.41,5.72,.41,0,0,.41-2.04,1.84-1.02,1.43,1.02,4.67,1.96,4.67,1.96Z"/><path class="cls-4" d="M420.73,324.05s-.38,1.95-1.2,3.18c-.82,1.23-.41,3.88-1.63,3.88s-1.84,1.02-2.04,1.84c-.2,.82-.82,4.5-.82,4.5,0,0-2.45-2.04-3.68-1.84-1.23,.2-4.29-1.02-4.29-1.02l-1.63-.61s4.77-1.87,7.15-3.47c2.38-1.6,5.47-6.35,8.15-6.45Z"/><line class="cls-11" x1="397.26" y1="241.07" x2="399.04" y2="241.9"/><line class="cls-11" x1="385.2" y1="235.44" x2="394.66" y2="239.86"/><path class="cls-4" d="M401.12,248.36c-2.31-2.31-9.46-5.31-9.46-5.31l9.19,9.88,.27-4.58Z"/><path class="cls-11" d="M426.08,238.79c.84-.85,1.6-1.73,2.27-2.66"/><path class="cls-11" d="M411.04,248.59s6.73-2.85,12.34-7.38"/><path class="cls-11" d="M424.19,236.36s-4.85,4.85-9.92,7.61"/><path class="cls-4" d="M390.74,266.36s-1.38,3.23-1.38,7.85,1.15,9.69,.23,10.38c-.92,.69-1.85,0-1.38,2.77s1.38,6,1.38,6c0,0-1.85-.69-2.54-.69s-2.54,1.62-2.54,1.62l-.46,3.23s-3.23-3.69-4.15-2.54c-.92,1.15-.92,2.54-1.62,3.23-.69,.69-1.62,5.77-1.62,5.77,0,0-.69-6-.69-7.15s.92-5.54,.92-5.54l13.84-24.92Z"/><path class="cls-4" d="M389.81,267.28s-3.23,2.54-7.15,4.15-8.54,2.31-8.54,2.31l-.23,2.77s-.92,1.15-1.85,1.38c-.92,.23-2.31,1.38-2.31,1.38l-.69,2.77,3.23,2.54,1.62,4.15,1.85-5.54,.23-2.54,13.84-13.38Z"/><path class="cls-11" d="M380.81,314.35s2.77,3.46,3.46,5.08"/><path class="cls-11" d="M375.51,319.66s1.15,6.92,2.31,10.85"/></g><path class="cls-4" d="M350.63,126.65s-5.62,5.13-4.89,11c.73,5.86,3.67,19.06,3.91,24.68,.24,5.62,1.71,12.71,.49,15.88-1.22,3.18-2.69,8.31-2.69,8.31,0,0,3.67,0,4.89,.73s2.93,2.2,2.93,2.2l2.2-4.4s1.71,5.38,1.71,4.64,1.95-6.11,1.95-6.11l5.86,1.47,.73-3.67,2.2,2.69,1.47-2.93-2.69-10.51s5.86,10.26,8.31,12.46,4.89,3.18,5.86,7.33c.98,4.15,2.2,7.33,.98,12.71-1.22,5.38-3.42,11.48-5.38,15.15-1.78,3.35-4.38,9.34-4.82,10.36-.04,.1-.06,.15-.06,.15l8.55,.98,4.64-6.6v5.86s.73,0,5.86,1.22c5.13,1.22,6.11,1.47,8.06,.98,1.95-.49,5.62-.49,6.84-.73,1.22-.24,6.84-2.69,6.84-3.42s1.71-4.89,1.71-4.89l1.22,3.67,3.91-4.4v10.02l2.69-2.69,3.42,1.71,2.93,2.69s-1.22-2.69,.24-6.11c1.47-3.42,7.57-5.86,7.57-5.86,0,0-.49-4.15-.49-4.89s.49-2.44,.49-2.44l.49-.98s1.71,.73,2.2,3.67c.49,2.93,1.95,10.02,1.95,10.02,0,0,.49-4.89,1.47-7.57,.98-2.69,3.91-5.13,3.91-5.13,0,0-3.91-1.47-5.38-4.4-1.47-2.93-4.4-9.28-5.38-14.17-.98-4.89-5.38-30.54-9.28-40.32-3.91-9.77-6.6-18.08-10.26-23.46s-12.46-14.66-23.21-21.99c-10.75-7.33-17.59-2.2-20.52,2.69-2.93,4.89-3.67,10.02-6.35,11.97-2.69,1.95-11.48-3.18-17.1,2.44Z"/><path class="cls-11" d="M360.4,126.41s6.84,5.86,8.31,8.31c1.47,2.44,3.42,8.06,4.4,6.84,.98-1.22,2.69-7.57,2.2-14.17-.49-6.6-1.71-11.73-3.91-14.42-2.2-2.69-4.15-4.4-4.15-4.4,0,0-.98,5.62-3.91,8.8-2.93,3.18-4.15,5.13-4.15,5.13l1.22,3.91Z"/><g><path class="cls-8" d="M331.32,81.45s1.71,9.29,1.47,11.97c-.24,2.69-2.93,6.35-.49,9.53,2.44,3.18,6.35,2.93,7.09,5.86,.73,2.93,.49,6.11,1.71,8.55,1.22,2.44,2.69,1.22,4.15,6.35,1.47,5.13,2.69,7.82,4.89,8.55s4.89,1.71,7.09,0,6.6-6.11,8.31-7.82c1.71-1.71,3.91-6.35,4.15-9.77,.24-3.42,0-4.89,2.44-7.82s5.13-4.4,6.84-9.77-2.93-7.82-4.89-19.3c-1.95-11.48-.24-18.08-7.82-20.77-7.57-2.69-10.02-6.11-18.57-.49-8.55,5.62-9.53,9.04-11.48,12.71-1.95,3.67-4.89,12.22-4.89,12.22Z"/><path class="cls-9" d="M349.52,119.93s.79,1.77,1.38,3.74c.59,1.97,.2,3.15,.79,4.72,.59,1.57,.59,4.33,.59,4.33,0,0-.59,5.51,0,6.88,.59,1.38,2.36,.59,2.36-.98s-.2-3.34,.2-4.52c.39-1.18,1.77-1.77,1.77-1.77,0,0,0,3.74,.98,2.16,.98-1.57,.79-6.29,.79-6.29l.2-.98s.79,0,.59-1.38c-.2-1.38,.59-1.38-.59-2.95-1.18-1.57-5.31-3.54-7.08-4.92s-2.75,.39-1.97,1.97Z"/><path class="cls-7" d="M366.26,92.69c0,3.37-2.73,6.11-6.11,6.11s-6.11-2.73-6.11-6.11,2.73-6.11,6.11-6.11,6.11,2.73,6.11,6.11Z"/><circle class="cls-7" cx="341.71" cy="92.56" r="3.3"/><path class="cls-4" d="M347.94,101.73s.98,1.95-.24,2.93-3.18,1.22-1.22,2.2c1.95,.98,2.69,2.93,3.91,2.93s5.38-2.2,5.13-3.67c-.24-1.47-2.2-1.47-2.93-3.42-.73-1.95-3.42-2.93-4.64-.98Z"/><path class="cls-11" d="M345.74,88.53s2.93,2.44,1.22,8.55c-1.71,6.11-6.35,6.6-8.31,4.89"/><path class="cls-11" d="M352.83,94.15s.49,10.26,8.55,10.02"/><path class="cls-11" d="M335.48,88.29s4.64-2.44,8.8-3.91"/><path class="cls-11" d="M353.56,83.65s7.09,0,11.24,3.18"/><path class="cls-4" d="M345.25,114.68s8.31,3.42,11.24,6.84,3.18,4.4,.24,5.38-4.89-2.93-6.84-6.35c0,0-1.22-2.44-4.64-5.86Z"/><path class="cls-11" d="M370.91,104.66s-5.62,2.44-7.82,2.93-2.69,2.69-1.47,5.13c1.22,2.44,3.91,6.84,1.47,10.26"/><path class="cls-11" d="M349.41,84.62c-.73-.24-2.2-.49-2.69-2.93-.49-2.44-1.22-6.11-1.22-6.11"/></g><path class="cls-4" d="M348.18,64.83s.49,7.57,1.22,10.51,.98,9.28,.98,9.28c0,0,2.2-5.38,2.93-8.31,.73-2.93,6.6-15.39,6.6-15.39,0,0-.98,10.51,.24,13.44s3.91,6.11,4.15,7.09c.24,.98,0-3.42,.24-4.64,.24-1.22,3.18-7.33,3.18-7.33,0,0,1.22,10.26,2.44,15.64,1.22,5.38,3.42,11,3.67,13.19,.24,2.2,.24,11.48,.24,11.48l1.47,8.8,4.89-5.13s1.95,5.13,2.2,4.15c.24-.98,5.13-5.13,5.62-7.57s1.95-5.38,1.95-5.38l.24-8.31v-2.2l3.42,4.64s0-11.24-.98-18.08c-.98-6.84-2.44-11.97-6.6-16.86s-17.1-15.39-18.08-16.37-12.95-1.71-19.3,0-9.53,3.42-14.9,8.31c-5.38,4.89-1.47,11-2.2,11.48-.73,.49-2.2,8.31-2.69,9.77-.49,1.47-.73,7.82-.73,9.04v8.06s3.67-10.02,4.4-11.48c.73-1.47,8.06-9.04,9.28-10.51,1.22-1.47,6.11-7.33,6.11-7.33Z"/><path class="cls-4" d="M382.88,149.62l11.73,.98s3.67-5.13,5.13-5.86c1.47-.73,4.89,.24,6.35,1.95,1.47,1.71,4.15,4.4,5.13,5.13,.98,.73,.49,1.22,.98,.73,.49-.49,1.22-4.64,1.95-6.11,.73-1.47,3.18-.73,3.18-.73l-2.44-7.09s-5.13-5.86-13.19-7.09-15.15,1.47-15.88,5.38-.98,6.6-1.47,7.82c-.49,1.22-1.47,4.89-1.47,4.89Z"/><g><path class="cls-8" d="M328.39,145.71s-4.15,2.69-6.35,2.69-7.33-1.71-9.53-1.71-4.64,1.71-6.84,2.2c-2.2,.49-1.47,3.18,0,3.42,1.47,.24,5.62-1.47,6.6-1.71,.98-.24,4.4,1.95,5.13,1.95s2.2,.24,5.13-.49c2.93-.73,5.86-6.35,5.86-6.35Z"/><path class="cls-8" d="M386.55,141.55l7.82,15.88s-14.66-4.4-32.99-12.22c-18.33-7.82-22.24-11.97-27.85-9.28-5.62,2.69-6.11,9.04-8.31,11.97-2.2,2.93-5.86,3.67-11,3.67s-8.31-1.22-8.55,.73c-.24,1.95-.98,8.31-.98,10.75s1.47,7.09,2.93,7.33c1.47,.24,4.15-1.47,2.93-3.18s-1.71-3.42-1.71-3.42l1.95-7.09,4.15,.98s-1.47,8.06-1.47,8.8,2.44,5.62,3.18,6.35c.73,.73,4.4,.24,4.64-2.44,.24-2.69-1.95-2.93-1.95-2.93l.49-6.35s5.86-3.18,6.84-2.93c.98,.24,2.44,3.42,1.22,4.89-1.22,1.47-2.44,2.44-2.44,4.64s1.22,6.11,1.47,7.57c.24,1.47,3.18,2.44,3.91,1.22s0-3.91,0-3.91c0,0-.73,0-.73-1.22s1.71-6.11,1.71-6.11c0,0,2.69-4.4,2.93-5.62,.24-1.22,1.95-2.93,1.95-2.93,0,0,2.44-2.69,3.18-5.62,.73-2.93,1.95-8.06,1.95-8.06,0,0,14.42,10.26,21.5,15.39,7.09,5.13,29.08,14.66,33.47,18.57,4.4,3.91,15.15,.49,18.57,1.47,3.42,.98,6.6,2.2,7.09-1.47,.49-3.67-.73-6.84-1.95-8.8-1.22-1.95-3.42-6.6-5.62-11.73-2.2-5.13-10.02-25.9-10.02-25.9,0,0-11-.98-15.39,2.69-4.4,3.67-2.93,8.31-2.93,8.31Z"/><path class="cls-11" d="M304.67,163.91s2.54-9.92,3-10.85c.46-.92,1.38-1.62,2.31-1.62"/><path class="cls-11" d="M314.95,157.68s.98-2.2,1.95-2.2,4.64-.49,5.62-.98,3.18-1.95,3.18-1.95"/><path class="cls-11" d="M394.36,157.44s8.31,1.47,12.71,2.93c4.4,1.47,11.24,6.6,11.24,6.6"/><path class="cls-11" d="M398.03,168.92c.73,0,17.35,5.38,18.57,3.18s0-4.4,0-4.4"/></g><path class="cls-5" d="M394.12,111.5s-7.82-9.04-16.37-5.86c-8.55,3.18-7.82,14.42-2.44,21.75,5.38,7.33,5.86,11,6.35,14.42,.49,3.42,1.22,7.82,1.22,7.82,0,0,2.93-1.95,4.64-1.95s1.22-1.95,2.2-4.89c.98-2.93,1.71-4.64,4.15-5.13s3.67-1.71,7.09-.49c3.42,1.22,5.62,3.18,5.62,3.18l-.49-4.64s4.64,2.69,4.89,3.42c.24,.73,3.91,4.15,3.91,4.15v-4.64l4.15,4.15s-11-13.93-15.15-19.3-9.77-11.97-9.77-11.97Z"/></g></g></g><g id="Character_2"><g><path class="cls-4" d="M332.45,354.48c-1.25-2.92-4.16,0-4.16,0,0,0,0-6.66-2.08-8.75-2.08-2.08-7.08,2.5-7.08,2.5,0,0-1.25-7.91-9.16-8.33-.26-.01-.49,0-.73,0-.23-.46-.5-.86-.8-1.17-2.33-2.33-7.92,2.8-7.92,2.8,0,0-1.4-8.86-10.26-9.32-8.86-.47-9.32,6.99-9.32,6.99-3.26-7.46-11.94-8.07-14.35-2.44-1.4,3.26-1.03,5.7-1.03,5.7,0,0-2.8-1.4-5.13-.93-2.33,.47-4.66,6.06-4.66,6.06,0,0-1.26-1.51-3.06-3.09-.42-.51-.9-.95-1.46-1.27-.08-.04-.16-.06-.24-.1-1.3-.95-2.73-1.76-4.11-2.07-3.77-.84-5.65,3.2-6,4.04-.04-.02-.08-.04-.12-.06-.19-.7-1.02-3.04-4.14-5.38-3.73-2.8-7.92,3.73-7.92,3.73,0,0-.93-5.59-4.2-7.46-3.26-1.86-8.39,4.66-8.39,4.66,0,0-3.73-5.13-9.79-2.8-6.06,2.33-4.2,8.39-4.2,8.39,0,0-6.99-5.59-9.32-1.86-1.62,2.59-.54,6.98,.27,9.41h29.08c-.03,1.93,.53,4.01,.99,5.4h109.73c.19-1.33,.23-3.11-.44-4.66Z"/><path class="cls-4" d="M298.94,353.78c-1.25-2.92-4.16,0-4.16,0,0,0,0-6.66-2.08-8.75-2.08-2.08-7.08,2.5-7.08,2.5,0,0-1.25-7.91-9.16-8.33-.26-.01-.49,0-.73,0-.23-.46-.5-.86-.8-1.17-2.33-2.33-7.92,2.8-7.92,2.8,0,0-1.4-8.86-10.26-9.32-8.86-.47-9.32,6.99-9.32,6.99-3.26-7.46-11.94-8.07-14.35-2.44-1.4,3.26-1.03,5.7-1.03,5.7,0,0-2.8-1.4-5.13-.93-2.33,.47-4.66,6.06-4.66,6.06,0,0-1.26-1.51-3.06-3.09-.42-.51-.9-.95-1.46-1.27-.08-.04-.16-.06-.24-.1-1.3-.95-2.73-1.76-4.11-2.07-3.77-.84-5.65,3.2-6,4.04-.04-.02-.08-.04-.12-.06-.19-.7-1.02-3.04-4.14-5.38-3.73-2.8-7.92,3.73-7.92,3.73,0,0-.93-5.59-4.2-7.46-3.26-1.86-8.39,4.66-8.39,4.66,0,0-3.73-5.13-9.79-2.8-6.06,2.33-4.2,8.39-4.2,8.39,0,0-6.99-5.59-9.32-1.86-1.62,2.59-.54,6.98,.27,9.41h29.08c-.03,1.93,.53,4.01,.99,5.4h109.73c.19-1.33,.23-3.11-.44-4.66Z"/><g><path class="cls-6" d="M299.94,370.98l-123.33-12.86,9.44-90.51c3.55-34.06,34.04-58.79,68.1-55.23h0c34.06,3.55,58.79,34.04,55.23,68.1l-9.44,90.51Z"/><path class="cls-6" d="M289.22,356.45l-99.12-10.34,7.94-76.09c2.85-27.37,27.36-47.25,54.73-44.39h0c27.37,2.85,47.25,27.36,44.39,54.73l-7.94,76.09Z"/><g><g><path class="cls-4" d="M224.29,288.93c-.2-.88-.33-1.43-.05-4.13l.54-5.22c.32-3.08-.6-4.33-2.98-4.58l-1.8-.19-1.41,13.53-5.22-.54,3.46-33.22,7.88,.82c5.41,.56,7.47,3.32,6.94,8.45l-.27,2.61c-.36,3.42-1.68,5.53-4.12,6.38,2.5,1.36,3.09,3.97,2.73,7.43l-.53,5.13c-.17,1.61-.24,2.81,.15,4.09l-5.32-.55Zm-2.72-29.07l-1.06,10.2,2.04,.21c1.95,.2,3.22-.53,3.5-3.19l.34-3.27c.25-2.37-.45-3.5-2.3-3.69l-2.52-.26Z"/><path class="cls-4" d="M238.01,285.28l-.52,5.03-5.03-.52,.52-5.03,5.03,.52Z"/><path class="cls-4" d="M244.74,257.48l5.22,.54-3.46,33.22-5.22-.54,3.46-33.22Z"/><path class="cls-4" d="M255.85,287.14l-.52,5.03-5.03-.52,.52-5.03,5.03,.52Z"/><path class="cls-4" d="M277.2,269.17l-.45,4.32c-.55,5.32-3.42,7.94-8.64,7.4l-2.47-.26-1.3,12.48-5.22-.54,3.46-33.22,7.69,.8c5.22,.54,7.48,3.71,6.93,9.02Zm-9.89-4.53l-1.17,11.25,2.47,.26c1.66,.17,2.64-.49,2.89-2.87l.52-4.98c.25-2.37-.57-3.23-2.24-3.4l-2.47-.26Z"/><path class="cls-4" d="M279,289.55l-.52,5.03-5.03-.52,.52-5.03,5.03,.52Z"/></g><polygon class="cls-4" points="258.73 238.18 252.79 237.56 253.41 231.62 246.93 230.94 246.31 236.88 240.37 236.26 239.69 242.74 245.63 243.36 245.01 249.3 251.49 249.98 252.11 244.04 258.05 244.66 258.73 238.18"/></g><g><g><path class="cls-6" d="M224.5,286.94c-.2-.88-.33-1.43-.05-4.13l.54-5.22c.32-3.08-.6-4.33-2.98-4.58l-1.8-.19-1.41,13.53-5.22-.54,3.46-33.22,7.88,.82c5.41,.56,7.47,3.32,6.94,8.45l-.27,2.61c-.36,3.42-1.68,5.53-4.12,6.38,2.5,1.36,3.09,3.97,2.73,7.43l-.53,5.13c-.17,1.61-.24,2.81,.15,4.09l-5.32-.55Zm-2.72-29.07l-1.06,10.2,2.04,.21c1.95,.2,3.22-.53,3.5-3.19l.34-3.27c.25-2.37-.45-3.5-2.3-3.69l-2.52-.26Z"/><path class="cls-6" d="M238.22,283.29l-.52,5.03-5.03-.52,.52-5.03,5.03,.52Z"/><path class="cls-6" d="M244.95,255.49l5.22,.54-3.46,33.22-5.22-.54,3.46-33.22Z"/><path class="cls-6" d="M256.06,285.15l-.52,5.03-5.03-.52,.52-5.03,5.03,.52Z"/><path class="cls-6" d="M277.41,267.18l-.45,4.32c-.55,5.32-3.42,7.94-8.64,7.4l-2.47-.26-1.3,12.48-5.22-.54,3.46-33.22,7.69,.8c5.22,.54,7.48,3.71,6.93,9.02Zm-9.89-4.53l-1.17,11.25,2.47,.26c1.66,.17,2.64-.49,2.89-2.87l.52-4.98c.25-2.37-.57-3.23-2.24-3.4l-2.47-.26Z"/><path class="cls-6" d="M279.21,287.56l-.52,5.03-5.03-.52,.52-5.03,5.03,.52Z"/></g><polygon class="cls-6" points="258.94 236.19 253 235.57 253.62 229.63 247.14 228.95 246.52 234.89 240.57 234.27 239.9 240.75 245.84 241.37 245.22 247.31 251.7 247.99 252.32 242.05 258.26 242.67 258.94 236.19"/></g><polyline class="cls-11" points="294.84 256.6 294.79 257.04 292.13 259.81 290.13 262.66 287.47 265.43 286.68 269.76 285.06 272.3 283.51 274.17 282.7 275.45"/><path class="cls-4" d="M302.39,245.96l-1.87,4.89-5.38,2.83-.3,2.91,2.32-1.78h1.44s1.76,1.05,2.31-.04c.55-1.1,1.44-2.73,1.78-3.27,.34-.54,.88-1.49,.88-1.49l.43-1.4-1.61-2.65Z"/><polyline class="cls-11" points="290.13 262.66 291.19 266.84 294.36 271.86 292.37 278.02 292.19 283.03"/><path class="cls-11" d="M192.44,246.49l2.83,4.99,4.51,8.18-2.14,4.47s.16,5.04,.4,5.9c.24,.87,3,6.52,3,6.52l-.33,6.33s.21,4.38,1.7,6.21c1.48,1.83,3.53,4.72,4.09,5.79,.56,1.06,2.83,4.99,2.69,6.31-.14,1.33,1.59,7.2,1.59,7.2"/><polyline class="cls-11" points="203.56 290.88 203.39 298.9 200.78 304.67 202.64 312.57 204.37 318.45"/><path class="cls-11" d="M239.58,212.19l-.52,4.97,3.07,2.67,1.14,5.15-3.14,4.36-4.39,3.56s-1.55,5.2-1.35,6.56c.19,1.36-.5,7.99-.5,7.99l-4.46,4.23"/><polygon class="cls-4" points="203.39 298.9 206.41 295.55 203.25 290.33 203.39 298.9"/></g><path class="cls-4" d="M346.52,380.94l-24.52-3.2,10.32-3.92h.01s17.31-.01,17.31-.01c.19-1.33,.23-3.11-.44-4.66-1.25-2.92-4.16,0-4.16,0,0,0,0-6.66-2.08-8.75s-7.08,2.5-7.08,2.5c0,0-1.25-7.91-9.16-8.33-.26-.01-.49,0-.73,0-.23-.46-.5-.86-.8-1.17-2.33-2.33-7.92,2.8-7.92,2.8,0,0-1.4-8.86-10.26-9.32-8.86-.47-9.32,6.99-9.32,6.99-3.26-7.46-11.94-8.07-14.35-2.44-1.4,3.26-1.03,5.7-1.03,5.7,0,0-2.8-1.4-5.13-.93-2.33,.47-4.66,6.06-4.66,6.06,0,0-1.26-1.51-3.06-3.09-.42-.51-.9-.95-1.46-1.27-.08-.04-.16-.06-.24-.1-1.3-.95-2.73-1.76-4.11-2.07-2.37-.53-3.99,.88-4.96,2.2-.63-.71-1.44-.63-2.15-.33-.41-.63-.99-1.34-1.76-2.09-.24-2.02-.75-4.47-1.88-5.59-2.08-2.08-7.08,2.5-7.08,2.5,0,0-1.25-7.91-9.16-8.33-7.91-.42-8.33,6.25-8.33,6.25-2.92-6.66-10.67-7.21-12.82-2.18-1.25,2.92-.92,5.09-.92,5.09,0,0-2.5-1.25-4.58-.83-2.08,.42-4.16,5.41-4.16,5.41,0,0-4.16-5-7.91-5.83-3.75-.83-5.41,3.75-5.41,3.75,0,0-.42-2.5-3.75-5-3.33-2.5-7.08,3.33-7.08,3.33,0,0-.83-5-3.75-6.66-2.92-1.67-7.5,4.17-7.5,4.17,0,0-3.33-4.58-8.75-2.5-5.41,2.08-3.75,7.5-3.75,7.5,0,0-6.25-5-8.33-1.67-1.36,2.18-.59,5.76,.11,7.99l-18.55,5.21,76.55-1.42-20.65,6.76h40.23l-14.6,7.48h133.82Zm-107.59-12.53s0,.05,0,.07l-.65-.07h.65Z"/><path class="cls-4" d="M321.98,386.6c-1.25-2.92-4.16,0-4.16,0,0,0,0-6.66-2.08-8.75-2.08-2.08-7.08,2.5-7.08,2.5,0,0-1.25-7.91-9.16-8.33-.26-.01-.49,0-.73,0-.23-.46-.5-.86-.8-1.17-2.33-2.33-7.92,2.8-7.92,2.8,0,0-1.4-8.86-10.26-9.32-8.86-.47-9.32,6.99-9.32,6.99-3.26-7.46-11.94-8.07-14.35-2.44-1.4,3.26-1.03,5.7-1.03,5.7,0,0-2.8-1.4-5.13-.93-2.33,.47-4.66,6.06-4.66,6.06,0,0-1.26-1.51-3.06-3.09-.42-.51-.9-.95-1.46-1.27-.08-.04-.16-.06-.24-.1-1.3-.95-2.73-1.76-4.11-2.07-3.77-.84-5.65,3.2-6,4.04-.04-.02-.08-.04-.12-.06-.19-.7-1.02-3.04-4.14-5.38-3.73-2.8-7.92,3.73-7.92,3.73,0,0-.93-5.59-4.2-7.46-3.26-1.86-8.39,4.66-8.39,4.66,0,0-3.73-5.13-9.79-2.8-6.06,2.33-4.2,8.39-4.2,8.39,0,0-6.99-5.59-9.32-1.86-1.62,2.59-.54,6.98,.27,9.42h29.08c-.03,1.93,.53,4.01,.99,5.4h109.73c.19-1.33,.23-3.11-.44-4.66Z"/><path class="cls-4" d="M246.33,382.18c-.21-1.9-.62-4.01-1.43-5.03-1.66-2.08-5.63,2.5-5.63,2.5,0,0-.99-7.91-7.28-8.33-.21-.01-.39,0-.58,0-.18-.46-.39-.86-.64-1.17-1.85-2.33-6.3,2.8-6.3,2.8,0,0-1.11-8.86-8.15-9.32-7.04-.47-7.41,6.99-7.41,6.99-2.59-7.46-9.49-8.07-11.41-2.44-1.11,3.26-.82,5.7-.82,5.7,0,0-2.22-1.4-4.08-.93s-3.71,6.06-3.71,6.06c0,0-1-1.51-2.43-3.09-.33-.51-.71-.95-1.16-1.27-.06-.04-.13-.06-.19-.1-1.03-.95-2.17-1.76-3.26-2.07-3-.84-4.49,3.2-4.77,4.04-.03-.02-.06-.04-.09-.06-.15-.7-.81-3.04-3.29-5.38-2.96-2.8-6.3,3.73-6.3,3.73,0,0-.74-5.59-3.34-7.46-2.59-1.86-6.67,4.66-6.67,4.66,0,0-2.96-5.13-7.78-2.8-4.82,2.33-3.34,8.39-3.34,8.39,0,0-5.56-5.59-7.41-1.86-.85,1.72-.76,4.23-.42,6.44h107.9Z"/><g><path class="cls-10" d="M228.86,347.61s-10.93-3.12-19.05,7.5c-8.12,10.62,0,20.3,1.25,23.43,1.25,3.12,2.81,8.12,2.81,8.12v10.62h88.71s-5.62-9.37-14.06-17.49c-8.43-8.12-10.31-8.12-15.93-8.12s-12.49-1.56-12.49-1.56c0,0-5.31-4.37-16.87-14.68-11.56-10.31-14.37-7.81-14.37-7.81Z"/><path class="cls-15" d="M211.7,385.86s-74.28,26.78-68.94,32.12c5.34,5.34,60.02,15.34,64.03,17.34s-2,5.34,1.33,9.34c3.33,4,13.5,8.87,13.5,8.87l34.95-11.91s2.24-7.63-3.77-8.96c-6-1.33-24.68,1.33-24.68,1.33l-51.35-18.01,52.69-19.34"/><path class="cls-4" d="M325.87,399.1l-15.32-9.29-.29,.02c-.25-1.97-.77-4.27-1.85-5.35-2.08-2.08-7.08,2.5-7.08,2.5,0,0-1.25-7.91-9.16-8.33-7.91-.42-8.33,6.25-8.33,6.25-2.92-6.66-10.67-7.21-12.82-2.18-1.25,2.92-.92,5.09-.92,5.09,0,0-2.5-1.25-4.58-.83s-4.16,5.41-4.16,5.41c0,0-4.16-5-7.91-5.83-3.75-.83-5.41,3.75-5.41,3.75,0,0-.42-2.5-3.75-5-3.33-2.5-7.08,3.33-7.08,3.33,0,0-.83-5-3.75-6.66-2.92-1.67-7.5,4.16-7.5,4.16,0,0-3.33-4.58-8.75-2.5-5.41,2.08-3.75,7.5-3.75,7.5,0,0-6.25-5-8.33-1.67-1.5,2.41-.4,6.54,.33,8.66h37.21l-18.48,4.2h65.47l-7.89-3.25h44.11Z"/><g><path class="cls-8" d="M259.79,323.55s1.87-4.69,3.12-4.37c1.25,.31,4.37,2.19,3.75,5.93-.62,3.75-2.81,5-2.81,7.81s1.25,3.12-1.25,3.75c-2.5,.62-2.81-7.5-2.81-13.12Z"/><path class="cls-11" d="M265.18,323.62s-3.13,1.61-2.9,4.3"/></g><g><path class="cls-8" d="M260.72,346.36s3.75,15.31,5.62,22.18c1.87,6.87,5.62,9.68,5.62,9.68,0,0-7.81,5-12.18,6.25-4.37,1.25-8.75-1.56-12.49-6.87-3.75-5.31-5-7.81-5-7.81,0,0,8.43-2.81,12.18-10.93s4.37-14.37,4.37-14.37l1.87,1.87Z"/><path class="cls-4" d="M260.64,372.91s.97-17.04,1.05-22.62c-.58-2.36-.97-3.93-.97-3.93l-1.72-1.72c-.06,0-.11,0-.17,0-.12,.97-.93,6.8-4.35,14.21-3.75,8.12-12.18,10.93-12.18,10.93,0,0,1.25,2.5,5,7.81,3.7,5.24,8,8.04,12.32,6.91l-3.3-8.26,7.91,6.38c.38-.19,.75-.38,1.13-.57l-4.7-9.14Z"/></g><g><path class="cls-8" d="M262.29,327.93s-3.49-10.55-8.42-18.18c-6.14-9.49-17.51-10.25-28.13-5.88-10.62,4.37-10.93,9.37-10.93,16.56s.31,9.37,1.87,11.56c1.56,2.19,1.56,.31,2.19,4.06,.62,3.75,0,5.31,2.81,7.5,2.81,2.19,1.87-.94,3.75,3.44s15.31,22.49,15.93,24.99c.62,2.5,3.75,4.37,9.06,2.5,5.31-1.87,9.06-2.19,9.06-8.12s-.62-7.5,1.56-13.12c2.19-5.62,3.44-9.06,3.44-11.87s-.62-5.62-.62-5.62c0,0-1.25-6.25-1.56-7.81Z"/><path class="cls-3" d="M256.73,331.51s-2.88-2.56-2.88,.78,5,10.33,5,10.33l-2.12-11.11Z"/><path class="cls-3" d="M258.85,330.29l2.67,9.33s-.33-12.33-2.67-9.33Z"/><path class="cls-3" d="M260.72,346.36l-.87-6.73,2.33,3.67s1.08,3.8-1.46,3.07Z"/><polygon class="cls-3" points="259.18 347.96 257.18 343.62 260.85 348.29 258.85 352.62 259.18 347.96"/><path class="cls-11" d="M250.24,306.96s-6.18,2.18-3.63,6.42"/><path class="cls-11" d="M249.18,335.62s8.67,11,8.67,15,1.33,6.33-.67,10.33"/><path class="cls-11" d="M240.85,365.96s7,4,12-3.67"/><path class="cls-11" d="M226.18,334.62s-1.67,4.67,.67,8.33c2.33,3.67,5.33,8.33,6.33,12.67"/><path class="cls-11" d="M239.14,324.13s5.22,3.98,9.7,0"/><path class="cls-11" d="M226.21,327.12s.99,5.47-2.98,7.96"/><path class="cls-11" d="M255.73,323.24s.94,3.44-.62,3.75c-1.56,.31-5,1.56-5,3.75s1.25,4.37,2.5,6.25c1.25,1.87,3.44,5.62,3.44,5.62"/><g><path class="cls-4" d="M251.67,345.11s-5-11.25-10.62-11.56c-5.62-.31-11.87,0-11.56,7.5,.31,7.5,4.06,7.81,5.62,12.81,1.56,5,2.81,8.43,8.43,8.43s11.25-6.25,10.62-10.93c-.62-4.69-2.5-6.25-2.5-6.25Z"/><path class="cls-10" d="M246.91,350.41s-7.4,1.8-8.8,4-1.69,4.23,4.56,3.91c6.25-.31,9.65-3.71,8.85-5.71-.8-2-3.4-2.8-4.6-2.2Z"/><path class="cls-9" d="M231.05,342.3l2.81,2.19s.94-3.44-.31-4.69c-1.25-1.25-3.75-.94-2.5,2.5Z"/><path class="cls-9" d="M236.05,335.74l.31,4.69,3.12-.31-.62-5s-2.5-.94-2.81,.62Z"/><path class="cls-9" d="M242.3,336.67l.31,3.44,2.5,.62-.94-4.06s-.62-1.87-1.87,0Z"/><path class="cls-9" d="M239.8,360.41l-.62-4.06,2.5-.62,1.25,4.06s-.62,2.19-3.12,.62Z"/><path class="cls-9" d="M246.04,359.16l-1.25-3.12,3.12-.62,.62,2.81s-.62,0-2.5,.94Z"/><path class="cls-9" d="M250.1,355.1l-1.56-2.19,2.19-1.87s2.5,1.56,2.5,2.5-1.56,2.19-3.12,1.56Z"/></g><path class="cls-4" d="M228.24,325.43s-2.19,5.31-.62,6.87,3.44,1.56,3.12-1.25c-.31-2.81,0-7.18-2.5-5.62Z"/><path class="cls-4" d="M232.3,324.8s3.12,5.31,4.37,5.62c1.25,.31,2.5-4.06,1.25-5-1.25-.94-4.69-3.12-5.62-.62Z"/><path class="cls-4" d="M233.27,319.99c4.51-1.02,10.12-.52,15.46,1.63,.82-1.66,.43-4,.43-4-1.25-2.19-8.85-7.48-14.04-5-5.74,2.74-4.71,4.38-2.83,6.57,.24,.28,.57,.55,.97,.81Z"/><path class="cls-11" d="M241.36,307c-5.62-2.19-5.93,2.5-9.37,4.69-3.44,2.19-6.56,1.25-9.68,2.5-3.12,1.25-3.75,3.75-3.75,3.75"/><path class="cls-11" d="M238.23,304.19c-1.25,.31-4.69,0-8.75,3.75"/><path class="cls-4" d="M226.44,323.51c1.25-4.17-1.13-6.57-1.45-5.94-2.19-.94-6.75,4.42-8.62,7.86-1.77,3.25,.92,5.1,3.6,6.61,1.09-2.1,3.25-5.68,6.48-8.53Z"/><path class="cls-7" d="M244.58,319.41c0,2.18-1.77,3.94-3.94,3.94s-3.94-1.77-3.94-3.94,1.77-3.94,3.94-3.94,3.94,1.77,3.94,3.94Z"/><path class="cls-7" d="M225.36,326.7c0,1.76-1.43,3.19-3.19,3.19s-3.19-1.43-3.19-3.19,1.43-3.19,3.19-3.19,3.19,1.43,3.19,3.19Z"/></g><g><g><path class="cls-8" d="M197.6,385.88s25.59-10.39,29.5-16.7c.95-1.54,7.82-9.24,.71-18.13-7.11-8.89-8.46-7.69-19.48-2.01-11.02,5.69-24.59,19.42-30.99,22.98-2.17,1.21-13.15,7.82-23.1,11.02-9.95,3.2-8.17,11.02-3.91,13.86s11.02,4.26,19.19,1.07c8.17-3.2,28.08-12.08,28.08-12.08Z"/><path class="cls-10" d="M185.54,366.52s12.13,3.93,18.56,12.13c6.42,8.21,9.28,10.35,9.28,10.35l3.57,2.5,2.14-13.92,2.5,2.85,2.5-5,2.5,5s1.43-10.71,2.5-13.56c1.07-2.85,2.5-2.85,1.43-11.06-1.07-8.21-6.42-12.13-12.85-11.06-6.42,1.07-20.34,7.14-32.12,21.77Z"/><g><g><circle class="cls-3" cx="259.8" cy="437.6" r="3.67"/><path class="cls-3" d="M266.14,439.72c9.57,4.76,15.92,8.54-2.67,2.67-1.41-.44-2.67-1.2-2.67-2.67s1.2-2.67,2.67-2.67,1.35,2.01,2.67,2.67Z"/><path class="cls-3" d="M282.03,444.42c0,1.35-11.42-2.48-12.78-2.48s-2.45-1.1-2.45-2.45,1.1-2.45,2.45-2.45,12.78,6.02,12.78,7.37Z"/><ellipse class="cls-3" cx="259.57" cy="441.61" rx="3.01" ry="2.56"/><path class="cls-3" d="M246.77,451.29c0,2.09-1.69,3.78-3.78,3.78s-3.78-1.69-3.78-3.78,1.69-3.78,3.78-3.78,3.78,1.69,3.78,3.78Z"/><path class="cls-3" d="M249.89,452.85c3.93,3.09,15.28,9.68-2.45,2.45-1.25-.51-2.45-1.1-2.45-2.45s1.1-2.45,2.45-2.45,1.38,1.61,2.45,2.45Z"/><path class="cls-3" d="M237.97,454.48c0,1.54-6.69,1.04-8.23,1.04s-2.78-1.25-2.78-2.78,1.25-2.78,2.78-2.78,8.23,2.98,8.23,4.52Z"/><path class="cls-3" d="M240.99,450.18c0,1.23-1,2.23-2.23,2.23s-2.23-1-2.23-2.23,1-2.23,2.23-2.23,2.23,1,2.23,2.23Z"/><circle class="cls-3" cx="219.84" cy="453.52" r="1.78"/><circle class="cls-3" cx="218.06" cy="453.52" r="2.56"/><path class="cls-3" d="M230.31,465.02c0,1.54-10.38-4.37-11.92-4.37s-2.78-1.25-2.78-2.78,1.25-2.78,2.78-2.78,11.92,8.4,11.92,9.94Z"/><path class="cls-3" d="M246.83,459.75c0,1.54-10.38-4.37-11.92-4.37s-2.78-1.25-2.78-2.78,1.25-2.78,2.78-2.78,11.92,8.4,11.92,9.94Z"/><path class="cls-3" d="M284.19,456.16c1.41,.62-21.45-7.42-22.99-7.42s-11.49-6.37-11.49-7.9,5.65,1.68,7.18,1.68,17,9.1,27.3,13.65Z"/><path class="cls-3" d="M279.16,464.06c1.41,.62-21.45-7.42-22.99-7.42s-11.49-6.37-11.49-7.9,5.65,1.68,7.18,1.68,17,9.1,27.3,13.65Z"/><circle class="cls-3" cx="226.24" cy="446.82" r="3.34"/><path class="cls-3" d="M253.01,439.72c0,2.58-2.09,4.67-4.67,4.67s-4.67-2.09-4.67-4.67,2.09-4.67,4.67-4.67,4.67,2.09,4.67,4.67Z"/><path class="cls-3" d="M242.55,443.39c0,2.64-2.14,4.79-4.79,4.79s-4.79-2.14-4.79-4.79,2.14-4.79,4.79-4.79,4.79,2.14,4.79,4.79Z"/><circle class="cls-3" cx="255.46" cy="439.94" r="3.34"/></g><path class="cls-8" d="M147.12,390.1s-1.77,6.79,4.27,9.99c6.04,3.2,11.37,4.62,21.32,6.4,9.95,1.78,19.19,5.33,24.88,7.11,5.69,1.78,18.48,4.98,18.48,4.98,0,0-1.07,14.93-.71,15.99,.36,1.07,3.55,5.69,3.91,8.17,.36,2.49,0,13.15,2.13,13.51s4.62,2.49,4.62-.71v-6.75c0-1.42,2.13-3.91,2.13-3.91,0,0,3.2,.71,3.2,2.84s1.07,7.11,2.13,7.11,4.62,1.07,4.62-1.42-.71-4.98-1.07-7.46-1.07-4.62-1.07-4.62c0,0,4.98,.71,7.46,3.55s3.91,5.33,3.91,6.4,.36,2.84,2.49,2.13c2.13-.71,3.55-3.2,2.84-5.33-.71-2.13-2.13-6.75-2.13-6.75l-6.4-3.91s4.62-2.49,6.04-2.84c1.42-.36,4.26-.36,5.69,2.49,1.42,2.84,2.49,3.55,2.49,3.55,0,0,1.07-4.62,0-8.17-1.07-3.55-3.91-3.91-7.82-3.91s-6.04,1.07-7.82,0c-1.78-1.07-5.69-3.91-7.82-6.04s-7.11-11.02-8.53-11.73c-1.42-.71-13.15-9.24-25.23-15.99-12.08-6.75-11.02-4.98-17.42-9.95-6.4-4.98-6.4-6.04-11.02-6.04"/><path class="cls-11" d="M165.96,386.14c6.07,.67,14.97,1.8,18.13,2.93"/><path class="cls-11" d="M159.93,385.52s.89,.08,2.34,.23"/><line class="cls-11" x1="190.43" y1="404.83" x2="187.65" y2="403.65"/><line class="cls-11" x1="216.79" y1="416.09" x2="193.55" y2="406.17"/></g></g><path class="cls-11" d="M232.53,433.26s2.89,.22,2,2.89c-.89,2.67-1.11,3.34-1.11,3.34l1.78,2.45"/><path class="cls-11" d="M238.09,431.26s3.12-.45,3.12,2v2.45l2.23,1.56"/><path class="cls-11" d="M225.63,438.83s.45,2.67,0,3.56-1.34,1.78-1.34,1.78l.22,4.9"/><path class="cls-11" d="M220.73,439.05s-.89,2.89,0,3.78,2.23,1.34,2.23,1.34"/><polyline class="cls-11" points="226.07 436.38 223.85 430.37 221.4 422.58"/><line class="cls-11" x1="236.54" y1="429.26" x2="230.52" y2="422.58"/><line class="cls-11" x1="229.19" y1="421.24" x2="227.41" y2="419.02"/></g></g></g></g><g id="Character_1"><g><ellipse class="cls-15" cx="87.52" cy="408.96" rx="62" ry="10.5"/><g><path class="cls-3" d="M15.51,151.95s-2.25,5.25,2,9.5,5.75,7.25,5.75,8.5,1.25,4,1.5,5.75,1.5,5.5,1.5,5.5l2.5-3.5,1.75,4.75s0-6.5,.75-10,.25-6.75,.25-7.5,1.5-2.75,1.5-2.75l2.25,4.5s1.75-10,2.5-11.25,4.5-7.5,2.75-11.25-14.75-9-19.25-6.5-5.75,14.25-5.75,14.25Z"/><path class="cls-3" d="M140.51,169.95s-1-6.5,1-9.25,5-4.75,5.5-6,5.75-8,5.75-8c0,0,1.25,1.75,3.25,4s4.75,3.25,4.5,6.5,3,6.75,3,6.75l1.25,4.5,1.25-10,2,2.5s0-5,.25-7.75,.75-6,.75-6c0,0-6-7.5-6.25-8.25s-19.75,2.5-21.25,2.5-6.75,4.25-7.5,5.75-.5,3.25,.5,7.5,1.5,7.25,1.75,8.75"/><g><path class="cls-6" d="M51.51,231.95v15.75s-8,47-7,54,3.5,18.5,3.5,18.5c0,0-3.75,9-3.75,13.5s.75,8.5,.75,10.5,1.25,5,0,7.25-1.75,6.25-1.75,6.25c0,0,5.25-1,5.75-2.5s.25-3,.75-4.75-.25-2,.5-1.75,4.25,4.25,4.25,4.25c0,0,3.5,2,3.5,4s1.5,9.5,1.75,10.25,.75,3,.75,3c0,0-2.25,1.5-2.25,3s2.25,2.5,2.5,5,.5,3.25,.5,3.25c0,0-.75,6.25-1,8.5s-3,9-3,9c0,0-4.75,9.25-5,11.25s4,4.75,6.5,5,10,1.75,10,1.75c0,0,5,.25,7.25-2s4.5-5.75,4.75-10-3.25-9.5-3.5-13.25,1.75-6.25,2.25-8.75,1-4.75-.5-7.25-4.5-10.25-4.5-11.75-2-10-1.75-11.25,.25-6,.25-6c0,0,2.5-.25,3.5-.25s3.5,5.5,3.5,5.5c0,0,1.75,2.5,1.75,3.75s1.75,6.25,1.75,6.25c0,0,.75-6.25,1.75-8.5,1-2.25,2.25-4,3-4.75s.75-1,.75-3.5,0-4,.5-5,.5-3,.5-3c0,0-1.75-3.25-3.5-5.75s-5.75-9.25-6.25-10.5-2-3.75-2-5.25v-3s-1-3-.25-9,9-42.5,9-42.5l3.25-4.5s5.25,11.25,6.75,14.5,8.5,21.25,9.75,24,3.5,5.75,3.25,7.75-.75,3.75-2.25,7.25-1,5-3,7.25-4,7.75-4.75,8.25-1,2-1,4.25v8.25c0,5-1,9.25-1.25,15.25s1.25,6.75-.5,9.25-2,4.75-3,5.75-1-2.75-3.75-.25-6,3.25-6.5,7.75-2.25,6.25-2,7,9.25,7.75,9.25,7.75l3.25-3s.5-.5,2,4,2.25,6.75,3.25,8,9.5,6,11.75,6.25,10.75,1.5,12,2,4.5,0,6-.25,2.75-1.5,2.25-3.25-1.5-3.75-3.75-4.75-4.25-2-6-3.75-1.25-1.25-4-4.5-3.5-3.25-4.25-4.75-1.25-2.75-1.25-3.75,.75-2.75,1.25-5.25,1-4,1-5,.5-2.25-1-2.25-1.75,0-3.25,.25-2.5,.5-2.5,.5l7.25-10.5s2-4,3-3.5,2.25,3.5,2.25,3.5c0,0,2.5,0,2.5,1.75s.25,2.75,0,3.75-.5,4.75-.5,4.75c0,0,3-4.25,3.75-5.25s1.75-3,1.75-3c0,0-1.25-1.75-1.25-3.75s-1.75-2.5,1-3.75,5-1.75,5-1.75c0,0,.5,0,.25-1.5s-2.5-1.25-2-7.75-.75-7.25,1-9.75,2.25-4,3.25-5.75,1-2.25,1.75-3.25,1-3,2.25-3,.25-2.5,2.25-10,3-9,1.5-16.5-8.25-30-11.25-37.25-10.5-39-10.5-39c0,0,1.75-5.75-2.75-14.75s-14.75-4.75-26.25,.75c-11.5,5.5-14.75,6-25.5,9.5s-15.5,7.5-15.5,10.5,.25,6.25,.25,6.25Z"/><path class="cls-3" d="M53.48,242.58s4.67-6.34,6.34-6.68,7.01,1,7.01,1c0,0-2-2.67-2.34-3.67s3.01-4.67,5.34-6.34,6.01-3.34,6.01-3.34l.91,15.65s6.1-4.3,6.77-5.3,3.67-1,3.67-2-.67-6.01-.67-7.35-.33-3.01,2.34-5.68c2.67-2.67,10.68-9.68,10.68-9.68,0,0-1.67,11.02-1.67,13.36s-.33,9.02-1,10.02-.67,4.67-.67,4.67c0,0,3.34-5.34,5.01-6.01s4.34-1.34,4.34-1.34l3.14-9.52,.2,10.19,6.21-6.02-.87-7.01s2.34,3.34,4.01,6.34c1.67,3.01,3.67,6.68,3.67,6.68l.67,3.34,1.67-7.01-7.01-20.7s-8.68-4.67-17.36-1-33.06,13.36-36.06,14.69-10.02,9.35-10.02,9.35l-2.34,5.01,.67,10.35,1.34-2Z"/><g><path class="cls-11" d="M90.26,256.7s7.25-3.75,14.75-7.5"/><path class="cls-11" d="M114.87,250.15c1.67-.28,3.19-.45,4.39-.45"/><path class="cls-11" d="M97.01,254.7s7.77-2.47,14.64-3.93"/><path class="cls-11" d="M67.99,244.95c4.38,1.74,10.06,4.34,13.52,7.25"/><path class="cls-11" d="M61.76,242.7s1,.31,2.58,.88"/><path class="cls-11" d="M69.26,247.7s11.25,6.5,13.25,8.5"/><path class="cls-11" d="M76.76,239.2s5,5,7.25,10.75"/><path class="cls-11" d="M112.67,237.37c-3.02,2.6-6.59,5.65-8.41,7.08"/><path class="cls-11" d="M117.76,232.95s-.6,.52-1.55,1.36"/></g></g><g><path class="cls-10" d="M73.11,84.74s-3.21,3.53-10.9,6.41-12.51,1.6-18.6,5.45c-6.09,3.85-7.7,12.51-8.98,14.75-1.28,2.24-13.15,22.12-13.15,22.12,0,0,7.37,6.73,10.9,10.58,3.53,3.85,4.49,5.77,4.81,8.02,.32,2.24,.32,4.49,.64,6.73,.32,2.24,0,7.7,0,7.7,0,0,3.53-6.73,4.17-8.34s3.21-10.9,3.21-10.9c0,0,4.81,55.79,2.89,61.88s-5.13,13.79-8.02,16.35c-2.89,2.57-1.6,2.57-.32,3.85s1.28,2.24,1.28,3.85-.64,4.81-.96,6.09c-.32,1.28,0,8.66,0,8.66l.32,6.41,.64,6.41s3.21-8.02,3.85-8.98c.64-.96,4.49-5.13,4.49-5.13v-6.41c0-2.24-.64-2.57,3.53-4.17,4.17-1.6,5.45-1.92,5.45-1.92,0,0,1.92-.32,2.89-2.57s5.13-5.13,6.09-5.77c.96-.64,5.45-2.24,6.73-3.85,1.28-1.6,1.28,2.89,1.28,4.81s-2.24,15.39-2.24,15.39l2.24-2.89s3.85-5.13,5.45-6.09c1.6-.96,4.49,0,4.49-2.57s-1.6-5.13-.96-6.73c.64-1.6,2.89-2.57,3.85-3.85,.96-1.28-.96,3.53,1.92-1.6,2.89-5.13,6.09-5.77,7.05-6.73,.96-.96,5.13-1.28,5.13-1.28,0,0-2.24,7.7-3.53,9.94s-4.17,9.62-4.17,9.62v7.05s4.49-5.77,5.45-6.73c.96-.96,4.49-1.28,4.49-1.28,0,0,2.24-3.85,2.24-5.45s-.96-7.05-.96-7.05c0,0,2.57,2.57,2.89,3.85,.32,1.28,.32,3.53,.64,5.13,.32,1.6,.64,5.13,1.6,3.85,.96-1.28,4.17-4.81,4.17-4.81,0,0-.96-2.89-.96-3.85s0-4.17,1.92-5.45c1.92-1.28,2.57,1.6,3.21,4.49s2.89,7.05,2.89,9.3v8.66s2.24-3.85,3.21-3.85,2.57-.32,3.53,.96c.96,1.28,4.81,6.09,4.81,6.09,0,0-1.92-5.77-3.53-9.3-1.6-3.53-3.21-6.41-3.21-8.66v-7.37c0-2.89-.96-31.42-.96-39.76s-.64-12.51,0-15.39,.64-15.07,.64-15.07c0,0,5.77,11.22,6.09,13.15,.32,1.92-.64,5.45-.64,5.45l-1.28,1.92s3.53-1.28,4.81,1.28c1.28,2.57,2.89,6.41,2.89,6.41l3.21,1.28s-.32-6.73-1.28-9.94c-.96-3.21-2.57-9.94-2.89-11.22-.32-1.28-1.6-.64-.64-3.21,.96-2.57,.96-3.85,2.57-5.77,1.6-1.92,5.77-31.74,5.77-31.74,0,0-7.05-5.77-10.58-11.54-3.53-5.77-7.7-9.94-13.47-12.18-5.77-2.24-11.86-3.85-19.56-3.85h-27.25"/><g><path class="cls-11" d="M45.21,147.27s3.05-8.32,4.55-13.07,3.25-10.25,3.5-11"/><path class="cls-11" d="M126.66,145.34s1.1-1.64-3.15-6.89-8.75-7.25-10.25-9.25"/><path class="cls-11" d="M77.17,166.05c4.95,2.14,10.64,4.51,14.59,5.9,8.5,3,19.75,.25,23.25-3.75"/><path class="cls-11" d="M66.76,161.45s1.8,.82,4.52,2.02"/><path class="cls-11" d="M90.59,181.83c-8.59,.73-12.23-4.28-22.57-8.38"/><path class="cls-11" d="M117.01,169.95s-2,4-17.75,9.75c-.04,.01-.08,.03-.12,.04"/><path class="cls-11" d="M76.31,208.61c-2.13,1.4-3.74,2.52-4.3,3.09"/><path class="cls-11" d="M108.05,184.42c-5.6,5.31-11.74,11.11-12.78,12.02-1.12,.98-7.61,4.97-13.49,8.67"/><path class="cls-11" d="M117.76,175.2s-2.27,2.16-5.37,5.11"/><path class="cls-11" d="M62.97,193.2c4.2,1.47,8.88,2.87,11.29,2.74,5-.25,22.75-11.5,22.75-11.5"/><path class="cls-11" d="M54.51,189.95s1.53,.65,3.76,1.52"/><path class="cls-11" d="M125.76,141.45s-12-5.5-12.75-6"/><path class="cls-11" d="M45.76,145.45s4.75-9,6.25-10.5"/></g></g><g><path class="cls-8" d="M70.87,86.66v13.47c0,7.05,6.41,19.24,11.22,25.65,4.81,6.41,7.05,8.02,7.05,8.02,0,0,7.05-15.39,8.98-20.2,1.92-4.81,3.53-8.98,3.53-14.11s-2.24-14.75-2.24-14.75c0,0-6.41,3.21-14.43,2.89-8.02-.32-14.43-2.57-14.43-2.57l.32,1.6Z"/><path class="cls-4" d="M71.57,89.52l3.35,12.38,2.84-1.55s1.03,1.29,2.84,3.1,5.16,4.39,5.16,4.39l1.03,4.13,2.84-6.97,5.16-2.32,2.58,3.35,3.87-11.61-3.35-4.9-28.12-3.87,1.81,3.87Z"/><path class="cls-11" d="M74.71,93.4s1.28,7.05,0,13.15"/><path class="cls-11" d="M96.2,99.81s1.28,6.09,1.6,9.94"/><path class="cls-11" d="M86.58,102.7v11.86"/><path class="cls-11" d="M77.28,115.52s6.09-.96,7.7,.64c1.6,1.6,2.89,4.17,2.89,4.17,0,0,2.89-4.49,3.85-4.49h3.21"/></g><g><path class="cls-8" d="M61.57,56.84s-4.17-6.73-6.09-2.24c-1.92,4.49,5.13,13.47,5.13,13.47,0,0,1.6-6.41,.96-11.22Z"/><path class="cls-8" d="M108.06,53.96s3.53-6.41,6.09-1.92c2.57,4.49-1.92,12.18-1.92,12.18,0,0-4.81-8.98-4.17-10.26Z"/><path class="cls-8" d="M108.06,51.39s-.96-13.15-2.89-19.88c-1.92-6.73-13.15-9.94-26.61-8.02-13.47,1.92-17.64,9.94-17.64,16.35s1.28,16.99,.32,21.16-3.21,9.62-.32,13.15c2.89,3.53,6.41,3.53,6.41,3.53,0,0,0,9.62,2.89,11.22,2.89,1.6,6.41,5.45,8.66,9.3,2.24,3.85,6.41,5.13,13.15,3.21,6.73-1.92,8.66-5.13,10.26-8.34,1.6-3.21,3.21-3.53,3.53-8.66,.32-5.13,.32-9.3,.32-9.3,0,0,4.81-1.28,6.09-5.77,1.28-4.49,1.92-7.37,.32-9.94-1.6-2.57-4.49-5.13-4.49-8.02Z"/><path class="cls-7" d="M79.84,53.96c0,2.48-2.01,4.49-4.49,4.49s-4.49-2.01-4.49-4.49,2.01-4.49,4.49-4.49,4.49,2.01,4.49,4.49Z"/><circle class="cls-7" cx="96.52" cy="53.96" r="6.41"/><path class="cls-4" d="M85.3,60.37s-4.49,4.81-2.89,6.09c1.6,1.28,2.57-.32,2.89-6.09Z"/><path class="cls-4" d="M87.19,60.37s4.49,4.81,2.89,6.09c-1.6,1.28-2.57-.32-2.89-6.09Z"/><path class="cls-11" d="M80.49,57.16s-.32,11.54-10.9,8.02"/><path class="cls-11" d="M90.75,58.77s2.24,7.05,9.94,7.05"/><path class="cls-11" d="M80.16,63.9s-.32,6.09-7.37,7.7"/><path class="cls-11" d="M88.82,45.62s1.28,.96,3.53,0,4.81-2.89,8.02-2.24c3.21,.64,4.81,3.21,4.81,3.21"/><path class="cls-11" d="M84.65,41.13s-.64,3.85,1.92,5.45"/><path class="cls-11" d="M99.4,62.94s5.13,.32,5.77-4.49"/><path class="cls-11" d="M68.94,58.77s1.6,4.49,7.7,3.21"/><path class="cls-11" d="M67.66,75.44s7.37,.96,7.37,3.21,.96,11.22,1.6,12.83"/><path class="cls-4" d="M77.28,82.82s2.24-4.81,9.94-5.77c7.7-.96,11.86,5.45,10.26,6.73-1.6,1.28-2.89-2.89-9.3-.96-6.41,1.92-12.51,3.85-10.9,0Z"/><path class="cls-11" d="M106.14,75.12c-1.28,0-6.41,2.24-6.41,5.45s1.92,9.3,.96,12.18"/><path class="cls-11" d="M91.71,63.26s2.89,8.34,9.94,8.98"/><path class="cls-11" d="M65.74,51.39s3.53-2.57,8.66-3.85,7.7,1.6,8.34-3.21"/><path class="cls-11" d="M76,39.21s4.49-1.92,8.34-2.24c3.85-.32,8.02-.32,8.02-.32"/><path class="cls-11" d="M76.96,33.76s6.73-.64,10.26,.32"/><path class="cls-3" d="M102.61,39.75c.76-.55,1.54-.74,2.31-.84,.77-.12,1.53,.19,2.28,.34,.76,.14,1.51,.33,2.26,.56,.74,.25,1.49,.5,2.16,.91l-.07,.19c-.75-.1-1.49-.13-2.24-.11-.75,0-1.49,.02-2.24,.05-.75,.02-1.5,.24-2.24,.06-.74-.16-1.47-.4-2.22-.95v-.2Z"/><path class="cls-3" d="M101.29,33.34c.58-.78,1.29-1.22,2.04-1.58,.74-.36,1.6-.31,2.41-.41,.81-.09,1.63-.15,2.45-.15,.82,.02,1.64,.05,2.44,.2v.2c-.79,.17-1.55,.35-2.3,.59-.75,.23-1.5,.47-2.24,.72-.74,.25-1.42,.7-2.21,.77-.79,.08-1.59,.1-2.51-.16l-.07-.19Z"/><path class="cls-3" d="M97.41,25.03c.02-.78,.28-1.31,.59-1.78,.3-.48,.88-.66,1.34-.98,.46-.31,.93-.61,1.41-.9,.49-.28,.97-.57,1.48-.83l.14,.15c-.29,.49-.62,.94-.93,1.41-.32,.46-.65,.91-1,1.34-.34,.44-.56,1-1.07,1.27-.49,.28-1.04,.49-1.82,.46l-.14-.15Z"/><path class="cls-3" d="M77.18,26.72c-.85-1.84-.32-4.19,.97-5.84,.64-.85,1.48-1.48,2.37-1.97,.91-.48,1.79-.82,2.69-1.16,1.79-.68,3.62-1.18,5.46-1.58,1.85-.37,3.71-.66,5.58-.79l.03,.2c-1.81,.44-3.6,.94-5.34,1.55-1.75,.59-3.47,1.26-5.09,2.08-1.65,.83-3.04,1.84-4.19,2.98-1.15,1.14-1.99,2.62-2.29,4.49l-.2,.04Z"/><path class="cls-3" d="M83.63,24.06c.12-.79,.44-1.3,.82-1.76,.36-.46,.98-.6,1.48-.88,.5-.28,1.02-.55,1.54-.8,.54-.24,1.05-.5,1.61-.72l.12,.16c-.36,.47-.75,.91-1.12,1.36-.38,.44-.78,.87-1.18,1.28-.4,.41-.7,.97-1.24,1.2-.54,.24-1.12,.42-1.91,.33l-.12-.16Z"/><path class="cls-3" d="M65.41,30.33c-.67,.55-1.34,.77-2,.9-.67,.15-1.34-.12-2-.2-.67-.08-1.34-.18-2-.3-.67-.13-1.34-.24-2-.4v-.2c.67-.16,1.34-.27,2-.4,.67-.12,1.34-.22,2-.3,.67-.08,1.34-.35,2-.2,.67,.13,1.34,.35,2,.9v.2Z"/><path class="cls-3" d="M63.55,34.48c-.75,1.14-1.78,1.92-2.88,2.56-1.09,.66-2.45,.85-3.64,1.09-1.13,.24-2.25,.65-3.36,1.11-1.11,.46-2.2,1.03-3.26,1.64l-.12-.16c.88-.88,1.87-1.64,2.9-2.36,1.05-.7,2.16-1.32,3.39-1.77,1.17-.41,2.13-1.03,3.28-1.38,1.13-.36,2.28-.72,3.59-.9l.11,.17Z"/><path class="cls-3" d="M62.86,45.4c-.48,.63-1.01,.92-1.56,1.13-.54,.23-1.14,.05-1.71,.04-.57,0-1.15-.02-1.73-.06-.58-.05-1.16-.08-1.74-.16l-.03-.2c.54-.24,1.08-.42,1.63-.64,.54-.2,1.09-.37,1.64-.54,.55-.16,1.07-.5,1.66-.44,.58,.05,1.17,.18,1.81,.65l.03,.2Z"/></g><g><path class="cls-8" d="M25.01,111.03s-5,11.92-10,17.92-8.75,10.5-7.5,14,5,11.5,7.25,14,5.5,1.5,6.75,1,4.5-3,6.75-3.5,8.25-4.75,8.25-8.25-2.25-12.25-1.75-14.5,10.25-23.25,10.25-23.25l-17.5-2-2.5,4.58Z"/><line class="cls-11" x1="36.03" y1="119.35" x2="28.76" y2="134.2"/><line class="cls-11" x1="22.01" y1="155.7" x2="26.01" y2="145.7"/></g><g><path class="cls-8" d="M148.52,111.03s5,11.92,10,17.92,8.75,10.5,7.5,14-5,11.5-7.25,14-5.5,1.5-6.75,1-4.5-3-6.75-3.5-8.25-4.75-8.25-8.25,2.25-12.25,1.75-14.5-10.25-23.25-10.25-23.25l17.5-2,2.5,4.58Z"/><line class="cls-11" x1="137.5" y1="119.35" x2="144.77" y2="134.2"/><line class="cls-11" x1="151.52" y1="155.7" x2="147.52" y2="145.7"/></g><g><path class="cls-8" d="M37.32,92.92s-2.9-3.22-5.32-5.64-5.8-.81-6.28-.64,1.93,6.77,2.42,7.09c.48,.32-1.13,6.12-1.13,7.09s.81,2.26,0,2.26-3.83-.91-5-1.13c-1.17-.21-2.9,1.29-3.54,1.61-.64,.32,1.77,4.67,1.77,4.67,0,0,5.64,6.93,7.25,8.38,1.61,1.45,6.28,4.19,8.54,2.74s4.19-7.09,6.93-7.41,5.48,.64,8.06-.81c2.58-1.45,6.12-6.61,6.12-6.61,0,0-1.29,5.16-1.61,5.96-.32,.81,.64,2.74,1.77,2.9,1.13,.16,3.71,1.29,4.35,.48,.64-.81,2.58-9.67,3.71-12.57,1.13-2.9,.16-5.96-2.58-6.12-2.74-.16-7.57,.16-8.54,.16s-3.55,0-6.61-3.38c-3.06-3.38-6.77-7.41-6.77-7.41l-5.32,.16,1.77,8.22Z"/><path class="cls-8" d="M41.05,77.68s3.85,15.71,3.85,17.96-7.7,2.89-7.7,2.89c0,0-2.24-10.26-2.89-12.51-.64-2.24-3.21-9.94,.32-11.22,3.53-1.28,5.13-.96,6.41,2.89Z"/><path class="cls-8" d="M29.18,86.34c-1.6,0-7.05,.64-8.02,3.85-.96,3.21,3.53,8.34,3.85,12.18,.32,3.85,0,7.37,4.17,8.66,4.17,1.28,6.09,.64,5.13-2.89-.96-3.53-3.85-18.92-3.85-18.92"/><path class="cls-8" d="M18.6,112.31s-1.28,2.89-3.21,4.81-2.89,2.89-1.6,5.45c1.28,2.57,2.57,7.7,4.49,5.45s2.89-1.92,1.92-4.49c-.96-2.57-1.28-4.49-1.28-4.49l3.53-4.17-3.85-2.57Z"/><path class="cls-8" d="M22.01,101.95s-7.9,3.31-7.26,4.6,2.89,3.85,3.85,5.77c.96,1.92,2.57,6.41,4.49,7.7,1.92,1.28,7.05-1.92,5.77-3.53-1.28-1.6-2.89-2.89-3.85-5.45-.96-2.57-2.24-6.73-2.24-8.02"/></g><g><path class="cls-8" d="M142.21,92.92s2.9-3.22,5.32-5.64c2.42-2.42,5.8-.81,6.28-.64s-1.93,6.77-2.42,7.09c-.48,.32,1.13,6.12,1.13,7.09s-.81,2.26,0,2.26,3.83-.91,5-1.13c1.17-.21,2.9,1.29,3.54,1.61,.64,.32-1.77,4.67-1.77,4.67,0,0-5.64,6.93-7.25,8.38-1.61,1.45-6.28,4.19-8.54,2.74s-4.19-7.09-6.93-7.41-5.48,.64-8.06-.81c-2.58-1.45-6.12-6.61-6.12-6.61,0,0,1.29,5.16,1.61,5.96,.32,.81-.64,2.74-1.77,2.9-1.13,.16-3.71,1.29-4.35,.48-.64-.81-2.58-9.67-3.71-12.57-1.13-2.9-.16-5.96,2.58-6.12,2.74-.16,7.57,.16,8.54,.16s3.54,0,6.61-3.38c3.06-3.38,6.77-7.41,6.77-7.41l5.32,.16-1.77,8.22Z"/><path class="cls-8" d="M138.48,77.68s-3.85,15.71-3.85,17.96,7.7,2.89,7.7,2.89c0,0,2.24-10.26,2.89-12.51,.64-2.24,3.21-9.94-.32-11.22-3.53-1.28-5.13-.96-6.41,2.89Z"/><path class="cls-8" d="M150.34,86.34c1.6,0,7.05,.64,8.02,3.85,.96,3.21-3.53,8.34-3.85,12.18-.32,3.85,0,7.37-4.17,8.66-4.17,1.28-6.09,.64-5.13-2.89,.96-3.53,3.85-18.92,3.85-18.92"/><path class="cls-8" d="M160.92,112.31s1.28,2.89,3.21,4.81,2.89,2.89,1.6,5.45c-1.28,2.57-2.57,7.7-4.49,5.45s-2.89-1.92-1.92-4.49c.96-2.57,1.28-4.49,1.28-4.49l-3.53-4.17,3.85-2.57Z"/><path class="cls-8" d="M157.51,101.95s7.9,3.31,7.26,4.6-2.89,3.85-3.85,5.77c-.96,1.92-2.57,6.41-4.49,7.7-1.92,1.28-7.05-1.92-5.77-3.53,1.28-1.6,2.89-2.89,3.85-5.45,.96-2.57,2.24-6.73,2.24-8.02"/></g><g><path class="cls-3" d="M68.76,416.95s5,.25,7.25-2,4.5-5.75,4.75-10-3.25-9.5-3.5-13.25,1.75-6.25,2.25-8.75,1-4.75-.5-7.25-4.5-10.25-4.5-11.75-2-10-1.75-11.25,.25-6,.25-6c0,0,2.5-.25,3.5-.25s3.5,5.5,3.5,5.5c0,0,1.75,2.5,1.75,3.75s1.75,6.25,1.75,6.25c0,0,.75-6.25,1.75-8.5,1-2.25,2.25-4,3-4.75s.75-1,.75-3.5,0-4,.5-5,.5-3,.5-3c0,0-1.75-3.25-3.5-5.75s-5.75-9.25-6.25-10.5-2-3.75-2-5.25v-3s-1-3-.25-9c-2.51,2.74-3.49-3.74-5.49-.74s-2.5,7.5-2.5,12.5-4.5,5-7.5,5-8.5-1.5-11.5-3.5-4.5-5-4.5-5l-.17,.16c.87,4.43,1.66,8.08,1.66,8.08,0,0-3.75,9-3.75,13.5s.75,8.5,.75,10.5,1.25,5,0,7.25-1.75,6.25-1.75,6.25c0,0,5.25-1,5.75-2.5s.25-3,.75-4.75-.25-2,.5-1.75,4.25,4.25,4.25,4.25c0,0,3.5,2,3.5,4s1.5,9.5,1.75,10.25,.75,3,.75,3c0,0-2.25,1.5-2.25,3s2.25,2.5,2.5,5,.5,3.25,.5,3.25c0,0-.75,6.25-1,8.5s-3,9-3,9c0,0-4.75,9.25-5,11.25s4,4.75,6.5,5,10,1.75,10,1.75Z"/><path class="cls-9" d="M82.01,382.95c.05-.2,.08-.43,.1-.68-.11,.29-.16,.51-.1,.68Z"/></g><path class="cls-3" d="M123.51,407.95c1.25,.5,4.5,0,6-.25s2.75-1.5,2.25-3.25-1.5-3.75-3.75-4.75-4.25-2-6-3.75-1.25-1.25-4-4.5-3.5-3.25-4.25-4.75-1.25-2.75-1.25-3.75,.75-2.75,1.25-5.25,1-4,1-5,.5-2.25-1-2.25-1.75,0-3.25,.25-2.5,.5-2.5,.5l7.25-10.5s2-4,3-3.5,2.25,3.5,2.25,3.5c0,0,2.5,0,2.5,1.75s.25,2.75,0,3.75-.5,4.75-.5,4.75c0,0,3-4.25,3.75-5.25s1.75-3,1.75-3c0,0-1.25-1.75-1.25-3.75s-1.75-2.5,1-3.75,5-1.75,5-1.75c0,0,.5,0,.25-1.5s-2.5-1.25-2-7.75-.75-7.25,1-9.75,2.25-4,3.25-5.75,1-2.25,1.75-3.25,1-3,2.25-3,.25-2.5,2.25-10c1.68-6.3,2.65-8.38,2.03-13.33-.81,1.1-1.66,2.1-2.52,2.84-3.5,3-6.5-6-10-9s-23-23-23-23l14,24.5s-7.5-5-9.5-7.5c-1.69-2.12-15.59-19.66-19.79-24.98,1.58,3.39,3.48,7.46,4.29,9.22,1.5,3.25,8.5,21.25,9.75,24s3.5,5.75,3.25,7.75-.75,3.75-2.25,7.25-1,5-3,7.25-4,7.75-4.75,8.25-1,2-1,4.25v8.25c0,5-1,9.25-1.25,15.25s1.25,6.75-.5,9.25-2,4.75-3,5.75-1-2.75-3.75-.25-6,3.25-6.5,7.75-2.25,6.25-2,7,9.25,7.75,9.25,7.75l3.25-3s.5-.5,2,4,2.25,6.75,3.25,8,9.5,6,11.75,6.25,10.75,1.5,12,2Z"/></g></g></g></svg>